<svg viewBox="0 0 100 100" version="1.1" xmlns="http://www.w3.org/2000/svg" xmlns:xlink="http://www.w3.org/1999/xlink">
    <title>Sports/Resources/Courts/Field hockey</title>
    <defs>
        <path d="M90.9077218,0.00276856423 C93.325523,-0.0580578536 95.6893433,0.885827331 97.3979593,2.59463895 C100.595942,5.79262209 100.876018,10.8627289 98.0508165,14.3932038 L98.0508165,14.3932038 L35.3917828,93.8276159 L35.264458,93.9539627 C31.2608671,97.9207839 26.1201547,100.000226 20.8237579,100.000226 C18.1237299,100.000226 15.3845853,99.4602204 12.7326708,98.3547834 C4.87882634,95.0803271 5.96855898e-13,87.7602296 5.96855898e-13,79.2513765 L5.96855898e-13,79.2513765 L0.00136908336,79.1600391 C0.0844920016,76.496194 1.09663577,72.8599086 3.00983197,68.3519083 C4.28601325,65.343641 7.09987072,63.32659 10.3530084,63.0879784 C12.7258254,62.9141048 15.0080874,63.6938955 16.7783122,65.2837925 C18.5438429,66.8693866 19.5604851,69.0472071 19.6410655,71.4161124 C19.6813556,72.6003695 19.8315636,73.8847653 20.0883646,75.2464165 L20.0883646,75.2464165 L84.545787,2.93651862 C86.1773432,1.12874184 88.4916809,0.0645728987 90.9077218,0.00276856423 Z M62.4706869,73.4994661 C69.7723997,73.4994661 75.7128524,79.4399188 75.7128524,86.7418271 C75.7128524,94.0437355 69.7723997,99.9841881 62.4706869,99.9841881 C55.1687786,99.9841881 49.2283259,94.0437355 49.2283259,86.7418271 C49.2283259,79.4399188 55.1687786,73.4994661 62.4706869,73.4994661 Z M62.4706869,79.3667707 C58.4041182,79.3667707 55.0958261,82.6750628 55.0958261,86.7416316 C55.0958261,90.8082003 58.4041182,94.1164925 62.4706869,94.1164925 C66.5370601,94.1164925 69.8453523,90.8082003 69.8453523,86.7416316 C69.8453523,82.6750628 66.5370601,79.3667707 62.4706869,79.3667707 Z M51.7398116,48.5569187 L23.3655589,80.3879113 L23.2184803,80.5144537 C21.7960027,81.7388054 19.8833932,82.1176503 18.1020202,81.5281621 C16.3184957,80.937696 15.0075006,79.4899882 14.5956021,77.6552209 C14.1158362,75.5171038 13.8404548,73.4851886 13.7768903,71.6156074 C13.7510733,70.8567441 13.4244491,70.1585116 12.8576486,69.6492126 C12.2857629,69.1358063 11.5505651,68.8835038 10.7821182,68.9400274 C9.73300919,69.0168916 8.82452459,69.6699444 8.41125699,70.6439494 C6.84091838,74.3443862 5.93869245,77.414849 5.8676957,79.2992944 C5.88842753,86.5587611 10.5900554,91.1043135 14.9906805,92.9390808 C19.366662,94.7632865 25.8545525,94.913299 31.0118895,89.9063655 L31.0118895,89.9063655 L58.3861245,55.2032317 L51.7398116,48.5569187 Z M59.5881797,39.7523437 L55.6505004,44.1697889 L62.0452932,50.5645817 L65.7294965,45.893856 L59.5881797,39.7523437 Z M67.4537592,30.9282102 L63.498673,35.3652138 L69.3884696,41.255206 L73.0891019,36.5637485 L67.4537592,30.9282102 Z M75.4273007,21.9837931 L71.3646436,26.541276 L76.7484661,31.9252941 L80.5498239,27.1063163 L75.4273007,21.9837931 Z M83.2928802,13.1596596 L79.3377939,17.5964677 L84.2087969,22.4672751 L87.9094293,17.7760132 L83.2928802,13.1596596 Z M91.0575387,5.86831284 C90.2296344,5.88963143 89.468424,6.2397256 88.9135541,6.85444403 L88.9135541,6.85444403 L87.203569,8.7727254 L91.5684023,13.1375587 L93.4669298,10.7307102 C94.4235279,9.53843416 94.3296479,7.8243418 93.24905,6.74354828 C92.6634734,6.15777618 91.8830959,5.84679868 91.0575387,5.86831284 Z" id="path-1"></path>
    </defs>
    <g id="Sports/Resources/Courts/Field-hockey" stroke="none" stroke-width="1" fill="none" fill-rule="evenodd">
        <mask id="mask-2" fill="white">
            <use xlink:href="#path-1"></use>
        </mask>
        <use id="Combined-Shape" fill="#000000" fill-rule="nonzero" opacity="0" xlink:href="#path-1"></use>
        <g id="Group" mask="url(#mask-2)" fill="#000000">
            <g id="Colour/Black">
                <rect id="Rectangle" x="0" y="0" width="100" height="100"></rect>
            </g>
        </g>
    </g>
</svg>
