<svg viewBox="0 0 100 100" version="1.1" xmlns="http://www.w3.org/2000/svg" xmlns:xlink="http://www.w3.org/1999/xlink">
    <title>Sports/Resources/Courts/Cricket</title>
    <defs>
        <path d="M84.9927246,2.57126465 C88.4210449,-0.856860347 93.9997559,-0.857250972 97.4284668,2.57106934 C100.857178,5.99997559 100.857178,11.5786865 97.4284668,15.0072022 L97.4284668,15.0072022 L79.0466309,33.3892334 C76.7538574,35.6822022 76.7542481,39.392749 79.0466309,41.6847412 C80.1731934,42.8113037 80.2022949,44.6724365 79.0466309,45.8281006 L79.0466309,45.8281006 L78.7981942,46.0765207 C78.5904327,46.2842736 78.2688741,46.6058245 77.8457087,47.0289831 L76.9769088,47.8977716 C76.8687677,48.0059115 76.756855,48.1178231 76.6412681,48.2334089 L74.6440915,50.2305714 C74.1944196,50.6802409 73.7160685,51.1585898 73.2116715,51.662985 L71.6229755,53.251676 C71.2537382,53.6209124 70.8740952,54.0005546 70.4848267,54.3898224 L68.0399502,56.8346956 C67.8276252,57.0470204 67.6132839,57.2613615 67.3970238,57.4776215 L63.3181798,61.5564653 C61.9035325,62.9711131 60.4408743,64.4337726 58.95127,65.9233786 L55.1833121,69.691342 C54.6766834,70.1979715 54.1690112,70.7056446 53.6610757,71.2135811 L50.6165432,74.2581197 C50.1106748,74.7639891 49.6061035,75.2685616 49.1036093,75.7710569 L46.8590395,78.015632 C46.3645322,78.5101405 45.8732724,79.0014015 45.3860402,79.488635 L41.8195071,83.0551777 C41.3572892,83.5173969 40.9010494,83.973638 40.4515678,84.4231209 L37.2193635,87.6553349 C35.986921,88.8877812 34.832857,90.0418489 33.7782362,91.0964732 L32.2735206,92.6011937 C31.1652908,93.7094272 30.2067503,94.6679711 29.4313492,95.4433748 L28.8123504,96.0623758 C28.5260564,96.3486708 28.2751557,96.5995724 28.0622814,96.8124474 L27.5403707,97.3343599 C27.3614527,97.5132784 27.2548184,97.6199131 27.226709,97.6480225 C24.0905762,100.784546 19.0144043,100.783765 15.8786621,97.6480225 L15.8786621,97.6480225 L2.35209962,84.1210693 C-0.784423819,80.9849365 -0.783642569,75.9087647 2.35209962,72.7730225 L2.35209962,72.7730225 L54.1720215,20.9532959 C55.320459,19.8048584 57.1806152,19.8185303 58.3153809,20.9532959 C60.607959,23.2462647 64.3185059,23.2456787 66.6108887,20.9532959 L66.6108887,20.9532959 Z M61.8114746,79.8257568 C66.4183106,75.2181397 73.9153809,75.2181397 78.5228027,79.8257568 C83.129834,84.4331787 83.129834,91.9300537 78.5228027,96.5372803 C73.9153809,101.144897 66.4179199,101.144116 61.8114746,96.5372803 C57.1925293,91.9187256 57.1935059,84.443335 61.8114746,79.8257568 Z M74.3794434,83.9689209 C72.0565918,81.6460693 68.2770996,81.64646 65.9546387,83.9689209 C63.6263184,86.2972412 63.6265137,90.0657959 65.9546387,92.3939209 C68.2774902,94.7167725 72.0565918,94.7169678 74.3794434,92.3939209 C76.7020996,90.0710693 76.7020996,86.2917725 74.3794434,83.9689209 Z M40.6081543,42.8034912 L7.20346681,76.208374 L19.8032715,77.608374 C21.1651856,77.7595459 22.2403809,78.8347412 22.3915527,80.1966553 L22.3915527,80.1966553 L23.7915527,92.79646 L57.1931152,59.3948975 L46.6585449,54.8800537 C45.9667481,54.5835693 45.4157715,54.0322022 45.1194824,53.3404053 L45.1194824,53.3404053 L40.6081543,42.8034912 Z M8.79897462,82.2812256 L17.7187012,91.2011475 L16.826709,83.1732178 L8.79897462,82.2812256 Z M49.0390137,34.3726318 L45.0712402,38.3404053 L50.0444824,49.9560303 L61.6556152,54.9323975 L65.6239746,50.9640381 L55.0894043,46.4491943 C54.3976074,46.15271 53.8466309,45.6013428 53.5503418,44.9095459 L53.5503418,44.9095459 L49.0390137,34.3726318 Z M56.2435059,27.1681397 L53.5020996,29.9095459 L58.4753418,41.5251709 L70.0864746,46.5015381 L72.8317871,43.7564209 L56.2435059,27.1681397 Z M70.8571777,24.993335 C70.8124512,25.0279053 68.7599121,27.2657959 65.4958496,28.13396 L65.4958496,28.13396 L71.8659668,34.5040772 C72.6254602,31.6485611 74.2935796,29.8614047 74.8355611,29.3154825 L74.9929594,29.1580137 L74.9929594,29.1580137 L75.0065918,29.142749 Z M93.2851074,6.71442872 C92.1411621,5.5704834 90.279834,5.5704834 89.1358887,6.71442872 L89.1358887,6.71442872 L75.0003418,20.8499756 L79.1497559,24.9993897 L93.2853027,10.8638428 C94.4292481,9.71989747 94.4292481,7.85856934 93.2851074,6.71442872 Z" id="path-1"></path>
    </defs>
    <g id="Sports/Resources/Courts/Cricket" stroke="none" stroke-width="1" fill="none" fill-rule="evenodd">
        <mask id="mask-2" fill="white">
            <use xlink:href="#path-1"></use>
        </mask>
        <use id="Combined-Shape" fill="#000000" fill-rule="nonzero" opacity="0" xlink:href="#path-1"></use>
        <g id="Group" mask="url(#mask-2)" fill="#000000">
            <g id="Colour/Black">
                <rect id="Rectangle" x="0" y="0" width="100" height="100"></rect>
            </g>
        </g>
    </g>
</svg>
