<svg width="24" height="24" viewBox="0 0 24 24" fill="none" xmlns="http://www.w3.org/2000/svg">
<path fill-rule="evenodd" clip-rule="evenodd" d="M9.74157 18.7578H8.18376C7.74718 18.7578 7.39342 18.4138 7.39346 17.989V5.98145C7.39346 5.59434 7.68958 5.26716 8.08511 5.21892C8.98988 5.10858 10.1604 5.03455 11.6748 5.03455C13.631 5.03455 15.0245 5.3985 15.959 6.12575C16.8547 6.81353 17.4572 7.94503 17.4572 9.27882C17.4572 10.6123 16.9988 11.7449 16.1674 12.5125C15.0873 13.5031 13.4853 13.9475 11.6144 13.9475C11.198 13.9475 10.8233 13.9276 10.5323 13.8866V17.989C10.5323 18.4138 10.1782 18.7578 9.74157 18.7578ZM11.8429 7.35923C11.1979 7.35923 10.7612 7.41907 10.5323 7.48002V11.5019C10.8031 11.5628 11.1351 11.5828 11.5922 11.5828C13.2769 11.5828 14.3166 10.7543 14.3166 9.35941C14.3166 8.10721 13.4224 7.35923 11.8429 7.35923Z" fill="black"/>
<rect x="1" y="1" width="22" height="22" stroke="black" stroke-width="2"/>
</svg>
