<svg viewBox="0 0 100 100" version="1.1" xmlns="http://www.w3.org/2000/svg" xmlns:xlink="http://www.w3.org/1999/xlink">
    <title>Sports/Resources/Courts/Boxing</title>
    <defs>
        <path d="M57.5322266,-7.10542736e-15 L48.4990234,-7.10542736e-15 C31.6044922,-7.10542736e-15 17.859375,13.8320922 17.859375,30.8349609 C17.859375,35.507965 19.8468322,39.7232055 23.0168457,42.6879883 C16.5433045,45.4788207 12,51.9226074 12,59.4078064 C12,65.4998779 15.022766,71.1547852 20.0879211,74.5384217 L29.578125,81.0371398 L29.578125,100 L76.453125,100 L76.453125,80.3642273 C84.0848084,68.598175 88.171875,54.6867371 88.171875,40.5921936 L88.171875,30.8349609 C88.171875,13.8320922 74.4267578,-7.10542736e-15 57.5322266,-7.10542736e-15 Z M35.4375,94.140625 L35.4375,82.421875 L48.7324828,82.421875 C47.7322693,84.1468811 47.15625,86.1473084 47.15625,88.28125 C47.15625,90.4151916 47.7322693,92.4156189 48.7324828,94.140625 L35.4375,94.140625 Z M70.59375,94.140625 C69.2471619,94.140625 60.1384277,94.140625 58.875,94.140625 C55.6439514,94.140625 53.015625,91.5122986 53.015625,88.28125 C53.015625,85.0502014 55.6439514,82.421875 58.875,82.421875 L70.59375,82.421875 L70.59375,94.140625 Z M82.3125,40.5921936 C82.3125,53.2470703 78.6336059,65.9561156 71.9304199,76.5625 C69.9597473,76.5625 35.4298707,76.5625 33.4149475,76.5625 C33.3661193,76.5289307 23.4006043,69.7052002 23.353302,69.6723937 C19.913208,67.3789979 17.859375,63.5421754 17.859375,59.4078064 C17.859375,52.6046754 23.3937379,47.0703125 30.1961059,47.0703125 L41.296875,47.0703125 C44.5279236,47.0703125 47.15625,49.6986389 47.15625,52.9296875 C47.15625,56.1607361 44.5279236,58.7890625 41.296875,58.7890625 L29.578125,58.7890625 L29.578125,64.6484375 L41.296875,64.6484375 C47.7589723,64.6484375 53.015625,59.3917848 53.015625,52.9296875 L55.9453125,52.9296875 C67.2536012,52.9296875 76.453125,43.7301637 76.453125,32.421875 L76.453125,29.6875 L70.59375,29.6875 L70.59375,32.421875 C70.59375,40.499115 64.0225525,47.0703125 55.9453125,47.0703125 L51.4393922,47.0703125 C49.4092102,43.5714723 45.6250305,41.2109375 41.296875,41.2109375 L34.0947266,41.2109375 C28.3734436,41.2109375 23.71875,36.5562439 23.71875,30.8349609 C23.71875,17.0631408 34.8347777,5.859375 48.4990234,5.859375 L57.5322266,5.859375 C71.1964723,5.859375 82.3125,17.0631408 82.3125,30.8349609 L82.3125,40.5921936 Z" id="path-1"></path>
    </defs>
    <g id="Sports/Resources/Courts/Boxing" stroke="none" stroke-width="1" fill="none" fill-rule="evenodd">
        <mask id="mask-2" fill="white">
            <use xlink:href="#path-1"></use>
        </mask>
        <use id="Shape" fill="#000000" fill-rule="nonzero" opacity="0" xlink:href="#path-1"></use>
        <g id="Group" mask="url(#mask-2)" fill="#000000">
            <g id="Colour/Black">
                <rect id="Rectangle" x="0" y="0" width="100" height="100"></rect>
            </g>
        </g>
    </g>
</svg>
