<svg xmlns="http://www.w3.org/2000/svg" xmlns:xlink="http://www.w3.org/1999/xlink" viewBox="0 0 50 50">
    <defs>
        <path id="38l0udg7za" d="M23.554 13.37c.812-.194 1.711-.201 2.539-.03 5.798.415 7.676 7.062 7.158 12.104-.22 2.135-3.54 2.157-3.317 0 .196-1.917.093-4.876-1.037-6.816-.028 2.424.063 4.852.068 7.277.035.152.058.31.058.483 0 5.587.008 11.172.235 16.754.102 2.482-3.692 2.472-3.793 0-.177-4.374-.22-8.751-.231-13.13-.18.01-.36.01-.54-.001-.01 4.378-.055 8.756-.233 13.131-.1 2.472-3.894 2.482-3.793 0 .227-5.582.237-11.167.237-16.754 0-.04.009-.071.01-.11-.003-.08-.01-.157-.01-.24v-7.04c-.944 1.93-1.023 4.647-.84 6.448.223 2.158-3.097 2.136-3.317 0-.506-4.94 1.286-11.42 6.806-12.075zM24.936 5c1.834 0 3.32 1.507 3.32 3.367s-1.486 3.367-3.32 3.367c-1.833 0-3.32-1.508-3.32-3.367 0-1.86 1.487-3.367 3.32-3.367z"/>
    </defs>
    <g fill="none" fill-rule="evenodd">
        <g>
            <g>
                <g>
                    <g>
                        <g>
                            <g transform="translate(-335 -1239) translate(120 1144) translate(40 40) translate(120 -11) translate(0 66) translate(55)">
                                <mask id="megby99wjb" fill="#fff">
                                    <use xlink:href="#38l0udg7za"/>
                                </mask>
                                <use fill="#010002" fill-rule="nonzero" xlink:href="#38l0udg7za"/>
                                <g fill="currentColor" mask="url(#megby99wjb)">
                                    <path d="M0 0H50V50H0z"/>
                                </g>
                            </g>
                        </g>
                    </g>
                </g>
            </g>
        </g>
    </g>
</svg>
