<svg xmlns="http://www.w3.org/2000/svg" xmlns:xlink="http://www.w3.org/1999/xlink" viewBox="0 0 32 32">
    <defs>
        <path id="0zqji93h6a" d="M26.162 14.864H20.95V9.036c0-.278-.226-.503-.504-.503h-8.892c-.279 0-.505.225-.505.503v3.296H5.838c-.279 0-.505.225-.505.503v10.129c0 .278.226.503.505.503h20.324c.279 0 .505-.225.505-.503v-7.597c0-.278-.226-.503-.505-.503zM10.66 19.337c0 .297-.242.539-.54.539H9.17v.503h.949c.298 0 .54.241.54.539 0 .297-.242.539-.54.539h-1.49c-.298 0-.54-.242-.54-.54v-1.58c0-.298.242-.539.54-.539h.95v-.536h-.95c-.298 0-.54-.24-.54-.538 0-.298.242-.54.54-.54h1.49c.298 0 .54.242.54.54v1.613zm5.881-5.33c0 .297-.241.538-.54.538-.299 0-.54-.24-.54-.538v-1.754h-.122c-.299 0-.54-.24-.54-.538 0-.298.241-.54.54-.54H16c.299 0 .54.242.54.54v2.292zm7.52 6.91c0 .298-.242.54-.54.54h-1.49c-.298 0-.54-.242-.54-.54 0-.297.242-.538.54-.538h.949v-.503h-.949c-.298 0-.54-.242-.54-.54 0-.297.242-.538.54-.538h.949v-.536h-.949c-.298 0-.54-.24-.54-.538 0-.298.242-.54.54-.54h1.49c.298 0 .54.242.54.54v3.194z"/>
    </defs>
    <g fill="none" fill-rule="evenodd">
        <g>
            <g>
                <g>
                    <g transform="translate(-1129 -719) translate(730 539) translate(40 180) translate(359)">
                        <mask id="ifvvu57f4b" fill="#fff">
                            <use xlink:href="#0zqji93h6a"/>
                        </mask>
                        <use fill="#000" fill-rule="nonzero" xlink:href="#0zqji93h6a"/>
                        <g fill="currentColor" mask="url(#ifvvu57f4b)">
                            <path d="M0 0H32V32H0z"/>
                        </g>
                    </g>
                </g>
            </g>
        </g>
    </g>
</svg>
