<svg xmlns="http://www.w3.org/2000/svg" xmlns:xlink="http://www.w3.org/1999/xlink" viewBox="0 0 20 20">
    <defs>
        <path id="lmhtqhzfna" d="M16.246 8.603h-1.06c-.122-.46-.303-.894-.535-1.296l.749-.75c.156-.157.156-.41 0-.565L13.991 4.58c-.156-.156-.408-.156-.564 0l-.75.751c-.4-.232-.835-.414-1.293-.537V3.733c0-.221-.178-.4-.399-.4H8.993c-.22 0-.399.179-.399.4v1.061c-.458.123-.892.305-1.294.537l-.75-.75c-.155-.157-.407-.157-.563 0L4.578 5.99c-.156.157-.156.41 0 .565l.75.751c-.232.402-.414.837-.536 1.296h-1.06c-.22 0-.399.179-.399.399v1.996c0 .22.179.4.399.4h1.06c.122.458.304.893.536 1.295l-.75.75c-.155.157-.155.41 0 .565l1.41 1.412c.155.156.407.156.563 0l.75-.751c.4.232.835.414 1.293.537v1.062c0 .22.179.399.399.399h1.993c.22 0 .398-.179.398-.4v-1.061c.458-.123.893-.305 1.294-.537l.75.75c.155.157.407.157.563 0l1.41-1.41c.155-.157.155-.41 0-.565l-.75-.75c.232-.403.413-.838.536-1.297h1.06c.22 0 .398-.178.398-.399V9.002c0-.22-.178-.4-.399-.4zM9.99 11.996c-1.1 0-1.993-.894-1.993-1.996 0-1.102.893-1.996 1.993-1.996s1.993.894 1.993 1.996c0 1.102-.892 1.996-1.993 1.996z"/>
    </defs>
    <g fill="none" fill-rule="evenodd">
        <g>
            <g>
                <g>
                    <g transform="translate(-40 -488) translate(20 20) translate(0 448) translate(20 20)">
                        <mask id="nla5n8cuib" fill="#fff">
                            <use xlink:href="#lmhtqhzfna"/>
                        </mask>
                        <use fill="#000" fill-rule="nonzero" xlink:href="#lmhtqhzfna"/>
                        <g fill="currentColor" mask="url(#nla5n8cuib)">
                            <path d="M0 0H20V20H0z"/>
                        </g>
                    </g>
                </g>
            </g>
        </g>
    </g>
</svg>
