<svg width="24" height="23" viewBox="0 0 24 23" fill="none" xmlns="http://www.w3.org/2000/svg">
<path fill-rule="evenodd" clip-rule="evenodd" d="M23.0345 12.8772C21.8954 12.8772 21.2757 13.1746 20.7778 13.4136L20.7775 13.4137L20.7775 13.4137C20.3586 13.6147 20.056 13.76 19.3562 13.76C18.6564 13.76 18.3537 13.6147 17.9349 13.4137L17.9347 13.4137C17.4861 13.1983 16.9373 12.9363 16.0001 12.8864V3.97483C16.0001 1.80136 14.2318 0.0331421 12.0584 0.0331421V1.96418C13.1671 1.96418 14.069 2.86619 14.069 3.97483V5.81516H9.92706V3.97483C9.92706 1.80136 8.15884 0.0331421 5.98538 0.0331421V1.96418C7.09407 1.96418 7.99603 2.86619 7.99603 3.97483V12.8865C7.06085 12.9369 6.51283 13.1986 6.06472 13.4137L6.06462 13.4137L6.06462 13.4137C5.64585 13.6147 5.34328 13.76 4.64353 13.76C3.94386 13.76 3.64127 13.6148 3.22258 13.4138L3.22234 13.4137C2.72441 13.1747 2.10472 12.8772 0.965517 12.8772H0V16.1876V18.7255V22.7531H24.0001V18.7255V16.1876V12.8772H23.0345ZM9.92706 11.3508H14.069V13.1336C13.8204 13.2222 13.6116 13.3222 13.421 13.4137L13.4209 13.4137C13.0021 13.6147 12.6994 13.76 11.9996 13.76C11.2999 13.76 10.9973 13.6148 10.5785 13.4138L10.5784 13.4137C10.3869 13.3219 10.1771 13.2214 9.92706 13.1325V11.3508ZM14.069 9.41974V7.74619H9.92706V9.41974H14.069Z" fill="#231F20"/>
</svg>
