<svg xmlns="http://www.w3.org/2000/svg" viewBox="0 0 136 136">
    <g fill="none" fill-rule="evenodd" >
        <g fill="currentColor" fill-rule="nonzero">
            <g>
                <g>
                    <path d="M60.262 117.73c-4.921 0-8.907 3.986-8.907 8.905 0 4.914 3.986 8.907 8.907 8.907 4.912 0 8.9-3.993 8.9-8.907 0-4.919-3.988-8.905-8.9-8.905zm17.775-67.42c0-.135-1.151-4.844-2.282-7.503.412-.449.802-.944 1.163-1.484-4.176-9.044-6.169-12.743-9.466-16.177-2.955-1.603-7.58-3.774-12.335-4.661-.323-.401-.814-.79-.873-2.698.985-1.338 3.136-3.019 3.136-5.694 0-1.154-.447-1.284-.71-1.204v-.365c0-9.436-5.165-10.211-7.324-10.207C46.874.32 42.04 2.023 42.04 8.66c0 .454 0 .791-.005 1.072-.039-.014-.084-.023-.134-.023-1.198 0-.45 5.436.814 5.436.043 0 .082-.004.125-.007.014-.004.032-.004.043-.004.358 0 1.079 4.314.965 5.293-.155-.003-.306 0-.454.016-13.333 1.274-15.554 8.505-23.12 17.093-.146.167-1.28 1.067-1.28 1.482 0 .014.014.11.04.267.177.2.435.495.763.853-1.072 1.282-2.579 2.312-4.777 4.37-3.852 3.582-5.46 8.683-8.303 12.393-1.2.531-2.793 1.712-4.282 2.638C1.262 61.043.667 62.37.405 63.451c.739 2 1.596 3.124 2.88 3.872.477-.267.828-.68.828-1.27 0-.287-.069-.595-.153-.907.363-.872.447-1.478.796-2.21.675-.21 1.393-.292 2.11-.326.04.962.537 1.334.936 1.334.174 0 3.337-1.831 3.337-3.836 0-.586-.108-1.21-.108-1.792 0-.069.003-.14.005-.203.107-2.148 4.81-3.042 7.908-6.198 2.915-2.964.833-2.926 5.514-7.347.484.394.976.773 1.48 1.13 1.934-1.584 4.816-4.606 8.716-5.921.173 1.242.323 2.474.497 3.733.118.873.709 1.238.709 2.458 0 .476-.073.944-.073 1.405 0 1.824 1.687 3.374 1.687 6.184 0 1.06-.157 1.895-.36 2.807-2.56 2.584-7.354 8.335-7.354 11.985v.217c-3.17 5.534-11.315 19.908-11.315 21.37 0 .246.315.827.869 1.58-.201.497-.37 1.012-.461 1.536-7.067 5.469-8.738 25.422-8.738 25.577l.002.036c-1.302 2.112-2.686 4.039-2.686 5.975 0 .305.143 1.183.324 2.148-.71 1.386-1.366 2.85-1.366 4.406 0 2.278 4.414 2.503 5.796 2.503 2.8 0 3.206-.877 3.206-1.915l-.483-4.096c-.162-.545-.33-1.09-.483-1.628.269-1.087.6-2.8.595-4.788v-.482c7.986-15.082 11.723-14.042 11.885-21.738.326-.18.58-.404.778-.648 1.407.625 2.882 1.017 4.36 1.017 2.816 0 4.978-6.96 6.925-10.613.392-.74.94-1.331 1.573-1.844-.732 3.897-1.671 10.89-1.671 11.02 0 .56.76 1.319 1.975 2.119-.114.287-.208.584-.285.885-.664-.4-1.394-.632-2.16-.632-4.62 0-3.838 6.232-4.412 7.42-2.2 4.595-4.007 5.177-4.007 9.68 0 2.612.858 5.478 2.914 5.562 6.244.267 3.72-11.265 9.15-13.57.866 1.722 2.102 3.046 3.832 3.046 2.203 0 5.897-3.625 6.94-8.035.577.072 1.137.109 1.66.109.408 0 .81-.011 1.217-.027.673-3.902 2.078-12.127 3.405-15.733.894-2.433 1.712-4.87 2.155-7.413.052-.283.07-.565.07-.848 0-3.902 2.149-11.144 2.149-20.453 0-.985.287-2.111.287-2.92 0-.753-.228-1.46-.559-2.138.247-3.459 1.004-4.147 1.004-6.487 0-.593-.037-1.186-.037-1.779 0 0 .169-2.383.725-5.019.165.014.315.014.45 0 .789 1.175 1.411 2.436 1.977 3.726.355.814.969 1.136 1.728 1.136.135 0 .303-.016.51-.053.418.746.954 1.417.954 2.149 0 .004-1.265 3.171-1.265 6.697 0 2.843.652 7.099.652 9.646 0 1.398-.235 2.36-.53 3.286-2.015 1.503-3.63 3.07-3.63 7.511 0 .497.007.997.007 1.496 0 .611-.014 1.225-.077 1.834-.003 0-.003.004-.003.004 0 .075.226.171.409.171.873 0 .848-2.707 1.988-4.09.328.775.796 1.878 1.126 2.71-.663 2.26-3.183 2.837-3.069 3.92.531.11-.123.425 1.339.425 5.014 0 5.628-1.378 6.556-3.127.09-1.628.314-3.252.314-4.905 0-1.908-.307-2.798-.638-3.635.385-2.323 1.224-7.345 1.224-7.345.048-.162 3.122-10.077 3.122-12.995z" transform="translate(-646 -791) translate(646 791) translate(28.56)"/>
                </g>
            </g>
        </g>
    </g>
</svg>
