
<svg  viewBox="0 0 100 100" version="1.1" xmlns="http://www.w3.org/2000/svg" xmlns:xlink="http://www.w3.org/1999/xlink">
    <title>Sport/Player/Tennis</title>
    <g id="Sport/Player/Tennis" stroke="none" stroke-width="1" fill="none" fill-rule="evenodd">
        <g id="Group-2" >
            <rect id="Rectangle" x="0" y="0" width="100" height="100"></rect>
            <path d="M17.7926068,0.0215157858 C17.8535979,0.0215157858 18.4870409,-0.11391328 19.046046,0.294775143 C19.2712808,0.445572046 19.4504122,0.644393441 19.5844005,0.841774101 C19.6228201,0.30726151 19.1742714,0.0138318672 19.1464172,0.0570539095 C19.134411,-0.00249645997 19.6583582,0.157425097 19.8413316,0.666004462 C20.0997033,0.330313266 20.4704524,0.22225816 20.5016683,0.208811303 C20.4848597,0.226580365 20.106907,0.487833599 20.032469,0.907567655 C20.0156605,0.975762432 20.0055753,1.0449177 19.9964507,1.11263223 C20.2495397,0.911889859 20.6169271,0.701542586 21.0371414,0.642952706 C20.8825025,0.4215598 20.675517,0.274604856 20.5103127,0.192963221 C20.3499109,0.113242565 20.2308102,0.0954735028 20.2308102,0.133412851 C20.1981535,0.0536921951 20.8339978,0.121886973 21.2551726,0.61894046 C21.405009,0.613177521 21.5399578,0.635268788 21.6600191,0.670806911 C21.4967358,0.343279879 21.165847,0.165109015 21.1259867,0.136774565 C21.1773729,0.158865832 21.6878733,0.260677754 21.9683363,0.742363404 C22.0173213,0.752448547 22.0643853,0.762053445 22.1124098,0.777901527 C22.3477298,0.853780224 22.5744054,0.957513126 22.7549775,1.08910023 C22.9360298,1.01802399 23.0772218,1.01226105 23.061854,1.02906962 C23.061854,1.01514252 22.9509174,1.04779917 22.8174093,1.13712472 C22.9341088,1.23269346 23.0219936,1.33930783 23.0709786,1.46129004 C23.077702,1.49106523 23.0786625,1.51843919 23.0810638,1.54485266 C23.3634478,1.46321102 23.6102937,1.51315649 23.6410293,1.51507747 C23.6179776,1.52084041 23.2962135,1.54869462 23.0460059,1.75856164 C23.0219936,1.80562565 22.991258,1.84020328 22.965805,1.86757724 C23.1017143,1.87910312 23.2376236,1.914161 23.3701712,1.9751521 C23.9334985,2.06831961 24.0257055,2.57737923 24.0314684,2.63020617 C24.0257055,2.61627906 23.9906476,2.55672869 23.9334985,2.48757343 L23.935,2.49 L23.9973826,2.61493438 C24.0520498,2.74218007 24.080196,2.86786977 24.091987,2.98111152 L24.0987027,3.08980055 C24.7038113,3.23339378 24.9295264,3.75301878 24.9852348,3.85242948 C24.9127179,3.76886686 24.571744,3.34673158 24.0890978,3.31791688 C24.0809337,3.37698701 24.0713288,3.41924856 24.0694078,3.44037934 L24.069,3.437 L24.068056,3.4122939 C24.0671844,3.40064352 24.0659216,3.3867342 24.0643563,3.37065489 L24.0588424,3.3159959 C23.9930489,3.31503541 23.9219726,3.32079835 23.8513766,3.33472546 C23.9291763,3.3822697 24.0021735,3.43653738 24.0670066,3.49608775 C24.4017373,3.81833209 24.4747345,4.18427871 24.4785765,4.43976901 C24.808985,4.51756868 25.1533206,4.70966665 25.2930718,5.08521817 C25.4160145,5.29988765 25.4102516,5.54913476 25.3372544,5.73835126 C25.4606773,5.91556163 25.4784464,6.10621886 25.4654798,6.06875976 C25.4784464,6.0788449 25.4131331,5.94533682 25.2892299,5.83584098 C25.252251,5.89779257 25.2085487,5.9472578 25.1571625,5.98327616 C25.0803233,6.05291168 25.0058854,6.09469298 24.9448943,6.12206694 C24.9751497,6.16624948 25.0020434,6.21043201 25.0246149,6.2584565 C25.3516617,6.82130354 24.9881163,7.32940266 25.0010829,7.30010772 C25.0078064,7.31739654 25.1586033,6.76367415 24.7763283,6.42318051 C24.6850818,6.32953275 24.5875921,6.26277871 24.4910628,6.21523446 C24.7186989,6.5706157 24.801301,7.16371817 24.7705654,7.45762805 C24.714857,7.96908889 24.354193,8.37249462 24.0713288,8.80471504 C24.4391964,9.20908126 23.814878,10.4745266 23.7610906,10.8495979 C23.7077834,11.241958 23.7524461,11.7471756 23.5363359,12.0862285 C23.2698,12.5102848 23.0277566,12.4805096 22.6646914,12.4584184 C22.6185879,13.2402571 22.3823074,14.9355216 21.1985037,15.9690087 L21.1985037,15.9690087 L20.4829388,18.3356556 C20.8085448,18.4840513 21.2532516,18.6310063 21.403088,18.753949 C21.783442,19.0593847 22.0970419,19.3797081 22.4889218,19.6486452 C22.9048139,19.934391 23.3202257,20.3397177 23.6131751,20.6960594 C24.0559609,21.2358547 24.0987027,21.5677039 23.9450244,22.2217975 C24.1059064,22.5661331 24.1318396,23.0041165 24.187548,23.354215 C24.2259676,23.6212312 24.261986,23.9146608 24.2629465,24.2114522 C24.4204668,24.5649124 24.6346561,24.909248 24.6918052,25.2953649 C24.7518358,25.6949287 24.6773979,26.1218664 24.5352454,26.5291141 C24.8397206,27.1313413 25.6715048,28.829007 26.0480168,30.1861792 C26.0480168,30.1861792 26.079713,30.4728854 25.9966306,30.7639138 C26.4062796,31.4362567 27.2495896,32.0908305 27.2495896,32.0908305 C28.8007807,32.87411 31.8239224,35.0025554 31.8239224,35.0025554 C33.260335,36.1974048 36.3617566,37.8777817 36.3617566,37.8777817 C37.8505159,38.6091947 38.3888704,39.0649472 38.5511932,39.2291909 C38.7010296,39.2949845 38.8455833,39.3655805 38.9603619,39.4145655 C39.3109407,39.5634414 39.6274221,39.7915577 39.9890465,39.9250658 C40.3348228,40.0528109 40.7170978,40.1541426 41.0268558,40.3472011 C41.3298903,40.5344966 41.6103533,40.7573302 41.9393211,40.8836346 C42.2663679,41.0104193 42.6275121,41.0718907 42.8969295,41.3067304 C43.1529,41.5290838 43.3536424,41.7946593 43.5880019,42.009809 C43.7906652,42.1985452 43.9846842,42.4040901 44.1311589,42.6293249 C45.0830043,42.6768692 46.288419,42.8795325 46.288419,42.8795325 C49.0373409,43.3122332 51.0956706,42.8122982 51.8957587,42.5611301 C53.1491979,41.2630281 58.3958736,41.4575273 61.9895463,41.9661067 C66.6383171,42.6250027 70.3919113,43.8832444 71.3288692,45.098264 C71.5334535,45.3638395 71.6179766,45.6337371 71.5771558,45.9007533 C71.5358547,46.1672892 71.3764134,46.4030895 71.0993121,46.6004701 C69.8386692,47.5033306 65.8670438,47.6666138 61.2177927,47.0077178 C59.1551408,46.7152487 56.6035996,46.1711312 54.6490028,45.4603687 C53.3825969,45.2236079 49.0968913,44.466742 46.4440184,44.5603897 C46.4440184,44.5603897 45.088287,44.6770892 44.1028244,44.6281043 C44.0043742,44.8336491 43.8852735,45.0223853 43.7498444,45.1261182 C43.5442996,45.2855595 43.2503897,45.2207265 43.0189117,45.1458083 C42.9876957,45.1362034 42.9569601,45.1261182 42.9276651,45.1160331 C42.7586189,45.3648 42.4344536,45.5909953 42.1664769,45.594357 C41.829345,45.5972385 41.546961,45.4065813 41.2261574,45.3523136 C41.1075369,45.5559374 40.9639437,45.741312 40.6666721,45.6937677 C40.4279903,45.6567889 40.2378134,45.5324054 40.0966214,45.3604777 C39.8531372,45.2773954 39.4934337,45.3907332 39.2192139,45.3700826 C38.9248238,45.3460704 38.6040202,45.2380153 38.3456484,45.1141121 C38.0949605,44.9950114 37.5714936,44.6420314 37.435104,44.2957748 C37.1930606,43.947117 37.203626,43.5585988 37.2852676,43.1604758 C37.3275292,42.9578124 37.4490311,42.6115559 37.6516945,42.4362665 C37.4989766,42.3483816 37.3476995,42.2710622 37.2098692,42.127469 C37.1354312,42.0535113 37.0806833,41.9838757 37.0360205,41.9142402 C36.5047324,41.7900969 34.5473865,41.3324162 32.6059232,40.9034302 L32.0779104,40.7874177 C31.7276088,40.7109131 31.3821657,40.6364457 31.0502479,40.5661928 C31.0502479,40.5661928 27.4445691,40.3414381 24.6524251,38.0641168 L24.6524251,38.0641168 L22.8673548,36.6075339 C22.8673548,36.6075339 21.9414426,35.842984 21.4458298,34.7139282 C21.3152032,35.8554704 20.9963206,37.5574584 20.2288892,38.8377913 L20.2288892,38.8377913 C20.2557829,39.1859689 20.2961235,39.6839829 20.3311814,40.1301304 C20.9463751,40.3212679 21.5524442,40.3577665 22.2593647,40.3909034 C23.0584922,40.4298032 23.6525552,40.8303275 24.4055792,41.0440365 C24.7499148,41.1415262 25.0635148,41.2769552 25.415054,41.3864511 C25.7709155,41.4988284 26.1887286,41.4484027 26.5196174,41.5939169 C26.954239,41.7826531 26.7438917,42.0736815 26.3957142,42.2148736 C26.101324,42.3358953 25.8453535,42.411774 25.5500029,42.4425096 C26.052339,42.6605408 26.5921343,42.8132587 27.0488472,43.0975637 C27.6261016,43.4577474 28.1121095,43.9543206 28.6663121,44.3543647 C28.9016321,44.5248516 29.2411653,44.7697765 29.1114992,45.096343 C28.9491764,45.505992 28.4434785,45.3162952 28.1745413,45.1760637 C27.5886425,44.8711082 26.9311872,44.3495622 26.2674888,44.1819567 C26.3568143,44.2290207 26.4408572,44.2780057 26.5244198,44.3317931 C27.0901483,44.6828522 27.5790376,45.0925011 28.1476476,45.4507638 C28.4012169,45.6121261 28.7964585,45.7806921 28.9097963,46.0616353 C29.0927696,46.5097038 28.6619899,46.6729871 28.252341,46.5706949 C27.9113671,46.4861718 27.5684722,46.2479704 27.2707204,46.0717205 C26.9768105,45.8983521 26.6478427,45.7701267 26.3462489,45.6140471 C26,45.4325145 25.6556567,45.2620275 25.3098804,45.0776135 C25.1509193,44.9926101 24.9958002,44.9008834 24.8200306,44.8470959 C24.7499148,44.8259652 24.6773979,44.8134788 24.6024796,44.8014727 C24.6942064,44.8591021 24.7763283,44.9152907 24.8387601,44.9517893 C25.1259466,45.1241973 25.391522,45.3129335 25.6715048,45.4882229 C26.2506802,45.8474461 26.809205,46.1821768 27.3283498,46.6134367 C27.5771167,46.8223433 27.8407711,47.2756945 27.3739731,47.4298531 C26.997461,47.553276 26.5676418,47.2204663 26.2665283,47.0672682 C25.5826595,46.7224523 24.875739,46.40405 24.2250071,46.041465 C23.9301368,45.8777015 23.6559169,45.6832023 23.3543231,45.5372079 C23.1204438,45.4262713 22.8779202,45.4224293 22.6387582,45.3993776 C22.4375356,45.829677 23.2842074,46.7435831 23.4791868,46.9947512 C23.8749086,47.5095737 24.597197,47.9850162 24.5635798,48.6544776 C24.7633617,48.7615722 24.9194413,48.9310987 25.0010829,49.1520114 C25.138433,49.5304443 24.9376906,49.7254238 24.7076533,50.0183732 C24.5165158,50.2681005 24.4934641,50.5240711 24.5083516,50.8448747 C24.5184368,51.0119999 24.5429293,51.1555931 24.5597379,51.3188764 C24.5799081,51.5119349 24.5510934,51.6262332 24.4732938,51.7256439 C25.3085597,52.5238109 27.7557377,54.879052 30.0981698,57.349642 L30.6162884,57.8999747 C31.2171204,58.5428775 31.8023648,59.1863553 32.3421067,59.8052843 C32.3421067,59.8052843 32.6307339,60.114562 32.4242286,60.4661013 C33.1551613,61.5913152 35.380136,65.0855772 36.1490081,67.0800343 C37.0422637,67.7302859 38.6510842,69.1157925 38.9281855,70.8062546 C39.8877148,71.5986587 42.4608671,73.9950808 44.4394761,78.323048 L44.4394761,78.323048 L45.729414,81.1247968 C45.7673533,81.1444869 45.8019309,81.1612955 45.8254629,81.1776238 C46.009877,81.293843 46.149148,81.4355153 46.2802549,81.6064825 C46.4987663,81.8951097 46.5736845,82.199585 46.598177,82.5223095 C46.8719166,82.8335082 47.0952305,83.2791755 47.2685989,83.6033408 C47.539457,84.109519 47.7022601,84.5892837 47.9082851,85.1069877 C48.3304204,86.158724 49.3519014,86.8176201 49.8868942,87.793958 C49.9176299,87.8487059 49.9430828,87.9044143 49.9670951,87.9615635 C50.1774424,87.8122073 50.519857,87.8050036 50.778709,87.9524388 C51.1254458,88.1536614 51.3626868,88.6252619 51.5533441,88.9604729 C51.7598494,89.3259393 51.9908472,89.6808402 52.2525806,90.0131697 C52.3058878,89.9507379 52.3625567,89.8878258 52.429791,89.8225125 C52.6233297,89.6246516 53.3633871,89.0401935 54.2287885,89.0334701 C55.1085972,88.9681568 55.7295538,89.5795086 55.6858515,89.5795086 C55.6850711,89.5801689 55.6868421,89.5824351 55.6907816,89.5864899 L55.7373803,89.6337472 C55.7927961,89.6934542 55.8832922,89.8070246 55.9610319,89.9973216 C56.0109774,90.1289088 56.000412,90.3368548 55.8784298,90.4934146 C56.2765528,90.6408498 56.6477821,90.811817 56.7529557,90.953009 C57.0310176,91.1523107 57.1289875,91.3492111 57.2125501,91.6143063 C56.9661845,91.452944 56.8230715,91.3640987 56.5709429,91.1849673 C56.4561644,91.0264865 55.9322172,90.815659 55.4620574,90.6619806 C55.6469517,90.9049845 55.7117848,91.1316601 55.6920947,91.1263774 C55.6920947,91.1263774 55.694496,91.1700797 55.6992984,91.2478794 C55.7002589,91.28822 55.7036206,91.3362445 55.7069823,91.3909924 C55.478866,91.7233219 55.5388966,91.4966463 55.431802,91.5754064 C55.3861787,91.5816496 55.339595,91.5826101 55.29061,91.5826101 L55.29061,91.5826101 L60.1708588,93.8426427 C60.1708588,93.8426427 62.7296037,95.1109695 61.2571728,96.6050114 C61.2571728,96.6050114 59.3169834,98.3228475 56.7961778,98.3603066 C56.7961778,98.3603066 54.0059548,98.3228475 52.3380642,97.0161011 C52.3380642,97.0161011 51.4462494,96.1204443 50.2451569,96.5670721 C50.2451569,96.5670721 49.1588429,97.1275179 47.8391299,96.978642 C47.8391299,96.978642 44.4663698,96.8662647 44.3885702,94.2902309 C44.3885702,94.2902309 44.4466798,93.360957 44.8496053,92.7889853 C44.7780488,92.368771 44.8236721,91.9327087 44.7780488,91.4899228 C44.7482736,91.1849673 44.5384066,90.296034 44.9485357,90.133231 C44.7665229,89.7475943 44.5480115,89.3806872 44.3021261,89.0368318 C43.9645139,88.5637906 43.6148956,88.1397343 43.2748822,87.6738967 C42.915659,87.1859679 42.8969295,86.5755766 42.4964052,86.1803351 C42.046896,85.7341875 40.0966214,84.437046 40.605681,83.6873837 L40.605681,83.6873837 L38.599698,81.9071158 C35.5986475,79.3185957 34.8763591,75.9832948 34.8763591,75.9832948 C34.0469762,74.0920903 33.3246878,74.0421448 33.3246878,74.0421448 C32.4448791,73.6435415 31.7744572,72.7478848 31.7744572,72.7478848 C31.2538717,72.1763933 30.1704392,71.2154233 29.6037502,70.7217315 C29.2411653,71.756179 28.2710706,74.2294403 27.0176313,75.087638 C27.0176313,75.087638 25.9317976,76.0337205 25.2075882,77.1281987 L25.2075882,77.1281987 L25.1836667,77.1602595 C24.9396125,77.4862894 22.8770179,80.2166246 21.2551726,81.5560568 C21.3392154,81.9652254 21.3075193,82.0593534 20.9367702,82.3523028 C20.6904046,82.5472823 20.4968659,82.7537876 20.3196555,83.0145606 C19.9758001,83.5183375 19.7327962,84.0778228 19.4307222,84.6032108 C19.4412875,84.7309559 19.4504122,84.8702269 19.4167951,84.9936499 C19.3620471,85.2025564 19.2357427,85.4277913 19.1372925,85.6266127 C18.9850549,85.9378114 18.8265741,86.2403657 18.6608896,86.5405187 C18.8914071,86.7614314 19.1200037,87.2075789 19.1473777,87.3828683 C19.2227761,87.9106575 19.000903,88.3058991 18.8078445,88.762612 C18.9692068,88.7779798 19.1411345,88.8188006 19.3356337,88.8946793 C19.6449114,88.9820839 20.4603673,89.6212899 20.62269,90.4871715 C20.6692738,90.6840719 20.6860824,90.8732884 20.6836811,91.0485778 C20.8825025,91.333363 20.9876762,91.6949874 20.865694,91.9644048 C20.7811709,92.351002 20.2773939,92.3130626 20.342227,92.2756035 C20.3066889,92.2919319 20.2120806,92.2357432 20.087217,92.1257671 C19.9268152,92.0681377 19.7861034,91.8957298 19.6583582,91.6580086 C19.5286921,91.4899228 19.3995062,91.2959039 19.2895302,91.0865171 C18.97545,90.5539255 18.7689447,89.9637045 18.618628,89.6088035 C18.6090231,89.7346277 18.6061416,89.8614123 18.6042207,89.9934797 L18.6042207,89.9934797 C18.6608896,90.1289088 18.7521361,90.3296511 18.8640332,90.5798587 C19.1555418,91.0903591 19.5133243,91.7631822 19.5152453,91.7578995 C19.4869108,91.7795105 20.3691207,93.1145914 20.6836811,93.2360934 C20.9103567,93.4104223 21.026576,93.5199181 21.2263579,93.7048124 C20.9550195,93.6932865 20.7528364,93.6572681 20.4963856,93.4642097 C20.3859293,93.4185864 20.2298497,93.2634673 20.0651257,93.0675274 C20.787414,94.4539945 21.6360068,95.8731182 22.3261188,96.4191567 C22.3261188,96.4191567 23.9152492,97.7989003 23.4494116,99.106127 C23.4494116,99.106127 23.1017143,100.301937 20.8133473,99.9273458 C20.8133473,99.9273458 12.6789589,98.204227 12.5166361,95.037492 L12.5166361,95.037492 C12.5147151,95.037492 11.8937585,93.8426427 10.8084049,93.4680516 C10.8084049,93.4680516 9.64525176,93.1693393 9.02525558,92.4984372 C9.02525558,92.4984372 6.38823075,90.2580946 7.59076401,88.4283615 C7.59076401,88.4283615 8.45088266,87.1677186 9.42674033,87.086077 C9.69999968,86.6543368 10.1951322,86.3287307 10.6821005,86.0669973 C11.0658162,85.8590512 11.3357139,85.6189288 11.6709248,85.3384657 C11.9744396,85.0848964 12.1881486,85.1228358 12.4076205,85.2025564 C12.6410195,84.9979721 12.8403212,84.7765792 12.9896774,84.4341645 C13.2221159,83.8986915 13.4843296,83.3766652 13.5919045,82.8191009 C13.6562573,82.4886924 13.6192784,82.2298404 13.8056135,81.931128 C13.9323981,81.7279845 14.1220949,81.5704641 14.2690498,81.3836488 C14.5432697,81.0321096 14.5898534,80.2906114 15.1138006,80.2805263 C15.2828468,79.9467561 15.4024278,79.5697638 15.5090422,79.2451182 C15.5926048,78.9862662 15.7160277,78.7134871 15.879311,78.4882523 C16.024345,78.2851087 16.0920595,78.2591754 16.1794641,78.2735828 C16.4853801,76.8919182 16.7293445,75.8353793 16.7293445,75.8353793 C18.2449975,71.2937032 21.4208571,69.822713 22.6685334,69.4087419 L22.6685334,69.4087419 L22.6229101,69.3136534 C21.8290653,68.0045058 19.2948128,67.4911239 17.9890269,67.3100716 C14.9123563,70.5260779 13.3681278,68.914068 13.0996063,68.5743323 L13.0637131,68.5264136 C13.0591722,68.5199258 13.0569116,68.5164468 13.0569116,68.5164468 L13.0569116,68.5164468 L7.5917245,62.5868629 C5.00368466,61.6571087 3.53317472,59.1838474 3.05148907,58.2382452 C2.58949347,58.0149313 2.20097533,57.6576291 2.03529083,57.1807458 C1.90466422,56.810477 2.08187459,56.4224391 2.18224578,56.0675381 C2.00695638,55.5642415 1.84559409,55.0739114 1.68663303,54.5658123 C1.49789677,53.9631049 1.5804989,53.3767259 1.54159906,52.7360792 C1.50125849,52.1170435 1.24768917,51.5830111 1.4244193,50.9442854 C1.49261408,50.6974395 1.6467727,50.4419492 1.72553286,50.1893404 C1.77115613,50.0500693 1.78988568,49.8133086 1.81870038,49.6351377 C1.70488233,49.472815 1.65301588,49.2874404 1.70392184,49.0766129 C1.76299197,48.8350497 1.97189851,48.5949273 2.03529083,48.3596072 C2.20721851,47.7564196 1.99062806,47.1373839 1.9675763,46.5399593 C1.94500479,45.9583827 2.22642831,45.3604777 2.3171946,44.7846641 C2.40555966,44.2198961 2.36137713,43.5720457 2.48047787,42.9923901 C2.52802212,42.7652342 2.57124416,42.4617194 2.75037551,42.2907523 C2.88004164,42.1678096 3.06637667,42.1389949 3.24118582,42.1072987 C2.80320245,41.2481405 2.75325698,40.28621 2.77630874,39.7123173 L2.77630874,39.7123173 L1.11562182,39.295945 C-0.0888324262,38.8858158 0.0283473331,37.5790694 0.0283473331,37.5790694 C-0.171434552,35.6921871 0.741030787,32.2646792 1.00612598,31.3262806 C0.657468172,30.7197313 1.37159236,29.6963293 1.50125849,29.1051479 C1.60739261,28.6157783 1.67558739,28.1374544 1.78316225,27.6476045 C1.86720511,27.2653296 2.03529083,27.081876 2.30806995,26.9286779 C2.38106717,26.2664202 2.26100594,25.5167578 2.65624751,25.077814 C2.61686743,24.866026 2.59237494,24.650396 2.62743281,24.4371673 C2.65624751,24.2604372 2.75805943,24.0059073 2.8882058,23.7984415 C2.8507467,23.6471644 2.82097152,23.493486 2.82961592,23.326841 C2.84210229,23.066068 2.91557976,22.7827235 3.01451022,22.5349172 C3.09903332,22.3260106 3.2046872,22.1396756 3.33147186,21.9730306 C4.17574242,18.7371404 7.12540669,17.7411124 7.87891096,17.5360478 C8.58535123,16.7796621 11.2204551,15.7855551 12.0392727,15.491165 C12.0901786,15.4157665 12.1482883,15.3475718 12.2136016,15.3000275 C12.5118337,15.0680692 12.7044119,15.3158756 13.0098476,15.1694009 C13.232201,15.0632668 13.2965539,14.7405422 13.5232295,14.6180797 C13.6039106,14.5753379 13.7143669,14.5542072 13.830106,14.5436418 C13.9708177,13.81463 14.0332496,12.7691368 14.057742,12.2951351 C13.4742445,12.0324411 13.2110703,11.1353436 13.1246262,10.6330074 C13.0746807,10.3218087 12.8657742,9.19611465 13.1265472,8.6952192 C13.0612338,8.44837331 12.9680663,8.20729037 12.8974703,7.99069991 C12.6338159,7.1982958 12.3629577,6.44575202 12.410502,5.59523827 C12.4402772,5.08521817 12.6847218,4.58096101 13.0756412,4.25295373 C12.6030802,4.32018802 12.1958325,4.42632215 12.1674981,4.42632215 C12.1706196,4.42548172 12.1768628,4.42280702 12.1860228,4.41849066 L12.274345,4.37443319 C12.4544144,4.28341927 12.8375598,4.09063095 13.2744626,3.93647234 C13.3926028,3.88844784 13.5189072,3.85579119 13.6461722,3.83466041 C13.5943057,3.77511004 13.538117,3.71363869 13.4790469,3.65745004 C13.4060497,3.5758084 13.3244081,3.50425191 13.2427664,3.44230032 C13.255733,3.55611836 13.2927119,3.62863534 13.2927119,3.63920073 C13.2927119,3.62959583 13.2302801,3.55131591 13.1947419,3.40772268 C13.1937814,3.40676219 13.1937814,3.40484121 13.192821,3.40484121 C12.8091053,3.4581484 12.5147151,3.59165649 12.483019,3.60366261 C12.5185571,3.5758084 12.7135365,3.4206893 13.0074464,3.28285901 C12.7970991,3.15799533 12.6198888,3.09604373 12.5953963,3.08403761 L12.5953963,3.08403761 L12.6521327,3.09015323 C12.7460731,3.10066609 12.943814,3.12785996 13.1750519,3.20313835 C13.1750519,3.17576439 13.1750519,3.14983116 13.1784136,3.11957573 C13.187058,2.94860854 13.2888699,2.75170813 13.4535939,2.58986559 C13.3373747,2.48036975 13.2269183,2.42081938 13.2149122,2.41121448 C13.236043,2.41745767 13.3748338,2.43714771 13.5429195,2.51686837 C13.5568466,2.504382 13.5726947,2.49285612 13.5880625,2.48036975 C13.5549256,2.48277098 13.5309134,2.48469196 13.5241899,2.48469196 C13.5309134,2.48469196 13.5736552,2.46692289 13.6442512,2.44291065 C13.7743975,2.36078877 13.9266352,2.30363962 14.0927999,2.28779154 C14.1677181,2.27386444 14.2426363,2.26570027 14.3137126,2.26329905 C14.3362841,2.01837414 14.4750749,1.7388716 14.7416108,1.54965511 C14.5255006,1.4372778 14.3237977,1.41182482 14.3017065,1.40318041 C14.3353236,1.40318041 14.5888929,1.37676694 14.8784806,1.47137519 C14.8900065,1.465132 14.8986509,1.45744808 14.9120977,1.4512049 C15.0239948,1.37676694 15.1512597,1.34795224 15.2790049,1.35275469 C15.4211574,1.25718595 15.6041307,1.19043191 15.8091952,1.16017648 C15.9936093,0.993531494 16.1943517,0.899403491 16.3830879,0.848017285 C16.2572638,0.803834753 16.1338408,0.777901527 16.0349104,0.784144711 C15.804873,0.786065691 15.7491646,0.964236555 15.7366783,0.98728831 C15.7434017,0.955592146 15.7582893,0.761092955 16.0209833,0.694819157 C16.2519811,0.647755155 16.5348453,0.666964952 16.8345181,0.786065691 C16.9468955,0.786065691 17.0213334,0.798071814 17.0443852,0.802874263 C17.0256556,0.801913773 16.9757101,0.805755732 16.9065549,0.816321121 C16.9468955,0.832169203 16.9848348,0.851859244 17.0256556,0.87395051 C17.1418749,0.947427982 17.2331214,1.0353128 17.3109211,1.1304013 C17.3229272,1.12463836 17.3368543,1.11839517 17.3522222,1.11263223 C17.3368543,1.06604848 17.320526,1.01898447 17.298915,0.971440228 C17.2600151,0.861944388 17.2033462,0.768296629 17.1409144,0.688575973 C16.9589016,0.688575973 16.8369194,0.695779647 16.8210713,0.692417932 C16.8330774,0.692417932 16.9324881,0.662642748 17.087127,0.62374291 C16.7485543,0.25347408 16.2366132,0.22225816 16.2366132,0.280367795 C16.2020356,0.224659385 16.8542082,0.119005504 17.3411765,0.56707401 C17.5548855,0.525292702 17.814698,0.486392864 18.0942006,0.47726821 C18.4044388,0.457578169 18.7093943,0.543061764 18.9605624,0.654958829 C18.9269452,0.605973848 18.8904466,0.558429601 18.8472246,0.511365599 C18.479357,0.0608958689 17.8473547,0.0335219087 17.7926068,0.0215157858 Z M19.4177555,90.0972126 C19.4989169,90.3238882 19.5723944,90.5611292 19.6314645,90.7916467 C19.7097445,91.0845961 19.8235625,91.329521 19.9292164,91.5187375 C20.0348703,91.6527259 20.1362019,91.7631822 20.2178436,91.8448238 C20.2668286,91.7434922 20.3590356,91.4779167 20.3787256,91.143186 C20.3590356,91.1186935 20.340306,91.0946813 20.3162938,91.0687481 C20.0752108,90.7810813 19.7534467,90.5246306 19.5133243,90.2345626 C19.4777862,90.1884591 19.4475307,90.1418754 19.4177555,90.0972126 Z M54.6581274,90.4655604 C54.6638904,90.4112928 53.8570789,90.4016879 53.2577333,90.4934146 C53.4347035,90.5618495 53.6487727,90.6634213 53.8741276,90.7747181 L54.3322368,91.0033414 L54.3322368,91.0033414 L54.5582365,91.1143713 C54.8684747,91.2517214 55.1758314,91.3093508 55.3986651,91.2853385 L55.3986651,91.2853385 L55.3962639,91.2718917 C55.3956235,91.2512411 55.3951967,91.2339523 55.3949121,91.2200786 L55.3948581,91.1722326 C55.3869573,91.1173863 55.2535572,90.7076039 54.7801096,90.4713234 C54.7061519,90.4573963 54.6629299,90.4535543 54.6581274,90.4655604 Z M19.3207461,89.2068385 C19.3577249,89.2707111 19.3908618,89.3384256 19.4139136,89.4071006 C19.4821084,89.5334051 19.5690327,89.8143483 19.7548875,90.0583128 C19.9080856,90.243207 20.1338007,90.4415482 20.3479899,90.6624609 C20.342227,90.625482 20.3355036,90.5885031 20.3258987,90.5520045 C20.1981535,89.8782209 19.632425,89.3701218 19.3207461,89.2068385 Z M54.3997424,89.3248794 L54.2403144,89.3283405 C53.5636493,89.3283405 52.9455741,89.7596004 52.7016096,89.9718687 C52.7573181,89.9598625 52.8173487,89.9492972 52.8797805,89.9396923 C53.1338301,89.8979109 53.9123071,89.8436433 54.6077017,90.0866472 C54.7978787,90.133231 54.9914174,90.1908603 55.1758314,90.2672193 C55.2805248,90.296034 55.3962639,90.3320524 55.5168053,90.3695115 C55.6680825,90.3603868 55.7069823,90.2206355 55.6743257,90.0866472 C55.5950853,89.8916678 55.4562945,89.776409 55.4620574,89.776409 C55.480787,89.7663238 55.0053445,89.2750333 54.2403144,89.3283405 Z M79.9310161,62.3827588 C82.3077482,62.3827588 84.2359315,64.2374646 84.2359315,66.5272724 C84.2359315,68.8151592 82.3077482,70.6693848 79.9310161,70.6693848 C77.5538038,70.6693848 75.6265809,68.8151592 75.6265809,66.5272724 C75.6265809,64.2374646 77.5538038,62.3827588 79.9310161,62.3827588 Z M19.7587294,45.1563737 C19.9604323,45.5184783 20.5448904,45.7941389 20.7999004,46.0808451 C21.2878292,46.6240021 21.101014,47.2286305 20.9386912,47.8500674 C21.2710207,48.0253568 21.6600191,48.1607859 21.9496067,48.2323423 C22.3376446,48.3298321 22.9173002,48.3797775 23.3437577,48.2722027 C22.9173002,47.8793623 22.377505,47.5398292 22.0341298,47.0557423 C21.8204209,46.7555892 21.6768276,46.4780077 21.401167,46.2172347 C21.1091781,45.9386926 20.789335,45.762923 20.4526833,45.5617004 C20.224567,45.4286725 19.9825236,45.3042891 19.7587294,45.1563737 Z M65.7325752,45.7773303 L65.1471566,45.7840538 L66.3189542,46.655218 C66.4952041,46.657139 66.6680923,46.655218 66.8352175,46.6532971 L66.8352175,46.6532971 L65.7325752,45.7773303 Z M64.896949,45.7869352 L64.190989,45.7950994 L65.3719112,46.637449 C65.6091522,46.6460934 65.8387093,46.6513761 66.0629837,46.6532971 L66.0629837,46.6532971 L64.896949,45.7869352 Z M66.6032592,45.7672452 L65.9726976,45.7754094 L67.0724585,46.6470539 C67.2554318,46.6417712 67.4336027,46.635528 67.6064908,46.6259231 L67.6064908,46.6259231 L66.6032592,45.7672452 Z M63.9335777,45.7979809 L63.3784146,45.8047043 L64.5602973,46.5985491 C64.7408694,46.6095948 64.9195205,46.6196799 65.0957704,46.6268836 L65.0957704,46.6268836 L63.9335777,45.7979809 Z M67.5272504,45.7576403 L66.8332965,45.764844 L67.8240418,46.6134367 C68.0319878,46.6004701 68.228408,46.584622 68.4176245,46.5654122 L68.4176245,46.5654122 L67.5272504,45.7576403 Z M63.1128392,45.8071055 L62.541828,45.8138289 L63.7107441,46.5380383 C63.8965989,46.5538864 64.0800524,46.5678135 64.2601443,46.5798196 L64.2601443,46.5798196 L63.1128392,45.8071055 Z M68.3407853,45.7470749 L67.7496038,45.7557193 L68.6198076,46.543321 C68.7917353,46.5245914 68.9550186,46.5015397 69.1077364,46.4780077 L69.1077364,46.4780077 L68.3407853,45.7470749 Z M62.2584835,45.8167104 L61.522268,45.8248746 L62.5663204,46.4261412 C62.8415008,46.4563966 63.1128392,46.4837706 63.3769739,46.5077829 L63.3769739,46.5077829 L62.2584835,45.8167104 Z M69.1471165,45.7398712 L68.5588165,45.7451539 L69.2955122,46.4458313 C69.4611967,46.4174968 69.6143948,46.3838797 69.7560671,46.349302 L69.7560671,46.349302 L69.1471165,45.7398712 Z M61.2254766,45.8287165 L60.3744827,45.8392819 L61.1097376,46.237405 C61.1827348,46.2470099 61.2552518,46.2594962 61.33017,46.2686209 C61.6197577,46.3108824 61.9069442,46.3473811 62.1883677,46.3824389 L62.1883677,46.3824389 L61.2254766,45.8287165 Z M70.8039615,45.7201812 L69.3603453,45.7360293 L69.9270343,46.3046393 C70.2391935,46.2162742 70.4797962,46.113982 70.6387572,46.002085 C70.708873,45.9497383 70.7972381,45.8719386 70.8102047,45.7931784 C70.8140466,45.7691662 70.8102047,45.7451539 70.8039615,45.7201812 L70.8039615,45.7201812 Z M60.0647247,45.8426436 L59.4495309,45.8488868 L59.7914653,46.023696 C60.0762506,46.0736414 60.3696802,46.1235869 60.6703135,46.1701707 L60.6703135,46.1701707 L60.0647247,45.8426436 Z M58.4006761,45.48246 L57.3614261,45.5103142 C57.6385274,45.5799497 57.9281151,45.6476642 58.2277879,45.7134578 L58.2277879,45.7134578 L58.8386594,45.7072146 L58.4006761,45.48246 Z M59.3530017,45.4574872 L58.7157167,45.4742958 L59.1623445,45.7033726 L59.7933863,45.6956887 L59.3530017,45.4574872 Z M60.5252796,45.4262713 L59.6550758,45.4498033 L60.1031443,45.6913665 L60.9714271,45.6822418 L60.5252796,45.4262713 Z M61.5822986,45.3993776 L60.8148672,45.4190676 L61.267258,45.6798406 L62.022203,45.670716 L61.5822986,45.3993776 Z M62.4688307,45.3748851 L61.857479,45.3907332 L62.304587,45.6673543 L62.8933672,45.6606308 L62.4688307,45.3748851 Z M63.3092593,45.3532741 L62.7296037,45.3676814 L63.1594229,45.6582296 L63.7285131,45.6515062 L63.3092593,45.3532741 Z M64.2788738,45.3268606 L63.5604274,45.3470309 L63.9849639,45.6476642 L64.7000486,45.6399803 L64.2788738,45.3268606 Z M65.1370715,45.3052496 L64.5252395,45.3210977 L64.9488155,45.6380593 L65.5472006,45.6298951 L65.1370715,45.3052496 Z M66.0332085,45.2812373 L65.3728717,45.2994866 L65.7892441,45.6279742 L66.4308513,45.61981 L66.0332085,45.2812373 Z M66.9759293,45.2557844 L66.2598841,45.2754744 L66.6608886,45.617889 L67.3639672,45.6102051 L66.9759293,45.2557844 Z M67.8005098,45.2336931 L67.1944407,45.2495412 L67.5877613,45.6078039 L68.1856662,45.5996397 L67.8005098,45.2336931 Z M68.6217286,45.2125623 L68.0161397,45.2274499 L68.4032171,45.598199 L69.0001616,45.5919558 L68.6217286,45.2125623 Z M70.2867377,45.1678995 L68.8311154,45.2067994 L69.2133903,45.5890743 L70.7271223,45.5717855 C70.7213594,45.5617004 70.7136754,45.5520955 70.706952,45.5429708 C70.616666,45.4243503 70.473553,45.2994866 70.2867377,45.1678995 L70.2867377,45.1678995 Z M57.6999987,45.1261182 L56.1953914,45.1938328 C56.4018967,45.2543436 56.6175267,45.3153347 56.8398801,45.3748851 L56.8398801,45.3748851 L58.122134,45.3407877 L57.6999987,45.1261182 Z M58.6595281,45.0819357 L58.0049542,45.1121911 L58.4362142,45.3331038 L59.0903078,45.3153347 L58.6595281,45.0819357 Z M59.8356479,45.0305495 L58.9529577,45.0699296 L59.3923818,45.3071706 L60.2765127,45.2831583 L59.8356479,45.0305495 Z M60.9080348,44.9815645 L60.1156306,45.0166224 L60.5670609,45.2754744 L61.3508206,45.2557844 L60.9080348,44.9815645 Z M61.8214606,44.9402634 L61.1769719,44.9685979 L61.6255207,45.2471399 L62.2551217,45.2312919 L61.8214606,44.9402634 Z M62.6777373,44.9018439 L62.0769509,44.9292178 L62.5158947,45.2236079 L63.1075565,45.2087204 L62.6777373,44.9018439 Z M63.6492727,44.8581416 L62.9226622,44.8907982 L63.3587246,45.2015167 L64.0853351,45.1823069 L63.6492727,44.8581416 Z M64.5261999,44.8192417 L63.8879545,44.8470959 L64.3307403,45.1760637 L64.9555389,45.1597354 L64.5261999,44.8192417 Z M65.4449085,44.7774604 L64.7567175,44.8081961 L65.1908589,45.1539724 L65.8651228,45.1362034 L65.4449085,44.7774604 Z M66.4005959,44.7351989 L65.6667816,44.7678555 L66.0908379,45.1299602 L66.8140867,45.1112306 L66.4005959,44.7351989 Z M67.2376627,44.6967793 L66.6162258,44.725594 L67.0345191,45.1049875 L67.6473117,45.0881789 L67.2376627,44.6967793 Z M68.0704074,44.6598004 L67.4465693,44.6881349 L67.8629416,45.0828962 L68.4766946,45.0660876 L68.0704074,44.6598004 Z M56.8182691,44.6761287 L55.025995,44.8115578 C55.2593941,44.8951204 55.5072004,44.9791633 55.7713351,45.0632061 L55.7713351,45.0632061 L57.4310616,44.9882879 L56.8182691,44.6761287 Z M69.2609346,44.6064932 L68.2764325,44.6501955 L68.6865616,45.0612852 L70.0672658,45.0243063 C69.8439519,44.8888772 69.575495,44.7476852 69.2609346,44.6064932 L69.2609346,44.6064932 Z M57.7734762,44.6031315 L57.1073765,44.6545177 L57.7350566,44.9748411 L58.404518,44.9445857 L57.7734762,44.6031315 Z M58.9390306,44.5147665 L58.0520182,44.5820007 L58.6969872,44.9311388 L59.5940847,44.8907982 L58.9390306,44.5147665 Z M60.0215026,44.4331248 L59.2074875,44.4950764 L59.8750279,44.8792723 L60.6818394,44.8418132 L60.0215026,44.4331248 Z M60.9613419,44.3610881 L60.2765127,44.4134348 L60.9502963,44.8302874 L61.614475,44.8005122 L60.9613419,44.3610881 Z M61.8286643,44.2957748 L61.2053064,44.343319 L61.8675641,44.7894665 L62.4817973,44.7611321 L61.8286643,44.2957748 Z M62.7944368,44.2218171 L62.0639843,44.2780057 L62.7252815,44.7496062 L63.4590957,44.7179101 L62.7944368,44.2218171 Z M63.6905738,44.1545828 L63.0239939,44.205969 L63.698738,44.7068644 L64.3485093,44.6780497 L63.6905738,44.1545828 Z M55.8894754,44.202127 L53.992508,44.3985472 C54.204296,44.4931554 54.4367345,44.5906452 54.6912643,44.6881349 L54.6912643,44.6881349 L56.563259,44.5455021 L55.8894754,44.202127 Z M64.6347353,44.0835065 L63.9124469,44.1387347 L64.5790269,44.6670041 L65.2801845,44.6362684 L64.6347353,44.0835065 Z M65.6019486,44.010029 L64.8484443,44.0666979 L65.5006169,44.6261833 L66.2435558,44.5925661 L65.6019486,44.010029 Z M66.4486203,43.945196 L65.8118156,43.994181 L66.459666,44.5820007 L67.0873461,44.5546268 L66.4486203,43.945196 Z M67.2948119,43.8813234 L66.6532047,43.9303084 L67.2981736,44.5445416 L67.9282549,44.5166874 L67.2948119,43.8813234 Z M56.8480442,44.1022361 L56.1656162,44.1733123 L56.851406,44.5224504 L57.5304723,44.4720247 L56.8480442,44.1022361 Z M67.6012081,43.9735304 L68.13428,44.5066023 L68.9530976,44.4705839 C68.557856,44.3034587 68.1059455,44.1377742 67.6012081,43.9735304 L67.6012081,43.9735304 Z M58.0131184,43.9816946 L57.1145802,44.0748621 L57.8085341,44.4508939 L58.7094735,44.3831793 L58.0131184,43.9816946 Z M59.1090373,43.8683568 L58.2695692,43.9552811 L58.9764897,44.3625288 L59.8053924,44.2996167 L59.1090373,43.8683568 Z M60.0776913,43.7679856 L59.3549227,43.8438643 L60.0623235,44.2794464 L60.7605996,44.22758 L60.0776913,43.7679856 Z M55.0927491,43.7963201 L53.2457271,44.0205944 C53.3883599,44.1046373 53.5506827,44.1881999 53.729814,44.2756045 L53.729814,44.2756045 L55.6450307,44.0767831 L55.0927491,43.7963201 Z M51.8275639,43.798241 L50.8651531,44.0004241 C50.8651531,44.0004241 51.7046212,44.1156829 52.2722707,44.2559144 C52.0883369,44.1065583 51.9370597,43.9543206 51.8275639,43.798241 L51.8275639,43.798241 Z M60.9603815,43.6762588 L60.314452,43.7439734 L61.0050442,44.20789 L61.6384873,44.1598655 L60.9603815,43.6762588 Z M61.9275947,43.5768481 L61.188978,43.6536873 L61.875248,44.1420964 L62.612424,44.0868682 L61.9275947,43.5768481 Z M62.8434218,43.4817596 L62.1485074,43.5542766 L62.8415008,44.0686189 L63.5181659,44.0191537 L62.8434218,43.4817596 Z M56.0599623,43.6762588 L55.3588048,43.7617424 L55.9211716,44.0484486 L56.6156057,43.9773724 L56.0599623,43.6762588 Z M63.8139967,43.3813885 L63.0580912,43.4591881 L63.7414798,44.0004241 L64.4738533,43.945196 L63.8139967,43.3813885 Z M57.2303192,43.5331458 L56.3183341,43.6440824 L56.8816614,43.9490379 L57.7917255,43.8544297 L57.2303192,43.5331458 Z M64.7999395,43.2800568 L64.0229033,43.3597774 L64.6880425,43.9293479 L65.4516319,43.8712383 L64.7999395,43.2800568 Z M53.9997116,43.2387557 L52.4917426,43.4375771 C52.592594,43.5730062 52.7741266,43.7281253 53.0373008,43.8966912 L53.0373008,43.8966912 L54.8540674,43.6733774 L53.9997116,43.2387557 Z M65.0189312,43.2752543 L65.6605384,43.8553902 L66.3021456,43.8078459 L65.987105,43.5072126 C65.6768668,43.427492 65.3546224,43.3496923 65.0189312,43.2752543 L65.0189312,43.2752543 Z M58.3459281,43.3957958 L57.4805268,43.5028904 L58.0481763,43.8280162 L58.9020517,43.7396512 L58.3459281,43.3957958 Z M59.3443573,43.2742938 L58.5855703,43.3665009 L59.1464964,43.7146784 L59.8865538,43.6387997 L59.3443573,43.2742938 Z M55.004384,43.1047674 L54.2643266,43.2022571 L55.1225243,43.6402405 L55.8328065,43.5533161 L55.004384,43.1047674 Z M60.2419351,43.1638375 L59.5729539,43.2464396 L60.1199528,43.6147875 L60.7774081,43.5461125 L60.2419351,43.1638375 Z M61.2120298,43.0447368 L60.4642885,43.1369438 L61.0050442,43.5221002 L61.7503843,43.445261 L61.2120298,43.0447368 Z M56.2093185,42.9453261 L55.2584336,43.0711502 L56.0911783,43.5221002 L57.0156497,43.4097229 L56.2093185,42.9453261 Z M62.1485074,42.929478 L61.4295807,43.0183233 L61.9727377,43.4212488 L62.6762965,43.3496923 L62.1485074,42.929478 Z M57.3695902,42.7926082 L56.4552039,42.9126694 L57.2648968,43.3780267 L58.1432648,43.2699716 L57.3695902,42.7926082 Z M62.8160478,42.8478364 L62.3598151,42.9035448 L62.8914463,43.3271208 L63.6583974,43.2483606 L63.2847668,42.927557 C63.130128,42.9016238 62.9735681,42.8742498 62.8160478,42.8478364 L62.8160478,42.8478364 Z M53.0248145,42.739301 C52.6310136,42.8771313 52.4187454,43.0312899 52.3956936,43.1825671 C52.3904109,43.2176249 52.3956936,43.2560445 52.410101,43.2983061 L52.410101,43.2983061 L53.7667929,43.1186945 Z M58.4203661,42.6528569 L57.6049102,42.7604318 L58.382907,43.2411569 L59.1546606,43.1465487 L58.4203661,42.6528569 Z M59.3530017,42.529434 L58.6480022,42.6230817 L59.3837374,43.1186945 L60.0623235,43.0356121 L59.3530017,42.529434 Z M53.919991,42.5179081 C53.655376,42.5654523 53.423898,42.6173188 53.2284383,42.6749482 L53.2284383,42.6749482 L54.0299671,43.0831564 L54.7801096,42.9837457 Z M59.8490947,42.4636404 L59.5729539,42.5006193 L60.2837164,43.0082382 L61.0377009,42.9155509 L60.5252796,42.5337562 C60.2957225,42.5083032 60.0695271,42.4857317 59.8490947,42.4636404 L59.8490947,42.4636404 Z M55.1979227,42.3642297 C54.8137268,42.3920839 54.4698714,42.4319443 54.1620344,42.4780478 L54.1620344,42.4780478 L55.0351197,42.9506088 L55.99657,42.8228636 Z M60.8235117,42.5673733 L61.2552518,42.8891374 L61.9857043,42.7998119 L61.8622814,42.7023221 C61.5064199,42.6518964 61.1601633,42.6072336 60.8235117,42.5673733 L60.8235117,42.5673733 Z M56.5896725,42.3104423 C56.1881877,42.3123633 55.8145572,42.3262904 55.4692611,42.3459804 L55.4692611,42.3459804 L56.2419752,42.790207 L57.1693281,42.6677445 Z M56.8754182,42.3094818 L57.4041679,42.6370088 L58.2335508,42.527513 L57.9458841,42.3344545 C57.5698523,42.3181262 57.2144711,42.3104423 56.8754182,42.3094818 L56.8754182,42.3094818 Z M25.1624452,5.74987714 C25.0486272,5.69464897 24.9064747,5.67495893 24.738389,5.75996228 C24.7018903,5.77436963 24.6682732,5.79213869 24.6317746,5.80990775 C24.7412704,5.88770743 24.8450033,5.98231567 24.9261647,6.09469298 C25.0097273,6.01929453 25.1153812,5.89779257 25.1624452,5.74987714 Z M25.0327791,5.23073238 C24.7350272,4.86238453 24.3388252,4.87967335 24.1409643,4.94162494 C24.1328001,4.96563719 24.1308791,4.99060992 24.122715,5.01462217 C24.2341318,5.05784421 24.3335425,5.13276242 24.42671,5.22833116 C24.5145948,5.3186172 24.565981,5.40266006 24.5928748,5.48526219 C24.6212092,5.48142023 24.6485832,5.47805851 24.6788386,5.47517704 C24.9064747,5.45068455 25.0726394,5.50399174 25.1898192,5.59139631 C25.1898192,5.47517704 25.1489984,5.35415533 25.0327791,5.23073238 Z M23.60309,3.61182677 C23.6919353,3.66369322 23.7778991,3.72372384 23.8633827,3.802484 C24.0156204,3.94415625 24.1159915,4.16074671 24.1558519,4.39846794 C24.2302898,4.39894819 24.3095303,4.40807284 24.3921324,4.42199994 C24.3263388,4.18908116 24.187548,3.89469103 23.887395,3.72948678 C23.7879843,3.66945616 23.6938563,3.63391804 23.60309,3.61182677 Z M13.5794181,2.73153784 C13.4228583,2.8391127 13.30856,2.98942936 13.2701404,3.13782504 C13.2658182,3.15367312 13.2638972,3.16663974 13.2605355,3.18152733 C13.3609067,3.14791018 13.4684815,3.118135 13.5827798,3.09796471 C13.6293636,3.08595859 13.6759473,3.07827467 13.7230113,3.07011051 C13.7186891,3.05426243 13.7177286,3.03649336 13.7119657,3.01920455 C13.6884337,2.90682724 13.6394487,2.8112585 13.5794181,2.73153784 Z M23.2068879,2.28154836 C23.1093982,2.31132354 23.0219936,2.35646656 22.9470754,2.4049713 C23.0532096,2.64173204 23.077702,2.89962356 23.0373615,3.16567925 C23.1214043,3.15175214 23.2068879,3.14791018 23.2957332,3.15607435 C23.4484511,3.10276716 23.6141356,3.06434757 23.791346,3.05234145 C23.8705864,3.05234145 23.9431034,3.06098585 24.0117784,3.07299198 C23.9431034,2.81750168 23.7860633,2.50246102 23.432603,2.3483024 C23.3562441,2.31564575 23.2813259,2.29547546 23.2068879,2.28154836 Z M14.2143552,2.57515587 L14.130259,2.57641874 C13.9943497,2.56633359 13.8646836,2.5941878 13.7494248,2.64173204 C13.8320269,2.70560462 13.9117476,2.78628576 13.9809029,2.88905818 C14.0130793,2.93516169 14.0428545,2.98222569 14.0707087,3.03025018 C14.2143019,3.02016504 14.3540532,3.02208602 14.4837193,3.03025018 C14.5994583,2.94428634 14.7396898,2.87705205 14.8900065,2.83286952 C14.7637021,2.73249833 14.6177076,2.64989621 14.4472207,2.60715441 C14.5062908,2.73874152 14.6196286,2.7973314 14.6446013,2.81510046 C14.6133854,2.80117336 14.4649897,2.76131303 14.3751839,2.5941878 C14.2978645,2.58026069 14.2152624,2.57017555 14.130259,2.57641874 Z M14.9980616,1.72878646 C14.7339269,1.79986271 14.5182969,2.03854443 14.4443392,2.26570027 C14.7108751,2.27818664 14.9461951,2.35934803 15.1493387,2.47268583 C15.1680683,2.35070362 15.1973632,2.21863627 15.2405853,2.08608868 L15.2405853,2.08608868 L15.216573,2.04046541 C15.1983237,2.00060508 15.1815151,1.96314598 15.1599041,1.92712761 C15.1296487,1.90311536 15.0917093,1.86325504 15.0676971,1.80178369 C15.0460861,1.77681095 15.0230343,1.75231846 14.9980616,1.72878646 Z M22.679579,1.24517983 C22.5451104,1.36956326 22.4178455,1.5506156 22.3823074,1.79602075 C22.4432985,1.82771691 22.4975662,1.86133406 22.5374265,1.89110924 C22.5633597,1.86517602 22.5921744,1.83924279 22.6185879,1.81378981 C22.7444121,1.69228785 22.8779202,1.61544866 23.0080665,1.5688649 C23.0042246,1.54485266 22.9955802,1.52084041 22.9845345,1.49538743 C22.9225829,1.39597673 22.8140476,1.3143351 22.679579,1.24517983 Z M17.463639,0.695779647 C17.4972561,0.736600465 17.5313535,0.777901527 17.5611287,0.827366754 C17.6033903,0.885956633 17.6394086,0.945507003 17.6725455,1.00649811 C17.8050931,0.971440228 17.9515678,0.947427982 18.1081277,0.941665044 C18.2550826,0.929658921 18.4044388,0.93350088 18.5494727,0.945507003 C18.4111622,0.867707327 18.2483592,0.801913773 18.0625044,0.766375649 C17.8584003,0.725074587 17.6494938,0.706345035 17.463639,0.695779647 Z" id="Combined-Shape" fill="#1A1919"></path>
        </g>
    </g>
</svg>