<svg xmlns="http://www.w3.org/2000/svg" xmlns:xlink="http://www.w3.org/1999/xlink" width="30" height="30" viewBox="0 0 30 30">
    <defs>
        <path id="6gtdvt246a" d="M15 22.754c.56 0 1.12.21 1.548.631l.024.025.024.024L15 25l-1.592-1.57.044-.045c.427-.42.988-.63 1.548-.63zm0-4.214c1.628 0 3.164.587 4.359 1.658l.22.207-1.525 1.5c-.816-.802-1.9-1.244-3.054-1.244-1.071 0-2.083.38-2.875 1.078l-.178.166-1.526-1.5c1.223-1.203 2.85-1.865 4.58-1.865zm-2.995-3.34c.881.509 1.904.8 2.995.8 1.09 0 2.114-.291 2.995-.8 1.499.445 2.88 1.225 4.05 2.303l.246.235-1.525 1.5c-1.54-1.515-3.588-2.35-5.766-2.35-2.074 0-4.03.757-5.542 2.138l-.224.212-1.525-1.5c1.22-1.2 2.69-2.061 4.296-2.538zm8.604-3.066c1.503.637 2.893 1.536 4.112 2.672l.279.268-1.525 1.5c-1.157-1.138-2.508-2.015-3.98-2.6.475-.536.855-1.158 1.114-1.84zM9.39 12.133c.26.683.64 1.305 1.115 1.842l-.253.104c-1.268.538-2.442 1.295-3.472 2.251l-.255.243L5 15.073c1.284-1.262 2.772-2.253 4.39-2.94zM15 5c2.761 0 5 2.239 5 5s-2.239 5-5 5-5-2.239-5-5 2.239-5 5-5zm1.667 2.5L15 9.167 13.333 7.5l-.833.833L14.167 10 12.5 11.667l.833.833L15 10.833l1.667 1.667.833-.833L15.833 10 17.5 8.333l-.833-.833z"/>
    </defs>
    <g fill="none" fill-rule="evenodd">
        <g>
            <g transform="translate(-597 -15) translate(597 15)">
                <mask id="n5p0pjigvb" fill="#none">
                    <use xlink:href="#6gtdvt246a"/>
                </mask>
                <use fill="#FFF" fill-rule="nonzero" xlink:href="#6gtdvt246a"/>
                <g fill="#FFF" mask="url(#n5p0pjigvb)">
                    <path d="M0 0H30V30H0z"/>
                </g>
            </g>
        </g>
    </g>
</svg>
