<svg width="24" height="24" viewBox="0 0 24 24" fill="none" xmlns="http://www.w3.org/2000/svg">
<path d="M12 4.69171C7.97021 4.69171 4.69174 7.97019 4.69174 12C4.69174 16.0298 7.97021 19.3083 12 19.3083C16.0298 19.3083 19.3083 16.0298 19.3083 12C19.3083 7.97019 16.0298 4.69171 12 4.69171Z" fill="black"/>
<path d="M2.0209 20.9807L5.28164 17.7199L6.27586 18.7141L3.01512 21.9749L2.0209 20.9807Z" fill="black"/>
<path d="M17.7189 5.28571L20.9796 2.02497L21.9738 3.01919L18.7131 6.27992L17.7189 5.28571Z" fill="black"/>
<path d="M17.7173 18.7158L18.7115 17.7215L21.9722 20.9823L20.978 21.9765L17.7173 18.7158Z" fill="black"/>
<path d="M2.02261 3.0177L3.01683 2.02348L6.27757 5.28422L5.28335 6.27844L2.02261 3.0177Z" fill="black"/>
<path d="M20.7519 11.3684H24V12.812H20.7519V11.3684Z" fill="black"/>
<path d="M0 11.3684H3.24812V12.812H0V11.3684Z" fill="black"/>
<path d="M11.3684 0H12.812V3.24812H11.3684V0Z" fill="black"/>
<path d="M11.3684 20.7519H12.812V24H11.3684V20.7519Z" fill="black"/>
</svg>
