<svg viewBox="0 0 100 100" version="1.1" xmlns="http://www.w3.org/2000/svg" xmlns:xlink="http://www.w3.org/1999/xlink">
    <title>Sports/Resources/Courts/Table Tennis</title>
    <defs>
        <path d="M87.2986328,74.4684477 C94.2990234,74.4684477 99.9939453,80.1524633 99.9939453,87.139013 C99.9939453,94.1255628 94.2988281,99.8095783 87.2986328,99.8095783 C80.2984375,99.8095783 74.6033203,94.1255628 74.6033203,87.139013 C74.6033203,80.1524633 80.2984375,74.4684477 87.2986328,74.4684477 Z M87.2986328,80.316401 C83.5292969,80.316401 80.4626953,83.3770247 80.4626953,87.139013 C80.4626953,90.9010013 83.5292969,93.9616251 87.2986328,93.9616251 C91.0679688,93.9616251 94.1345703,90.9010013 94.1345703,87.139013 C94.1345703,83.3770247 91.0679688,80.316401 87.2986328,80.316401 Z M54.9613281,0.511917529 C60.7896484,-0.336230619 66.3,-0.129602939 71.3388672,1.12536782 C76.8451172,2.49690778 81.5072266,5.05870116 85.1953125,8.73979277 C88.8835938,12.4206895 91.4503906,17.0737109 92.8246094,22.5692275 C94.0822266,27.5984672 94.2890625,33.0978824 93.4392578,38.9148415 C91.7707031,50.3376485 86.2490234,61.4450559 78.2898438,69.3883308 C74.5039063,73.1674731 70.3410156,76.0279019 65.9169922,77.8908649 L65.9169922,77.8908649 C56.29375,81.942132 45.7566406,81.1678629 36.0107422,75.74759 L36.0107422,75.74759 L21.6664063,90.0637694 C19.1914063,92.5339448 15.9404297,93.7690325 12.6894531,93.7690325 C9.43847656,93.7690325 6.1875,92.5339448 3.7125,90.0637694 C-1.2375,85.1234185 -1.2375,77.0852119 3.7125,72.144861 L3.7125,72.144861 L18.0568359,57.8284867 C12.6259766,48.1017811 11.85,37.5854068 15.9080078,27.9828727 L15.9080078,27.9828727 C17.775,23.5661086 20.6414063,19.4109429 24.4283203,15.6316056 C32.3873047,7.68813585 43.5160156,2.17741461 54.9613281,0.511917529 Z M19.9041016,34.5489546 C18.1986328,41.8206895 19.6720703,49.5489546 24.2148438,56.7286817 C24.9458984,57.8840423 24.7775391,59.3910598 23.8091797,60.3573366 L23.8091797,60.3573366 L7.85546875,76.2801437 C5.19023438,78.9401826 5.19003906,83.2688376 7.85546875,85.9288766 C10.5208984,88.5889156 14.8578125,88.5889156 17.5232422,85.9288766 L17.5232422,85.9288766 L33.4769531,70.0062645 C34.4453125,69.0397928 35.9548828,68.8717616 37.1126953,69.6015861 C44.3068359,74.1353093 52.0501953,75.6060696 59.3359375,73.9039253 L59.3359375,73.9039253 Z M81.0521484,12.8746856 C75.2724609,7.10606958 66.3066406,4.77117679 55.8066406,6.29866217 C45.7341797,7.76435418 35.5527344,12.799052 28.5714844,19.7666934 C25.8394531,22.493399 23.6769531,25.4216641 22.1240234,28.4939838 L22.1240234,28.4939838 L65.4027344,71.6883308 C68.48125,70.1380384 71.4152344,67.9797538 74.146875,65.2532431 C81.128125,58.2856017 86.1726563,48.1240033 87.6410156,38.0709819 C89.1720703,27.5914497 86.8320313,18.6433015 81.0521484,12.8746856 Z" id="path-1"></path>
    </defs>
    <g id="Sports/Resources/Courts/Table-Tennis" stroke="none" stroke-width="1" fill="none" fill-rule="evenodd">
        <mask id="mask-2" fill="white">
            <use xlink:href="#path-1"></use>
        </mask>
        <use id="Combined-Shape" fill="#000000" fill-rule="nonzero" opacity="0" xlink:href="#path-1"></use>
        <g id="Group" mask="url(#mask-2)" fill="#000000">
            <g id="Colour/Black">
                <rect id="Rectangle" x="0" y="0" width="100" height="100"></rect>
            </g>
        </g>
    </g>
</svg>
