<svg viewBox="0 0 100 100" version="1.1" xmlns="http://www.w3.org/2000/svg" xmlns:xlink="http://www.w3.org/1999/xlink">
    <title>Sports/Resources/Courts/Squash</title>
    <defs>
        <path d="M68.1589226,0.0132898061 C72.423569,-0.158764066 76.3791246,1.34426624 79.2959596,4.26110125 L79.2959596,4.26110125 L95.7380471,20.7031888 C98.6545455,23.6200238 100.1633,27.5752427 99.9858586,31.8398891 C99.7922559,36.4974649 97.5727273,40.9530204 93.8969697,44.0637949 L93.8969697,44.0637949 L75.8057239,59.371539 C72.762963,61.9462864 69.2265993,63.6698555 65.5952862,64.9227174 C62.2107374,66.0903773 56.0047515,68.5044625 50.0295675,70.8771469 L49.197626,71.2078208 C41.5908561,74.2341602 34.5939394,77.0947713 34.5939394,77.0947713 L34.5939394,77.0947713 L14.1104377,97.578273 C12.5494949,99.1395524 10.4737374,99.9991484 8.26565657,99.9991484 C6.05791246,99.9991484 3.98249158,99.1395524 2.42121212,97.578273 L2.42121212,97.578273 C0.85959596,96.0166568 -3.48165941e-13,93.9412359 -3.48165941e-13,91.7334918 C-3.48165941e-13,89.525411 0.85959596,87.4496534 2.42121212,85.8887107 L2.42121212,85.8887107 L22.9040404,65.4055457 C22.9040404,65.4055457 32.3606061,42.2752427 35.0760943,34.4041989 C36.3289562,30.7725491 38.0525253,27.2361854 40.6272727,24.1934245 L40.6272727,24.1934245 L55.9350168,6.1025154 C59.0457912,2.42642112 63.5013468,0.2068925 68.1589226,0.0132898061 Z M78.0727273,68.6038622 C85.9498316,68.6038622 92.3582492,75.0126164 92.3582492,82.8893841 C92.3582492,90.7661518 85.9494949,97.174906 78.0727273,97.174906 C70.1959596,97.174906 63.7872054,90.7661518 63.7872054,82.8893841 C63.7872054,75.0126164 70.1956229,68.6038622 78.0727273,68.6038622 Z M25.7434343,71.9634582 L7.11952862,90.5873639 C6.70606061,91.0001585 6.64444444,91.4826501 6.64444444,91.7334918 C6.64444444,91.9843336 6.70606061,92.4664885 7.11919192,92.8796198 L7.11919192,92.8796198 L7.24515657,92.9936403 C7.62650505,93.3047949 8.03989899,93.3547039 8.26565657,93.3547039 C8.51649832,93.3547039 8.9986532,93.2930878 9.41178451,92.8799565 L9.41178451,92.8799565 L28.0360269,74.2560507 L25.7434343,71.9634582 Z M78.0727273,75.2486433 C73.8592593,75.2486433 70.4316498,78.6762528 70.4316498,82.8897208 C70.4316498,87.1031888 73.8592593,90.5307982 78.0727273,90.5307982 C82.2861953,90.5307982 85.7138047,87.1031888 85.7138047,82.8897208 C85.7138047,78.6762528 82.2861953,75.2486433 78.0727273,75.2486433 Z M35.6461279,51.1345019 L29.6313131,66.4536938 L33.5454545,70.3678353 L48.8649832,64.3533571 C45.8808081,63.1786097 43.1646465,61.4190137 40.8723906,59.1270945 C38.5801347,56.8351753 36.8205387,54.1190137 35.6461279,51.1345019 L35.6461279,51.1345019 Z M58.7922559,58.0079026 L57.36633,59.4334918 C58.2737374,59.4617747 59.1888889,59.4233908 60.1053872,59.3210339 L60.1053872,59.3210339 L58.7922559,58.0079026 Z M51.8006734,51.0169935 L47.0653199,55.752347 C48.7195286,57.0573976 50.5713805,58.0149733 52.5353535,58.6274312 L52.5353535,58.6274312 L55.973064,55.1897208 L51.8006734,51.0169935 Z M65.3861953,51.4136265 L61.6107744,55.1890474 L64.6794613,58.2577343 C66.4006734,57.6439295 68.0808081,56.7910676 69.6720539,55.6994851 L69.6720539,55.6994851 L65.3861953,51.4136265 Z M71.9801347,44.8200238 L68.2050505,48.595108 L72.8114478,53.2015053 L76.9013468,49.7412359 L71.9801347,44.8200238 Z M44.8097643,44.0257477 L41.3717172,47.4637949 C41.9841751,49.4274312 42.9414141,51.2792831 44.2464646,52.9334918 L44.2464646,52.9334918 L48.9821549,48.1981383 L44.8097643,44.0257477 Z M58.3952862,44.4227174 L54.6198653,48.1981383 L58.7922559,52.3705289 L62.5676768,48.595108 L58.3952862,44.4227174 Z M78.5737374,38.2264211 L74.7986532,42.0015053 L79.9545455,47.1573976 L84.0444444,43.6971282 L78.5737374,38.2264211 Z M64.9888889,37.828778 L61.2138047,41.6038622 L65.3861953,45.7762528 L69.1612795,42.0011686 L64.9888889,37.828778 Z M51.4040404,37.4314716 L47.6286195,41.2068925 L51.8010101,45.3792831 L55.576431,41.6038622 L51.4040404,37.4314716 Z M40.6781145,39.8937612 C40.5754209,40.8102595 40.537037,41.725411 40.5653199,42.6328184 L40.5653199,42.6328184 L41.9912458,41.2068925 Z M85.1676768,31.632145 L81.3925926,35.4072292 L87.0983165,41.1129531 L89.6050505,38.991741 C90.1383838,38.5405625 90.6195286,38.0435928 91.0484848,37.5129531 L91.0484848,37.5129531 L85.1676768,31.632145 Z M71.5824916,31.2351753 L67.8074074,35.0102595 L71.979798,39.1826501 L75.7548822,35.4075659 L71.5824916,31.2351753 Z M57.9979798,30.8378689 L54.2228956,34.6129531 L58.3952862,38.7853437 L62.1703704,35.0102595 L57.9979798,30.8378689 Z M44.2996633,30.3270945 C43.2080808,31.9183403 42.3552189,33.598475 41.7414141,35.3196871 L41.7414141,35.3196871 L44.810101,38.388374 L48.5855219,34.6129531 Z M91.2141414,25.5860171 L87.986532,28.8136265 L92.9818182,33.8089127 C93.1895623,33.0769262 93.3154882,32.3247376 93.347138,31.5644683 C93.4424242,29.2678353 92.6851852,27.1560507 91.2141414,25.5860171 L91.2141414,25.5860171 Z M78.176431,24.6412359 L74.4013468,28.4163201 L78.5737374,32.5887107 L82.3488215,28.8136265 L78.176431,24.6412359 Z M64.5915825,24.2442662 L60.8164983,28.0193504 L64.9888889,32.1914043 L68.7639731,28.4166568 L64.5915825,24.2442662 Z M50.2579125,23.0981383 L46.7976431,27.1877006 L51.4040404,31.7940979 L55.1791246,28.0193504 L50.2579125,23.0981383 Z M84.2279461,18.5897208 L80.9952862,21.8223807 L85.1676768,25.9947713 L88.4003367,22.7621114 L84.2279461,18.5897208 Z M71.1855219,17.6503268 L67.4104377,21.425411 L71.5828283,25.5978016 L75.3579125,21.8227174 L71.1855219,17.6503268 Z M56.3023569,15.9547039 L52.8417508,20.0446029 L57.9976431,25.2001585 L61.7727273,21.4250743 L56.3023569,15.9547039 Z M77.2367003,11.5988117 L74.0040404,14.8314716 L78.176431,19.0038622 L81.4090909,15.7712023 L77.2367003,11.5988117 Z M62.4861953,8.95066354 C61.9555556,9.37961977 61.4589226,9.86110125 61.0074074,10.3944346 L61.0074074,10.3944346 L58.886532,12.9011686 L64.5919192,18.6065558 L68.3670034,14.8314716 Z M68.8215488,6.64392954 C68.693266,6.64392954 68.5639731,6.64662314 68.4346801,6.65201034 C67.6744108,6.68366018 66.9222222,6.8099228 66.1905724,7.01733021 L66.1905724,7.01733021 L71.1858586,12.0126164 L74.4138047,8.78467028 C72.9319865,7.39645479 70.9683502,6.64392954 68.8215488,6.64392954 Z" id="path-1"></path>
    </defs>
    <g id="Sports/Resources/Courts/Squash" stroke="none" stroke-width="1" fill="none" fill-rule="evenodd">
        <mask id="mask-2" fill="white">
            <use xlink:href="#path-1"></use>
        </mask>
        <use id="Combined-Shape" fill="#000000" fill-rule="nonzero" opacity="0" xlink:href="#path-1"></use>
        <g id="Group" mask="url(#mask-2)" fill="#000000">
            <g id="Colour/Black">
                <rect id="Rectangle" x="0" y="0" width="100" height="100"></rect>
            </g>
        </g>
    </g>
</svg>
