<svg viewBox="0 0 100 100" version="1.1" xmlns="http://www.w3.org/2000/svg" xmlns:xlink="http://www.w3.org/1999/xlink">
    <title>Sports/Resources/Courts/Futsal</title>
    <defs>
        <path d="M85.3554688,14.6447266 C75.9117188,5.20097656 63.3554688,0 50,0 C36.6445312,0 24.0884766,5.20078125 14.6447266,14.6445312 C5.20097656,24.0884766 0,36.6445312 0,50 C0,63.3554688 5.20097656,75.9117188 14.6447266,85.3554688 C24.0884766,94.7992187 36.6445312,100 50,100 C63.3554688,100 75.9115234,94.7990234 85.3554688,85.3554688 C94.7992187,75.9117188 100,63.3554688 100,50 C100,36.6445312 94.7992188,24.0884766 85.3554688,14.6447266 Z M87.9583984,72.5621094 L70.0136719,72.5621094 L65.3884766,66.1958984 L71.9693359,45.9421875 L79.4529297,43.5107422 L93.9558594,54.0476562 C93.3597656,60.6494141 91.3097656,66.9462891 87.9583984,72.5621094 Z M29.9863281,72.5621094 L12.0417969,72.5621094 C8.69042969,66.9462891 6.64042969,60.6494141 6.04414062,54.0476563 L20.5470703,43.5105469 L28.0308594,45.9421875 L34.6117188,66.1958984 L29.9863281,72.5621094 Z M16.5884766,39.1439453 L5.9703125,46.8585937 C6.47636719,39.6130859 8.73046875,32.7121094 12.5275391,26.6455078 L16.5884766,39.1439453 Z M33.7929688,44.7144531 L50,32.9392578 L66.2070312,44.7146484 L60.0164062,63.7673828 L39.9832031,63.7673828 L33.7929688,44.7144531 Z M83.4115234,39.1439453 L87.4724609,26.6453125 C91.2697266,32.7121094 93.5236328,39.6130859 94.0296875,46.8585937 L83.4115234,39.1439453 Z M77.6423828,37.9380859 L70.184375,40.3613281 L52.9296875,27.8251953 L52.9296875,19.9832031 L67.4507813,9.43300781 C72.5242188,11.6167969 77.1886719,14.7646484 81.2119141,18.7878906 C81.8943359,19.4703125 82.5492188,20.1730469 83.1810547,20.8912109 L77.6423828,37.9380859 Z M60.6341797,7.14316406 L50,14.8691406 L39.3660156,7.14316406 C42.8042969,6.29667969 46.3683594,5.859375 50,5.859375 C53.6318359,5.859375 57.1960938,6.29667969 60.6341797,7.14316406 Z M32.5492188,9.43300781 L47.0703125,19.9832031 L47.0703125,27.8251953 L29.815625,40.3613281 L22.3574219,37.9378906 L16.8185547,20.8912109 C17.4503906,20.1730469 18.1050781,19.4703125 18.7876953,18.7878906 C22.8111328,14.7646484 27.4755859,11.6166016 32.5492187,9.43300781 L32.5492188,9.43300781 Z M29.3505859,78.4214844 L33.4144531,90.9289062 C28.0052734,88.7376953 23.0388672,85.4630859 18.7878906,81.2121094 C17.8892578,80.3134766 17.0371094,79.38125 16.2265625,78.4214844 L29.3505859,78.4214844 Z M40.2714844,93.0712891 L34.7267578,76.00625 L39.3619141,69.6265625 L60.6380859,69.6265625 L65.2732422,76.00625 L59.7287109,93.0712891 C56.5716797,93.7779297 53.3138672,94.140625 50,94.140625 C46.6863281,94.140625 43.4283203,93.7779297 40.2714844,93.0712891 Z M66.5855469,90.9291016 L70.6494141,78.4216797 L83.7734375,78.4216797 C82.9628906,79.3814453 82.1107422,80.3138672 81.2121094,81.2123047 C76.9611328,85.4632812 71.9945313,88.7378906 66.5855469,90.9291016 Z" id="path-1"></path>
    </defs>
    <g id="Sports/Resources/Courts/Futsal" stroke="none" stroke-width="1" fill="none" fill-rule="evenodd">
        <mask id="mask-2" fill="white">
            <use xlink:href="#path-1"></use>
        </mask>
        <use id="Shape" fill="#000000" fill-rule="nonzero" opacity="0" xlink:href="#path-1"></use>
        <g id="Group" mask="url(#mask-2)" fill="#000000">
            <g id="Colour/Black">
                <rect id="Rectangle" x="0" y="0" width="100" height="100"></rect>
            </g>
        </g>
    </g>
</svg>
