<svg xmlns="http://www.w3.org/2000/svg" xmlns:xlink="http://www.w3.org/1999/xlink" viewBox="0 0 100 100">
    <defs>
        <path id="nxgwruldda" d="M80.906 22.202h-13.43v-5.535H62.62v5.535H37.38v-5.535h-4.855v5.535h-13.43c-1.376 0-2.427 1.029-2.427 2.373V80.96c0 1.344 1.051 2.372 2.427 2.372h61.812c1.376 0 2.427-1.028 2.427-2.372V24.575c0-1.265-1.051-2.373-2.427-2.373zM33.252 71.155c-2.67 0-4.773-2.057-4.773-4.666 0-2.61 2.104-4.666 4.773-4.666 2.67 0 4.774 2.056 4.774 4.666 0 2.61-2.104 4.666-4.774 4.666zm0-13.919c-2.67 0-4.773-2.056-4.773-4.666 0-2.61 2.104-4.666 4.773-4.666 2.67 0 4.774 2.056 4.774 4.666 0 2.61-2.104 4.666-4.774 4.666zM50 71.155c-2.67 0-4.773-2.057-4.773-4.666 0-2.61 2.103-4.666 4.773-4.666 2.67 0 4.773 2.056 4.773 4.666 0 2.53-2.103 4.666-4.773 4.666zm0-13.919c-2.67 0-4.773-2.056-4.773-4.666 0-2.61 2.103-4.666 4.773-4.666 2.67 0 4.773 2.056 4.773 4.666 0 2.53-2.103 4.666-4.773 4.666zm16.748 13.919c-2.67 0-4.774-2.057-4.774-4.666 0-2.61 2.104-4.666 4.774-4.666s4.773 2.056 4.773 4.666c0 2.61-2.104 4.666-4.773 4.666zm0-13.919c-2.67 0-4.774-2.056-4.774-4.666 0-2.61 2.104-4.666 4.774-4.666s4.773 2.056 4.773 4.666c0 2.61-2.104 4.666-4.773 4.666zM78.479 35.33v.95H21.521v-9.333h11.003v5.694h4.855v-5.694H62.62v5.694h4.855v-5.694h11.003v8.383z"/>
    </defs>
    <g fill="none" fill-rule="evenodd">
        <g>
            <g>
                <g>
                    <g>
                        <g transform="translate(-141 -4666) translate(-358 3889.948) translate(478 435) translate(1 321) translate(20 20.052)">
                            <mask id="xcwcfnvtdb" fill="#fff">
                                <use xlink:href="#nxgwruldda"/>
                            </mask>
                            <use fill="currentColor" fill-rule="nonzero" xlink:href="#nxgwruldda"/>
                            <g fill="currentColor" mask="url(#xcwcfnvtdb)">
                                <path d="M0 0H100V100H0z"/>
                            </g>
                        </g>
                    </g>
                </g>
            </g>
        </g>
    </g>
</svg>
