<svg viewBox="0 0 100 100" version="1.1" xmlns="http://www.w3.org/2000/svg" xmlns:xlink="http://www.w3.org/1999/xlink">
    <title>Sport/Player/Squash</title>
    <g id="Sport/Player/Squash" stroke="none" stroke-width="1" fill="none" fill-rule="evenodd">
        <path d="M89.0765296,30.5281791 C89.8165905,30.087937 90.8078108,29.5489808 90.8078108,29.5489808 C90.8078108,29.5489808 89.9716221,29.3521636 88.9921826,28.7139697 C87.9708559,28.0485443 87.5122243,27.402146 87.5122243,27.402146 C87.5122243,27.402146 87.450948,28.3075924 87.4270592,29.5548286 C87.4021887,30.9649299 87.3171054,31.0805764 87.2629466,31.8457633 C87.2629466,31.8457633 88.1690836,31.0696664 89.0765296,30.5281791 M92.2208478,29.0052242 C93.600915,28.3879776 94.7464306,27.597043 96.1691213,26.318735 C97.2529514,25.3451227 99.0012493,22.7892921 99.3126214,21.3087555 C99.9805252,18.1096688 96.4963647,15.8875983 96.4316523,15.8487586 C95.8155348,15.4792136 92.9603361,13.5643699 90.6170279,15.6455699 C89.5237895,16.6154292 88.1546849,19.5887216 87.8487123,21.0643705 C87.5208144,22.6332349 87.3630013,24.0551191 87.4243594,25.7440812 C87.4714007,27.0351321 91.3421174,29.3967639 92.2208478,29.0052242 M0.157952215,78.1560196 C0.229945764,77.8466107 0.405020984,77.2302369 0.549008081,76.9511143 C0.701176264,76.65183 1.1274108,76.1420254 1.33766468,75.8892615 C1.56264452,75.6152012 2.08214342,75.1395233 2.29812407,74.8549894 C2.44620171,74.6538082 2.73090347,74.2282292 2.8110781,73.9863753 C2.93952114,73.6065312 2.95179276,72.7818192 3.03360362,72.387312 C3.09577986,72.0880277 3.19231667,71.4631876 3.35675648,71.2128676 C3.66027473,70.7479252 4.58228302,70.1023124 5.06251271,69.8619423 C5.30794526,69.7366077 5.84707877,69.6088293 6.11378214,69.5781066 C6.40257444,69.5465984 6.9850677,69.5717351 7.26919679,69.6289038 C7.54776273,69.6852869 8.11160311,69.8422169 8.34010082,70.022189 C8.56589877,70.197448 9.00816823,70.9845422 9.00816823,70.9845422 L10.143212,70.8191459 C10.143212,70.8191459 12.0768932,69.8474538 12.7394793,69.5692913 C13.7929576,69.1236378 15.9359929,68.3157709 17.0321765,68.0047037 C18.0773919,67.7083869 20.2080737,67.2773965 21.2807776,67.1185463 C21.8166386,67.0406922 23.4320757,66.9310681 23.4320757,66.9310681 C23.4320757,66.9310681 23.6944431,65.2901975 23.7359212,64.737451 C23.8256677,63.5182318 23.770609,61.0660903 23.770609,59.8410233 C23.770609,59.5958528 22.8549819,59.0415353 22.8549819,59.0415353 C22.8549819,59.0415353 23.962619,48.7479525 23.9255587,48.5232928 C23.8799901,48.2569132 24.8237601,45.7363439 24.8537028,45.4658621 C24.9009895,45.0188122 26.5388427,40.5172407 29.0065852,37.799767 C30.2140316,36.4702254 31.5831362,33.6066443 31.5831362,33.6066443 L33.552487,31.334475 L35.591786,28.9138417 L40.2669489,20.6496143 C40.2669489,20.6496143 37.0828706,19.4894839 35.9826783,19.2786146 C35.5490808,19.1955237 34.6626602,19.1662847 34.2205544,19.1579058 C33.6377339,19.1487414 32.4707839,19.2435279 31.8891087,19.2392511 C30.8558377,19.231745 29.0294105,18.6774275 27.9978574,18.6235755 C27.2262175,18.5842994 25.6822013,18.453117 24.9098251,18.453117 C24.2548474,18.4522442 22.2962138,18.5942493 22.2962138,18.5942493 C22.2962138,18.5942493 21.1756506,18.596955 20.8060292,18.6496723 C20.5898849,18.6799586 20.15776,18.7614785 19.9616594,18.8587088 C19.5135814,19.0797899 18.8167984,19.8684552 18.3795194,20.1119673 C18.2160613,20.2026516 17.8536392,20.2723886 17.690672,20.3588835 C17.5402218,20.4395305 17.2734367,20.6664594 17.1499841,20.7881282 C17.0026427,20.9298715 16.7325851,21.2423352 16.618459,21.4153248 C16.5011422,21.587529 16.3492195,21.9865747 16.2303483,22.1587789 C16.1553278,22.2654355 15.9696171,22.4509935 15.9121859,22.5684728 C15.8275117,22.7480958 15.7609177,23.1733257 15.6368924,23.3160291 C15.5707074,23.394145 15.3470366,23.4512263 15.2540994,23.4143067 C15.173843,23.3821876 15.091214,23.1978515 15.0469544,23.1180772 C14.9756971,22.9843637 14.8700793,22.6877851 14.8566623,22.5340844 C14.8384185,22.3275791 14.9124573,21.908197 14.9709521,21.7093723 C15.0377915,21.4867202 15.3579174,20.8746231 15.3579174,20.8746231 L15.7781797,20.1757693 C15.7781797,20.1757693 15.8832249,19.6549674 15.8737348,19.4804067 C15.8636721,19.3115192 15.7721257,18.9831706 15.7012775,18.8328738 C15.6368924,18.6876393 15.4539633,18.4238781 15.3440914,18.3146031 C15.2491908,18.2248789 15.0193841,18.1039083 14.9111483,18.0358296 C14.6464084,17.8713934 13.8388535,17.3924862 13.8388535,17.3924862 C13.8388535,17.3924862 13.085621,16.8953373 12.846897,16.7080336 C12.4707307,16.4140734 11.7408143,15.7851312 11.4061261,15.4389773 C11.2533852,15.2834437 10.9778463,14.9241978 10.9015986,14.7132412 C10.8423675,14.554391 10.7684923,14.1890354 10.8333683,14.0321926 C10.8692015,13.9432539 11.0369955,13.8247272 11.1262512,13.8002887 C11.2015171,13.7802142 11.3725018,13.8068348 11.4407321,13.8506495 C11.5306422,13.9079054 11.6152346,14.1245352 11.6872282,14.2058805 C11.8252431,14.365429 12.2999096,14.7770431 12.2999096,14.7770431 L13.2025287,15.208819 L14.1943217,15.366011 L12.9010557,13.9095637 C12.9010557,13.9095637 12.310136,13.1494391 12.1693395,12.8581846 C12.0697757,12.6515047 11.9384693,12.2014 11.8972366,11.9717654 C11.8705663,11.8164936 11.8657394,11.4410135 11.984447,11.3461398 C12.2580225,11.1287244 12.56964,11.4395298 12.56964,11.4395298 L12.7506056,11.6981415 C12.7506056,11.6981415 13.1765129,11.7090515 13.2938296,11.783938 C13.4356897,11.8744478 13.6866853,12.3464599 13.6866853,12.3464599 L14.3346273,13.2787886 L15.3377101,14.1851078 C15.3377101,14.1851078 15.0893324,13.9086036 15.0620076,13.7893787 C15.0351736,13.6759142 15.0682252,13.4298709 15.1251655,13.3307204 C15.1532267,13.2787886 15.2540994,13.1823438 15.313985,13.1823438 C15.5628536,13.1856605 15.9488372,13.6164763 16.0230396,13.755863 C16.1279211,13.9490144 16.3528192,14.573069 16.3528192,14.573069 L17.1547291,15.2263624 L17.835559,15.6497594 L18.8689119,15.6808312 L20.0027284,15.7016912 C20.0027284,15.7016912 21.0766595,15.5716435 21.4338457,15.5329783 C22.0857963,15.4590518 23.3924792,15.3523952 24.0417301,15.2583943 C24.9653746,15.1238953 26.7981831,14.7302609 27.7207641,14.573069 C28.4121476,14.454455 29.7992506,14.2211546 30.4972607,14.1412931 C31.0570924,14.0758328 32.1814189,13.9758968 32.7452593,13.9676052 C33.2356335,13.9607973 34.2164638,14.0390005 34.7053655,14.0917178 C35.3425902,14.1631131 40.0248706,13.923965 40.642788,13.9062471 C41.181267,13.8901875 42.2602703,13.9312965 42.7968677,13.8765718 C43.37977,13.8155628 45.2848992,13.4485489 46.9766658,13.7870221 C48.9762866,14.1877262 47.5501599,13.9690016 50.9687081,15.5756584 L52.8461853,16.9000504 L53.4098621,17.1234881 C53.4846372,16.9632414 53.5453408,16.7742794 53.5830556,16.5442957 C53.6307514,16.251121 53.2796192,15.5278287 53.1614025,15.1457153 C52.4921898,12.9545421 52.7141426,9.52032213 54.7855115,7.01502691 C55.4840944,6.17259696 56.6612707,5.14618003 57.4122943,5.03961072 C58.9095965,4.8255993 60.8981728,5.51939081 62.6269997,6.14580189 L63.600058,6.64722751 C64.0506722,6.99329411 64.708595,7.55913263 65.1061139,8.09241557 C65.4108594,8.49818193 65.5431475,8.88858694 65.8388937,9.34148469 C66.1159053,9.76802376 66.4232686,10.231657 66.2228321,10.7172849 C66.062401,11.0976526 65.2050233,11.578131 65.2050233,11.578131 C65.2050233,11.578131 65.3649635,13.2342756 65.2341479,13.9497127 C65.1228852,14.5604133 64.5746707,14.9828502 64.4409917,15.4893381 C64.3323469,15.9026106 64.6330018,16.3930388 64.8340111,17.6294523 C64.9552547,18.3649638 64.08446,18.2123105 63.6130659,18.1919742 C63.5451629,18.4429052 63.4635157,18.671667 63.381214,18.9344681 C63.2970306,19.2132416 63.3228828,19.3274043 63.2618519,19.5181118 C63.1515709,19.8684552 62.7734412,20.0531404 62.7734412,20.0531404 C62.7734412,20.0531404 62.8256365,20.3488462 62.7687779,20.4763628 C62.6570243,20.729214 62.2082918,20.9391232 62.0745311,21.1633465 C61.9687496,21.3356379 61.9329165,21.5429287 61.8103638,21.728574 C61.1069541,22.7844044 59.6578385,21.7236863 58.6901798,21.3852131 C58.6137685,21.4532045 57.961736,22.6475488 56.8711973,23.3807038 C56.9151298,24.0081622 57.7806068,25.4351087 57.7806068,25.4351087 L58.993289,27.2526348 L59.8535301,28.8903633 C59.8535301,28.8903633 62.7308995,32.8259216 62.8962392,33.2089951 C63.0488165,33.561695 62.9844313,34.2505988 62.9844313,34.2505988 L66.8561299,38.6679447 C66.8561299,38.6679447 69.9722233,37.8626088 73.3852902,38.2447222 C74.4417955,38.3633362 76.566587,38.3171649 77.6271828,38.2315429 C78.2725068,38.1803966 80.2037338,38.0054868 80.2037338,38.0054868 L80.9745556,37.7844057 L81.3578394,37.6870008 C81.3578394,37.6870008 81.761985,37.4982134 81.9067084,37.4839867 C82.101091,37.4646104 82.503355,37.5181133 82.6781847,37.6054809 C82.7379067,37.6340216 82.8031099,37.6893574 82.8715038,37.7551667 L82.9176451,37.6904047 L83.4305991,36.7949956 L84.4767145,35.7719826 C84.4767145,35.7719826 85.8443465,33.2595304 86.207423,32.3706673 C86.5639547,31.5006567 86.632185,30.318008 86.6522286,29.6053639 C86.7218497,27.2465251 86.7340395,22.8348525 87.443994,20.2730869 C87.8519029,18.8034603 89.1504866,15.9686818 90.2899481,15.0172387 C92.7359289,12.9763622 95.9233615,14.8836997 96.6058276,15.2944411 C96.6771666,15.3365102 96.7622499,15.393417 96.8220537,15.4353988 C97.4159186,15.8505915 100.515405,18.0155806 99.9257937,21.294267 C99.6535272,22.8122469 97.8559792,25.3139636 96.8452879,26.3967636 C94.8423129,28.5318156 91.1504346,30.2473109 89.257577,31.4215807 C88.6619122,31.789642 87.8859363,32.3623757 87.323323,33.0973635 C86.7499108,33.8482364 85.2787063,36.2930463 85.2787063,36.2930463 L84.9032763,37.7526356 L84.375269,38.674578 L84.3416448,38.7686662 C84.5532894,38.897492 84.9625073,39.1518269 85.1013403,39.2929593 C85.2128485,39.402147 85.3486545,39.511422 85.4057585,39.6607587 C85.4563176,39.7949958 85.5165304,40.1151402 85.4287474,40.2272081 C85.2886054,40.4049982 85.0537264,40.3958338 84.8971404,40.3874549 C84.8303828,40.3844 84.6335459,40.3386651 84.6335459,40.3386651 C84.6335459,40.3386651 84.6022123,40.9289422 84.5321004,41.054975 C84.4927494,41.1232282 84.3320729,41.3153323 84.2944399,41.3818399 C84.2604066,41.4439835 84.1523345,41.8871931 84.0706872,42.0016177 C83.9927215,42.1062668 83.7826312,42.4927442 83.6685051,42.544676 C83.5527427,42.5987898 83.2874301,42.5859596 83.1733858,42.6391134 C83.0897751,42.6763821 82.9662407,42.8293845 82.8827119,42.8695335 C82.7557414,42.9302806 82.4833931,42.9899804 82.346769,42.9951299 L82.0555224,43.031264 L81.3092438,44.3339232 L80.6682558,43.9162868 L79.8383665,43.3763705 L80.6359405,41.983027 L80.6102519,41.9642617 C80.4274864,41.8091645 80.2572381,41.6647155 80.2572381,41.6647155 L79.4900977,41.3724136 C79.4900977,41.3724136 77.4139837,41.7798383 76.7211277,41.9109334 C75.8855934,42.0678635 73.8435946,42.7920285 70.1013209,43.1799024 C69.5106465,43.2405623 67.2828552,43.5830504 66.6980713,43.6701562 C65.385498,43.8668861 64.7777252,43.3251369 64.5163395,43.2486793 C64.3304653,43.1922962 62.6712594,42.0023159 62.3942479,41.7864716 C61.8935655,41.3920517 60.9259067,40.5483998 60.4209702,40.1579948 C59.9647928,39.8059932 59.0008156,39.1815022 58.5571554,38.8100371 C58.0957422,38.422425 57.2202842,37.5897705 56.8275922,37.1269228 C56.4983853,36.7399217 55.9931215,35.8379665 55.6623602,35.4529729 C55.4251906,35.17996 54.6130542,34.4713308 54.6130542,34.4713308 C54.6130542,34.4713308 50.8468099,36.7877513 50.4151759,37.0069123 C50.1667163,37.1323341 49.7499718,37.5341729 49.5283463,37.7105665 C49.3066388,37.8854763 48.8441621,38.2135631 48.6398804,38.4137843 C48.4252906,38.6236935 48.0828303,39.1368147 47.8697131,39.3456766 C47.6268985,39.5846502 47.0288611,39.9186721 46.8143531,40.1831316 C46.6162072,40.4233271 46.3634935,41.0130804 46.2383229,41.3035494 C46.142277,41.5273363 45.9446219,41.9841616 45.9123885,42.2284593 C45.8856363,42.4267603 45.2618286,44.63024 45.2912805,45.4536429 C45.3063337,45.9093336 45.6748916,46.8818985 46.0464764,47.0904113 C46.6743747,47.4446822 51.5146319,50.7002394 51.5751719,50.8679049 C51.6341575,51.0259696 51.5278034,51.375091 51.4822348,51.5383053 C51.4517194,51.65465 51.2979968,51.9850934 51.2979968,51.9850934 L52.2480662,52.9769473 C52.2480662,52.9769473 52.5583747,53.3625519 53.0683836,53.9974292 C53.5108167,54.5484301 54.3682762,55.6773141 54.8393431,56.1993379 C55.2379255,56.6430712 56.1038934,57.4524219 56.5095934,57.8871653 C56.8064031,58.2070478 57.4370012,58.8216761 57.6610811,59.2021311 C57.8472008,59.518697 58.0972147,60.2309919 58.1585729,60.5995768 C58.2073322,60.9035743 58.1585729,61.5278034 58.1342751,61.8352048 C58.1162767,62.0956493 58.044774,62.6112144 57.9927423,62.8673822 C57.927539,63.1799331 57.7659626,63.8061697 57.6487277,64.1030101 C57.5618445,64.3223457 57.1351191,66.9195471 57.1213749,67.3682554 C57.1029675,68.0164865 57.0591987,69.3123379 56.9855689,69.9564669 C56.8534444,71.1213978 56.3745237,73.4185293 56.1742507,74.5718519 C55.9861676,75.6501134 55.4279721,78.8827158 55.4279721,78.8827158 L54.8524328,83.0376096 L54.7955743,84.8739009 L54.9766217,85.7856315 C54.9766217,85.7856315 55.1230631,85.6363821 55.1857302,85.6202352 C55.2938841,85.5916073 55.540462,85.6085396 55.6212912,85.6875284 C55.6977025,85.7636368 55.6933665,86.0139569 55.7098105,86.1252393 C55.7372171,86.3223184 55.7702687,86.9235054 55.7702687,86.9235054 L55.9779047,87.6559621 C55.9779047,87.6559621 56.3602068,88.2336708 56.5046847,88.4100644 C56.731219,88.6932891 57.2661801,89.1812736 57.4946778,89.4634509 C57.8849974,89.9457622 58.4816439,91.0708932 58.9172867,91.5058984 C59.0782905,91.6679781 59.463865,91.9084354 59.66152,92.0187578 C59.8946809,92.1509002 60.3913546,92.3558345 60.638178,92.4624038 C60.8447504,92.5532627 61.2747482,92.7039085 61.4783754,92.8062011 C61.6037096,92.8677338 61.8680405,92.9822456 61.9563962,93.0923061 C62.0454064,93.2007956 62.140307,93.482362 62.1560147,93.6243671 C62.1775309,93.8255483 62.1421068,94.2507782 62.0454064,94.423506 C61.9391341,94.6132535 61.5758121,94.8805932 61.3800388,94.951814 C61.1265887,95.0433711 60.5803377,94.9779108 60.3164977,94.9692701 C59.9536666,94.9571381 59.2325039,94.9034607 58.8740906,94.8462048 C58.2581367,94.7487126 57.0470907,94.3965364 56.4315458,94.277486 C55.1523514,94.0269041 52.5553477,93.7593026 51.2829436,93.4645568 C50.872744,93.3712541 50.0640437,93.1252981 49.6706971,92.9731684 C49.1551252,92.7748675 48.111955,92.3848116 47.6462058,92.0736571 C47.4539503,91.9470133 47.0837562,91.6443251 46.9682393,91.4403509 C46.8915825,91.3075102 46.8262975,90.9935628 46.8277701,90.8379419 C46.8306335,90.569293 47.0088175,90.0529424 47.0981549,89.7992184 C47.1781659,89.5557063 47.3855565,89.0887564 47.4979646,88.8619148 C47.5940923,88.6672796 47.820872,88.3018367 47.9232992,88.1126129 C48.0096914,87.95385 48.1742949,87.6376333 48.2583146,87.4781721 C48.3530516,87.2988109 48.6418439,86.7623859 48.6418439,86.7623859 L48.9323542,86.5319658 L49.3431265,86.5963787 L49.6941768,85.4916713 C49.6941768,85.4916713 49.9981042,84.4347062 50.0640437,84.0724927 C50.1737521,83.4519294 50.2609624,82.1867135 50.3136486,81.5558511 C50.3678892,80.8866726 50.4865967,79.5420315 50.4879875,78.8701474 C50.4892965,78.1889242 50.385724,76.8307547 50.3213388,76.15311 C50.2279108,75.1871784 49.8978859,73.2720729 49.8158296,72.303261 C49.7648614,71.7100165 49.6911498,70.5143629 49.7272284,69.9180636 C49.7636343,69.2663412 49.9543354,67.976163 50.0838419,67.3396274 C50.1998497,66.7735271 50.5177667,65.6638447 50.688915,65.1138912 C50.7782524,64.8234222 51.0957603,63.9649326 51.0957603,63.9649326 C51.0957603,63.9649326 50.5044315,63.0125294 50.2486908,62.7520849 C49.9166206,62.410295 49.1325454,61.8702915 48.7230002,61.6418788 C48.4513882,61.4903601 47.8711039,61.266486 47.5750304,61.1706522 C47.2085178,61.0506417 46.4430955,60.9167536 46.0733104,60.8025037 C45.5878448,60.6514214 43.9504006,61.7655551 43.4894783,61.5485761 C42.6806962,61.1669864 35.7711972,54.9081997 35.7711972,54.9081997 L34.3132461,61.7120522 L33.0222708,62.001212 C33.0222708,62.001212 31.5770004,65.7911867 31.3688735,66.8924902 C31.2744638,67.3849259 31.0838445,68.3698847 30.9720909,68.8595275 C30.8573921,69.3571127 30.661946,70.3646771 30.4761535,70.8382603 C30.3787168,71.079765 30.1311572,71.5490715 29.9678627,71.7444922 C29.7062316,72.0493625 29.05469,72.4998164 28.7304736,72.7232541 C28.453053,72.9155327 27.8869219,73.2958132 27.5730137,73.4111978 C26.9621321,73.6336754 25.021006,73.8249939 25.021006,73.8249939 L22.6007138,73.9972854 C22.6007138,73.9972854 20.4184094,74.135712 19.6893929,74.1433054 C18.9764113,74.1516843 17.5488938,74.0602145 16.8350123,74.0636184 C15.9628268,74.0683316 14.220992,74.0920718 13.3569876,74.2003867 C12.6546415,74.2884526 11.272938,74.6332973 10.5809,74.7901401 C10.2022794,74.8784678 9.07255337,75.158725 9.07255337,75.158725 L8.68370639,75.4667374 L8.644519,75.751795 C8.644519,75.751795 8.42706576,76.353593 8.33674658,76.5445624 C8.25329951,76.7243599 8.08247845,77.0875335 7.95657155,77.237743 C7.70631216,77.534758 7.00224798,77.8966223 6.75190678,78.193201 C6.47456799,78.517622 6.13178053,79.332035 5.90025582,79.6938993 C5.73090736,79.9567878 5.34557825,80.4542858 5.16804871,80.7110646 C5.00115457,80.9461978 4.62073412,81.3912403 4.51601623,81.6627695 C4.44647701,81.8442254 4.45302187,82.2473733 4.40884401,82.436248 C4.36057561,82.6461572 4.25422151,83.0772349 4.13559577,83.2499627 C4.0030622,83.4391865 3.62345985,83.7019004 3.42711381,83.8112627 C3.29294401,83.8832689 3.00496982,84.0000501 2.85607407,84.0109601 C2.72108617,84.0189899 2.44865603,83.9781427 2.32430354,83.9260363 C2.09359694,83.8295042 1.68290647,83.5177388 1.5029226,83.3354975 C1.34502766,83.1746398 1.09059591,82.7850203 0.980151264,82.5813952 C0.784623331,82.2267751 0.464742905,81.4754659 0.34693528,81.0850609 C0.215219811,80.6492701 0.0139651182,79.7477513 0.000412969476,79.290315 C-0.00730570292,79.0037736 0.0949578604,78.4340948 0.157952215,78.1560196" id="Shape" fill="#000000"></path>
    </g>
</svg>
