
<svg viewBox="0 0 100 100" version="1.1" xmlns="http://www.w3.org/2000/svg" xmlns:xlink="http://www.w3.org/1999/xlink">
    <title>Sports/Resources/Courts/Rugby</title>
    <defs>
        <path d="M70.1484861,0.014190734 C84.2402829,-0.257098329 94.2627439,3.44934698 94.6824704,3.60715948 L94.6824704,3.60715948 L95.9252439,4.07473761 L96.392822,5.31751105 C96.5508298,5.73743292 100.258252,15.7610657 99.9857907,29.8516907 C99.8256345,38.1356751 98.3160642,46.1220032 95.4986814,53.5888001 C91.9770017,62.9225892 86.4004392,71.4464173 78.9232907,78.9233704 C71.4463376,86.4005189 62.9225095,91.9770814 53.5887204,95.498761 C46.1217282,98.3161439 38.1355954,99.8257142 29.8516111,99.9858704 C29.3527829,99.9954407 28.8588376,100.000128 28.3705564,100.000128 C15.0633298,100.000128 5.72250949,96.5450501 5.31762668,96.3927064 L5.31762668,96.3927064 L4.07485324,95.9251282 L3.60727512,94.6823548 C3.44946262,94.2626282 -0.258154568,84.2389954 0.0143063694,70.1483704 C0.174462619,61.864386 1.68422824,53.8782532 4.50141574,46.411261 C8.02309543,37.077472 13.5996579,28.5536439 21.0768064,21.0766907 C28.5537595,13.5995423 37.0775876,8.0229798 46.4113767,4.50130011 C53.8783689,1.6839173 61.8645017,0.174346984 70.1484861,0.014190734 Z M6.52934543,62.0374329 C6.17309543,64.5514954 5.96040012,67.1075501 5.88930637,69.6971985 L5.88930637,69.6971985 L30.3037595,94.1116517 C32.892822,94.0405579 35.4479001,93.8259095 37.961572,93.4696595 L37.961572,93.4696595 Z M6.16977512,78.2638001 C6.75102512,84.5044251 8.00512668,89.1878235 8.66528293,91.330597 C10.8104001,91.9880189 15.5074704,93.2405579 21.7309079,93.8249329 L21.7309079,93.8249329 Z M55.1180173,7.89583136 C52.8143064,8.48352667 50.5541501,9.19524542 48.3461423,10.0341126 C39.8492673,13.2622376 32.0686032,18.3716126 25.2201657,25.2198548 C18.3357907,32.1042298 13.2094236,39.930011 9.98364231,48.4796204 C9.16665012,50.6450501 8.47055637,52.8596985 7.89477512,55.1165345 L7.89477512,55.1165345 L44.8822751,92.1040345 C47.1859861,91.5163392 49.4461423,90.8046204 51.6541501,89.9657532 C60.1510251,86.7376282 67.9316892,81.6282532 74.7801267,74.780011 C81.664697,67.895636 86.7908689,60.0698548 90.0166501,51.5202454 C90.8336423,49.3548157 91.5297361,47.1401673 92.1055173,44.8833314 L92.1055173,44.8833314 Z M65.3180173,30.5389954 L69.4611814,34.6819642 L63.8184079,40.3247376 L67.9666501,44.4729798 L63.8234861,48.6161439 L59.6754392,44.4679017 L54.1432126,49.9999329 L58.2914548,54.1481751 L54.1482907,58.2913392 L50.0000486,54.143097 L44.4680173,59.6751282 L48.6162595,63.8233704 L44.4730954,67.9665345 L40.3248532,63.8182923 L34.6822751,69.4610657 L30.5391111,65.3179017 L36.1816892,59.6751282 L32.0336423,55.526886 L36.1768064,51.3839173 L40.3248532,55.5319642 L45.8570798,49.9999329 L41.7088376,45.8516907 L45.8520017,41.708722 L50.0000486,45.8567689 L55.5322751,40.3247376 L51.3840329,36.1764954 L55.527197,32.0333314 L59.6754392,36.1815735 L65.3180173,30.5389954 Z M69.6965329,5.88821417 C67.1074704,5.95930792 64.5523923,6.17395636 62.0387204,6.53020636 L62.0387204,6.53020636 L93.470947,37.9626282 C93.827197,35.4485657 94.0398923,32.892511 94.1109861,30.3028626 L94.1109861,30.3028626 Z M78.2693845,6.17493292 L93.8305173,21.7360657 C93.2492673,15.495636 91.9951657,10.8122376 91.3350095,8.66946417 C89.1879392,8.01126105 84.4908689,6.75911261 78.2693845,6.17493292 L78.2693845,6.17493292 Z" id="path-1"></path>
    </defs>
    <g id="Sports/Resources/Courts/Rugby" stroke="none" stroke-width="1" fill="none" fill-rule="evenodd">
        <mask id="mask-2" fill="white">
            <use xlink:href="#path-1"></use>
        </mask>
        <use id="Combined-Shape" fill="#000000" fill-rule="nonzero" opacity="0" xlink:href="#path-1"></use>
        <g id="Group" mask="url(#mask-2)" fill="#000000">
            <g id="Colour/Black">
                <rect id="Rectangle" x="0" y="0" width="100" height="100"></rect>
            </g>
        </g>
    </g>
</svg>
