
<svg viewBox="0 0 100 100" version="1.1" xmlns="http://www.w3.org/2000/svg" xmlns:xlink="http://www.w3.org/1999/xlink">
    <title>Sport/Player/Boxing</title>
    <g id="Sport/Player/Boxing" stroke="none" stroke-width="1" fill="none" fill-rule="evenodd">
        <g id="Group-2">
            <rect id="Rectangle" x="0" y="0" width="100" height="100"></rect>
            <g id="AdobeStock_77993481" transform="translate(0.000000, 0.000000)" fill="#000000">
                <path d="M31.1391332,0.0322200581 C28.3265346,0.0517765748 25.5640084,1.55662594 25.0016433,4.50958228 C24.9042372,5.24072454 24.8314806,8.31174113 24.9533108,8.50671455 C25.075141,8.70168797 25.4889963,8.96938573 25.7813759,9.31061337 C26.0739165,9.65184102 26.035895,9.80879285 25.9280168,10.4561265 C25.8549058,10.8947603 25.7816336,11.1876554 25.6598034,11.8456867 C25.5725793,12.3165422 26.6345094,12.3330397 26.6345094,12.3330397 C26.6345094,12.3330397 26.5857902,13.1127722 26.6345094,13.3077456 C26.6832286,13.5027191 26.9761237,13.820006 26.9761237,13.820006 C26.9761237,13.820006 26.8782987,14.3072301 27.1951023,14.4290925 C27.5120348,14.5509227 27.7070082,14.8926337 27.8532624,15.5020746 C27.9995167,16.1114189 28.7553407,16.0626997 29.437796,16.1601059 C30.1202513,16.2576731 31.5335911,15.4287058 32.3135814,15.3312997 C33.0936684,15.2337324 33.2399549,15.6236793 33.2399549,15.6236793 C28.8233285,17.1163166 27.7709683,20.1408695 29.0632189,22.8083417 C28.2238118,23.1767645 27.4484936,23.7938742 26.7818914,24.6135294 C26.6205252,24.4717862 26.4551635,24.3207632 26.2857419,24.1560137 C26.2857419,24.1560137 26.7198324,23.7717379 26.3921057,23.3979019 C26.0643467,23.024227 25.6279684,21.8303814 24.8092154,19.8527754 C24.5662639,19.2662441 24.3570807,18.6166549 24.3273723,18.1482805 C24.2569035,17.0371479 24.2492347,16.083966 23.5540519,15.6381468 C23.2144675,15.4202638 22.8662156,15.3845299 22.5551796,15.4310903 C21.9614951,15.5202154 21.5039472,15.9096467 21.5039472,15.9096467 C21.5039472,15.9096467 20.1418399,15.6044107 19.2806509,15.9274009 C18.4194941,16.2502299 16.3729016,19.1640369 15.8345739,20.3481839 C15.2963751,21.5323308 16.1113581,21.9109356 17.308716,23.0733007 C18.5060738,24.2356657 18.9116159,23.625967 19.8405027,24.3372607 C20.7694216,25.0483933 21.7757048,25.818556 22.5359433,26.8304136 C23.2960528,27.8421101 23.5556952,27.1824355 23.5556952,27.1824355 C23.5556952,27.1824355 23.8022877,27.266663 24.7632673,28.3133522 C23.9402288,29.5215365 22.2785242,31.1591715 21.5507975,31.5234376 C18.4338328,28.6923437 14.4130498,28.2277714 10.8869019,26.9294631 C11.1309812,26.2250004 11.2500403,25.8918281 10.4817464,25.8371802 C10.096214,25.8057318 9.59755115,25.7298175 9.20422104,25.3690957 C8.09621395,24.3532427 7.01565974,23.237309 5.43995489,22.3878488 C5.09218624,22.2002863 4.76442726,22.0727851 4.45555019,21.9995452 C4.43415499,21.9945186 4.41298534,21.9895887 4.39184791,21.9850777 C1.70385049,21.4060862 0.471242146,24.9011402 0.0322216852,27.467533 C0.238891574,29.5162522 1.27214435,31.1786978 3.30198163,31.3108389 C5.33181891,31.4428834 5.71670694,30.035698 6.6184308,30.3973219 C7.52012244,30.7589137 7.70578379,31.465793 8.00634767,31.5862377 C8.30691155,31.7068112 8.68148864,31.7527593 8.88110198,31.3606859 C9.08087643,30.9687413 9.26702111,30.7243076 9.26702111,30.7243076 C11.1764137,32.2030252 13.3945545,33.4962747 15.6436282,34.5467017 C21.8235218,37.4224871 20.8188819,39.0577376 28.3100371,34.630478 L29.7955212,34.0430767 C30.9772515,35.573929 32.0027066,36.7886865 32.0027066,36.7886865 L31.8648623,37.202413 C31.8648623,37.202413 31.8646045,37.6850938 31.7956501,39.3396773 C31.7266634,40.9942609 30.899855,41.7588815 30.899855,41.7588815 C30.899855,41.7588815 30.4173997,41.8964681 28.6249396,44.5160911 C27.892154,45.5871399 27.2858708,48.3060057 26.8254551,51.1463472 C26.3986467,51.8768128 24.6241663,54.4674363 23.3663928,56.1793744 C22.6516191,57.1524693 20.2659578,63.6064729 20.2659578,64.5676458 C20.2659578,64.9407729 19.6664411,66.0830316 18.9335267,67.1067145 C18.2352183,68.0930203 17.3789592,69.2539676 17.5157725,70.5409018 L17.3015628,73.0458156 C17.0762365,76.1204088 17.1067182,77.7859477 17.4223941,79.8149472 C17.7989689,82.2357624 17.7871435,82.5966453 17.3103593,83.4034763 C17.0188497,83.8971125 16.7803448,84.8943736 16.7803448,85.6206504 C16.7803448,86.8634408 16.2955051,86.7786978 13.6444015,89.3693213 C12.0961173,90.8821294 11.4874174,91.4598642 10.8572257,92.001833 C9.49785726,93.1708357 9.39755115,94.4977247 10.4720477,94.9871721 C11.9981956,95.6825161 12.658869,95.8226804 15.9634606,94.2260959 C17.7198002,93.3773767 19.7466087,92.4355368 20.4673433,92.1339419 C22.0035122,91.4911193 22.4672144,90.6475555 22.1275012,89.1141255 C21.3827614,85.7527593 21.8421782,81.4543865 23.1908168,79.1672913 C24.089383,77.6432056 24.13053,77.4269981 23.9326567,75.2433345 C23.8174964,73.972189 23.6527469,72.7487316 23.5670372,72.5254353 C23.4044144,72.1017202 24.4436926,70.6659219 26.6240696,68.300528 L27.9089093,66.9059734 L29.822813,67.1228254 C31.6634767,67.3309775 31.7663283,67.3042335 32.4982117,66.4236148 C32.9164492,65.9199899 33.7619462,64.5808566 34.3773804,63.4479422 C35.1877558,61.955756 36.2961817,60.3785045 36.8536169,59.8510355 L37.2476881,59.8594131 C37.3913968,60.2905393 37.7403577,61.4766195 38.1176736,62.8276748 C38.5819881,64.4903137 39.3894635,67.1701913 39.9120992,68.7828866 C40.4350572,70.3959042 40.862639,71.9090345 40.862639,72.1452195 C40.862639,72.6933103 42.4589012,73.1788911 44.0164975,73.1788911 C44.5069116,73.1788911 45.4928951,73.2546121 45.4928951,73.2546121 C45.4928951,73.2546121 46.4978895,74.7619425 46.8897052,75.2868338 C48.3570807,77.2510677 49.4100854,78.0095662 51.1246013,78.866663 C53.7071693,80.1577859 59.8743999,84.9091956 59.8743999,85.6074395 C59.8743999,85.9390007 60.2439826,86.9456061 60.6950862,87.8445911 C60.9045271,88.4893471 61.5972934,89.1344252 61.5231835,89.9106456 C61.382697,91.3854321 61.0669244,92.8018974 60.7550185,94.1139644 C60.2368938,96.1026868 60.381247,97.9299786 60.757274,98.5212465 C61.3391977,99.4363424 63.578927,99.8056029 64.8429837,99.1946797 C65.2228774,99.0110161 65.8147898,98.2003185 66.1592396,97.3934875 C66.7137748,96.0952758 66.7656517,95.4456867 66.6119542,91.7376151 C66.4453681,87.7186043 66.3970356,87.4808083 65.4171742,85.8758462 C64.8555502,84.9559171 64.2491381,84.2335069 64.0686966,84.2712063 C63.6946029,84.3495049 62.3986467,82.2383401 60.4366683,78.3546604 C59.0927018,75.6944381 59.1558563,75.2049907 56.702175,73.9013013 C55.3424198,73.1792133 54.0061866,72.9166066 53.8450781,72.755176 C53.6836475,72.5937453 53.1893668,70.5405795 52.7469631,68.1925853 C52.3045594,65.8445911 51.795779,63.2101462 51.615982,62.3385496 C51.4365072,61.4672752 51.1745449,60.11332 51.0343805,59.3290442 C50.8942162,58.5450906 50.5314,57.2610564 50.2272273,56.4767806 C49.9233768,55.6925048 49.4239407,53.1647136 49.1171903,50.8589298 C49.1120348,50.8199415 49.1068793,50.7825644 49.1017239,50.7445428 C49.272821,46.4423034 48.5256001,45.0393712 48.4099243,44.171319 C48.2720155,43.1373251 47.3063316,42.9298175 47.3063316,42.1026868 C47.3063316,41.2755562 47.2376994,37.8980791 47.858289,34.8647297 C48.4785565,31.8315736 49.3749638,27.7640691 49.3749638,24.661862 C49.3749638,21.5596226 50.684453,19.6980791 48.9609151,17.0784239 C47.2373772,14.4588976 47.513517,14.4594131 42.9634928,12.9428673 C38.4137909,11.4261603 38.9654261,9.90922784 38.0693411,8.11676771 C37.1729338,6.32443647 38.1379733,5.49711249 36.8971162,2.87761837 C35.6875141,0.958655905 33.3971967,0.0167838247 31.1391332,0.0322200581 Z" id="Path"></path>
            </g>
        </g>
    </g>
</svg>