<svg viewBox="0 0 100 100" version="1.1" xmlns="http://www.w3.org/2000/svg" xmlns:xlink="http://www.w3.org/1999/xlink">
    <title>Sports/Resources/Courts/Padel Tennis</title>
    <defs>
        <path d="M67.9065456,24.1144279 C66.6404236,24.1144279 65.6142734,23.1005196 65.6142734,21.8497632 C65.6142734,20.5987459 66.6404236,19.5848375 67.9065456,19.5848375 C69.1724037,19.5848375 70.1985539,20.5987459 70.1985539,21.8497632 C70.1985539,23.1005196 69.1724037,24.1144279 67.9065456,24.1144279 Z M67.9065456,32.9213706 C66.6404236,32.9213706 65.6142734,31.9074623 65.6142734,30.6567058 C65.6142734,29.4059494 66.6404236,28.3920411 67.9065456,28.3920411 C69.1724037,28.3920411 70.1985539,29.4059494 70.1985539,30.6567058 C70.1985539,31.9074623 69.1724037,32.9213706 67.9065456,32.9213706 Z M67.9065456,41.7285741 C66.6404236,41.7285741 65.6142734,40.714405 65.6142734,39.4639094 C65.6142734,38.2131529 66.6404236,37.1992446 67.9065456,37.1992446 C69.1724037,37.1992446 70.1985539,38.2131529 70.1985539,39.4639094 C70.1985539,40.714405 69.1724037,41.7285741 67.9065456,41.7285741 Z M67.9065456,50.5357776 C66.6404236,50.5357776 65.6142734,49.5216085 65.6142734,48.270852 C65.6142734,47.0200956 66.6404236,46.0061873 67.9065456,46.0061873 C69.1724037,46.0061873 70.1985539,47.0200956 70.1985539,48.270852 C70.1985539,49.5216085 69.1724037,50.5357776 67.9065456,50.5357776 Z M58.9531408,15.3072244 C57.6872828,15.3072244 56.6611325,14.2933161 56.6611325,13.0425596 C56.6611325,11.7918032 57.6872828,10.7778949 58.9531408,10.7778949 C60.2189989,10.7778949 61.2454131,11.7918032 61.2454131,13.0425596 C61.2454131,14.2933161 60.2189989,15.3072244 58.9531408,15.3072244 Z M58.9531408,24.1144279 C57.6872828,24.1144279 56.6611325,23.1005196 56.6611325,21.8497632 C56.6611325,20.5987459 57.6872828,19.5848375 58.9531408,19.5848375 C60.2189989,19.5848375 61.2454131,20.5987459 61.2454131,21.8497632 C61.2454131,23.1005196 60.2189989,24.1144279 58.9531408,24.1144279 Z M58.9531408,32.9213706 C57.6872828,32.9213706 56.6611325,31.9074623 56.6611325,30.6567058 C56.6611325,29.4059494 57.6872828,28.3920411 58.9531408,28.3920411 C60.2189989,28.3920411 61.2454131,29.4059494 61.2454131,30.6567058 C61.2454131,31.9074623 60.2189989,32.9213706 58.9531408,32.9213706 Z M58.9531408,41.7285741 C57.6872828,41.7285741 56.6611325,40.714405 56.6611325,39.4639094 C56.6611325,38.2131529 57.6872828,37.1992446 58.9531408,37.1992446 C60.2189989,37.1992446 61.2454131,38.2131529 61.2454131,39.4639094 C61.2454131,40.714405 60.2189989,41.7285741 58.9531408,41.7285741 Z M58.9531408,50.5357776 C57.6872828,50.5357776 56.6611325,49.5216085 56.6611325,48.270852 C56.6611325,47.0200956 57.6872828,46.0061873 58.9531408,46.0061873 C60.2189989,46.0061873 61.2454131,47.0200956 61.2454131,48.270852 C61.2454131,49.5216085 60.2189989,50.5357776 58.9531408,50.5357776 Z M60.2519983,68.1267085 C59.978499,68.3484276 59.7039438,68.5612779 59.4283326,68.7649986 C56.3369462,71.0500094 53.1647771,72.2086872 50,72.2086872 C46.8352229,72.2086872 43.6630538,71.0500094 40.5716674,68.7649986 C40.2960562,68.5612779 40.021501,68.3484276 39.7480017,68.1267085 C39.1819955,67.6678805 39.7825851,66.9056885 40.5333881,67.1245383 C43.6699177,68.0390643 46.8373348,68.5015442 50,68.5015442 C53.1626652,68.5015442 56.3300823,68.0390643 59.4666119,67.1245383 C60.2174149,66.9056885 60.8180045,67.6676196 60.2519983,68.1267085 Z M38.7545869,48.270852 C38.7545869,47.0200956 39.7810011,46.0061873 41.0468592,46.0061873 C42.3127172,46.0061873 43.3388675,47.0200956 43.3388675,48.270852 C43.3388675,49.5216085 42.3127172,50.5357776 41.0468592,50.5357776 C39.7810011,50.5357776 38.7545869,49.5216085 38.7545869,48.270852 Z M32.0934544,24.1144279 C30.8275963,24.1144279 29.8014461,23.1005196 29.8014461,21.8497632 C29.8014461,20.5987459 30.8275963,19.5848375 32.0934544,19.5848375 C33.3595764,19.5848375 34.3857266,20.5987459 34.3857266,21.8497632 C34.3857266,23.1005196 33.3595764,24.1144279 32.0934544,24.1144279 Z M32.0934544,32.9213706 C30.8275963,32.9213706 29.8014461,31.9074623 29.8014461,30.6567058 C29.8014461,29.4059494 30.8275963,28.3920411 32.0934544,28.3920411 C33.3595764,28.3920411 34.3857266,29.4059494 34.3857266,30.6567058 C34.3857266,31.9074623 33.3595764,32.9213706 32.0934544,32.9213706 Z M32.0934544,41.7285741 C30.8275963,41.7285741 29.8014461,40.714405 29.8014461,39.4639094 C29.8014461,38.2131529 30.8275963,37.1992446 32.0934544,37.1992446 C33.3595764,37.1992446 34.3857266,38.2131529 34.3857266,39.4639094 C34.3857266,40.714405 33.3595764,41.7285741 32.0934544,41.7285741 Z M32.0934544,50.5357776 C30.8275963,50.5357776 29.8014461,49.5216085 29.8014461,48.270852 C29.8014461,47.0200956 30.8275963,46.0061873 32.0934544,46.0061873 C33.3595764,46.0061873 34.3857266,47.0200956 34.3857266,48.270852 C34.3857266,49.5216085 33.3595764,50.5357776 32.0934544,50.5357776 Z M41.0468592,37.1992446 C42.3127172,37.1992446 43.3388675,38.2131529 43.3388675,39.4639094 C43.3388675,40.714405 42.3127172,41.7285741 41.0468592,41.7285741 C39.7810011,41.7285741 38.7545869,40.714405 38.7545869,39.4639094 C38.7545869,38.2131529 39.7810011,37.1992446 41.0468592,37.1992446 Z M41.0468592,28.3920411 C42.3127172,28.3920411 43.3388675,29.4059494 43.3388675,30.6567058 C43.3388675,31.9074623 42.3127172,32.9213706 41.0468592,32.9213706 C39.7810011,32.9213706 38.7545869,31.9074623 38.7545869,30.6567058 C38.7545869,29.4059494 39.7810011,28.3920411 41.0468592,28.3920411 Z M41.0468592,19.5848375 C42.3127172,19.5848375 43.3388675,20.5987459 43.3388675,21.8497632 C43.3388675,23.1005196 42.3127172,24.1144279 41.0468592,24.1144279 C39.7810011,24.1144279 38.7545869,23.1005196 38.7545869,21.8497632 C38.7545869,20.5987459 39.7810011,19.5848375 41.0468592,19.5848375 Z M41.0468592,10.7778949 C42.3127172,10.7778949 43.3388675,11.7918032 43.3388675,13.0425596 C43.3388675,14.2933161 42.3127172,15.3072244 41.0468592,15.3072244 C39.7810011,15.3072244 38.7545869,14.2933161 38.7545869,13.0425596 C38.7545869,11.7918032 39.7810011,10.7778949 41.0468592,10.7778949 Z M50,46.0061873 C51.2658581,46.0061873 52.2920083,47.0200956 52.2920083,48.270852 C52.2920083,49.5216085 51.2658581,50.5357776 50,50.5357776 C48.7341419,50.5357776 47.7079917,49.5216085 47.7079917,48.270852 C47.7079917,47.0200956 48.7341419,46.0061873 50,46.0061873 Z M50,37.1992446 C51.2658581,37.1992446 52.2920083,38.2131529 52.2920083,39.4639094 C52.2920083,40.714405 51.2658581,41.7285741 50,41.7285741 C48.7341419,41.7285741 47.7079917,40.714405 47.7079917,39.4639094 C47.7079917,38.2131529 48.7341419,37.1992446 50,37.1992446 Z M50,28.3920411 C51.2658581,28.3920411 52.2920083,29.4059494 52.2920083,30.6567058 C52.2920083,31.9074623 51.2658581,32.9213706 50,32.9213706 C48.7341419,32.9213706 47.7079917,31.9074623 47.7079917,30.6567058 C47.7079917,29.4059494 48.7341419,28.3920411 50,28.3920411 Z M50,19.5848375 C51.2658581,19.5848375 52.2920083,20.5987459 52.2920083,21.8497632 C52.2920083,23.1005196 51.2658581,24.1144279 50,24.1144279 C48.7341419,24.1144279 47.7079917,23.1005196 47.7079917,21.8497632 C47.7079917,20.5987459 48.7341419,19.5848375 50,19.5848375 Z M50,10.7778949 C51.2658581,10.7778949 52.2920083,11.7918032 52.2920083,13.0425596 C52.2920083,14.2933161 51.2658581,15.3072244 50,15.3072244 C48.7341419,15.3072244 47.7079917,14.2933161 47.7079917,13.0425596 C47.7079917,11.7918032 48.7341419,10.7778949 50,10.7778949 Z M50,0 C30.1177126,0 14,8.88154463 14,28.5266376 C14,45.6243088 26.2089964,68.4736337 42.4824663,74.1115586 C43.7063491,74.5356942 44.520775,75.6810688 44.4827596,76.9618226 L43.7470044,96.9924459 C43.6979012,98.6389057 45.0353021,100 46.7024332,100 L53.2975668,100 C54.9646979,100 56.3020988,98.6389057 56.2527316,96.9924459 L55.5172404,76.9618226 C55.479225,75.6810688 56.2936509,74.5356942 57.5175337,74.1115586 C73.7910036,68.4733728 86,45.6243088 86,28.5266376 C86,8.88154463 69.8822874,0 50,0 Z" id="path-1"></path>
    </defs>
    <g id="Sports/Resources/Courts/Padel-Tennis" stroke="none" stroke-width="1" fill="none" fill-rule="evenodd">
        <mask id="mask-2" fill="white">
            <use xlink:href="#path-1"></use>
        </mask>
        <use id="Shape" fill="#514C51" fill-rule="nonzero" opacity="0" xlink:href="#path-1"></use>
        <g id="Group" mask="url(#mask-2)" fill="#000000">
            <g id="Colour/Black">
                <rect id="Rectangle" x="0" y="0" width="100" height="100"></rect>
            </g>
        </g>
    </g>
</svg>
