<svg viewBox="0 0 100 100" version="1.1" xmlns="http://www.w3.org/2000/svg" xmlns:xlink="http://www.w3.org/1999/xlink">
    <title>Sport/Player/Padel Tennis</title>
    <g id="Sport/Player/Padel-Tennis" stroke="none" stroke-width="1" fill="none" fill-rule="evenodd">
        <rect id="Rectangle" x="0" y="0" width="100" height="100"></rect>
        <g id="AdobeStock_116055728" transform="translate(30.000000, 0.000000)" fill="#000000">
            <g id="Group" transform="translate(0.074855, 7.118513)">
                <path d="M6.99819084,25.4570855 C6.99938312,25.7073616 7.1267502,25.8391868 7.35515041,25.8264863 C7.49869108,25.8185551 7.55789059,25.7104719 7.55166998,25.4683863 C7.55094424,25.4410156 7.55338064,25.4133339 7.5495446,25.3864816 C7.52606178,25.2228276 7.38309133,25.1244382 7.18760854,25.1359463 C7.03945424,25.1446034 7.00425594,25.1940572 6.99834635,25.402396 C6.99787981,25.4205913 6.99829451,25.4387866 6.99819084,25.4570855 M6.16819559,25.2241754 C6.16929401,25.4806202 6.26778707,25.58466 6.50256341,25.5773507 C6.66787623,25.5722706 6.74356037,25.4677124 6.73910226,25.2507685 C6.73459232,25.028226 6.59644285,24.8715702 6.39795342,24.8638463 C6.24036453,24.8576775 6.16722047,24.972396 6.16819559,25.2241754 M8.38160357,25.7395014 C8.38383262,25.4821753 8.26035343,25.3493134 8.02661386,25.357452 C7.85969405,25.3632061 7.81184716,25.4541307 7.82853914,25.734836 C7.83071636,25.7715894 7.82874649,25.8098462 7.83864764,25.844578 C7.87669706,25.9779065 8.07093574,26.0979643 8.21209184,26.0716304 C8.36672594,26.0428082 8.37356861,25.9168926 8.3812407,25.794813 C8.38243299,25.7764104 8.38139622,25.7579559 8.38160357,25.7395014 M7.35323239,24.85944 C7.58609071,24.7237788 7.63855122,24.6393858 7.62460668,24.4414148 C7.61263199,24.2713847 7.53399306,24.1571327 7.40641864,24.1244745 C7.26645482,24.088706 7.12970499,24.132665 7.06184846,24.2354088 C6.97600398,24.3654714 6.98445365,24.5538524 7.09932766,24.6689856 C7.17527099,24.7450844 7.2723644,24.7999813 7.35323239,24.85944 M6.93380748,23.1629231 C6.9386803,22.9673366 6.75009201,22.7440165 6.57244164,22.7350485 C6.4200366,22.7274282 6.30122287,22.8793667 6.30054666,23.0828327 C6.29987507,23.285521 6.44652605,23.4675776 6.61510469,23.4733835 C6.78995578,23.4793968 6.92929754,23.3436319 6.93380748,23.1629231 M7.71734566,26.6445489 C7.75062595,26.7653844 7.76571094,26.8471854 7.79582908,26.9230769 C7.83797374,27.0293457 7.9027718,27.1200112 8.03267896,27.1243656 C8.14620517,27.128098 8.30581576,27.004878 8.34319128,26.8906779 C8.39352641,26.7367177 8.33919972,26.530297 8.19638479,26.4565827 C8.10753368,26.4107057 7.97337577,26.3815725 7.88965667,26.4166671 C7.80816663,26.4508286 7.76514072,26.576485 7.71734566,26.6445489 M8.1792781,28.8118627 C8.17741191,28.7934082 8.18010751,28.7272105 8.16279347,28.6668706 C8.11318407,28.4946632 7.80915156,28.3918157 7.68582789,28.5011949 C7.52875738,28.6405366 7.60241982,29.0901834 7.79603643,29.1734359 C8.03174587,29.2748838 8.17502734,29.1566402 8.1792781,28.8118627 M7.40387855,27.5510479 C7.39905758,27.2960546 7.30082371,27.1758412 7.10311186,27.1828912 C6.90690333,27.1899413 6.79306609,27.3155458 6.79586537,27.5221221 C6.7986128,27.7293722 6.98393526,27.9115843 7.18086954,27.9006983 C7.32378815,27.8927151 7.40781828,27.7610455 7.40387855,27.5510479 M7.51439813,26.5439305 C7.51870072,26.3863934 7.36432582,26.1668576 7.21726013,26.1212916 C7.12047774,26.0912771 6.96895395,26.1719378 6.90731803,26.3021041 C6.8387876,26.4466297 6.87056457,26.5865417 6.96454768,26.7109021 C7.03644761,26.8060257 7.10834755,26.9041559 7.25665735,26.8557388 C7.42653196,26.8002716 7.5100437,26.7038521 7.51439813,26.5439305 M6.60691421,27.3429165 C6.6105429,27.128098 6.45186541,26.9377472 6.27307459,26.9423608 C6.08650801,26.9471818 5.96660567,27.084139 5.96587739,27.2932035 C5.96515419,27.5028382 6.11963278,27.6736977 6.31490822,27.6791926 C6.47311917,27.6837025 6.60375207,27.5332673 6.60691421,27.3429165 M7.62595448,27.7495373 C7.62714676,27.9007501 7.81272841,28.1221003 7.95886101,28.1466717 C8.0807332,28.1670961 8.2100183,28.0542438 8.24791221,27.8670033 C8.26289352,27.7928224 8.24101769,27.7051636 8.21654994,27.6299979 C8.15517322,27.4414096 8.0533625,27.3787887 7.89183389,27.4141426 C7.71833059,27.4521402 7.62455484,27.5704355 7.62595448,27.7495373 M7.34856693,28.6171057 C7.34680442,28.3702509 7.20658141,28.2242739 6.98092863,28.2343305 C6.81919267,28.2414842 6.7438714,28.3473384 6.74029455,28.5721099 C6.73676953,28.796674 6.88238374,28.9789899 7.06511428,28.9788345 C7.25448014,28.9786788 7.35032943,28.8563401 7.34856693,28.6171057 M5.12801505,27.0561981 C5.12583784,27.3027417 5.27357742,27.4589828 5.50690229,27.4568574 C5.65516026,27.4556133 5.73608008,27.3367996 5.73939774,27.1152939 C5.74297459,26.8797918 5.61856231,26.7256243 5.41939899,26.7187298 C5.2216353,26.7118352 5.13008859,26.8178967 5.12801505,27.0561981 M4.25023457,23.4425915 C4.25210075,23.1851099 4.13556792,23.0614752 3.89524486,23.0657778 C3.71889045,23.0690436 3.64082174,23.1667073 3.64222138,23.3826144 C3.64377653,23.6329941 3.78311829,23.8106445 3.97367643,23.8050978 C4.16397539,23.7995511 4.24847206,23.6888241 4.25023457,23.4425915 M4.0844552,29.0385004 C4.08901699,29.2730694 4.24038526,29.4508753 4.43519416,29.4505647 C4.57961608,29.4503051 4.73321341,29.2557554 4.72730383,29.0804377 C4.71983909,28.8568066 4.58049734,28.7080303 4.37869025,28.7082891 C4.15588859,28.7085487 4.07958239,28.7942376 4.0844552,29.0385004 M6.07604138,22.8898899 C6.07702157,22.6860612 5.92435733,22.5006869 5.74245621,22.484928 C5.5762103,22.470465 5.45734473,22.5797923 5.44324467,22.8004168 C5.43769796,22.8876609 5.48549301,22.9881238 5.53432483,23.0668664 C5.63136641,23.2234704 5.73566537,23.2597573 5.87381484,23.2127398 C5.99874551,23.1702841 6.07515539,23.0481527 6.07604138,22.8898899 M6.00149295,23.9838886 C6.00558818,23.7814076 5.81907344,23.560835 5.64665875,23.5641527 C5.47963526,23.5674185 5.35911087,23.7059308 5.35703733,23.8973184 C5.35444541,24.1321466 5.49751953,24.2980296 5.70886489,24.304976 C5.88635975,24.3108337 5.99744955,24.1889615 6.00149295,23.9838886 M5.25569316,22.6501371 C5.25393065,22.3910485 4.99930018,22.1604193 4.82704101,22.2243879 C4.68158232,22.2784554 4.59304224,22.4168122 4.60626105,22.5694246 C4.62098317,22.7401287 4.77115916,22.9572281 4.89572696,22.9728833 C4.94730621,22.9792594 5.01070464,22.9715873 5.05430078,22.9458755 C5.17840203,22.8728351 5.27057079,22.7728387 5.25569316,22.6501371 M6.51873783,28.413225 C6.51847782,28.154603 6.3951023,28.0144837 6.1698124,28.0170237 C6.00895768,28.0188381 5.91103485,28.1522184 5.91035728,28.3703028 C5.90958337,28.6144101 6.03223315,28.7627717 6.23409208,28.7620486 C6.43071532,28.7612165 6.51904804,28.6530297 6.51873783,28.413225 M3.21128834,25.3405009 C3.22207074,25.0827601 3.0916452,24.9248083 2.86054938,24.9158403 C2.7027013,24.9096715 2.59218172,25.0431555 2.58005153,25.2547082 C2.5682842,25.4602995 2.7168532,25.6476437 2.90352346,25.6623658 C3.09734743,25.6776581 3.20175007,25.5684345 3.21128834,25.3405009 M6.35285397,30.624757 C6.34984734,30.3716817 6.23538804,30.2272079 6.03700229,30.2263755 C5.8385647,30.2256528 5.73737604,30.3563893 5.74437423,30.60454 C5.75049117,30.825631 5.89750502,30.9789691 6.09884556,30.9740963 C6.26783891,30.9700529 6.35544589,30.8495804 6.35285397,30.624757 M7.29299611,29.6825932 C7.27210521,29.6374937 7.24177972,29.5413852 7.18766038,29.461554 C7.04888884,29.2570513 6.79866464,29.2760242 6.68358328,29.4915166 C6.60515171,29.638375 6.63677316,29.7678156 6.7252614,29.9000036 C6.8354181,30.0643834 6.91255372,30.1101049 7.05495394,30.069308 C7.18838611,30.0309994 7.28843432,29.8904135 7.29299611,29.6825932 M4.71595121,24.3609615 C4.57463959,24.359199 4.51201874,24.3997367 4.47054798,24.5290736 C4.45395968,24.5807047 4.44317728,24.6357571 4.43949675,24.6898765 C4.42529302,24.8980078 4.57085539,25.1018885 4.73570166,25.11039 C4.94217421,25.120965 5.05450813,25.0133484 5.06155816,24.7982188 C5.06990415,24.5439512 4.92740025,24.3636571 4.71595121,24.3609615 M5.90968705,25.0284852 C5.91176059,24.7658198 5.76661293,24.5846444 5.55796316,24.5828819 C5.38134956,24.5813268 5.30670219,24.7560223 5.29099514,24.9445069 C5.27114102,25.1822381 5.4056618,25.3297185 5.61799209,25.3319994 C5.83675035,25.3343321 5.90792454,25.2603586 5.90968705,25.0284852 M5.68719656,28.1807296 C5.68709274,27.9875277 5.49000295,27.7713095 5.31675885,27.7743161 C5.19296863,27.7764415 5.03439481,27.9576169 5.03149186,28.10038 C5.02713743,28.3133842 5.19628629,28.5378447 5.36268772,28.53997 C5.55791133,28.5425101 5.68735194,28.3991768 5.68719656,28.1807296 M4.85850695,26.8933735 C4.85850695,26.8568274 4.860736,26.8201776 4.85814408,26.7838907 C4.84528814,26.6011083 4.72906634,26.4708901 4.56038402,26.4485477 C4.4170507,26.4295749 4.31015982,26.5085248 4.26563059,26.7071698 C4.24562095,26.7960727 4.2671339,26.9038967 4.2988072,26.9927478 C4.35914715,27.1618967 4.51549192,27.2401209 4.6874919,27.2098472 C4.83139544,27.1844982 4.85824776,27.1350443 4.85850695,26.8933735 M4.50859741,23.6544553 C4.51181139,23.8989772 4.65094579,24.0721177 4.84839845,24.0773015 C5.00785353,24.0813967 5.13864194,23.9133365 5.13449486,23.7096114 C5.12998492,23.4862913 4.98680711,23.3157428 4.80065524,23.3118549 C4.6013364,23.3077079 4.5054871,23.4201455 4.50859741,23.6544553 M5.21271908,30.7546123 C5.41908795,30.7533682 5.50996076,30.6455442 5.50322176,30.4101458 C5.49726034,30.2036214 5.30530256,29.9977191 5.12687461,30.0063243 C4.99007294,30.0129596 4.86312057,30.1954828 4.867475,30.3793538 C4.87307355,30.6173441 5.00059614,30.756012 5.21271908,30.7546123 M6.18727481,24.1576511 C6.18847424,24.3253485 6.34248628,24.5320284 6.50142297,24.5689374 C6.62567973,24.5977595 6.71468635,24.5287626 6.78254288,24.4377342 C6.88596059,24.2991182 6.86377374,24.1057608 6.73671769,23.9558958 C6.73080811,23.9488977 6.72469117,23.9418995 6.7182632,23.9354197 C6.63920957,23.8571436 6.56378462,23.7761201 6.43263334,23.8267144 C6.28717465,23.8828036 6.18629702,24.0134365 6.18727481,24.1576511 M3.4756126,25.4894327 C3.47343539,25.7547938 3.61303633,25.9400125 3.81334011,25.9375761 C3.95988741,25.9357618 4.11260348,25.7416786 4.11058178,25.5601922 C4.10830089,25.3539789 3.95252635,25.1908951 3.7575101,25.1906349 C3.5265698,25.1903767 3.47753062,25.2423188 3.4756126,25.4894327 M5.85416807,26.0292784 C5.85173166,25.8750071 5.63794989,25.6288263 5.50311808,25.6249903 C5.34335198,25.6204285 5.1845708,25.8186587 5.19224289,26.0130011 C5.20022602,26.2152229 5.34801744,26.3789805 5.52561597,26.3822464 C5.72825247,26.3859787 5.85764125,26.246948 5.85416807,26.0292784 M6.04866594,26.2556569 C6.06966051,26.3141306 6.08749294,26.3961391 6.12652729,26.4664838 C6.23704687,26.6658545 6.48934461,26.6884043 6.62552422,26.5079028 C6.70260799,26.4058329 6.75963029,26.2886261 6.68648623,26.153587 C6.60960981,26.011757 6.50318547,25.904244 6.34414511,25.8627214 C6.31454535,25.8549975 6.27131208,25.8724152 6.24321564,25.8913881 C6.12279492,25.9726189 6.05447184,26.0859378 6.04866594,26.2556569 M6.11584857,29.1194721 C5.94047909,29.1222195 5.79590165,29.2955155 5.80118917,29.4964931 C5.80642486,29.6941013 5.9844381,29.8757951 6.16535429,29.8682267 C6.33761346,29.8609174 6.46980151,29.6993888 6.4608853,29.5069645 C6.4507768,29.289554 6.2968166,29.116621 6.11584857,29.1194721 M3.53159813,24.4416221 C3.52517016,24.6198946 3.73102065,24.8890398 3.87176204,24.8864479 C4.01276263,24.883856 4.22949919,24.6563888 4.2281063,24.5122261 C4.22659624,24.3464986 4.02105678,24.123334 3.86372708,24.1165432 C3.67228768,24.1083009 3.53885551,24.2389338 3.53159813,24.4416221 M3.9179501,27.673283 C3.91494347,27.4976025 3.73947031,27.2948623 3.59017558,27.2947067 C3.41376933,27.2945513 3.25794295,27.4803403 3.25581757,27.6934481 C3.25353668,27.9211226 3.40785975,28.0738905 3.63371988,28.0675662 C3.80857097,28.0625897 3.92178615,27.9055711 3.9179501,27.673283 M3.84314722,28.8700255 C3.85009357,28.6550514 3.66954024,28.4516892 3.46586697,28.4450538 C3.32160056,28.4402847 3.17474223,28.6279399 3.15571752,28.841307 C3.14208401,28.9941267 3.35301467,29.2281255 3.50541971,29.2293696 C3.6852473,29.2307692 3.83666741,29.0696553 3.84314722,28.8700255 M4.95098404,29.2562737 C4.95160881,29.4959747 5.09577154,29.670774 5.2925503,29.6703084 C5.44060091,29.6699964 5.61498546,29.4583919 5.61203067,29.2829187 C5.60866117,29.0880061 5.43199573,28.8960484 5.25828508,28.8985884 C5.03994153,28.9018024 4.95041652,29.0059977 4.95098404,29.2562737 M2.36906903,23.992753 C2.37155728,23.7401442 2.22651329,23.5450761 2.03139337,23.5385445 C1.88235782,23.5336198 1.68770444,23.745017 1.68914784,23.9101743 C1.69097026,24.1071086 1.87862545,24.3051833 2.06358504,24.3053397 C2.30670738,24.305598 2.36658079,24.2442731 2.36906903,23.992753 M4.39750761,22.3535175 C4.40056608,22.1969135 4.23950401,21.9580938 4.11021891,21.9277165 C3.98072646,21.8971836 3.84065897,21.9727122 3.75030455,22.1218515 C3.67643476,22.2437237 3.70396098,22.3903746 3.82723281,22.5453716 C3.91131478,22.6510702 4.00566076,22.7309533 4.1529338,22.6816549 C4.29761491,22.6331859 4.39450098,22.5011534 4.39750761,22.3535175 M4.6374678,30.1983339 C4.6351869,29.9688451 4.47148108,29.7764208 4.28522552,29.7841447 C4.14277346,29.7900024 3.96056131,29.9882845 3.95636239,30.1419855 C3.95081568,30.3433779 4.13831535,30.5599589 4.31575837,30.5573152 C4.52528939,30.5540494 4.63980053,30.4263194 4.6374678,30.1983339 M3.41998994,23.2176645 C3.42382599,22.9610641 3.25851317,22.7552137 3.04981157,22.7567601 C2.9093812,22.7578574 2.74158014,22.9373221 2.73986947,23.0883794 C2.73732939,23.3080707 2.94183207,23.523304 3.15100022,23.5210749 C3.33398995,23.5191051 3.41687964,23.4255885 3.41998994,23.2176645 M4.63000306,25.404314 C4.44613207,25.4107938 4.30518333,25.5627323 4.30844915,25.7510096 C4.31233703,25.9723597 4.50911579,26.1716267 4.71320377,26.1607925 C4.86291322,26.1528612 5.0008035,25.9867708 5.0034991,25.811194 C5.00635021,25.6296039 4.79422727,25.3985081 4.63000306,25.404314 M3.02524014,27.5051709 C3.03581519,27.2751118 2.892119,27.0869901 2.69456266,27.072579 C2.52670976,27.0602415 2.38975258,27.203834 2.37228302,27.4105139 C2.35445059,27.6219111 2.53598884,27.8387513 2.73701836,27.8463197 C2.94115817,27.8539918 3.01321362,27.7688212 3.02524014,27.5051709 M2.46165016,26.3247057 C2.46087493,26.5348588 2.65319558,26.7639329 2.83354155,26.7676134 C2.98750175,26.7707237 3.13980312,26.5768997 3.14296526,26.3738485 C3.14633476,26.1569565 2.99911356,26.0033073 2.7884421,26.0036695 C2.58139933,26.0041367 2.46243008,26.1209806 2.46165016,26.3247057 M2.6486338,24.1825854 C2.64272421,24.3378416 2.80430466,24.5562369 2.95790199,24.6006625 C3.07552344,24.6346685 3.18614669,24.5721513 3.29915451,24.4172581 C3.40340164,24.2743394 3.3155873,24.1527264 3.25592125,24.0337572 C3.1703878,23.8629495 3.06163073,23.7999658 2.93861809,23.8279585 C2.76205633,23.8681852 2.65568383,23.9982479 2.6486338,24.1825854 M3.66544501,26.2217545 C3.50142815,26.2156376 3.32854692,26.4014784 3.32574764,26.5870601 C3.32325939,26.7525803 3.54564635,26.9867345 3.70873011,26.9901559 C3.90006583,26.9942511 4.02395973,26.8660028 4.02810681,26.6593229 C4.03297962,26.4188962 3.87616831,26.229634 3.66544501,26.2217545 M4.83984511,27.9642004 C4.83849731,27.8073891 4.61377762,27.5236254 4.48801754,27.5197375 C4.34214414,27.5152794 4.13453115,27.776597 4.1401297,27.9575132 C4.14515803,28.11899 4.33903383,28.3168055 4.49371977,28.3183088 C4.67214772,28.3200713 4.84140026,28.1468791 4.83984511,27.9642004 M3.7511858,30.0052357 C3.75642149,29.8083532 3.57825273,29.5722809 3.41708699,29.5625353 C3.21388026,29.5503533 3.07282784,29.7154587 3.07039143,29.9685341 C3.06826606,30.1880699 3.22709907,30.3569077 3.44222864,30.3637504 C3.6001804,30.3687787 3.74595012,30.199578 3.7511858,30.0052357 M2.19224808,26.1376207 C2.18146568,26.0706973 2.17980685,26.0146081 2.16264832,25.9636509 C2.11029149,25.8080318 1.89925716,25.6926913 1.7419793,25.728408 C1.62306189,25.7554677 1.48066167,25.9312518 1.50481838,26.059552 C1.52622766,26.1730264 1.58242054,26.28225 1.63653989,26.3864971 C1.68666767,26.4829685 1.77536326,26.5355327 1.88790453,26.5144863 C2.00832526,26.4919884 2.12060734,26.4496364 2.15658322,26.3129384 C2.17260131,26.2519245 2.18193223,26.1892518 2.19224808,26.1376207 M1.63120024,24.9833858 C1.63140788,25.2346467 1.78137652,25.411053 1.99344762,25.4097129 C2.13947654,25.4087203 2.31033607,25.2186287 2.31313535,25.0539897 C2.31666036,24.8471025 2.11806726,24.6136221 1.93979482,24.6151695 C1.74353445,24.6168361 1.63099317,24.7511495 1.63120024,24.9833858 M1.78070262,27.6005018 C1.95171767,27.604286 2.12351029,27.427154 2.12615405,27.2443716 C2.12874598,27.0684838 1.91874841,26.8417942 1.74996242,26.8382692 C1.53063393,26.8336038 1.41575993,26.9480631 1.41161285,27.1753747 C1.40720658,27.4174602 1.56178884,27.5955771 1.78070262,27.6005018 M2.25843652,28.5654227 C2.25683879,28.7821593 2.4646073,29.0399519 2.63603705,29.034146 C2.78688695,29.0290658 2.98014069,28.7951707 2.97656384,28.6220303 C2.97288331,28.4404921 2.7843987,28.2389442 2.6142649,28.2346934 C2.42075197,28.2298206 2.25979358,28.37953 2.25843652,28.5654227 M5.31105662,33.8459465 C5.28016091,33.6680369 5.28881793,33.4698585 5.21064554,33.3159502 C5.00692043,32.9148761 4.48402598,32.7126024 4.03904472,32.8243143 C3.73765597,32.8999984 3.54341729,33.1056416 3.51552821,33.4157392 C3.48877957,33.7143287 3.4830255,34.0131255 3.6059863,34.301451 C3.65533651,34.4172062 3.67684947,34.548513 3.69063849,34.674947 C3.72329672,34.9739512 3.86087597,35.2346467 4.00275781,35.4856485 C4.14816466,35.7427672 4.39755945,35.7531868 4.58697714,35.5311108 C4.71066369,35.3861187 4.81724354,35.2253677 4.92071309,35.0647721 C5.15823687,34.6959934 5.30836102,34.2989109 5.31105662,33.8459465 M37.6448755,1.81175385 C37.7049563,1.88329091 37.7776856,1.94705221 37.8222667,2.02688342 C37.8979508,2.16218178 37.9476639,2.31251328 38.0249032,2.44729326 C38.0574059,2.50379717 38.1396217,2.57844454 38.1856024,2.57015038 C38.2523185,2.55822754 38.3409104,2.48824563 38.3604535,2.42500272 C38.4923823,1.99526197 38.6322425,1.56448444 38.5912383,1.10467738 C38.5706066,0.873996278 38.6507488,0.668197629 38.742451,0.46706444 C38.7679555,0.411597298 38.8426029,0.35768531 38.9027874,0.34628085 C38.9358084,0.340060236 38.9994142,0.417817912 39.0250743,0.469656363 C39.0731803,0.566594266 39.0815782,0.688414625 39.2327909,0.723664771 C39.3722364,0.642278404 39.3731695,0.496093973 39.3872177,0.349909542 C39.4086788,0.127004204 39.4738916,0.0653164478 39.7446438,0.0139963817 C39.7516938,0.110934284 39.7648608,0.205798649 39.7628391,0.300144629 C39.7617505,0.353538233 39.7313731,0.405895069 39.7212128,0.459288673 C39.6622207,0.772911299 39.7461989,0.847558668 40.0429741,0.75113915 C40.1217167,0.725219925 40.2017552,0.695153623 40.2830379,0.688414625 C40.3405786,0.68323078 40.4253345,0.696190392 40.4536901,0.734032461 C40.4827715,0.772911299 40.4805943,0.865702126 40.4529125,0.911319962 C40.3478878,1.08290523 40.2417745,1.25760081 40.108446,1.40689555 C39.9247306,1.6126942 39.7161326,1.79516555 39.5843075,2.04450849 C39.4344943,2.32702805 39.270944,2.60229022 39.2525414,2.93509308 C39.2476167,3.02425521 39.2040724,3.11030704 39.1824558,3.19895079 C39.136838,3.38505083 39.094797,3.57218763 39.0499567,3.75880606 C39.0220158,3.8744058 38.9935565,3.99000555 38.961935,4.10508691 C38.9328018,4.21083735 38.8892057,4.31347748 38.8694034,4.42130146 C38.8136771,4.72403801 38.6813853,4.99048764 38.5202196,5.2496799 C38.2103812,5.74836579 37.9111696,6.2532723 37.6096254,6.75714204 C37.4541619,7.01685268 37.2894711,7.27189786 37.1540172,7.54197619 C37.023799,7.80220521 36.9240619,8.07746738 36.8144235,8.34754571 C36.7491589,8.50824491 36.6834796,8.66946249 36.6303452,8.83430876 C36.5381764,9.12097539 36.4578787,9.4117891 36.3680945,9.6994925 C36.2892482,9.95194576 36.2071879,10.2033622 36.1215508,10.453742 C36.0150228,10.7647727 35.8966238,11.0721747 35.7960053,11.3857973 C35.7012446,11.6802397 35.6238498,11.9803843 35.5363984,12.2769003 C35.5182549,12.338588 35.4853375,12.3950919 35.4657426,12.4562613 C35.4179993,12.6045193 35.3733664,12.7532956 35.3293038,12.9025904 C35.3163441,12.9461347 35.3129228,12.9927893 35.2993411,13.0358152 C35.1590663,13.4816259 35.0215907,13.9274365 34.8754063,14.3711737 C34.7037173,14.8916317 34.4941863,15.4019813 34.3573328,15.9313037 C34.2389338,16.3893482 34.0233377,16.8020341 33.8427843,17.2293385 C33.626307,17.7418134 33.3389146,18.2237555 33.0994728,18.727055 C32.8793149,19.1899724 32.6630449,19.6565184 32.4810919,20.1351428 C32.3615006,20.4499059 32.3112692,20.7904327 32.2199816,21.1166521 C32.1140239,21.4954356 31.9971281,21.871057 31.88552,22.2483373 C31.8698648,22.301057 31.8529654,22.3540359 31.8444121,22.4081552 C31.8073994,22.6431908 31.789878,22.8818031 31.6597117,23.0936151 C31.6282976,23.1447278 31.6347255,23.2183902 31.6204181,23.2809592 C31.5815911,23.4503154 31.5407424,23.6193088 31.5011897,23.7885095 C31.3995345,24.2239525 31.296687,24.6590326 31.1970535,25.0949421 C31.1482217,25.3086202 31.1103796,25.5248384 31.0581265,25.7375834 C31.0190403,25.8963646 31.0083615,26.0445707 31.1145267,26.1838088 C31.4176779,26.5811505 31.3000565,26.9891191 31.1172223,27.3815362 C31.0290969,27.5707984 30.9754441,27.756069 30.974511,27.9609345 C30.9742518,28.0069152 30.9787618,28.054814 30.9677202,28.0985656 C30.8871114,28.418046 30.8183736,28.7415698 30.7165629,29.0543111 C30.5809535,29.4714552 30.4222242,29.8810308 30.3547824,30.3174068 C30.3534864,30.3265304 30.3534864,30.3365352 30.3494948,30.3444665 C30.0820084,30.8752922 30.1401193,31.4746484 30.0043544,32.0354886 C29.9071055,32.4375476 29.9430295,32.8801443 29.9735106,33.3008133 C29.9861591,33.4740056 30.1297516,33.6439321 30.232651,33.8030243 C30.3910174,34.0478054 30.5528052,34.2747023 30.6068209,34.5831929 C30.6740554,34.9667456 30.8595334,35.3293038 30.9304484,35.7127528 C30.9901662,36.0350843 31.1282639,36.320766 31.2326665,36.6218955 C31.2952355,36.8023452 31.3864712,36.9728418 31.4665098,37.1471745 C31.5308931,37.2875012 31.5880191,37.4324415 31.6656731,37.565148 C31.8166267,37.8233035 31.8266315,38.1090888 31.8389172,38.3922823 C31.8536912,38.7331719 31.9918925,39.0354938 32.1371438,39.3271369 C32.311632,39.6777204 32.5477043,39.9972526 32.7310569,40.3440518 C32.8368592,40.5443037 32.9117139,40.7669499 32.9644336,40.9880927 C33.0533366,41.3617961 33.2056379,41.7142457 33.2980659,42.0887785 C33.3880056,42.4539286 33.4349713,42.8251956 33.5256885,43.1865614 C33.5906421,43.4449761 33.6504119,43.7009543 33.6970146,43.9638271 C33.7379152,44.1950785 33.8383781,44.4178801 33.9280068,44.638038 C34.0279513,44.8830784 34.1901538,45.1114267 34.2446879,45.3642947 C34.3272147,45.7472772 34.484337,46.106414 34.5069904,46.5122054 C34.6078162,48.3273287 34.5211423,50.1427113 34.5517788,51.9575754 C34.5548891,52.1422758 34.5530748,52.3213777 34.6483539,52.4938442 C34.6995184,52.5863758 34.7041839,52.7057079 34.7250229,52.8139985 C34.7787276,53.0924746 34.8332098,53.3710026 34.8800199,53.6507229 C34.8980597,53.7588061 34.9025178,53.8702069 34.9019994,53.9801044 C34.9004961,54.3044057 34.980431,54.6109265 35.0509313,54.9260525 C35.1385901,55.3182103 35.3305997,55.6755328 35.3685973,56.0886334 C35.3914062,56.3380282 35.3973676,56.5720269 35.3560006,56.8140607 C35.2835822,57.2367514 35.4260861,57.5717833 35.7818016,57.8094108 C36.052191,57.9900678 36.2115942,58.2619604 36.3556014,58.5338013 C36.6661656,59.1199386 36.7127683,59.7661049 36.6597376,60.4086425 C36.6325224,60.7383869 36.5986201,61.0800023 36.4398907,61.3939878 C36.3135604,61.6438491 36.2499028,61.9246062 36.1342512,62.1808436 C35.9691458,62.5469268 35.7757365,62.9002058 35.6061211,63.2644228 C35.4400825,63.6207084 35.3001187,63.9894872 35.1276522,64.3425588 C34.9772688,64.6501164 34.9160476,64.9828156 34.8138222,65.3037992 C34.7750989,65.4254641 34.7454991,65.5532977 34.7360645,65.6802501 C34.7109229,66.0192735 34.6807529,66.3596966 34.6872845,66.6989793 C34.6931423,67.0074181 34.6551965,67.3040377 34.5540079,67.5913264 C34.5191206,67.6903897 34.4565516,67.7910081 34.3799344,67.8622341 C33.9826963,68.232257 33.8354751,68.6918049 33.8499899,69.2223714 C33.8602539,69.6001182 33.8449097,69.9785907 33.8540333,70.356493 C33.8622756,70.7011669 33.7315909,71.0085171 33.5892425,71.3032705 C33.4111774,71.6728786 33.1991063,72.0277128 32.9806072,72.3756525 C32.8651112,72.5596272 32.84365,72.7526217 32.8392438,72.9539104 C32.8328158,73.2488712 32.829861,73.5442467 32.8396066,73.839052 C32.8496115,74.1469724 32.7159719,74.4127481 32.6026013,74.6817378 C32.5683879,74.7629687 32.4617562,74.8234642 32.3758599,74.8711037 C31.9834946,75.0888252 31.7156454,75.4043658 31.63908,75.8493471 C31.5841831,76.1687238 31.6092729,76.4940101 31.7023747,76.8064922 C31.8225881,77.2100027 31.9718828,77.599465 32.1684024,77.9771081 C32.3185784,78.2657965 32.4405024,78.5722136 32.6007869,78.85831 C32.6052969,78.8663449 32.6108954,78.8750019 32.611362,78.8837108 C32.6326676,79.2866511 32.690934,79.6910428 32.5581239,80.0875033 C32.517638,80.2081832 32.4864313,80.3319734 32.4476043,80.4533791 C32.4198189,80.5399493 32.3853463,80.6244978 32.3558502,80.7106015 C32.3143276,80.8313851 32.2732197,80.9522723 32.2349111,81.0741964 C32.2186338,81.1263977 32.2228846,81.188863 32.1959804,81.2333404 C32.0097249,81.540224 32.0036598,81.8796622 32.007444,82.2216923 C32.0102433,82.4794849 32.0159973,82.7362926 31.9374103,82.9885385 C31.9146013,83.0616826 31.933626,83.15043 31.9440456,83.2305722 C31.9523916,83.2937115 31.9939142,83.3552956 31.9917888,83.4165168 C31.9805398,83.7484902 32.199972,83.9006879 32.4513885,84.0369193 C32.522148,84.0751761 32.5827471,84.13619 32.6404433,84.1943009 C32.7517405,84.3068422 32.7850726,84.4253967 32.7185639,84.5886878 C32.6614897,84.7288071 32.6404433,84.891217 32.6381624,85.044296 C32.6295054,85.634373 32.6170123,86.2252795 32.6403396,86.814579 C32.6584313,87.2706019 32.6458345,87.7349707 32.8113547,88.1753384 C32.836289,88.2418471 32.8235886,88.3216783 32.8403324,88.3923341 C32.8864168,88.5867283 32.9467567,88.7780122 32.9872426,88.9734432 C33.0505373,89.2791863 33.1995729,89.5612912 33.2621419,89.8598288 C33.3406253,90.2346727 33.3517187,90.6252236 33.1226446,90.9820276 C33.0111401,91.1557383 32.9315162,91.3546424 32.8645409,91.5513175 C32.7375886,91.9244506 32.4634669,92.1559093 32.1410835,92.3427869 C32.0737454,92.3817176 31.9816803,92.389286 31.9005013,92.3909449 C31.3295526,92.4027122 30.7583447,92.4133909 30.1872923,92.415996 C29.5958156,92.4185229 29.0702774,92.0521287 28.8481496,91.4997382 C28.8215047,91.4335405 28.7654673,91.3797322 28.7320833,91.315608 C28.6992178,91.2522096 28.6524076,91.1810354 28.6567102,91.1161855 C28.669618,90.9214803 28.610885,90.756323 28.4700918,90.5900771 C28.6905607,90.4218095 28.651319,90.1842857 28.651319,89.9557818 C28.6510598,88.6094336 28.651319,87.2630335 28.6510598,85.9167371 C28.6510598,85.3179511 28.6476903,84.719217 28.6526668,84.1204311 C28.6534444,84.021938 28.6800894,83.920542 28.7111924,83.825885 C28.8678482,83.3479863 29.047624,82.8771377 29.1856698,82.3940552 C29.3727547,81.7398021 29.2339832,81.2521578 28.7037277,80.8166111 C28.2300798,80.4274599 27.8672625,79.9716444 27.6437869,79.4029247 C27.6337821,79.3772647 27.624192,79.35119 27.6166754,79.3246487 C27.5322306,79.026111 27.4713204,78.7182943 27.3580534,78.4312648 C27.2345223,78.1180569 27.0603451,77.8249623 26.9121908,77.5211371 C26.7400354,77.1678581 26.5532096,76.8199184 26.410602,76.454872 C26.3393241,76.2727636 26.3293193,76.0572711 26.3316002,75.8573302 C26.3389613,75.1949903 26.3489142,74.5317174 26.3901777,73.8709326 C26.4088913,73.5713582 26.5044814,73.2767085 26.5629552,72.9793631 C26.5753964,72.9166386 26.5782994,72.8520479 26.5852976,72.7882347 C26.6224657,72.4513367 26.64486,72.1118985 26.7002234,71.7779552 C26.7687539,71.3642325 26.7745598,70.9553308 26.6946249,70.5441482 C26.6771553,70.4544159 26.6829094,70.3586184 26.6553313,70.2728258 C26.6258871,70.1814346 26.5854013,70.0838228 26.5213808,70.015396 C26.4308708,69.918821 26.3408793,69.9297071 26.2680463,70.0399156 C26.0203103,70.4144484 25.7832012,70.7959276 25.612238,71.2134863 C25.427745,71.6638588 25.2314328,72.1054705 24.9237197,72.4916151 C24.7358572,72.7275319 24.5879621,72.9953812 24.4000995,73.2314535 C24.128466,73.5728615 23.7770014,73.8202865 23.3865023,74.0124516 C23.1852136,74.111463 23.0718947,74.29212 22.9657296,74.4754726 C22.7551618,74.8391194 22.4048894,74.9378716 22.0369919,74.7460175 C21.6318226,74.5348795 21.2347919,74.3066866 20.7928691,74.1712328 C20.6028812,74.1129145 20.4247643,74.0155101 20.2419819,73.9342792 C19.7989186,73.7377596 19.3587584,73.536782 18.9461761,73.2782636 C18.84224,73.2131545 18.7082376,73.1932486 18.5855879,73.1617308 C18.4345306,73.1229038 18.2812443,73.0921636 18.1283209,73.0608013 C17.9758122,73.0294391 17.8236145,72.9943444 17.6694988,72.9741793 C17.5050672,72.9528218 17.3486706,72.9327603 17.2005681,72.8374294 C17.0296568,72.7275319 16.8600414,72.7858502 16.753306,72.9544807 C16.5770034,73.2330087 16.3912663,73.5058863 16.2263681,73.7908941 C16.0989492,74.0112075 15.9980198,74.2468651 15.8838197,74.4750061 C15.7857932,74.6708518 15.6963718,74.8722441 15.5837269,75.0594328 C15.4100681,75.3478619 15.3387902,75.6315219 15.4416895,75.9732928 C15.5597257,76.3653989 15.6112531,76.777048 15.7115605,77.1752191 C15.8119197,77.5735458 15.9388721,77.9654445 16.049288,78.3614384 C16.0736002,78.448838 16.0884779,78.5417844 16.0889963,78.6322943 C16.0922621,79.2962412 16.0915363,79.9601881 16.089722,80.6242386 C16.0895146,80.696968 16.0915363,80.7773176 16.0633881,80.8413381 C15.7571783,81.538306 15.6931578,82.2765374 15.6861078,83.0237887 C15.6806129,83.6047422 15.6864707,84.1857475 15.6839824,84.7667011 C15.6833604,84.9071833 15.6846045,85.0428445 15.7855858,85.1566299 C15.8088613,85.1828601 15.8291819,85.2225165 15.829804,85.2562634 C15.8334845,85.5046732 15.9305779,85.7172627 16.0697642,85.915804 C16.1208769,85.9887407 16.1582524,86.0735484 16.218385,86.1374652 C16.4260499,86.3580896 16.5138642,86.6141198 16.4863898,86.915664 C16.4697497,87.0989129 16.4618702,87.2835615 16.4616629,87.4676398 C16.4614037,87.6176603 16.4563754,87.7585054 16.351558,87.8829695 C16.314027,87.9276024 16.2998751,88.0016277 16.2966092,88.0633155 C16.2740077,88.4948187 16.2487624,88.9263738 16.2420234,89.3581881 C16.2388612,89.5588029 16.287382,89.7597288 16.2907515,89.9609138 C16.2958317,90.2674346 16.0557678,90.5089499 15.7473809,90.5373574 C15.6476437,90.5466365 15.539716,90.5533755 15.4523164,90.5957793 C14.948965,90.8400939 14.421457,90.8100276 13.9147361,90.6715671 C13.454307,90.5457034 12.998958,90.4935021 12.5285241,90.5118529 C12.3795922,90.5176069 12.2329931,90.5245533 12.1229401,90.6481361 C12.0993536,90.6745219 12.0657104,90.700182 12.0323783,90.7083724 C11.6496032,90.8032886 11.3623145,91.0475514 11.0592669,91.28352 C10.7897588,91.4933621 10.4833417,91.6550981 10.1644834,91.8008678 C9.70820136,92.009362 9.23833764,92.0154271 8.76360111,92.0260022 C8.37745649,92.034711 7.99032695,92.0148569 7.60407865,91.9985796 C7.18543132,91.9808509 6.85703474,91.7559757 6.55963755,91.4934658 C6.22978948,91.202341 5.92212828,90.8860228 5.60399571,90.5815237 C5.41945082,90.4049101 5.3881404,90.165883 5.34247072,89.9341652 C5.33438393,89.893472 5.34827663,89.8367607 5.37310725,89.8030657 C5.61581487,89.4740989 5.85012467,89.1536855 6.2559679,88.9775902 C7.02566522,88.6436469 7.84574951,88.4850731 8.63789287,88.2318423 C8.93238711,88.1376 9.23616043,88.072128 9.52904768,87.9738423 C9.6279036,87.9406657 9.70327671,87.8420171 9.79456422,87.781107 C10.1006184,87.5772782 10.3761398,87.3388213 10.6461663,87.0889081 C10.9408679,86.8160305 11.2655839,86.5757075 11.576511,86.3204031 C11.6113982,86.2916846 11.6401686,86.2558124 11.6745375,86.2263681 C11.8313488,86.0917955 11.9602192,85.9173591 12.1995055,85.9072506 C12.2550763,85.9049179 12.3302939,85.83364 12.3557984,85.7760475 C12.3994982,85.6775026 12.4381697,85.5629915 12.4316899,85.458226 C12.3988761,84.9266745 12.3616561,84.3948638 12.302975,83.8658006 C12.2790775,83.6508266 12.1858719,83.4444577 12.1434163,83.2304686 C12.0444048,82.7298646 11.9722975,82.2236103 11.8597563,81.7263241 C11.7771776,81.3613814 11.6454561,81.0077395 11.5400167,80.6477733 C11.4424049,80.3147631 11.3491994,79.9804569 11.2569269,79.6458915 C11.2227135,79.5219458 11.1995936,79.3949416 11.1665207,79.2707367 C11.0927545,78.9942304 11.0495731,78.7163763 11.0513356,78.4273251 C11.0532018,78.1336084 11.0052512,77.8455422 10.9059806,77.5616748 C10.8440855,77.384802 10.8602591,77.1812842 10.8354285,76.9904669 C10.8212766,76.8816062 10.8066063,76.7705164 10.7720819,76.6670468 C10.6895551,76.4200366 10.6645171,76.167687 10.6431078,75.9091168 C10.6182772,75.6096979 10.52305,75.3164478 10.4908583,75.0170289 C10.436065,74.5078717 10.3894623,74.0018247 10.5459107,73.4911123 C10.6884146,73.0257585 10.8481807,72.5691655 11.021062,72.1147496 C11.1342253,71.8173006 11.1918697,71.4992198 11.2850234,71.1935285 C11.3384688,71.0183664 11.4101614,70.8486473 11.4788992,70.6786172 C11.6950137,70.1440591 11.9147569,69.6109524 12.2682432,69.1470501 C12.2960805,69.1104522 12.3181637,69.0639531 12.3547616,69.0401074 C12.7894789,68.7557217 12.926125,68.2728983 13.1484601,67.8485488 C13.3344047,67.4934554 13.5350713,67.1424054 13.6791304,66.7701017 C13.8545517,66.3170336 14.151586,65.9451964 14.4078753,65.5457811 C14.4810194,65.4318921 14.5733955,65.3194545 14.6821525,65.2414376 C14.9905395,65.0203984 15.1908433,64.7127891 15.3826455,64.4008253 C15.7186105,63.8540851 16.0395424,63.3003468 16.4805321,62.8245217 C16.6391577,62.6534029 16.74947,62.4341263 16.8654326,62.2276537 C17.0311083,61.9327448 17.1656809,61.619485 17.3425018,61.3318335 C17.60299,60.9082615 18.0055156,60.6524906 18.4645969,60.4867631 C18.6000508,60.4379312 18.6887464,60.3599144 18.7266403,60.2284521 C18.8399073,59.8360868 19.0643678,59.4970634 19.2368343,59.1330019 C19.404117,58.7804486 19.5860181,58.4306946 19.5284775,58.0110105 C19.494938,57.7660738 19.7753322,57.4397508 20.0675973,57.4006646 C20.3359132,57.3648442 20.5614104,57.2361812 20.7734297,57.1069997 C21.0981976,56.9089769 21.2446412,56.5781439 21.2290897,56.191118 C21.2246834,56.081687 21.1947726,55.9735002 21.181813,55.8640692 C21.1541313,55.62893 21.1690089,55.6056027 21.3856418,55.5106347 C21.6966725,55.3742995 21.8720938,55.064824 21.8248171,54.734302 C21.8208774,54.7071905 21.8184928,54.6770205 21.8051185,54.6545226 C21.6273645,54.3571255 21.6486701,54.0202792 21.5994236,53.6949929 C21.5475333,53.3510966 21.4302747,53.0209376 21.2179444,52.7342709 C21.1401349,52.6294017 21.0654357,52.530805 20.9160373,52.5192969 C20.7995044,52.5103806 20.770112,52.4125615 20.7785099,52.3154162 C20.793232,52.1417574 20.8259939,51.9696019 20.8405086,51.7959431 C20.8492693,51.6905556 20.8580819,51.5782216 20.8318516,51.4781216 C20.7722374,51.2515357 20.7933356,51.0123531 20.638546,50.7981048 C20.4254382,50.5033514 20.2580518,50.1743327 20.0830452,49.8535045 C19.9168511,49.5491092 19.7445401,49.2496903 19.7183099,48.8847994 C19.7042098,48.688228 19.6152032,48.4967886 19.5592695,48.3033275 C19.5281664,48.1960219 19.5020398,48.0824439 19.3535745,48.0863836 C19.2333093,48.0895457 19.0598579,48.2030201 19.0275625,48.3069044 C19.0114926,48.358691 19.0077602,48.4156614 19.0060495,48.4704547 C19.0029392,48.5810261 18.9951635,48.6927898 19.0067234,48.8022208 C19.0368934,49.0863473 18.9393853,49.3319579 18.7745909,49.5490055 C18.5961629,49.7838337 18.4576506,50.0357685 18.3578616,50.3120156 C18.3399773,50.361314 18.2978845,50.4015925 18.2683884,50.4471066 C18.1647115,50.6065617 18.0639375,50.7679348 17.9580316,50.9259384 C17.7943776,51.169942 17.6265247,51.4111463 17.4622486,51.6547352 C17.4164753,51.7228509 17.3643258,51.7907074 17.3374217,51.8667026 C17.2911818,51.997491 17.1992203,52.0614597 17.0714386,52.0730196 C16.9159751,52.0871197 16.8303898,52.1846278 16.7459968,52.3002276 C16.3458039,52.8482637 15.9721005,53.4199899 15.5288818,53.9311171 C15.1083164,54.4160139 14.619117,54.8427481 14.1451062,55.2787094 C14.0641345,55.3533568 13.9093449,55.3531494 13.7864878,55.3755955 C13.5031907,55.4276413 13.2976512,55.3089831 13.1246663,55.0870108 C12.9241552,54.8297884 12.6517441,54.6648385 12.3590642,54.5207794 C11.9049594,54.2970965 11.4806098,54.0178428 11.0973163,53.6879947 C10.5620325,53.2272546 10.0315696,52.7590497 9.52547082,52.2667918 C9.17794585,51.9287532 8.86909236,51.549866 8.55422561,51.1796876 C8.11396165,50.6623399 7.66830649,50.1483616 7.25458381,49.6102785 C6.84599315,49.0789344 6.46653569,48.5246259 6.08925544,47.9702136 C5.8852193,47.6704319 5.63266237,47.4206224 5.36372449,47.1856905 C5.30141467,47.131312 5.1953532,47.1163307 5.10665761,47.1054446 C4.99758951,47.0919666 4.88375227,47.087975 4.77546175,47.1039931 C4.39973666,47.1590456 4.06911102,47.0055001 3.73858906,46.8753855 C3.62008636,46.8287309 3.52480729,46.706133 3.43709663,46.6029227 C3.34280249,46.491781 3.26706651,46.3646213 3.18832391,46.2410903 C2.98843484,45.9275195 2.70104247,45.7503357 2.33755126,45.6953869 C2.19375139,45.6735629 2.09976828,45.6086093 2.06933911,45.4607142 C2.03989487,45.3171217 2.00505943,45.1746178 1.97302327,45.0315437 C1.94311248,44.8975931 1.93559591,44.7536378 1.88028428,44.631299 C1.70377436,44.2404371 1.71823729,43.8260924 1.70973578,43.415169 C1.70662547,43.2627121 1.75467972,43.1239924 1.94772611,43.0966735 C2.00635539,43.0883794 2.06363688,43.0427615 2.1131426,43.0037272 C2.304582,42.8525144 2.47896655,42.6939924 2.74614192,42.6560985 C2.96293032,42.6253583 3.01839747,42.3764819 2.87812262,42.2013198 C2.63676279,41.9000866 2.29934632,41.7277756 1.97996962,41.529649 C1.85716433,41.4533428 1.74161643,41.3590487 1.64099799,41.2552162 C1.55852302,41.1701493 1.59714266,41.0673019 1.71678581,41.0599926 C1.98002146,41.043819 2.24553801,41.0025556 2.49379235,41.1643434 C2.62157413,41.2475442 2.77942221,41.2897407 2.92866511,41.3334405 C3.06925099,41.3746002 3.13591523,41.3304857 3.1666036,41.1833163 C3.18899781,41.0759589 3.19558129,40.9641952 3.19796586,40.8540903 C3.209474,40.3216057 3.2776934,39.7963267 3.35005987,39.2688187 C3.41351014,38.8068862 3.40044685,38.3344824 3.42014546,37.8666404 C3.42517379,37.7471009 3.40220935,37.6205114 3.43393449,37.5090069 C3.52143779,37.2017086 3.52672531,36.8894856 3.50930759,36.5775736 C3.48986817,36.2309818 3.43434919,35.8882259 3.28940889,35.5669312 C3.2743239,35.5335473 3.25752824,35.5000596 3.24845651,35.4649131 C3.10984049,34.9309253 2.87402738,34.4354015 2.65319558,33.9331388 C2.4690654,33.5142322 2.31111365,33.0839213 2.12983458,32.6637188 C1.99251453,32.3452233 1.83337048,32.0363699 1.69014085,31.7203627 C1.56168516,31.4368582 1.44157547,31.1496213 1.31794077,30.8638878 C1.21695947,30.6302519 1.11084616,30.3986377 1.01701856,30.1622025 C0.93983111,29.9676528 0.871456194,29.7691115 0.809664761,29.569067 C0.709772066,29.2456987 0.617862493,28.9198422 0.523879382,28.5946596 C0.483341714,28.4542292 0.446899283,28.3127103 0.407035515,28.1720207 C0.387077711,28.1014686 0.354626841,28.0332492 0.343118705,27.9615566 C0.22549726,27.2294422 0.0274743788,26.5075399 0.0785870912,25.754068 C0.0896286812,25.5912953 0.0558300114,25.4255159 0.0424556911,25.2611362 C0.0380494228,25.2060838 0.0263857714,25.1507721 0.0292887246,25.0961862 C0.0519421276,24.6741694 0.0727293463,24.2520489 0.104609993,23.8307578 C0.113578045,23.7135511 0.156759475,23.5986771 0.186514745,23.4833884 C0.227674475,23.3241406 0.26230256,23.1624565 0.315229618,23.0072004 C0.406672645,22.7388845 0.487696144,22.4635187 0.614181963,22.2116875 C0.761247648,21.9188521 0.958752145,21.6519359 1.12318371,21.3672391 C1.37200827,20.9364616 1.75473155,20.6357986 2.17140902,20.4119083 C2.82431431,20.0611694 3.53890735,19.9562483 4.27770895,20.1014997 C4.32291208,20.1104159 4.36889278,20.1306329 4.4130073,20.1269524 C4.82320496,20.092739 5.19307231,20.2665533 5.55506021,20.4004002 C5.91767017,20.5345063 6.27556284,20.702411 6.61919993,20.8990861 C7.00565557,21.1201252 7.36873208,21.3698829 7.68131794,21.6737081 C8.0280135,22.010658 8.32909122,22.3969581 8.62913217,22.7782299 C8.78075964,22.9709134 8.895841,23.1949074 9.00947088,23.4140285 C9.10169149,23.5917826 9.19023156,23.7775716 9.23916706,23.9702033 C9.33149134,24.3332279 9.52054617,24.6734437 9.50634243,25.0621802 C9.50597957,25.0714075 9.50416522,25.0816715 9.5073792,25.0897064 C9.67528395,25.5091832 9.69311637,25.951106 9.68015676,26.392303 C9.66901149,26.7735748 9.72525621,27.1613264 9.58679571,27.5345633 C9.53936353,27.6625006 9.52718149,27.8030346 9.48954678,27.9351708 C9.39172762,28.2780303 9.29904047,28.6229116 9.18416646,28.9602762 C9.10495731,29.1928753 8.99516347,29.4154178 8.8938193,29.6400856 C8.72840281,30.006739 8.56874038,30.3763472 8.38782418,30.7351729 C8.23204964,31.0443374 8.06383387,31.3490957 7.87669706,31.6400131 C7.49506239,32.2334078 7.09808353,32.8169532 6.70535543,33.4030388 C6.22564241,34.1190315 5.72835615,34.8227384 5.30540623,35.5764177 C5.11645508,35.9131602 4.92568958,36.2491771 4.80609828,36.6132903 C4.73088068,36.8426236 4.73331709,37.0978762 4.70547984,37.3419316 C4.70050335,37.3853722 4.73938219,37.4423945 4.72248285,37.4745344 C4.5790977,37.747412 4.64716159,38.0520665 4.58842862,38.3382148 C4.53539789,38.5965776 4.53918209,38.8673817 4.52845153,39.1331056 C4.51580295,39.4460543 4.52109047,39.7597806 4.50569445,40.072522 C4.49683008,40.2545786 4.46318692,40.4354948 4.43949675,40.6167739 C4.4359199,40.6438336 4.42150881,40.6697009 4.41964263,40.6966569 C4.39310134,41.0722784 4.36847807,41.4480034 4.34178127,41.8236767 C4.33530147,41.914705 4.32742202,42.0060444 4.31192233,42.0959322 C4.27947146,42.2837948 4.32571135,42.4471896 4.46992592,42.5705133 C4.90054793,42.9386181 5.20898671,43.4111256 5.56444297,43.8431991 C5.80963884,44.1412701 6.04954719,44.4437475 6.28375331,44.7504756 C6.38307578,44.8804865 6.4613,45.026619 6.54963272,45.1650795 C6.81592685,45.5824828 7.17045001,45.907147 7.58090686,46.1815797 C8.05237757,46.4967575 8.50990374,46.8328262 8.97510199,47.1574386 C9.32884758,47.4041896 9.6914057,47.6389141 10.0387233,47.8942185 C10.4448257,48.1926524 10.8432561,48.5020243 11.2364507,48.8172021 C11.6230101,49.1268331 12.000705,49.4478168 12.3779852,49.768956 C12.4608749,49.8395082 12.5255175,49.9315214 12.5986615,50.0135817 C12.6350003,50.054223 12.6659997,50.1024328 12.7090774,50.133795 C12.9470159,50.3078686 13.1167868,50.2359168 13.1360189,49.9430295 C13.1511039,49.7133852 13.1298501,49.48146 13.14338,49.251712 C13.1535403,49.0792454 13.1893607,48.907712 13.2211376,48.7370598 C13.2513595,48.5750647 13.2885795,48.4141581 13.3275101,48.2540291 C13.3621382,48.1116808 13.410037,47.972339 13.4401033,47.8291612 C13.481263,47.6325898 13.512055,47.4337893 13.545439,47.2356628 C13.5606277,47.1456712 13.5548218,47.048526 13.5867542,46.9654289 C13.760413,46.5136568 13.9588506,46.0706973 14.1168542,45.6136895 C14.2293955,45.288144 14.2920164,44.9451808 14.3760465,44.6098897 C14.398337,44.520935 14.4146661,44.4306842 14.4386155,44.3422997 C14.4580031,44.2712291 14.4985407,44.2037355 14.5059018,44.1321466 C14.5547336,43.6568398 14.6992074,43.2021648 14.8001887,42.7383143 C14.8275076,42.6129689 14.8557077,42.4879346 14.8844262,42.3629003 C14.9152701,42.2287423 14.9660199,42.0961396 14.9753508,41.9605302 C15.014437,41.394558 15.2542935,40.9323664 15.6324032,40.515015 C15.9090132,40.2095829 16.1393314,39.8618505 16.3845273,39.5286848 C16.5011638,39.3700591 16.6300342,39.2342424 16.8156677,39.1539446 C16.888708,39.1223232 16.9560462,39.0651972 17.0105284,39.0054275 C17.1962656,38.8016505 17.3901414,38.6024354 17.5528623,38.3809297 C17.7457531,38.1184716 17.83082,37.8265693 17.6504741,37.5131022 C17.6229997,37.4654108 17.5836025,37.4138834 17.5826175,37.3634964 C17.5747381,36.9860088 17.5644741,36.607951 17.5786778,36.2310336 C17.583758,36.0944911 17.7047489,36.0195846 17.8390623,35.9787359 C18.0988767,35.8996304 18.1670961,35.8234797 18.1120436,35.5703007 C18.0560581,35.3137522 17.9510852,35.0673122 17.8579834,34.8200947 C17.8414988,34.7764467 17.7818327,34.7290663 17.7353854,34.720513 C17.5733903,34.690654 17.489723,34.5801863 17.4028418,34.4561887 C17.2609081,34.2533449 17.1024898,34.062061 16.9543873,33.8634679 C16.9165453,33.8127699 16.8844573,33.7555402 16.8607153,33.6968073 C16.7793289,33.4948447 16.6839462,33.4139248 16.4751409,33.4177609 C15.7601331,33.4309797 15.2835304,33.0835584 14.9828156,32.4555874 C14.9447661,32.3761709 14.8853074,32.3053077 14.8280259,32.2370365 C14.716003,32.1035525 14.63612,31.9583012 14.559762,31.798224 C14.4315655,31.5294416 14.2492496,31.2774031 14.0499826,31.0537202 C13.7362563,30.7015298 13.5792377,30.300352 13.5424842,29.8380567 C13.5295246,29.6746619 13.4867579,29.5139108 13.4611497,29.3513455 C13.4483974,29.2703738 13.4367338,29.1881062 13.4364227,29.1063569 C13.4342974,28.5346307 13.3847398,27.9570467 13.4499007,27.392837 C13.5119514,26.8552722 13.5925083,26.3091542 13.886225,25.8171554 C14.0811894,25.4904695 14.2979778,25.1700042 14.4018102,24.7866589 C14.4770278,24.5089603 14.639956,24.2557294 14.7547782,23.9876728 C14.8306697,23.810489 14.999352,23.7618645 15.148232,23.7108555 C15.4514351,23.6070231 15.6994303,23.4288025 15.9376798,23.224248 C16.2160005,22.9852209 16.4913663,22.7402323 16.7890227,22.5270726 C17.0628852,22.3307604 17.3647924,22.1738454 17.6535325,21.9980612 C17.7078074,21.9650401 17.7577797,21.9250209 17.8098773,21.8883192 C17.9697471,21.7755188 18.1048381,21.7853162 18.2571395,21.9178153 C18.3944595,22.0373029 18.5225523,22.1724458 18.6751129,22.2679322 C18.8032057,22.3479708 18.9629718,22.375808 19.1048018,22.4359925 C19.2977445,22.5177417 19.4860736,22.6102215 19.6779795,22.6942516 C19.7785461,22.7383662 19.8796311,22.7932631 19.9857444,22.8103179 C20.3449331,22.8682215 20.5263158,23.1065228 20.677373,23.410348 C20.7995044,23.6560104 20.839109,23.9040574 20.8653393,24.1726324 C20.8927618,24.4516269 20.9904254,24.7259042 21.0769957,24.9958788 C21.1018781,25.0737402 21.1864266,25.1407155 21.2574453,25.1942128 C21.6050739,25.4556341 21.7137273,25.8496063 21.8390209,26.2328998 C21.8606375,26.2986828 21.8573198,26.3858232 21.833215,26.4511397 C21.7185483,26.7611336 21.8420275,27.0306935 21.9732825,27.2936182 C22.0580383,27.4633373 22.106611,27.6342486 22.1032933,27.8219038 C22.09474,28.3202787 22.1019455,28.8160616 22.2659624,29.2965004 C22.2948364,29.3805824 22.2865422,29.4788162 22.2870088,29.5705703 C22.2888231,30.0223942 22.2878382,30.47427 22.2879419,30.9261458 C22.2879419,30.9814574 22.2858165,31.0369764 22.2892897,31.0920288 C22.2948364,31.1776141 22.3100769,31.2740854 22.4135983,31.2762627 C22.4857055,31.2778696 22.5727423,31.2476997 22.6290389,31.2019782 C22.8617935,31.0125086 22.8477453,30.731285 22.8762046,30.4692417 C22.8871425,30.3689861 22.8683252,30.2654129 22.8806109,30.1654165 C22.8983915,30.0209946 22.9190232,29.8745509 22.9616862,29.7361423 C23.0316681,29.5092454 23.126377,29.2900724 23.1996247,29.0641086 C23.2990508,28.7580544 23.539011,28.5900978 23.8014173,28.4540219 C24.0256704,28.3375927 24.221205,28.20499 24.3636053,27.9874758 C24.5003551,27.7786706 24.673029,27.6248659 24.9480838,27.57028 C25.3067022,27.4990021 25.5321995,27.1744934 25.5311627,26.8044187 C25.5304888,26.5659618 25.6176292,26.3675242 25.7776027,26.2090541 C26.0569083,25.9323405 26.1882669,25.605188 26.1592892,25.2174364 C26.1396943,24.954771 26.3055773,24.7651977 26.4576195,24.6190651 C26.7736267,24.3154473 26.8157195,23.9046276 26.9735157,23.5398923 C27.0748081,23.3059972 27.141265,23.0548917 27.2605971,22.831468 C27.4883234,22.4051486 27.7338303,21.987538 27.9880461,21.5763036 C28.4380556,20.8481289 28.9776939,20.1852188 29.5087788,19.5158289 C29.6378566,19.3530043 29.7666233,19.1771164 29.8397673,18.9858844 C29.9499759,18.69787 30.0101603,18.3908827 30.0938794,18.0926042 C30.1186064,18.0041678 30.1493466,17.9171829 30.1807607,17.8308719 C30.199578,17.7790853 30.2319771,17.7316012 30.2464918,17.6789852 C30.3314032,17.3717906 30.4040807,17.0611227 30.4975454,16.7567273 C30.6019999,16.4164079 30.7204508,16.0801319 30.8400939,15.7447371 C30.9319517,15.487411 31.0318962,15.2327806 31.1345882,14.9797571 C31.21359,14.7848445 31.2857491,14.5842297 31.3901517,14.4027951 C31.7046556,13.8553811 32.0300456,13.3147061 32.3577683,12.7750678 C32.6091329,12.3608786 32.8828918,11.9601673 33.1227483,11.5397575 C33.3040273,11.2225062 33.4427989,10.8808908 33.6090966,10.5548269 C33.8496789,10.0820603 34.1039465,9.61655098 34.3413666,9.14222916 C34.5785275,8.66842572 34.8529602,8.20810028 34.9247047,7.66794362 C34.9295256,7.63165671 34.9374051,7.59536979 34.9391157,7.55908287 C34.9646721,7.03603291 34.989088,6.51246456 35.0143333,5.98941459 C35.0366757,5.52546046 35.1254231,5.08431524 35.4050397,4.69449009 C35.5049324,4.55504466 35.5608661,4.38449616 35.6362911,4.22794404 C35.7628806,3.96512309 35.8951723,3.70437568 36.0140379,3.43792605 C36.1139305,3.21346556 36.1834459,2.97500868 36.2936545,2.75625042 C36.3791361,2.58673869 36.5022524,2.43485203 36.6184223,2.28296537 C36.6457931,2.24667845 36.7371842,2.2114283 36.7558461,2.22697984 C36.796954,2.2617116 36.8394097,2.33428543 36.8303898,2.38197681 C36.7864826,2.61473145 36.7381173,2.84800448 36.6682909,3.07350174 C36.579388,3.36120514 36.469646,3.64268793 36.3665393,3.92572587 C36.3238244,4.04236238 36.336473,4.1522599 36.4411348,4.21809473 C36.5422198,4.28237441 36.665699,4.26837803 36.7508178,4.18647327 C36.8804139,4.06154261 37.0169564,3.93298325 37.1064295,3.78005982 C37.2437496,3.54575002 37.3548394,3.29381515 37.4549394,3.04032513 C37.507711,2.90658193 37.5267357,2.75573204 37.5374662,2.61058437 C37.5512034,2.42707626 37.5383475,2.24201299 37.5422872,2.05746811 C37.5437905,1.98800458 37.5601715,1.91802267 37.5697616,1.84855915 C37.5947477,1.83611792 37.6198375,1.82419508 37.6448755,1.81175385" id="Shape"></path>
            </g>
            <g id="Group" transform="translate(34.790443, 0.419243)">
                <path d="M1.39963817,3.97129187 C0.618847424,3.59333772 0.164535242,3.00170549 0.0482615976,2.16052295 C0.0377902305,2.08489065 0.0558818498,1.99199614 0.0931536958,1.92538373 C0.254682308,1.6366954 0.41688482,1.34702214 0.602155443,1.07352247 C0.698212092,0.931951666 0.83444354,0.813241614 0.967357328,0.702099976 C1.28170569,0.439486385 1.56531386,0.141622647 2.00257119,0.0531344119 C2.52085202,-0.0518384507 2.94893394,0.0749065612 3.30578984,0.446225383 C3.43040947,0.575925187 3.54564635,0.729626193 3.61661319,0.89333202 C3.85926897,1.45386119 3.69945103,1.94451212 3.27494596,2.34304613 C3.07059879,2.53490024 2.8232257,2.692852 2.57180921,2.81970068 C2.23693282,2.98869403 1.93715106,3.19495923 1.69999015,3.48115932 C1.58501247,3.61993085 1.50839524,3.79053119 1.39963817,3.97129187" id="Path"></path>
            </g>
            <g id="Group" transform="translate(34.862499, 0.034675)">
                <path d="M1.91802267,4.48034545 C1.9564868,4.07450222 2.16218178,3.7747723 2.44221309,3.52750289 C2.60638546,3.38276994 2.7998984,3.26950292 2.98698337,3.15291825 C3.46700742,2.85391406 3.72148237,2.40924383 3.86543775,1.87520411 C3.93738952,1.60870264 3.85657337,1.39315836 3.74118098,1.17025302 C3.51920874,0.740926975 3.19221179,0.436687108 2.71457231,0.325234439 C2.56652169,0.290710031 2.407585,0.293716661 2.25383216,0.294235046 C1.79215892,0.295738361 1.35935969,0.398896878 0.999082459,0.705728667 C0.70464006,0.956626768 0.443115076,1.23795404 0.253593701,1.5806062 C0.192320652,1.69148864 0.114874007,1.79345488 0.0298589476,1.92201423 C-0.00896805196,1.28258695 0.627297091,0.476654554 1.37667373,0.178687139 C2.29162239,-0.185270623 3.30578984,0.0779131913 3.95024546,0.846521899 C4.55867335,1.57215653 4.62513024,2.63443006 4.12846605,3.45259633 C3.65855049,4.22669991 2.66434085,4.66561607 1.91802267,4.48034545" id="Path"></path>
            </g>
        </g>
    </g>
</svg>
