<svg viewBox="0 0 100 100" version="1.1" xmlns="http://www.w3.org/2000/svg" xmlns:xlink="http://www.w3.org/1999/xlink">
    <title>Sports/Resources/Courts/Handball</title>
    <defs>
        <path d="M50,0 C22.4298828,0 0,22.3423828 0,49.8046875 C0,77.3191406 22.4525391,100 50,100 C77.5164063,100 100,77.3521484 100,49.8046875 C100,22.3423828 77.5701172,0 50,0 Z M38.25,7.44277344 C41.9927734,6.41269531 45.9324219,5.859375 50,5.859375 C54.0675781,5.859375 58.0072266,6.41269531 61.7501953,7.44277344 C63.2507813,7.94785156 64.1160156,8.45 64.5570312,8.7890625 C61.6003906,11.0613281 53.9947266,11.71875 50,11.71875 C46.0855469,11.71875 38.4023438,11.0634766 35.4431641,8.7890625 C35.8841797,8.45019531 36.7494141,7.94785156 38.25,7.44277344 Z M29.7091797,10.7861328 C32.1166016,16.4013672 43.8529297,17.578125 50,17.578125 C56.1341797,17.578125 67.8833984,16.4013672 70.2908203,10.7861328 C73.8304687,12.6179687 77.0898437,14.9136719 79.9894531,17.5912109 C74.3476562,26.8970703 60.8970703,29.296875 50,29.296875 C39.1095703,29.296875 25.6539062,26.8996094 20.0105469,17.5912109 C22.9101562,14.9136719 26.1695312,12.6179687 29.7091797,10.7861328 Z M15.878125,21.9582031 C23.2009766,32.2652344 37.3970703,35.15625 50,35.15625 C62.6011719,35.15625 76.8005859,32.2630859 84.1220703,21.9582031 C86.7433594,25.1363281 88.9255859,28.6859375 90.5777344,32.5140625 C81.8267578,41.7875 67.509375,46.875 50,46.875 C32.490625,46.875 18.1732422,41.7875 9.42246094,32.5138672 C11.0744141,28.6857422 13.2566406,25.1363281 15.878125,21.9582031 Z M50,94.140625 C40.0335938,94.140625 30.8292969,90.8041016 23.4326172,85.1869141 C31.7478516,87.1126953 40.6402344,88.0859375 50,88.0859375 C59.3597656,88.0859375 68.2521484,87.1126953 76.5673828,85.1869141 C69.1707031,90.8041016 59.9664063,94.140625 50,94.140625 Z M85.1363281,76.6076172 C74.5822266,80.3361328 62.7667969,82.2265625 50,82.2265625 C37.2332031,82.2265625 25.4177734,80.3361328 14.8636719,76.6076172 C11.209375,71.7863281 8.51503906,66.1945312 7.06835938,60.1203125 C18.8765625,66.8046875 33.5667969,70.3125 50,70.3125 C66.4332031,70.3125 81.1234375,66.8046875 92.9316406,60.1203125 C91.4849609,66.1945312 88.790625,71.7865234 85.1363281,76.6076172 Z M50,64.453125 C32.6330078,64.453125 17.4371094,60.3380859 5.94570313,52.5388672 C5.890625,51.6341797 5.859375,50.7230469 5.859375,49.8046875 C5.859375,45.9529297 6.36152344,42.2162109 7.30078125,38.6537109 C18.5957031,49.0505859 34.590625,52.734375 50,52.734375 C65.4105469,52.734375 81.4048828,49.05 92.6992188,38.6537109 C93.6384766,42.2162109 94.140625,45.9529297 94.140625,49.8046875 C94.140625,50.7230469 94.109375,51.6341797 94.0542969,52.5388672 C82.5628906,60.3380859 67.3669922,64.453125 50,64.453125 Z" id="path-1"></path>
    </defs>
    <g id="Sports/Resources/Courts/Handball" stroke="none" stroke-width="1" fill="none" fill-rule="evenodd">
        <mask id="mask-2" fill="white">
            <use xlink:href="#path-1"></use>
        </mask>
        <use id="Shape" fill="#000000" fill-rule="nonzero" opacity="0" xlink:href="#path-1"></use>
        <g id="Group" mask="url(#mask-2)" fill="#000000">
            <g id="Colour/Black">
                <rect id="Rectangle" x="0" y="0" width="100" height="100"></rect>
            </g>
        </g>
    </g>
</svg>
