<svg viewBox="0 0 100 100" version="1.1" xmlns="http://www.w3.org/2000/svg" xmlns:xlink="http://www.w3.org/1999/xlink">
    <title>Sport/Player/Futsal</title>
    <g id="Sport/Player/Futsal" stroke="none" stroke-width="1" fill="none" fill-rule="evenodd">
        <path d="M73.6793961,87.3502664 C73.6793961,87.3502664 73.4632327,87.9094139 73.4124334,88.1761989 C73.3616341,88.442984 73.2472469,88.9003552 73.2980462,89.10373 C73.3488455,89.3071048 73.2982238,89.421492 73.437833,89.3198934 C73.5774423,89.2182948 73.6664298,88.8241563 73.6538188,88.3031972 C73.6412078,87.782238 73.6793961,87.3502664 73.6793961,87.3502664 Z" id="Path" stroke="#000000" fill="#FFFFFF" fill-rule="nonzero"></path>
        <g id="AdobeStock_111860539" transform="translate(29.000000, 0.000000)" fill="#000000">
            <path d="M12.5254325,74.0014493 C8.63800995,74.0014493 5.4868638,77.1525954 5.4868638,81.040018 C5.4868638,84.9273237 8.63800995,88.0784698 12.5254325,88.0784698 C16.4125045,88.0784698 19.5633,84.9273237 19.5633,81.040018 C19.5633,77.1525954 16.4125045,74.0014493 12.5254325,74.0014493 Z M34.6721594,40.5817463 C34.3496002,41.0350822 34.357781,41.673539 34.3753114,41.9228211 C34.3811549,41.9915403 34.3858297,42.0298734 34.3858297,42.0298734 C34.3858297,42.0298734 34.3799862,41.9893198 34.3753114,41.9228211 C34.3145394,41.2852993 33.9849681,37.9451755 33.6881201,36.6864935 C33.3608862,35.2923599 33.2790777,34.5135431 33.1551962,33.7753968 C33.0324835,33.0373673 32.4586554,32.4634223 32.5404639,31.9716364 C32.6222724,31.4796168 32.5404639,29.6343679 32.5404639,29.6343679 C32.5404639,29.6343679 33.7290244,31.7665309 33.9347143,31.7665309 C34.1392355,31.7665309 34.3858297,31.3565535 34.3858297,31.3565535 C34.3858297,31.3565535 35.4925817,33.4065574 36.2720997,33.9806192 C37.0504491,34.5545642 37.2970432,35.1694134 37.1731618,35.374519 C37.0504491,35.5795077 36.0255055,38.0396059 35.9846013,38.1625523 C35.9436971,38.2853819 35.0835392,40.0078013 34.6721594,40.5817463 Z M25.6930933,66.4123094 C25.3237864,64.7312618 24.7499583,63.3372452 24.9147439,62.311951 C25.0783609,61.2870075 24.9147439,60.1802555 24.9147439,60.1802555 C24.9147439,60.1802555 25.652189,60.4262654 25.7749018,59.9342457 C25.8976145,59.4422261 26.2260172,60.3442231 26.2260172,60.4672865 C26.2260172,60.5898823 26.6362283,62.1482172 26.964631,64.5671774 C27.2930336,66.9863713 27.4157463,69.241247 27.4157463,69.241247 C27.4157463,69.241247 26.0624002,68.093357 25.6930933,66.4123094 Z M41.0275103,38.6544551 C42.4217608,36.7684188 42.0933581,34.9645416 41.6843157,33.8573221 C41.2741045,32.7504533 38.9776233,28.5272653 38.9776233,28.5272653 L39.2651217,28.1172879 C39.2651217,28.1172879 38.9367191,26.9693979 38.3219867,26.1493262 C37.7072544,25.3290208 36.2720997,23.4842394 35.7380071,22.1721481 C35.2050833,20.8601736 32.7040809,17.3750151 32.171157,17.0060588 C31.6382331,16.6369857 28.3997856,15.2839901 27.3339379,14.5459607 C26.2669214,13.8078143 22.9057612,13.4798792 22.9057612,13.4798792 L22.9057612,12.4548188 C22.9057612,11.8808738 23.3977808,11.9630329 23.6432063,11.1428443 C23.8898004,10.3228895 24.0125132,8.84683065 24.5045328,7.94471675 C24.9965524,7.04271971 24.8329355,5.23872564 24.5045328,3.96742171 C24.1761302,2.696819 22.822784,1.87663045 21.1831081,1.01565453 C19.5434322,0.154561745 18.72301,-0.214394544 17.3696638,0.19546599 C16.0174863,0.605560262 15.0334471,1.05667565 13.9874671,1.71266287 C12.9426558,2.36853322 12.8596786,5.15703402 12.8596786,5.44406495 C12.8596786,5.73051154 12.5324447,5.89482973 12.4085632,6.75568878 C12.2858505,7.61689844 12.1222335,8.35469415 12.367659,8.96989399 C12.6142532,9.58497697 12.2858505,9.7898488 12.204042,10.6920796 C12.1222335,11.5940766 13.250022,12.8854821 13.310794,13.5003313 C13.3727347,14.1155311 13.9874671,14.4842537 13.9874671,14.4842537 C13.9874671,14.4842537 13.3727347,14.3615409 12.8187744,14.4842537 C12.2659827,14.6072002 11.2200028,15.2839901 10.1127833,15.529883 C9.00579755,15.775776 8.5142454,16.2063224 7.59121189,17.1291222 C6.66899648,18.0515713 5.37724042,21.0651623 5.13146434,21.7416017 C4.88568827,22.4181579 5.13146434,22.7871142 5.13146434,22.7871142 L5.43871366,22.8690395 C5.43871366,22.8690395 5.15203334,23.2381127 4.53706723,24.5911082 C3.92163365,25.9443375 3.26611391,26.8462177 2.65091407,30.0033242 C2.03548048,33.1601969 2.11740584,37.5886074 2.11740584,38.9413692 C2.11740584,40.2944816 1.74868329,41.4837433 0.969398994,42.4266446 C0.191049649,43.3696627 -0.137586741,45.6247722 0.108656813,46.6907368 C0.354900367,47.7567014 1.13371719,48.3307633 1.54381146,49.0687927 C1.95355513,49.8070559 2.89669014,51.0368712 3.34803927,50.995967 C3.7879352,50.9558808 3.7594191,49.9420399 3.75778293,49.891903 C3.7594191,49.9331579 3.78501347,50.2335119 4.1678772,49.887462 C4.57797148,49.5169864 3.75778293,48.6589322 3.75778293,48.6589322 C3.75778293,48.6589322 3.88072941,48.3720181 3.96265476,47.9209027 C4.04458012,47.4695536 3.96265476,47.3468409 3.96265476,47.3468409 C3.96265476,47.3468409 4.20889832,46.9367466 4.62319989,46.1578129 C5.0369171,45.3789961 4.98771514,43.6977148 4.7418222,42.7957177 C4.49604612,41.8936038 4.70091795,40.9917237 4.7418222,40.8277561 C4.78284331,40.6635547 5.02861939,39.4745268 5.39816002,37.4654271 C5.76688257,35.4564444 6.66899648,33.7347263 7.36635542,32.0942323 C8.0627794,30.454089 8.3499272,28.7736257 8.43220317,27.9532034 C8.5142454,27.1334824 9.66213538,25.0831279 9.66213538,25.0831279 L10.317772,25.0831279 C10.317772,25.0831279 11.1790985,26.1493262 11.3018112,26.2722727 C11.424524,26.3954529 12.040425,27.4200458 12.2449463,28.5682864 C12.4494675,29.7162933 12.6960617,32.9964631 12.8596786,35.005329 C13.0244643,37.0146624 13.147177,39.597707 13.147177,39.597707 C13.147177,39.597707 13.4346754,40.3765238 13.147177,41.0328616 C12.8596786,41.688732 13.3516983,43.1647909 13.3516983,44.6407329 C13.3516983,46.1167918 13.4346754,46.6907368 12.9426558,47.1009479 C12.4494675,47.5106916 12.4915404,48.6177942 12.9835601,50.2579376 C13.4755797,51.8980809 14.0903121,53.0048329 14.3766418,54.071265 C14.6641402,55.1369959 14.5414274,56.121152 14.5005232,56.9000857 C14.459619,57.6789025 15.1561598,58.416932 15.1970641,59.1551952 C15.2379683,59.892874 15.566371,60.4672865 15.566371,60.4672865 L16.0992948,60.1391176 L16.2629118,60.3848936 C16.2629118,60.3848936 17.3696638,61.9431116 17.6980665,63.1322565 C18.0264691,64.3212844 19.2559338,66.6580855 19.666145,68.2982288 C20.0763561,69.9384891 21.0194911,72.7674266 22.8648569,75.8424909 C24.709054,78.9177889 28.9315408,83.4280078 28.9315408,83.4280078 C28.9315408,83.4280078 28.6861153,83.7969641 28.4406899,83.7969641 C28.1952644,83.7969641 27.4566506,84.4530682 26.1442087,85.4778948 C24.8329355,86.5027215 25.4885721,88.5527253 26.2260172,90.1108265 C26.964631,91.6690445 28.1122872,93.5549639 28.3179771,96.0149452 C28.5224983,98.4753939 30.6132896,99.7052093 32.6631766,99.7466354 C34.7130636,99.7869009 34.0165228,96.7532084 33.6881201,95.8921156 C33.3608862,95.0309059 33.5654074,92.9401147 33.5654074,92.9401147 C33.5654074,92.9401147 34.4676382,93.2681667 34.7539679,93.2270287 C35.0414663,93.185657 36.5993337,91.8331289 37.0095448,91.6276727 C37.4197559,91.4228009 38.4856037,90.5620587 38.4446995,89.6189237 C38.4037952,88.6759056 37.1731618,86.8308904 36.2720997,85.9287765 C35.3698689,85.0270132 33.89381,83.0590515 33.89381,83.0590515 C33.89381,83.0590515 34.2222127,81.62378 34.5085424,80.9676759 C34.7960408,80.3116887 35.4925817,76.7858597 35.5743902,75.4326304 C35.6561986,74.0796348 35.4516774,69.4874905 35.3289647,68.4215259 C35.2050833,67.3554444 35.4516774,65.0184096 35.6561986,64.1979873 C35.8618886,63.3781494 36.313004,61.2461033 36.313004,61.2461033 L37.0095448,60.9180512 C37.0095448,60.9180512 37.1334262,59.6468642 36.9686406,59.0732698 C36.8050236,58.4993248 36.5584294,53.5787779 36.5584294,52.8000779 C36.5584294,52.0209105 36.7232151,49.2737814 36.3948124,48.8230166 C36.0664098,48.3715507 35.6971029,45.5017088 35.6971029,45.5017088 C37.1731618,44.1076922 39.6332599,40.5406083 41.0275103,38.6544551 Z" id="Shape"></path>
        </g>
    </g>
</svg>
