<svg xmlns="http://www.w3.org/2000/svg" viewBox="0 0 157 157">
    <g fill="none" fill-rule="evenodd" >
        <g fill="currentColor" fill-rule="nonzero">
            <g>
                <g>
                    <path d="M21.096 29.448c-.099 0-1.42.099-2.409.164-.99.067-1.518.331-2.805.495-1.287.166-3.893.826-3.893.826 1.023-2.407 1.253-5.214 1.649-6.798.396-1.583 1.65-4.157 1.65-4.157.759.065 2.013 1.848 3.267 4.191 1.254 2.342 2.64 5.28 2.54 5.28zm44.547 12.704l-1.78-5.477c5.278-8.712-2.245-12.804-2.245-12.804-2.376-1.387-4.422-1.584-7.853-.593-3.433.99-4.753 3.893-5.412 5.345-.66 1.452-1.98 2.97-1.98 2.97-3.367-2.838-5.281-.462-6.007-.462s-2.31-1.254-2.97-1.452c-.659-.198-1.78-.66-2.639-1.255-.858-.593-3.696-.99-3.696-.99-2.442-2.77-6.336-4.75-7.524-5.939-1.187-1.188-4.883-5.345-4.883-5.345.264-.727.462-2.112.396-3.366-.067-1.254 0-1.783.066-2.64.018-.231-.138-.51-.381-.797l2.102-.8-.07-.186 18.927-7.203c-.008.485.027 1.591.475 2.585.594 1.318 1.847 3.167 2.44 3.167.594 0 2.113-.924 2.048-1.781C44.59 4.27 41.818.442 40.564.245c-.344-.055-.56-.03-.7.037L20.496 7.65l-.07-.187-2.644 1.006c-.562-.434-1.127-.774-1.307-.834-.395-.132-.791.595-2.111.132-1.32-.462-2.706 1.32-3.234 1.386-.527.067-.66 1.452-1.056 2.904s.66 2.706.66 2.706c-.131 3.167-1.452 6.6-3.3 9.107-1.847 2.508-4.554 8.514-5.213 10.824-.66 2.31-.859 3.63 3.828 5.544 4.685 1.913 15.707-.594 15.707-.594-.99 4.422-2.838 7.523-3.234 7.92-.396.395-1.056 2.639-2.64 5.212s-4.686 8.118-5.214 8.844c-.528.726-.264 2.244-.858 2.772-.594.528-3.564 3.564-4.488 9.898C4.4 80.63 7.83 87.361 8.49 89.935c.66 2.573 1.65 5.344 1.584 10.359-.066 5.017 2.111 7.063 1.98 8.052-.132.99-.132 1.387-1.056 1.783-.924.395-1.518 1.32-1.518 1.32-1.386 2.77-2.178 9.37-3.563 16.301-1.386 6.929-2.179 15.642-2.179 15.642-1.386 2.11-2.508 5.872-2.705 6.203-.198.33-.528 1.583-.594 2.506-.067.926.066 1.982.263 2.708.198.726 6.27 1.055 6.27 1.055s1.386 0 5.544.53c4.158.526 10.494 1.12 10.757-1.19.264-2.311-3.76-2.177-3.76-2.177s-2.906-.99-3.698-2.377c-.791-1.386-2.573-2.904-2.771-3.63-.198-.725 1.254-1.32 1.782-1.78.529-.464 1.584-5.479 2.375-8.515.792-3.037 3.235-17.424 5.214-22.173 1.98-4.754 2.046-7.856 2.046-10.298 0-2.441-.594-9.041-.594-9.041s3.169 3.563 4.092 5.081c.924 1.519 2.443 2.576 3.96 5.61 1.518 3.036 2.838 5.282 2.838 5.282s-.396.13-1.056.923c-.66.792-.594 2.837-.858 4.355-.264 1.518-.527 1.32-2.441 5.279-1.915 3.96-2.905 10.428-3.366 12.539-.462 2.113-.528 3.17-1.255 4.424-.725 1.252-.593 3.1-1.914 4.223-1.32 1.121-1.649 3.102-1.649 4.223 0 1.122.066.989.066 2.178 0 1.188 6.797.725 6.797.725s3.895-.658 6.6.2c2.706.857 9.504 1.056 9.635-1.123.132-2.178-5.808-2.443-7.127-3.036-1.32-.594-2.64-3.63-2.64-3.63.66-1.452.726-4.157 1.253-5.412.53-1.252 1.52-3.893 2.51-6.334.989-2.443 4.355-10.624 5.41-12.209 1.056-1.585 2.905-5.544 2.97-8.448.066-2.905-1.716-4.025-2.772-7.722-1.056-3.696-2.837-10.361-4.025-12.737-1.19-2.375-1.847-5.017-2.574-6.6-.726-1.585-.529-1.847-.924-3.3-.396-1.452-.265-3.3-.462-3.564-.198-.263-.462-2.179-.792-2.838-.33-.659-.396-.659 1.254-4.553s7.722-6.798 9.371-8.184c1.65-1.386 1.453-2.442 5.478-4.884 4.025-2.441 4.752-4.29 5.016-5.742.264-1.453-1.32-5.476-1.782-5.872-.462-.398-.792-1.452-.792-1.452s.395.395.858.33c.462-.066 1.584-2.64 1.584-2.64 1.782 2.574 6.863 2.574 7.92 2.772 1.055.198.593-.925.593-.925z" transform="translate(-810 -770) translate(810 770) translate(45.53)"/>
                </g>
            </g>
        </g>
    </g>
</svg>
