<svg width="24" height="24" viewBox="0 0 24 24" fill="none" xmlns="http://www.w3.org/2000/svg">
<path fill-rule="evenodd" clip-rule="evenodd" d="M14.2027 5.47012L23.3468 12.6463L22.7507 14.3714H19.7431V23.9543H8.27245V14.3714H6.73474V23.9543H4.80371V14.3714H1.79609L1.20001 12.6463L11.6773 4.42378L11.9398 4.21782H12.2734C12.9072 4.21782 13.4228 3.70759 13.4228 3.08044C13.4228 2.44668 12.9072 1.93103 12.2733 1.93103C11.6396 1.93103 11.1239 2.44668 11.1239 3.08044H9.19289C9.19289 1.38185 10.5747 0 12.2733 0C13.9719 0 15.3538 1.38185 15.3538 3.08044C15.3538 4.04541 14.904 4.9072 14.2027 5.47012ZM8.27245 12.4403H19.7431H19.9566L12.2734 6.41065L4.5903 12.4403H4.80371H6.73474H8.27245Z" fill="#231F20"/>
</svg>
