<svg viewBox="0 0 100 100" version="1.1" xmlns="http://www.w3.org/2000/svg" xmlns:xlink="http://www.w3.org/1999/xlink">
    <title>Sport/Player/Boxing</title>
    <g id="Sport/Player/Boxing" stroke="none" stroke-width="1" fill="none" fill-rule="evenodd">
        <rect id="Rectangle" x="0" y="0" width="100" height="100"></rect>
        <path d="M47.2749294,0 C44.447139,0.0196621474 41.6696916,1.53263966 41.104289,4.50154581 C41.0063568,5.23663719 40.9332072,8.32424128 41.0556955,8.5202678 C41.1781837,8.71629433 41.5942744,8.98543801 41.8882332,9.32850873 C42.182354,9.67157945 42.144127,9.82937902 42.0356661,10.4802091 C41.9621602,10.9212121 41.8884923,11.2156893 41.7660041,11.8772747 C41.6783089,12.3506735 42.7459748,12.3672601 42.7459748,12.3672601 C42.7459748,12.3672601 42.6969924,13.1512042 42.7459748,13.3472307 C42.7949571,13.5432573 43.0894342,13.8622579 43.0894342,13.8622579 C43.0894342,13.8622579 42.9910808,14.3521137 43.3095956,14.4746343 C43.6282399,14.5971226 43.8242664,14.9406792 43.9713106,15.5534119 C44.1183548,16.1660475 44.8782613,16.1170652 45.5644028,16.2149974 C46.2505442,16.3130917 47.6715179,15.4796469 48.4557212,15.3817146 C49.2400217,15.2836204 49.3870982,15.6756734 49.3870982,15.6756734 C44.9466163,17.1763729 43.888572,20.2172624 45.1878025,22.8991424 C44.3438615,23.2695551 43.5643556,23.889998 42.8941528,24.7140805 C42.731915,24.5715717 42.5656602,24.4197329 42.3953234,24.2540936 C42.3953234,24.2540936 42.8317586,23.8677422 42.5022617,23.491887 C42.1727324,23.1161938 41.7339971,21.9158998 40.9108218,19.9276122 C40.666558,19.3379129 40.456245,18.684815 40.4263761,18.2139108 C40.3555267,17.0967766 40.3478165,16.1384463 39.6488787,15.6902191 C39.3074602,15.4711592 38.9573272,15.4352323 38.6446113,15.4820442 C38.0477201,15.5716507 37.5877008,15.9631855 37.5877008,15.9631855 C37.5877008,15.9631855 36.2182363,15.6563008 35.3523958,15.9810355 C34.4865877,16.3056083 32.4289408,19.2351536 31.8877055,20.4256965 C31.3465997,21.6162393 32.1659848,21.9968891 33.3698099,23.1655325 C34.573635,24.3341758 34.9813676,23.7211839 35.9152715,24.4363195 C36.8492078,25.1512932 37.8609263,25.9256158 38.625271,26.9429387 C39.3894862,27.9600997 39.6505309,27.296862 39.6505309,27.296862 C39.6505309,27.296862 39.8984554,27.3815444 40.8646255,28.4338871 C40.0371415,29.6485972 38.3664616,31.2950775 37.6348042,31.6613112 C34.5010038,28.8149256 30.4585033,28.3478441 26.9133096,27.0425232 C27.1587072,26.3342554 27.2784094,25.9992837 26.5059658,25.9443405 C26.1183509,25.9127223 25.6169947,25.836398 25.2215401,25.4737278 C24.1075483,24.4523878 23.0211577,23.3304267 21.436942,22.4763782 C21.087295,22.2878027 20.7577657,22.1596128 20.4472202,22.0859774 C20.4257095,22.0809236 20.4044255,22.0759671 20.3831739,22.0714317 C17.6806578,21.4893129 16.4413917,25.0032447 16,27.5834994 C16.2077862,29.6432843 17.2466199,31.3147093 19.2874209,31.4475642 C21.328222,31.5803219 21.7151889,30.1655358 22.6217832,30.529113 C23.5283452,30.8926578 23.7150093,31.6033552 24.0171967,31.7244504 C24.319384,31.8456752 24.6959843,31.8918715 24.8966758,31.4976804 C25.0975293,31.1036188 25.2846794,30.8578648 25.2846794,30.8578648 C27.2043852,32.3445694 29.4345069,33.6448042 31.6957284,34.7009048 C37.9090016,37.5922232 36.8989353,39.2363062 44.4305524,34.7851337 L45.9240601,34.1945596 C47.1121733,35.7336805 48.1431672,36.9549993 48.1431672,36.9549993 L48.0045783,37.3709604 C48.0045783,37.3709604 48.0043191,37.8562483 47.9349923,39.5197688 C47.8656331,41.1832892 47.0343588,41.9520398 47.0343588,41.9520398 C47.0343588,41.9520398 46.5492976,42.0903695 44.7471558,44.7241419 C44.0104123,45.8009758 43.4008543,48.534527 42.9379518,51.3902101 C42.5088381,52.1246211 40.7247731,54.7292374 39.460206,56.4504222 C38.7415717,57.4287731 36.3430246,63.9176366 36.3430246,64.8840011 C36.3430246,65.2591436 35.7402698,66.407572 35.0033967,67.4367842 C34.3013165,68.4284173 33.4404325,69.5956352 33.5779848,70.8895205 L33.362618,73.4079641 C33.1360747,76.4991641 33.1667211,78.1736991 33.484102,80.2136578 C33.8627108,82.6475486 33.8508216,83.0103807 33.371462,83.8215697 C33.0783779,84.3178721 32.8385848,85.3205198 32.8385848,86.0507194 C32.8385848,87.3002225 32.3511263,87.2150218 29.6857033,89.819638 C28.1290564,91.3406173 27.5170687,91.9214726 26.8834732,92.4663687 C25.5167623,93.6416856 25.4159145,94.9757415 26.4962147,95.4678325 C28.0306058,96.1669323 28.6948477,96.3078537 32.0172884,94.7026455 C33.7831145,93.8493421 35.8208704,92.9024151 36.5454979,92.5991911 C38.0899641,91.9528964 38.556171,91.1047764 38.2146228,89.5630639 C37.4658605,86.1835419 37.9277587,81.8619523 39.2836817,79.5625038 C40.1871013,78.030186 40.2284706,77.8128107 40.0295285,75.6173525 C39.9137462,74.3393412 39.7481068,73.1092755 39.6619342,72.8847731 C39.498433,72.4587694 40.5433247,71.0152159 42.7354785,68.6370458 L44.0272581,67.2349588 L45.9514993,67.452982 C47.802105,67.6622584 47.9055122,67.63537 48.6413487,66.7499948 C49.0618452,66.2436497 49.911909,64.8972834 50.5306673,63.7582497 C51.3454198,62.2580037 52.4598327,60.672233 53.0202787,60.141915 L53.4164784,60.1503379 C53.5609634,60.5837927 53.9118091,61.7762793 54.291163,63.134632 C54.7579854,64.8062514 55.5698222,67.5006038 56.0952809,69.1220098 C56.6210635,70.7437397 57.0509547,72.2650429 57.0509547,72.5025036 C57.0509547,73.0535549 58.6558389,73.5417584 60.2218482,73.5417584 C60.7149112,73.5417584 61.7062203,73.6178884 61.7062203,73.6178884 C61.7062203,73.6178884 62.716643,75.1333604 63.110575,75.6610867 C64.5858763,77.6359301 65.6445685,78.3985254 67.368345,79.2602517 C69.9648623,80.5583483 76.1654039,85.3354218 76.1654039,86.0374372 C76.1654039,86.3707892 76.5369829,87.3828316 76.990523,88.2866723 C77.2010952,88.9349108 77.8976033,89.5834732 77.8230932,90.3638862 C77.6818478,91.8466385 77.3643697,93.2707545 77.0507791,94.5899084 C76.5298558,96.5893725 76.6749887,98.426534 77.0530468,99.0209956 C77.6381136,99.9410341 79.8899404,100.312289 81.1608246,99.6980662 C81.5427702,99.5134106 82.1378797,98.6983342 82.48419,97.8871452 C83.0417204,96.5819215 83.0938775,95.9288237 82.9393499,92.2007237 C82.771864,88.160005 82.7232704,87.9209246 81.7381164,86.3072936 C81.173459,85.3823956 80.5637714,84.6560835 80.3823554,84.6939865 C80.006241,84.7727081 78.703285,82.6501403 76.7307093,78.7454836 C75.3794837,76.0708926 75.4429793,75.5788016 72.9760449,74.2680706 C71.6089453,73.5420824 70.2654946,73.2780572 70.103516,73.1157546 C69.9412134,72.9534521 69.444263,70.8891965 68.9994697,68.5285201 C68.5546764,66.1678437 68.0431479,63.5191692 67.8623798,62.6428649 C67.6819356,61.7668845 67.4185584,60.4056162 67.277637,59.6171042 C67.1367156,58.8289163 66.7719397,57.5379467 66.4661241,56.7494347 C66.1606324,55.9609228 65.6584987,53.4194782 65.3500914,51.1012402 C65.3449081,51.0620414 65.3397248,51.0244623 65.3345414,50.9862354 C65.5065627,46.6607583 64.7553059,45.2502484 64.6390052,44.3775076 C64.5003515,43.3379288 63.5294517,43.1293004 63.5294517,42.2977021 C63.5294517,41.4661039 63.4604488,38.0703841 64.0843904,35.0206506 C64.7080081,31.9711115 65.6092572,27.8816372 65.6092572,24.7626741 C65.6092572,21.6436785 66.9258194,19.7720803 65.1929721,17.1382756 C63.4601248,14.5046004 63.7377562,14.5051187 59.163156,12.9803815 C54.5888797,11.4554824 55.1434945,9.9303565 54.2425694,8.12821475 C53.3413203,6.32620259 54.3115723,5.49440997 53.0640129,2.86076717 C51.8478775,0.931439808 49.5451894,-0.0155196092 47.2749294,0 Z" id="Path" fill="#000000"></path>
    </g>
</svg>
