<svg viewBox="0 0 100 100" version="1.1" xmlns="http://www.w3.org/2000/svg" xmlns:xlink="http://www.w3.org/1999/xlink">
    <title>Sport/Player/Cricket</title>
    <g id="Sport/Player/Cricket" stroke="none" stroke-width="1" fill="none" fill-rule="evenodd">
        <g id="AdobeStock_86643268" fill="#000000">
            <path d="M39.5049505,22.4146881 C39.6452946,22.8943574 40.066327,23.0959018 40.2944663,23.4467622 C40.7308789,24.1145182 41.0086834,24.8534077 41.3166074,25.5798007 C42.2954917,27.8945176 43.5053991,30.1134288 44.2071197,32.5431766 C44.3564356,33.0612964 44.751514,33.8283828 44.751514,33.8283828 C44.751514,33.8283828 45.628825,33.8665129 45.9594989,33.9181005 C46.7336345,34.0372969 47.53052,34.0667756 48.31555,34.0485116 C50.4918453,33.9975648 52.5925214,34.499984 54.679099,34.9777308 C55.9973085,35.2798872 57.2975744,35.2523311 58.6125797,35.288859 C58.7676632,35.2930244 59.5161652,35.2911019 59.5161652,35.2911019 L59.2098433,34.8534077 C59.2098433,34.8534077 58.9890737,34.739338 58.8884617,34.6499407 C58.6154635,34.4083437 58.410074,34.0940113 58.1383575,33.8684354 C57.5683296,33.3958153 56.9896504,32.9177481 56.210388,32.793425 C55.4743824,32.6761511 54.8588548,32.0542151 54.7326092,31.3265404 C54.713384,31.2150341 54.9187734,30.9785639 54.9187734,30.9785639 C54.9187734,30.9785639 54.3340062,30.3838636 53.9783396,30.2060303 C52.8366817,29.6337595 51.7277068,28.9954821 50.4729405,28.6705758 C49.9416835,28.5321542 49.3585184,28.4209683 48.9333205,28.0713897 C48.2895959,27.5404531 47.6292095,27.0399564 46.929091,26.5904066 C46.1879586,26.1142619 45.572431,25.4984139 44.9290269,24.906277 C44.1414336,24.1814861 43.1023102,23.7992246 42.2570412,23.1721619 C41.4005575,22.5367682 40.4764651,22.5742574 39.5049505,22.4146881 Z M32.8543048,0.381300266 C33.33077,0.40949726 33.5608318,0.586369317 33.9937198,0.641161203 C35.2561761,0.800730558 36.1693742,1.44894101 36.9938159,2.40379378 C38.2200647,3.82485821 38.6664103,5.49392803 38.8564196,7.27738793 C38.9230671,7.90252812 39.110513,8.43602807 39.6065238,8.84488449 C39.8231279,9.02271781 39.9730847,9.25630427 40.0887564,9.51520395 C40.2383928,9.85356788 40.4828735,10.1156718 40.7731744,10.3470153 C41.6203659,11.0215002 41.6508059,11.6001794 40.8984588,12.3759172 C40.7959243,12.4813355 40.6575026,12.4906277 40.4037297,12.702746 C41.0593098,13.0545676 41.8847127,13.4691916 42.5611202,13.8078759 C43.1785703,14.1161203 43.8030696,14.4169951 44.4464738,14.6640392 C44.9354353,14.8511647 44.9578647,15.1475536 44.8236086,15.5695472 C44.6297542,16.1793073 44.4499984,16.7945144 44.2843411,17.4132462 C44.2048768,17.7105963 43.9773783,18.0829248 43.9773783,18.0829248 C43.9773783,18.0829248 44.5268993,18.3962959 44.7079368,18.5081227 C45.7262328,19.1355058 46.7378,19.7491108 47.8544651,20.1903297 C48.7875292,20.5584927 49.4229229,21.3563395 50.2198084,21.9254061 C52.2249992,23.3557628 53.9318786,25.1270467 55.741613,26.7816976 C56.3689961,27.3555705 57.0918645,27.8313948 57.8906726,28.154699 C58.14028,28.2559518 58.5311929,28.4385914 58.5311929,28.4385914 C58.5311929,28.4385914 58.5725272,27.9832741 58.5907911,27.7125188 C58.617386,27.3139159 58.7769554,26.9617738 58.941331,26.625012 C59.1973469,26.0976001 59.7433433,25.8809959 60.3489378,25.964946 C60.8497549,26.0347977 61.2803999,26.2683841 61.6934218,26.5378577 C63.7940979,27.9121407 65.6778493,29.5360313 67.2914864,31.4620782 C67.6282483,31.8642058 67.9275209,32.0298632 68.4866545,31.825435 C69.4854049,31.4607966 70.3098465,31.958089 71.0637957,32.5681694 C71.1579993,32.6437887 71.2717485,32.7815694 71.2646993,32.8825018 C71.2531642,33.0433529 71.169214,33.3477523 71.169214,33.3477523 C71.169214,33.3477523 71.7434074,33.4935435 72.0833734,33.5374411 C72.7328655,33.6217117 73.3692204,34.5627864 73.3692204,34.5627864 C73.3692204,34.5627864 73.9139351,34.7925278 74.0978564,34.8527668 C78.2546701,36.2116697 82.3429139,37.7705149 86.4968439,39.1355058 C89.4149124,40.0938832 92.3073472,41.1294819 95.2356692,42.0577398 C96.027428,42.3083085 96.8470633,42.4627511 97.6215194,42.7770835 C98.3270851,43.0638598 98.6702554,43.6159441 98.8269409,44.3195873 C99.0851998,45.4753437 99.0938511,46.6503252 99.0525169,47.8227434 C99.0124644,48.9621584 98.4216092,49.9311096 96.7352366,49.6696466 C93.994681,49.1082701 91.3528149,48.6218719 88.6891602,47.7484059 C86.9463937,47.1764555 85.019065,46.5125445 83.3349354,45.7829472 C80.5367042,44.5704765 78.6404563,43.5774937 75.0379698,41.9250857 C74.0087795,41.4521452 72.9920856,40.9622224 71.9600115,40.4985741 C71.8529911,40.4498702 71.5550002,40.3444519 71.5550002,40.3444519 C71.5550002,40.3444519 71.3275017,40.5508027 71.1704957,40.712615 C70.5498414,41.3508924 70.5360633,41.358262 69.7548784,40.9974687 C69.5392355,40.8981384 69.1713929,40.720305 69.1713929,40.720305 C69.1713929,40.720305 69.0743055,41.241629 69.0445064,41.3880611 C68.8801307,42.205774 68.297286,42.4249415 67.6071005,42.523631 C66.4843475,42.6838412 65.3542247,42.7399148 64.2224999,42.636419 C63.6111378,42.5803454 63.0795604,42.3288154 62.6130283,41.917716 C61.8603608,41.2547663 61.0884681,40.6145663 60.3309943,39.9573841 C60.2044282,39.8474799 60.0775417,39.716428 60.0064084,39.5683937 C59.8753565,39.2944343 59.6587523,39.2092025 59.3847928,39.2079208 C58.2117338,39.2024736 57.0450831,39.2088821 55.8777917,39.4097856 C54.5679131,39.6353616 53.2356051,39.5446826 51.9135506,39.4873274 C50.380339,39.4210004 48.8509725,39.2681598 47.3148771,39.2671986 C46.9688231,39.2665577 46.3971931,39.1880547 46.3971931,39.1880547 C46.3971931,39.1880547 46.6214874,39.6898331 46.7246628,40.0006408 C46.8749399,40.4569195 46.6548111,40.7331219 46.3789292,41.0163735 C46.2251274,41.1740203 46.0309526,41.3675542 46.3215739,41.5296869 C47.1037201,41.9670608 47.5849915,42.7354289 48.2867122,43.2615592 C48.5943157,43.491621 48.875004,43.7450735 49.2357974,43.9004774 C49.5318658,44.0276843 49.8381877,44.2170528 49.9365568,44.525938 C50.0961261,45.028998 50.4726201,45.1533212 50.9074305,45.2170848 C51.2970617,45.2744401 51.6594572,45.4029286 51.9725079,45.6320292 C52.9686949,46.3632286 54.0456279,46.9768336 55.0171425,47.7474446 C55.5650614,48.1822551 56.1799481,48.5164536 56.6464802,49.0727034 C57.2498318,49.792688 57.5917203,50.6456471 57.9509116,51.4758563 C58.2633215,52.1971226 58.7253677,52.7927841 59.1598577,53.4211285 C59.2598289,53.5653177 59.4780352,53.8565798 59.4780352,53.8565798 C59.4780352,53.8565798 59.7225159,53.6428594 59.8875324,53.4980294 C60.5322183,52.9318466 60.5341408,52.9866385 61.2127912,53.4730366 C61.960332,54.0090999 62.4941523,54.7105002 63.0225256,55.4368932 C63.2468198,55.7448172 63.5041174,56.0511391 63.8085168,56.2738313 C64.974847,57.1296741 65.5692268,58.3962959 66.2584511,59.595309 C66.5772694,60.1505976 66.8525105,60.7273543 67.3719119,61.1400558 C67.7532122,61.4434939 67.951232,61.8843923 68.1075972,62.3249704 C68.6628857,63.8927873 69.4206799,65.3763337 70.0166619,66.926848 C70.2028261,67.410042 70.2903009,67.9073344 70.2137204,68.4184049 C70.1871255,68.5962383 70.1755904,68.7516422 70.263706,68.9105707 C70.9202474,70.0922811 71.0259861,71.4348425 71.36435,72.708834 C71.7353968,74.1100324 72.1218238,75.5134737 72.4066776,76.9287705 C72.8062418,78.9147361 73.465667,80.8366176 73.7534045,82.8504598 C73.9152168,83.9853888 74.3218302,85.0834695 74.5349098,86.2142331 C74.7162677,87.1764555 75.0322022,88.0380659 75.6400397,88.8243776 C76.2087859,89.5600628 76.1533532,89.6651607 75.4846358,90.2685123 C75.4086962,90.3374027 74.9126854,90.5059438 74.9126854,90.5059438 C74.9126854,90.5059438 74.9258227,90.9106348 75.2401551,91.2531642 C75.2712359,91.2874491 75.2629049,91.3829344 75.2407959,91.436765 C74.9303086,92.1871896 75.4868788,92.5293986 75.8938127,93.0036208 C76.3539364,93.5403249 77.0172066,93.7969816 77.4686789,94.3452209 C77.7612227,94.7005671 78.3174725,94.7268416 78.7753533,94.7992566 C79.3418565,94.8896152 79.9205357,94.9178122 80.4950495,94.9325515 C81.817104,94.9674773 82.9597232,96.0162133 83.0635394,97.3299369 C83.1007081,97.8038386 82.7267775,97.9515524 82.3858502,98.0492807 C81.5857605,98.2790221 80.7715723,98.4571758 79.9666763,98.6673716 C78.6571181,99.0082989 77.3296165,99.172995 75.9751995,99.1601782 C75.493928,99.1553718 75.0094524,99.0999391 74.6021981,98.899356 C73.8367138,98.5231824 73.0430325,98.4991509 72.231728,98.5039572 C70.5453555,98.5145311 68.8593034,98.5552245 67.1735717,98.52895 C66.4372457,98.5174148 65.6935499,98.4808869 64.9767695,98.2011599 C64.6252684,98.0636996 64.516005,97.9079753 64.6621167,97.6019738 C64.8989074,97.1056426 64.920696,96.641033 64.6512224,96.1430997 C64.5188888,95.8976577 64.5554167,95.5910154 64.6512224,95.3260277 C64.9594668,94.4769137 64.8976257,93.6063315 64.8386683,92.7315838 C64.7890032,91.992374 64.6492999,91.2461149 64.9476113,90.5219648 C64.9995194,90.3944375 64.9639527,90.269794 64.9142875,90.1493159 C64.4330161,88.9836265 64.3900798,87.6920119 63.8668333,86.5384985 C63.5595501,85.8620911 63.2875132,85.1680605 62.9465859,84.5086353 C62.5928418,83.8248582 62.2926079,83.1240988 62.068634,82.3896953 C61.8328046,81.6142779 61.3566599,80.9407543 61.1381332,80.1566856 C61.0958377,80.0064084 60.9119164,79.597552 60.9119164,79.597552 C60.9119164,79.597552 60.728636,79.6443334 60.6206543,79.635682 C60.1573264,79.5985132 60.0378096,79.3040469 59.9106027,78.9403698 C59.770579,78.538883 59.5639078,78.1614278 59.3953667,77.7692332 C59.0768689,77.0316255 59.0518761,76.5657342 59.2399628,76.1696946 C59.2780929,76.08991 59.349867,76.0412061 59.349867,76.0412061 C59.349867,76.0412061 59.2168926,75.6778493 59.1720337,75.5519241 C58.6484668,74.0850396 58.180653,72.6030953 57.8041591,71.0900702 C57.6580474,70.5017783 57.7285398,69.9000288 57.5728155,69.3168637 C57.3853696,68.6177064 57.3350636,68.5542632 56.6304592,68.5484956 C56.4382069,68.5468935 56.244673,68.5343971 56.053382,68.5507386 C54.9482521,68.6449422 54.0959339,68.1168894 53.3173123,67.4286264 C52.9116601,67.0694351 52.501522,66.7544619 51.9465539,66.6541703 C51.2723894,66.5320901 50.7940017,66.1235541 50.4719792,65.5266109 C50.3406069,65.2824506 50.2207696,65.0318818 50.0852318,64.7899644 C49.7420616,64.1773206 49.4168349,63.5826204 48.6769842,63.30033 C48.20885,63.1215355 47.8676023,62.6880067 47.5833894,62.2496716 C47.4456086,62.0359512 47.3020603,61.7706431 47.0059919,61.8090935 C46.6798039,61.851389 46.6919799,62.1650806 46.6394309,62.4121247 C46.2353808,64.312538 45.7211061,66.1892403 45.1248037,68.0322984 C44.7319683,69.2457304 44.9639527,70.4389759 44.8790413,71.6383095 C44.8665449,71.8183857 44.7223557,72.159313 44.7223557,72.159313 C44.7223557,72.159313 45.3218623,72.1980839 45.5089878,72.231728 C47.3248102,72.5547118 48.5904707,73.7213624 49.7321286,75.0398923 C50.229421,75.6140857 50.0426159,76.4500625 49.3700535,77.1450543 C48.5834214,77.9589221 47.7256561,78.6978115 46.9085841,79.4789964 C45.8281265,80.5133135 44.5935467,81.3880611 43.5848633,82.4758884 C42.5668878,83.5730078 41.4505431,84.5144029 40.1836009,85.2609824 C38.9733731,85.9742382 37.7365504,86.7188952 36.413855,87.1498606 C31.7607101,88.667692 27.34756,90.7760582 22.793425,92.5332436 C20.5046621,93.4163222 18.2524272,94.3955269 15.9934634,95.3535839 C15.2093947,95.6865007 14.4647377,96.1129802 13.6825916,96.451985 C12.4566631,96.9822808 12.1503412,96.7977186 11.9994232,95.4689352 C11.9805184,95.30488 11.881829,95.081547 11.881829,95.081547 C11.881829,95.081547 11.6479221,95.16005 11.5479509,95.1940145 C10.4851165,95.5528854 9.35210997,95.6762472 8.37386651,96.3302253 C7.23669454,97.089942 6.0873466,97.8320356 5.03316351,98.6994136 C3.90143869,99.6311961 2.66878144,99.9958345 1.22656926,99.6754141 C0.839181005,99.5898619 0.623858502,99.3908808 0.516517671,99.0336121 C0.277484059,98.2380083 0.265628505,97.4164504 0.434810471,96.6240508 C0.719664199,95.2859752 1.13589029,93.9712903 1.74276651,92.7488865 C2.1589926,91.9119485 2.60597904,91.0090038 3.61145823,90.6671153 C4.47467077,90.3736102 4.6025185,89.5414784 4.89922779,88.8657118 C5.19785959,88.1873818 5.61985325,87.6852831 6.27319043,87.3552501 C6.53112884,87.2254798 6.76471531,87.2831555 7.01368195,87.3677465 C7.856708,87.6538819 8.69204396,87.8538242 9.54211926,87.3440354 C9.72283636,87.2354129 10.0041655,87.2539972 10.233266,87.2748246 C11.6546509,87.4049152 12.9866385,87.0646288 14.2913903,86.5506745 C14.827774,86.3395174 15.3744112,86.1552757 15.9156013,85.9566151 C16.7304303,85.657022 17.303342,85.107501 17.6343362,84.3029254 C17.7416771,84.0401807 17.9393765,83.8517735 18.1575827,83.6697747 C19.7157871,82.3704701 21.3194912,81.1362107 23.0552084,80.0794643 C23.1644718,80.0131372 23.2663655,79.9339934 23.3692204,79.8580538 C23.9241885,79.4479157 24.3775834,79.1217277 24.3775834,79.1217277 C24.3775834,79.1217277 24.0654939,78.4635842 23.8213336,77.9848762 C23.5172546,77.3888942 23.5573072,77.3379474 24.2125669,77.2882822 C24.6323176,77.2565606 25.0004806,77.1043609 25.2366305,76.7227402 C25.3035983,76.6147586 25.3731295,76.5054952 25.4574001,76.4100099 C26.1716172,75.5951809 26.4135346,75.588452 27.0546958,76.4507033 C27.2879618,76.763754 27.7435996,77.2825147 27.7435996,77.2825147 C27.7435996,77.2825147 28.4562146,76.8797462 28.8580217,76.6054664 C29.7580826,75.9915409 30.8100227,75.7691691 31.7020731,75.1933737 C31.9193181,75.0536704 32.137204,74.9623506 32.1926367,74.6563491 C32.2426223,74.3782242 32.5188247,74.286584 32.7536928,74.1782819 C33.0657823,74.0353744 33.2477811,73.8565798 33.0013778,73.4893781 C32.8072031,73.1993976 32.8863469,72.90397 33.1420424,72.6854433 C33.4720754,72.4028325 33.4756,72.0657503 33.3640937,71.694383 C33.2529078,71.3204524 33.2224679,70.9535711 33.3198757,70.5616969 C33.4227306,70.1467525 33.4377904,69.7279631 33.1683168,69.3348073 C33.0260502,69.126534 33.0029799,68.85674 32.9779871,68.5971995 C32.7232529,65.9652664 32.4653145,63.3333333 32.2012881,60.7020411 C32.1009965,59.7023295 32.2935692,58.7045404 32.2006472,57.7032266 C32.1785382,57.4609888 32.1907142,57.2411804 31.9920536,57.067833 C31.9282899,57.0127207 31.831523,56.935179 31.8350476,56.8730174 C31.895607,55.9133583 31.0791759,55.467974 30.5770771,54.8982665 C29.977891,54.2189753 29.5773655,53.5041174 29.3168637,52.6543625 C28.9980454,51.6152392 28.5981608,50.6011087 28.243135,49.5725592 C27.9749431,48.7942581 27.8708065,47.9932071 28.0284533,47.1793393 C28.1232978,46.687494 27.9409786,46.1815502 28.0723509,45.713416 C28.3889263,44.584575 28.3184338,43.4983498 27.8701657,42.4255824 C27.8621551,42.406998 27.8557467,42.3816848 27.8615143,42.3631004 C28.1367554,41.445096 27.6561248,40.6212951 27.5394918,39.7526355 C27.5212279,39.6183793 27.4798936,39.5033484 27.3860104,39.4107469 C26.9736294,39.0047743 26.7816976,38.4898587 26.6503252,37.9425807 C26.5394598,37.4789324 26.2981832,37.0876991 26.0133295,36.7041559 C24.8979461,35.1988209 23.7796789,33.6947675 22.6582076,32.1948797 C21.3919062,30.4998558 20.6283444,28.5472139 20.6735237,26.3609856 C20.6856996,25.7643628 20.6786504,25.1728668 20.5552885,24.5778461 C20.3066423,23.3772309 20.7206255,22.2483899 21.0621936,21.1320452 C21.5248806,19.6222244 21.9866064,18.1133647 22.372713,16.5820757 C22.4249415,16.3754045 22.5217085,16.1696946 22.5277965,15.9620622 C22.5720145,14.312538 23.5566663,13.1103207 24.4551251,11.8677305 C24.6268705,11.6296581 24.7829152,11.3512128 24.6444936,11.1019257 C24.3779038,10.6206543 24.5275401,10.0916402 24.3839918,9.60428082 C24.3609215,9.52513698 24.346823,9.42196161 24.3775834,9.35146913 C24.4910122,9.08808357 24.5749624,8.49915089 24.5749624,8.49915089 C24.5749624,8.49915089 24.3138197,8.37578904 23.9863501,8.30785991 C23.7969816,8.2684482 23.8495306,7.96757346 23.8693966,7.78301131 C24.0148675,6.45454837 24.352911,5.19529623 25.0901983,4.04979333 C25.471819,3.45605434 25.8431863,2.87769554 26.3555385,2.37623762 C27.3430741,1.41081098 28.4379506,0.692108046 29.8436348,0.537024576 C29.9714826,0.522926079 30.0752988,0.509148002 30.223333,0.480630587 C31.4713704,0.239674453 31.9529623,0.32746964 32.8543048,0.381300266 Z" id="Shape"></path>
            <path d="M95.0966067,25.4102983 C95.0966067,25.9248935 95.0514275,26.3702778 94.8534077,26.7458105 C94.2990804,27.7932648 93.0385466,28.4812073 91.5726233,27.8083245 C90.9529302,27.5241116 90.2399949,27.2209939 89.9205357,26.4362844 C89.5296229,25.4766253 90.0358871,23.7950591 90.9609408,23.3121856 C92.2845974,22.6223205 93.7828831,22.9619661 94.7511936,24.1696306 C94.7906053,24.2186549 94.9155692,24.3756609 94.94665,24.4339774 C95.1148707,24.7502323 95.0966067,25.0523887 95.0966067,25.4102983 Z" id="Path"></path>
        </g>
    </g>
</svg>
