<svg viewBox="0 0 100 100" version="1.1" xmlns="http://www.w3.org/2000/svg" xmlns:xlink="http://www.w3.org/1999/xlink">
    <title>Sports/Resources/Courts/Golf</title>
    <defs>
        <path d="M53.24375,37.566828 C51.69375,37.510578 50.06875,38.841828 50,40.573078 C49.9375,42.298078 51.28125,43.748078 53.00625,43.810578 C75.85,44.691828 93.75,55.648078 93.75,68.754328 C93.75,73.923078 89.54375,78.129328 84.375,78.129328 L59.375,78.129328 C54.20625,78.129328 50,82.335578 50,87.504328 L50,93.691828 C26.725,92.735578 6.25,81.279328 6.25,68.754328 C6.25,57.760578 19.23125,48.098078 37.5,44.910578 L37.5,65.629328 C37.5,70.885578 42.9875,75.004328 50,75.004328 C57.0125,75.004328 62.5,70.885578 62.5,65.629328 C62.5,60.373078 57.0125,56.254328 50,56.254328 C47.69375,56.254328 45.5875,56.735578 43.75,57.516828 L43.75,23.941828 L63.73125,15.379328 C64.88125,14.885578 65.625,13.754328 65.625,12.504328 C65.625,11.254328 64.88125,10.123078 63.73125,9.63557799 L41.85625,0.260577988 C40.89375,-0.164422012 39.78125,-0.0644220118 38.90625,0.523077988 C38.025,1.09807799 37.5,2.07932799 37.5,3.12932799 L37.5,21.810578 C37.5,21.854328 37.5,21.904328 37.5,21.948078 L37.5,38.504328 C15.29375,42.023078 0,54.204328 0,68.754328 C0,87.448078 27.46875,100.004328 53.125,100.004328 C54.85,100.004328 56.25,98.604328 56.25,96.879328 L56.25,87.504328 C56.25,85.779328 57.65,84.379328 59.375,84.379328 L84.375,84.379328 C92.9875,84.379328 100,77.366828 100,68.754328 C100,51.998078 79.9,38.591828 53.24375,37.566828 Z M43.75,7.86682799 L54.5625,12.504328 L43.75,17.141828 L43.75,7.86682799 L43.75,7.86682799 Z M50,62.504328 C53.8125,62.504328 56.25,64.354328 56.25,65.629328 C56.25,66.904328 53.8125,68.754328 50,68.754328 C46.1875,68.754328 43.75,66.904328 43.75,65.629328 C43.75,64.354328 46.1875,62.504328 50,62.504328 Z" id="path-1"></path>
    </defs>
    <g id="Sports/Resources/Courts/Golf" stroke="none" stroke-width="1" fill="none" fill-rule="evenodd">
        <mask id="mask-2" fill="white">
            <use xlink:href="#path-1"></use>
        </mask>
        <use id="Shape" fill="#000000" fill-rule="nonzero" opacity="0" xlink:href="#path-1"></use>
        <g id="Group" mask="url(#mask-2)" fill="#000000">
            <g id="Colour/Black">
                <rect id="Rectangle" x="0" y="0" width="100" height="100"></rect>
            </g>
        </g>
    </g>
</svg>
