<svg xmlns="http://www.w3.org/2000/svg" xmlns:xlink="http://www.w3.org/1999/xlink" viewBox="0 0 40 40">
    <defs>
        <path id="qkn86ku4la" d="M7.726 20.884c-1.532-1.562-2.393-3.673-2.393-5.873 0-2.213.87-4.336 2.42-5.901 1.548-1.565 3.65-2.443 5.84-2.443 2.192 0 4.293.878 5.842 2.443l.565.57.565-.57c1.549-1.565 3.649-2.443 5.84-2.443 2.192 0 4.292.878 5.841 2.443 1.55 1.565 2.42 3.688 2.42 5.9 0 2.201-.86 4.312-2.394 5.874L21.066 32.87c-.276.296-.663.463-1.066.463s-.79-.167-1.066-.463L7.726 20.884zM20 29.694l10.143-10.848.03-.03c.998-1.01 1.56-2.378 1.56-3.805 0-1.428-.562-2.796-1.56-3.806-1-1.01-2.355-1.577-3.768-1.577-1.412 0-2.768.568-3.767 1.577l-1.6 1.619c-.574.578-1.503.578-2.075 0l-1.602-1.619c-.998-1.01-2.354-1.577-3.767-1.577-1.414 0-2.768.568-3.767 1.577-1 1.01-1.56 2.378-1.56 3.806 0 1.427.56 2.795 1.56 3.805l.028.03L20 29.694z"/>
    </defs>
    <g fill="none" fill-rule="evenodd">
        <g>
            <g>
                <g>
                    <g transform="translate(-852 -1113) translate(527 639) translate(20 453) translate(305 21)">
                        <mask id="svhh8buowb" fill="#fff">
                            <use xlink:href="#qkn86ku4la"/>
                        </mask>
                        <use fill="currentColor" xlink:href="#qkn86ku4la"/>
                        <g fill="currentColor" mask="url(#svhh8buowb)">
                            <path d="M0 0H40V40H0z"/>
                        </g>
                    </g>
                </g>
            </g>
        </g>
    </g>
</svg>
