<svg viewBox="0 0 100 100" version="1.1" xmlns="http://www.w3.org/2000/svg" xmlns:xlink="http://www.w3.org/1999/xlink">
    <title>Sport/Player/Field Hockey</title>
    <g id="Sport/Player/Field-Hockey" stroke="none" stroke-width="1" fill="none" fill-rule="evenodd">
        <g id="AdobeStock_116051736" transform="translate(26.000000, 0.000000)" fill="#000000">
            <path d="M47.1691689,48.7035031 C46.5518754,47.7132023 46.1370789,46.6225558 45.6706908,45.5618325 C42.923696,39.312284 40.172058,33.0655729 37.5176701,26.7760409 C36.0648506,23.3335913 34.8147862,19.809627 33.2549141,16.4092246 C31.5361399,12.6626425 29.9164216,8.8704019 28.2500129,5.09931383 C28.0410669,4.62673477 27.8156116,4.16137853 27.5906722,3.69524841 C26.9893721,2.4477635 26.3857504,1.1197957 25.0448847,0.553835836 C24.7621627,0.434401279 24.4680906,0.326316876 24.1637001,0.284269721 C23.4437394,0.184697931 22.7322912,0.374297064 22.0711448,0.739823557 C20.6064593,1.54981169 20.098024,3.64056132 21.0643347,4.97858949 C21.6798225,5.83062477 22.8424393,5.74627251 23.3281742,4.81736573 C23.4919775,4.50446267 23.4372904,4.183047 23.3800237,3.86446886 C23.329206,3.58587422 23.2869009,3.32456276 23.6108961,3.17984832 C23.9271527,3.03848733 24.182789,3.15998555 24.3698086,3.40530362 C24.5539906,3.64778414 24.7260486,3.90883764 24.8529639,4.18459475 C26.5327865,7.84734045 28.212351,11.5098282 29.8748904,15.1800547 C31.5621937,18.9044524 33.4478667,22.5310839 35.2362895,26.2056957 C37.0892019,30.0134138 38.8585358,33.8660166 40.5375845,37.7573131 C41.6171387,40.2584739 42.745705,42.7384822 43.8255172,45.2399009 C44.4402311,46.6630553 45.0015477,48.1101997 45.5865965,49.5462519 C45.6234845,49.557602 45.6598566,49.5686942 45.6964866,49.5800444 C46.1344993,49.2955167 46.6238456,49.1221689 47.1018418,48.9240572 C47.1245421,48.8507971 47.1467265,48.7772791 47.1691689,48.7035031 Z" id="Path"></path>
            <path d="M6.10792963,99.6745421 C7.41242326,99.680648 8.55930455,99.3478822 9.75726152,99.0700614 C10.134912,98.9826136 10.3505649,98.6433989 10.3294124,98.2200898 C10.3172883,97.978899 10.3417944,97.782335 10.5788578,97.6278182 C10.8313986,97.462983 10.8584842,97.1665893 10.8244338,96.891606 C10.6753341,95.6851365 10.5277821,94.4784089 10.3515968,93.2755507 C10.2404169,92.5163803 9.7260486,91.9073415 9.49904556,91.1969251 C9.213744,90.3041325 8.83996285,89.4363618 8.76283341,88.4749523 C8.65423309,87.1229944 8.69266883,85.7426611 8.34958469,84.4247537 C8.31218078,84.281587 8.24846515,84.2426353 8.24846515,84.2426353 C8.24846515,84.2426353 8.18139607,83.8673064 8.16179126,83.8017851 C7.74157767,82.395656 7.81251612,81.0031987 8.12309756,79.5929423 C8.20254863,79.232059 8.26394263,78.8693701 8.25104473,78.4981685 C8.21209307,77.3786308 8.41304236,76.259093 8.20873962,75.1380075 C8.00030955,73.9952536 7.77820771,72.8571429 7.37682505,71.7662385 C7.22720941,71.3596966 7.10364753,70.9655368 7.12944333,70.5275241 C7.14879018,70.1988856 7.15936646,69.8656039 7.12841149,69.539029 C7.01955322,68.3856988 7.37269772,67.3502554 7.8199969,66.308105 C8.24588557,65.3154826 8.94314606,64.5539906 9.66568643,63.7999794 C10.0809988,63.366352 10.5362947,62.9716762 10.9547026,62.5411443 C11.0323479,62.4611773 11.2216891,62.2473301 11.2216891,62.2473301 C11.2216891,62.2473301 11.4535934,62.2870557 11.6241036,62.3329722 C12.06418,62.4524067 12.2011557,62.4413146 12.2011557,62.4413146 C12.2011557,62.4413146 13.7618016,59.9625961 14.3231182,58.9906103 C14.6138369,58.4878502 14.9040396,57.9845741 15.1908889,57.4792344 C15.3307022,57.2331424 15.485219,57.1954806 15.6874581,57.413713 C15.8835062,57.6247227 16.0986431,57.8078729 16.2384564,58.077439 C16.7020069,58.9691998 17.2532632,59.8119486 17.6626425,60.736986 C18.0601558,61.633906 18.3070216,62.5478512 18.335655,63.531703 C18.3694475,64.6987051 18.3864727,64.6961255 19.5284528,64.8199453 C20.8971779,64.9677552 22.2615178,65.1447144 23.605479,65.4568436 C23.8087499,65.503792 24.0620647,65.5742145 24.0620647,65.5742145 C24.0620647,65.5742145 24.2519218,65.8690605 24.3143476,65.9804984 C25.3688799,67.8550792 26.4296033,69.7260486 27.5205077,71.5794769 C28.0800186,72.5300521 28.6268895,73.4865604 29.170665,74.4456482 C29.7381726,75.4467833 30.5889181,76.2309756 31.4817108,76.9527421 C31.6821441,77.1149977 31.8766445,77.2622917 31.9506784,77.5212815 C32.2065728,78.4166538 32.7562813,79.1443533 33.2794201,79.8916576 C33.6885415,80.4759325 34.0326575,81.1004488 34.3522675,81.7419904 C34.7309498,82.5024506 35.1754114,83.2296342 35.5778259,83.9787443 C35.700098,84.2065212 35.8706083,84.8447093 35.8706083,84.8447093 C35.8706083,84.8447093 35.6270959,84.932157 35.5061136,85.055461 C34.7864108,85.7906413 34.8913997,86.6589279 35.3018109,87.419904 C35.7890935,88.3237889 36.4894495,89.0937935 37.5486251,89.4144353 C37.9262756,89.5289687 38.3307538,90.1653511 38.2479492,90.6518599 C38.03436,91.9070835 38.8118454,92.7219729 39.4626735,93.6008358 C39.5655987,93.7398751 39.7139246,93.8446061 39.8232988,93.9795181 C40.6118764,94.9512459 41.6870453,95.1408451 42.8532735,95.1279472 C43.9800341,95.1155652 44.7072177,94.2003302 44.8537378,93.2910282 C45.1563226,91.412578 44.6971573,89.7740288 43.4171697,88.3439096 C42.9061549,87.7735645 42.3358097,87.2346902 42.0262601,86.5013156 C41.8818036,86.1579735 41.7928081,85.8081824 41.7337357,85.4418821 C41.6444823,84.8888201 41.363566,84.6024867 40.835526,84.6641387 C40.5971728,84.6914822 40.1718,84.8885621 40.1718,84.8885621 C40.1718,84.8885621 40.1493577,84.2622401 40.1158231,84.0553578 C39.8101429,82.1634938 39.4010215,80.2907187 39.2537275,78.3707372 C39.1505443,77.0278079 38.6875097,75.7532374 38.0810504,74.5573441 C37.5107053,73.433421 36.4579786,72.7521539 35.4699995,72.0363205 C34.9850384,71.6849817 34.6739411,71.2928855 34.4735077,70.687716 C33.8724656,68.8753031 33.8237115,66.9375226 33.1666925,65.1540009 C32.8788113,64.3723882 33.0787288,63.5407316 32.7511221,62.7908477 C32.4333179,62.0626322 32.118867,61.3326111 31.7716556,60.6190992 C31.3132642,59.6765207 30.9681164,58.6942166 30.6557292,57.6977248 C30.5507403,57.3626374 30.4883145,57.0174896 30.5442914,56.6664087 C30.6902956,55.7485941 30.4643244,54.8885621 30.1093742,54.0623227 C29.8349069,53.4228448 29.4546768,52.8279936 29.1933653,52.1838725 C28.8799463,51.4110303 28.4071093,50.6652737 28.6083166,49.7588093 C28.6712583,49.4758293 28.4700511,49.293711 28.2879327,49.1133983 C28.1576639,48.9841614 27.5824176,48.4468349 27.5824176,48.4468349 C27.5824176,48.4468349 28.3335913,48.5624 28.5306712,48.5391838 C28.722334,48.5167415 28.9181241,48.5221586 29.1118506,48.5226745 C31.3679513,48.5296394 33.5856163,48.1530207 35.8094722,47.8429552 C36.5598721,47.7382242 37.2896352,47.5460455 38.0021153,47.2816385 C38.7078884,47.0198112 39.4606098,47.1753599 40.1883093,47.0680493 C41.0160966,46.9460352 41.8459475,46.8818036 42.5442398,46.351184 C42.6708972,46.2549657 42.8241242,46.2134345 42.9827684,46.2196254 C43.6645514,46.247227 44.2968065,45.9959759 44.8766961,45.7204767 C45.2922664,45.5228809 45.7197028,45.2677604 46.0903885,44.9736883 C46.4210906,44.7121189 46.3707888,44.2663674 46.3834288,43.8876851 C46.3955528,43.5229325 46.3932312,43.3859568 46.4453387,43.0163029 C46.4659753,42.8697828 46.3896198,42.4266109 46.3003663,42.340453 C45.8824743,41.9382964 46.0573699,41.5823144 46.0573699,41.0860032 C46.0576278,40.9799825 46.0395708,40.7426611 45.8270134,40.6371563 C45.2161688,40.3340556 45.2963937,39.8269102 44.7675798,39.5441882 C44.7046381,39.5106537 44.3409173,39.4373936 44.3409173,39.4373936 C44.3409173,39.4373936 44.3948305,39.1719548 44.3925089,39.1162359 C44.3772894,38.7512253 44.2287056,38.6591343 44.1618944,38.4264562 C44.1180416,38.2734871 44.0857968,38.1174225 44.0801218,37.954651 C44.0744467,37.8003921 44.0824434,37.6365888 44.0803797,37.493938 C44.0718671,36.9037301 43.562658,36.5838621 43.562658,36.5838621 C43.562658,36.5838621 43.7545788,36.1386266 43.8412526,35.7707785 C43.9090956,35.4828974 43.5631739,35.276273 43.2856111,35.1774751 C42.9523294,35.0590724 42.6332353,35.1214982 42.3850797,35.4016406 C42.1418253,35.6763659 41.8864469,35.9425785 41.6640871,36.2338131 C41.4711345,36.486612 41.2794717,36.5869576 40.9771449,36.4143837 C40.583243,36.1897023 40.2164268,36.3168756 39.9027498,36.5830883 C39.0262085,37.3262653 38.4285198,38.1984213 38.4731466,39.4278491 C38.5123562,40.5084352 38.4775319,40.5195274 37.4598875,40.8461023 C35.8295929,41.3692411 34.1809833,41.7824898 32.4436362,41.701491 C32.0781097,41.6844658 31.9052778,41.633648 31.8681319,41.2020843 C31.7744931,40.1178868 31.3553114,39.1409998 30.6946809,38.2724552 C30.0361141,37.4062323 30.0784192,36.4608162 30.4699995,35.5313935 C31.0086158,34.2526957 31.2735387,32.9520714 31.0754269,31.5670949 C30.9970077,31.0191921 30.8409431,30.5164319 30.4937316,30.0711964 C30.30697,29.8315534 30.1570964,29.564051 30.104215,29.2436671 C30.0742919,29.0623227 29.9654336,28.8778827 29.8483207,28.7295568 C28.9624929,27.6066656 27.9443327,26.633906 26.6235877,26.0351855 C26.093484,25.7950266 25.5597689,25.57731 25.1127276,25.1852138 C24.8026621,24.9141 24.4066966,24.7887324 24.0244028,24.6468555 C23.789919,24.5596657 23.458443,24.5312903 23.458443,24.5312903 C23.458443,24.5312903 23.6640355,24.0744467 23.8291286,23.8809782 C24.4977558,23.0983336 24.6476294,22.2065728 24.4012795,21.2291699 C24.3832224,21.1569416 24.3600062,21.0540164 24.3081566,21.0279626 C23.8412526,20.7952845 24.0244028,20.4749007 24.170665,20.1493577 C24.4856317,19.447196 24.6631068,18.7243977 24.5034308,17.948202 C24.4309446,17.5960894 24.539287,17.2550689 24.5978435,16.9119847 C24.6788423,16.4376 24.6218336,16.0109374 24.3434969,15.5845328 C23.9952536,15.0513336 23.7305887,14.4729918 23.2734871,14.0032503 C22.4892947,13.1968735 21.5678688,12.6144044 20.5448073,12.1758758 C20.2355157,12.0430274 19.9089408,12.0069133 19.5751432,12.0448331 C18.2551721,12.1947067 16.9929835,12.5589434 15.7767116,13.0846618 C15.5473869,13.1837177 15.331476,13.3194036 15.1214982,13.4571532 C14.090956,14.1330031 13.5843265,15.0884796 13.7109839,16.3184234 C13.7772791,16.9622865 13.5678172,17.5455296 13.4202652,18.1344477 C13.1888769,19.0597431 13.1909405,19.9801372 13.3864727,20.8855698 C13.5618841,21.6976216 13.5193211,22.5047722 13.5301553,23.3157922 C13.5324769,23.482691 13.5783934,23.8912965 13.5783934,23.8912965 C13.5783934,23.8912965 13.059124,23.925347 12.84992,23.9996389 C11.9008925,24.33679 10.9258113,24.6143528 10.0067069,25.0198628 C8.35990301,25.7460145 7.16942682,26.9867926 6.27869783,28.5404736 C5.85925811,29.2725584 5.46329258,29.9357685 5.09467059,30.774132 C5.08099881,30.8053449 5.06706908,30.8453284 5.05778259,30.8822164 C4.83645463,31.7755249 4.63731105,32.6729608 4.3667131,33.5556931 C4.20910076,34.0695455 4.49956147,34.5790125 4.68658102,35.0572667 C4.87256875,35.5324253 4.88778827,35.9879792 4.78305732,36.474488 C4.50394676,37.7715008 4.46576897,39.0744467 4.7567456,40.374555 C4.88366094,40.9420626 5.0564928,41.4982201 5.18779343,42.0646959 C5.26182737,42.3837899 5.30206882,42.7054636 5.17747511,43.0371975 C5.08873755,43.2729712 5.11143786,43.5242223 5.22416551,43.7705722 C5.32760667,43.9975752 5.37584481,44.2493422 5.4625187,44.4851158 C5.58401692,44.8163339 5.47515864,45.0435949 5.17799102,45.2097199 C4.63060414,45.5164319 4.31176804,45.9381933 4.01408451,46.5407832 C3.69137904,47.193159 3.43342104,47.8592065 3.15946964,48.5270598 C3.03487592,48.8311923 2.73977197,49.0326575 2.47562297,49.2292215 C2.2076046,49.4291389 2.094619,49.6476294 2.3992674,49.8785018 C2.47717072,49.9375742 2.7359026,49.9891658 2.7359026,49.9891658 C2.7359026,49.9891658 2.55765361,50.2793685 2.49883919,50.423567 C1.86168292,51.9852448 1.41670536,53.611928 0.885053913,55.208946 C0.529329825,56.2781819 0.728215447,57.3499974 0.382551721,58.5110664 C0.384099469,58.6931847 0.408347521,59.0084094 0.408347521,59.0084094 L0.880926585,59.1608626 C0.880926585,59.1608626 0.637930145,60.8987257 0.661920239,61.4210906 C0.696228654,62.1671052 0.568539442,62.8850023 0.376360728,63.6005778 C0.144198524,64.4670588 0.304132487,65.3312181 0.425630707,66.1964092 C0.608007016,67.49368 1.04369809,68.7543208 0.945674044,70.0944126 C0.90491668,70.6552133 0.869060517,71.2178197 0.778001341,71.769334 C0.579631636,72.9709023 0.618067379,74.1637001 0.799153898,75.3588196 C0.822370118,75.5123046 0.866222979,75.6665635 0.863127483,75.8195326 C0.826755404,77.64149 1.5565186,79.2439251 2.23314244,80.878605 C2.63065573,81.8392406 2.88190683,82.8638498 3.22473301,83.8518289 C3.28690089,84.0308518 3.38182944,84.5052365 3.38182944,84.5052365 C3.38182944,84.5052365 3.25233452,84.6169324 3.20667595,84.7074756 C3.07589124,84.9649177 3.13212609,85.1926946 3.21518857,85.4341433 C3.62508384,86.6241036 4.03549502,87.8140639 4.44306867,89.005056 C4.55682815,89.3373059 4.60816179,89.6829696 4.61125729,90.0322448 C4.62183357,91.2668318 4.67548883,92.5055461 4.34401279,93.7153691 C4.29809627,93.8830418 4.23670226,94.0468452 4.17737192,94.2103905 C4.11804158,94.3739359 3.9606872,94.5666306 4.00376619,94.6932879 C4.32853531,95.6441211 3.50926069,96.0602074 3.08491978,96.6225558 C2.62678636,97.2292731 2.62343291,97.8736522 2.64974462,98.5523397 C2.66006294,98.8188103 2.85533715,98.9336016 3.07769695,99.0471031 C3.81726255,99.4242377 4.59655368,99.5712738 5.42408296,99.6367951 C5.68229892,99.6574318 5.79657432,99.6731672 6.10792963,99.6745421 Z" id="Path"></path>
        </g>
    </g>
</svg>
