<svg viewBox="0 0 100 100" version="1.1" xmlns="http://www.w3.org/2000/svg" xmlns:xlink="http://www.w3.org/1999/xlink">
    <title>Sports/Resources/Courts/Soccer</title>
    <defs>
        <path d="M50,0 C22.43125,0 0,22.43125 0,50 C0,77.56875 22.43125,100 50,100 C77.56875,100 100,77.56875 100,50 C100,22.43125 77.56875,0 50,0 Z M53.175,16.24375 L66.03125,9.33125 C73.15,12.15 79.3625,16.76875 84.0875,22.64375 L81.025,36.78125 L71.21875,41.5875 L53.175,28.44375 L53.175,16.24375 Z M34.075,9.29375 L46.93125,16.23125 L46.93125,28.44375 L28.9,41.5875 L19.04375,36.775 L15.98125,22.55 C20.71875,16.6875 26.94375,12.09375 34.075,9.29375 Z M13.9375,74.7125 C9.85625,68.775 7.2,61.79375 6.46875,54.25 L17.05,42.75625 L26.7,47.475 L33.96875,68.11875 L27.825,75.48125 L13.9375,74.7125 Z M61.14375,92.25625 C57.575,93.2 53.85625,93.75 50,93.75 C45.3375,93.75 40.85,93 36.63125,91.64375 L32.7,79.40625 L38.96875,71.875 L61.05625,71.875 L67.2125,79.1625 L61.14375,92.25625 Z M72.0875,75.26875 L66.04375,68.1125 L73.4125,47.475 L83.01875,42.76875 L93.5375,54.25625 C92.90625,60.7625 90.8125,66.83125 87.63125,72.2 L72.0875,75.26875 Z" id="path-1"></path>
    </defs>
    <g id="Sports/Resources/Courts/Soccer" stroke="none" stroke-width="1" fill="none" fill-rule="evenodd">
        <mask id="mask-2" fill="white">
            <use xlink:href="#path-1"></use>
        </mask>
        <use id="Shape" fill="#000000" fill-rule="nonzero" xlink:href="#path-1"></use>
        <g id="Group" mask="url(#mask-2)" fill="#000000">
            <g id="Colour/Black">
                <rect id="Rectangle" x="0" y="0" width="100" height="100"></rect>
            </g>
        </g>
    </g>
</svg>
