<svg xmlns="http://www.w3.org/2000/svg" xmlns:xlink="http://www.w3.org/1999/xlink" viewBox="0 0 44 44">
    <defs>
        <path id="mibsi939xa" d="M35.855 19.608c-1.08-7.856-8.34-13.35-16.216-12.273-7.876 1.078-13.384 8.32-12.304 16.176.879 6.416 5.927 11.467 12.357 12.363.64.084 1.285.126 1.93.126 2.61.004 5.17-.706 7.402-2.053.426-.256.683-.72.673-1.216-.009-.496-.283-.95-.718-1.19s-.966-.23-1.392.026c-4.365 2.613-9.927 2.084-13.718-1.305-3.79-3.389-4.924-8.847-2.796-13.46C13.2 12.19 18.094 9.5 23.14 10.169c3.455.458 6.52 2.441 8.35 5.4 1.828 2.96 2.226 6.583 1.084 9.868-.3.8-1.075 1.322-1.93 1.302-1.146-.002-2.074-.927-2.075-2.07v-8.58c0-.766-.624-1.388-1.393-1.388s-1.392.622-1.392 1.389v.013c-2.937-2.212-7.092-1.761-9.485 1.027-2.392 2.79-2.196 6.953.447 9.506 2.644 2.553 6.823 2.613 9.54.137.805 1.673 2.498 2.739 4.358 2.744 2.042.02 3.873-1.253 4.562-3.17.75-2.163.972-4.473.648-6.738zm-14.248 6.204c-2.307 0-4.178-1.866-4.178-4.167 0-2.302 1.87-4.167 4.178-4.167 2.307 0 4.178 1.865 4.178 4.167-.003 2.3-1.872 4.164-4.178 4.167z"/>
    </defs>
    <g fill="none" fill-rule="evenodd">
        <g>
            <g>
                <g>
                    <g>
                        <g>
                            <g>
                                <g transform="translate(-696 -1199) translate(101 120) translate(80 792) translate(0 90) translate(510 40) translate(0 152) translate(5.4 5.4)">
                                    <mask id="r26xneicrb" fill="#fff">
                                        <use xlink:href="#mibsi939xa"/>
                                    </mask>
                                    <use fill="#000" fill-rule="nonzero" xlink:href="#mibsi939xa"/>
                                    <g fill="currentColor" mask="url(#r26xneicrb)">
                                        <path d="M0 0H43.2V43.2H0z"/>
                                    </g>
                                </g>
                            </g>
                        </g>
                    </g>
                </g>
            </g>
        </g>
    </g>
</svg>
