<svg viewBox="0 0 100 100" version="1.1" xmlns="http://www.w3.org/2000/svg" xmlns:xlink="http://www.w3.org/1999/xlink">
    <title>Sports/Resources/Courts/Netball</title>
    <defs>
        <path d="M85.3552734,14.6447266 C75.9115234,5.20078125 63.3552734,0 50,0 C36.6447266,0 24.0884766,5.20078125 14.6447266,14.6447266 C5.20097656,24.0886719 0,36.6447266 0,50 C0,63.3552734 5.20078125,75.9115234 14.6447266,85.3552734 C24.0886719,94.7990234 36.6447266,100 50,100 C63.3552734,100 75.9115234,94.7992188 85.3552734,85.3552734 C94.7990234,75.9113281 100,63.3552734 100,50 C100,36.6447266 94.7992188,24.0884766 85.3552734,14.6447266 Z M40.9316406,6.45761719 C43.8828125,5.84921875 46.9171875,5.53476563 50.0001953,5.53476563 C61.8769531,5.53496094 73.0431641,10.1601562 81.4416016,18.5583984 C83.2046875,20.3214844 84.7990234,22.2078125 86.2216797,24.1958984 C82.2851562,21.7960937 78.1603516,19.9650391 73.8625,18.7226562 C66.8,16.6810547 59.175,16.2564453 51.7212891,17.4791016 C51.6992188,17.4826172 51.6773437,17.4867188 51.6554687,17.4902344 C51.4402344,17.5257813 51.2248047,17.5623047 51.0095703,17.6007813 C50.903125,17.6197266 50.7966797,17.6400391 50.6902344,17.6597656 C50.5720703,17.6816406 50.4535156,17.7025391 50.3355469,17.7251953 C50.3265625,17.7269531 50.3177734,17.7291016 50.3089844,17.7308594 C50.2810547,17.7363281 50.253125,17.7410156 50.225,17.7464844 C46.0580078,18.5570313 41.9648437,16.0996094 40.7078125,12.0308594 C40.1320312,10.1673828 40.2224609,8.21621094 40.9316406,6.45761719 Z M20.4246094,24.2216797 C21.7605469,19.6457031 23.6662109,15.7947266 25.2953125,13.0142578 C28.2828125,11.0097656 31.4873047,9.38828125 34.846875,8.17363281 C34.6654297,9.99296875 34.8466797,11.8558594 35.4070313,13.6691406 C36.5402344,17.3367187 39.0583984,20.2158203 42.23125,21.875 C39.6396484,24.3107422 37.8408203,27.5765625 37.2597656,31.2386719 C36.0835938,38.6517578 40.0802734,45.8947266 46.9785156,48.8525391 L48.48125,49.496875 C47.0597656,50.6820312 45.8322266,52.0943359 44.8673828,53.6849609 C40.0208984,61.675 29.7300781,62.6371094 29.565625,62.6513672 C29.2292969,62.6779297 28.9134766,62.7666016 28.6240234,62.9001953 C28.1773437,61.7236328 27.5730469,60.5927734 26.8082031,59.5396484 C18.9064453,48.6609375 16.7585938,36.778125 20.4246094,24.2216797 Z M5.53496094,50 C5.53496094,39.8144531 8.93945312,30.1535156 15.2052734,22.3107422 C15.1908203,22.3587891 15.1755859,22.4056641 15.1613281,22.4539063 C13.3011719,28.7244141 12.7337891,34.990625 13.4746094,41.078125 C14.4003906,48.6867188 17.3761719,55.9953125 22.3189453,62.8005859 C24.8431641,66.2759766 24.5529297,71.128125 21.6285156,74.3382812 C19.8691406,76.2695312 17.4798828,77.3263672 14.9296875,77.3455078 C8.83828125,69.5652344 5.53496094,60.0365234 5.53496094,50 Z M19.3193359,82.1841797 C21.7458984,81.4083984 23.9664062,80.0105469 25.7298828,78.0746094 C28.2625,75.2947266 29.5564453,71.7417969 29.5728516,68.1802734 C29.7123047,68.190625 29.8537109,68.1941406 29.9974609,68.1830078 C30.5357422,68.1416016 43.2501953,67.0494141 49.6109375,56.5626953 C50.9679687,54.3253906 52.9910156,52.7017578 55.3095703,51.8220703 C55.4947266,51.7771484 55.6748047,51.7138672 55.8466797,51.6324219 C58.1339844,50.8917969 60.6722656,50.8591797 63.1269531,51.6589844 C66.5628906,52.7785156 69.2482422,55.3677734 70.4943359,58.7632813 C71.6648438,61.953125 71.3929687,65.4185547 69.7640625,68.3580078 C64.3582031,77.2824219 54.0693359,88.0306641 35.0269531,91.8927734 C29.2287109,89.8246094 23.8886719,86.5453125 19.3193359,82.1841797 Z M81.4416016,81.4416016 C73.0431641,89.8398438 61.8769531,94.4650391 50,94.4650391 C48.8710938,94.4650391 47.7484375,94.4226562 46.6341797,94.3398437 C52.4664063,92.1302734 57.7183594,89.1271484 62.3486328,85.3421875 C64.0097656,83.984375 65.5242188,82.5748047 66.9076172,81.1443359 C67.0332031,81.0146484 67.1583984,80.8849609 67.2818359,80.7550781 C67.3265625,80.7080078 67.3710938,80.6607422 67.4154297,80.6134766 C70.2150391,77.6464844 72.4476563,74.6076172 74.2152344,71.7396484 C74.3158203,71.5765625 74.4123047,71.4119141 74.5070313,71.2464844 C75.9509766,68.8546875 77.0693359,66.6056641 77.9210938,64.6576172 C79.7052734,60.5767578 84.2513672,58.5414062 88.4943359,59.9242187 C90.1371094,60.4595703 91.5599609,61.4652344 92.6048828,62.7941406 C90.5214844,69.7648437 86.7306641,76.1523437 81.4416016,81.4416016 Z M90.2132813,54.6492188 C85.0896484,52.9796875 79.6994141,54.3478516 76.0357422,57.8523437 C75.9349609,57.5169922 75.8246094,57.1832031 75.7029297,56.8517578 C73.8669922,51.8488281 69.9097656,48.0333984 64.8458984,46.3835937 C61.5992188,45.3257812 58.0818359,45.2601562 54.8085938,46.1732422 L49.1648437,43.7533203 C44.6039062,41.7976562 41.9617187,37.0089844 42.7392578,32.1078125 C43.4490234,27.6335937 46.9041016,24.0521484 51.3425781,23.1820312 C51.7101562,23.1111328 52.0822266,23.0431641 52.4601562,22.9794922 C52.4625,22.9791016 52.4648437,22.9787109 52.4671875,22.9783203 C53.665625,22.7765625 54.9146484,22.6128906 56.20625,22.4982422 L56.20625,22.4958984 C66.4767578,21.5828125 79.5263672,23.8355469 92.1019531,35.6361328 C93.6546875,40.2003906 94.4650391,45.0376953 94.4650391,50.0001953 C94.4650391,52.2097656 94.3044922,54.3945312 93.9896484,56.5416016 C92.8451172,55.7345703 91.5753906,55.0931641 90.2132813,54.6492188 Z" id="path-1"></path>
    </defs>
    <g id="Sports/Resources/Courts/Netball" stroke="none" stroke-width="1" fill="none" fill-rule="evenodd">
        <mask id="mask-2" fill="white">
            <use xlink:href="#path-1"></use>
        </mask>
        <use id="Shape" fill="#000000" fill-rule="nonzero" opacity="0" xlink:href="#path-1"></use>
        <g id="Group" mask="url(#mask-2)" fill="#000000">
            <g id="Colour/Black">
                <rect id="Rectangle" x="0" y="0" width="100" height="100"></rect>
            </g>
        </g>
    </g>
</svg>
