<svg viewBox="0 0 100 100" version="1.1" xmlns="http://www.w3.org/2000/svg" xmlns:xlink="http://www.w3.org/1999/xlink">
    <title>Sports/Resources/Courts/Ice hockey</title>
    <defs>
        <path d="M90.684375,0 C93.8054688,0 96.7023438,1.55647059 98.4333984,4.16352941 C100.164844,6.77058824 100.481641,10.0537255 99.28125,12.9460784 L99.28125,12.9460784 L67.4070313,89.7435294 C64.8212891,95.9741176 58.8060547,100 52.0826172,100 L52.0826172,100 L27.9941406,100 C23.1478516,100 19.2050781,96.0417647 19.2050781,91.1764706 L19.2050781,91.1764706 L19.2050781,83.3333333 C19.2050781,78.4680392 23.1478516,74.5098039 27.9941406,74.5098039 L27.9941406,74.5098039 L50.6910156,74.5098039 L82.2177734,5.45411765 C83.7304688,2.14078431 87.0539063,0 90.684375,0 Z M30.9238281,80.3921569 L27.9941406,80.3921569 C26.3787109,80.3921569 25.0644531,81.7115686 25.0644531,83.3333333 L25.0644531,83.3333333 L25.0644531,91.1764706 C25.0644531,92.7982353 26.3787109,94.1176471 27.9941406,94.1176471 L27.9941406,94.1176471 L30.9238281,94.1176471 L30.9238281,80.3921569 Z M42.6425781,80.3921569 L36.7832031,80.3921569 L36.7832031,94.1176471 L42.6425781,94.1176471 L42.6425781,80.3921569 Z M61.5294922,64.887451 L55.2341797,78.6764706 C54.7568359,79.7219608 53.7164063,80.3921569 52.5708984,80.3921569 L52.5708984,80.3921569 L48.5019531,80.3921569 L48.5019531,94.1176471 L52.0828125,94.1176471 C56.4332031,94.1176471 60.3253906,91.5127451 61.9986328,87.4811765 L61.9986328,87.4811765 L69.4666016,69.4878431 L61.5294922,64.887451 Z M66.4337891,54.1452941 L63.9816406,59.5164706 L71.7388672,64.0127451 L74.0113281,58.537451 L66.4337891,54.1452941 Z M77.7925781,29.2656863 L68.8859375,48.7743137 L76.2837891,53.0621569 L84.7175781,32.7419608 L77.7925781,29.2656863 Z M20.5078125,19.6078431 C25.6041016,19.6078431 30.4408203,20.5137255 34.1271484,22.1586275 C40.1207031,24.8327451 41.015625,28.464902 41.015625,30.3921569 L41.015625,30.3921569 L41.015625,42.1568627 C41.015625,44.0841176 40.1207031,47.7162745 34.1271484,50.3903922 C30.4408203,52.0352941 25.6041016,52.9411765 20.5078125,52.9411765 C15.4115234,52.9411765 10.5748047,52.0352941 6.88847656,50.3903922 C0.894921875,47.7162745 1.42108547e-13,44.0841176 1.42108547e-13,42.1568627 L0.000984008874,30.281264 C0.0355857428,28.3281805 1.00800781,24.78229 6.88847656,22.1586275 C10.5748047,20.5137255 15.4115234,19.6078431 20.5078125,19.6078431 Z M35.15625,38.1317647 C34.8308594,38.2994118 34.4886719,38.4643137 34.1271484,38.6256863 C30.4408203,40.2705882 25.6041016,41.1764706 20.5078125,41.1764706 C15.4115234,41.1764706 10.5748047,40.2705882 6.88847656,38.6256863 C6.52675781,38.4645098 6.18476563,38.2994118 5.859375,38.1317647 L5.859375,38.1317647 L5.859375,42.1568627 C5.859375,42.6945098 6.7671875,43.8992157 9.26816406,45.015098 C12.1789063,46.3139216 16.2757813,47.0588235 20.5078125,47.0588235 C24.7398438,47.0588235 28.8367188,46.3139216 31.7474609,45.015098 C34.2484375,43.8992157 35.15625,42.6945098 35.15625,42.1568627 L35.15625,42.1568627 Z M20.5078125,25.4901961 C16.2757813,25.4901961 12.1789063,26.235098 9.26816406,27.5339216 C6.7671875,28.6498039 5.859375,29.8545098 5.859375,30.3921569 C5.859375,30.9298039 6.7671875,32.1345098 9.26816406,33.2503922 C12.1789063,34.5492157 16.2757813,35.2941176 20.5078125,35.2941176 C24.7398438,35.2941176 28.8367188,34.5492157 31.7474609,33.2503922 C34.2484375,32.1345098 35.15625,30.9298039 35.15625,30.3921569 C35.15625,29.8545098 34.2484375,28.6498039 31.7474609,27.5339216 C28.8367188,26.235098 24.7398438,25.4901961 20.5078125,25.4901961 Z M90.684375,5.88235294 C89.3378906,5.88235294 88.1054688,6.67627451 87.5441406,7.90509804 L87.5441406,7.90509804 L80.2349609,23.914902 L86.9763672,27.2988235 L93.8724609,10.6835294 C94.3244141,9.59490196 94.2097656,8.40764706 93.5582031,7.42647059 C92.9066406,6.44509804 91.8591797,5.88235294 90.684375,5.88235294 Z" id="path-1"></path>
    </defs>
    <g id="Sports/Resources/Courts/Ice-hockey" stroke="none" stroke-width="1" fill="none" fill-rule="evenodd">
        <mask id="mask-2" fill="white">
            <use xlink:href="#path-1"></use>
        </mask>
        <use id="Combined-Shape" fill="#000000" fill-rule="nonzero" opacity="0" xlink:href="#path-1"></use>
        <g id="Group" mask="url(#mask-2)" fill="#000000">
            <g id="Colour/Black">
                <rect id="Rectangle" x="0" y="0" width="100" height="100"></rect>
            </g>
        </g>
    </g>
</svg>
