<svg xmlns="http://www.w3.org/2000/svg" xmlns:xlink="http://www.w3.org/1999/xlink" viewBox="0 0 30 30">
    <defs>
        <path id="0su3i90fka" d="M13.242 19.571c.97 0 1.758.768 1.758 1.715 0 .946-.787 1.714-1.758 1.714-.97 0-1.758-.768-1.758-1.714 0-.947.787-1.715 1.758-1.715zm7.031 0c.971 0 1.758.768 1.758 1.715 0 .946-.787 1.714-1.758 1.714-.97 0-1.757-.768-1.757-1.714 0-.947.787-1.715 1.757-1.715zm-9.353-1.56l-.007-.025L8.11 8.143H5.586C5.262 8.143 5 7.887 5 7.57 5 7.256 5.262 7 5.586 7h2.969c.263 0 .494.171.564.419l.532 1.867h14.763c.184 0 .357.084.468.227.11.143.146.329.096.5l-2.383 8c-.072.247-.302.416-.564.416H11.484c-.263 0-.494-.172-.564-.419l.003.013.003.012-.006-.022v-.003zM19.687 15h-5.859c-.324 0-.586.256-.586.571 0 .316.262.572.586.572h5.86c.323 0 .585-.256.585-.572 0-.315-.262-.571-.586-.571zm1.172-2.286h-8.203c-.324 0-.586.256-.586.572 0 .316.262.571.586.571h8.203c.324 0 .586-.255.586-.571 0-.316-.262-.572-.586-.572z"/>
    </defs>
    <g fill="none" fill-rule="evenodd">
        <g>
            <g>
                <g>
                    <g>
                        <g transform="translate(-221 -1704) translate(101 120) translate(80 792) translate(0 614) translate(40 178)">
                            <mask id="lfh4l6swxb" fill="#fff">
                                <use xlink:href="#0su3i90fka"/>
                            </mask>
                            <use fill="#000" fill-rule="nonzero" xlink:href="#0su3i90fka"/>
                            <g fill="currentColor" mask="url(#lfh4l6swxb)">
                                <path d="M0 0H30V30H0z"/>
                            </g>
                        </g>
                    </g>
                </g>
            </g>
        </g>
    </g>
</svg>
