<svg xmlns="http://www.w3.org/2000/svg" xmlns:xlink="http://www.w3.org/1999/xlink" viewBox="0 0 20 20">
    <defs>
        <path id="16uoqfy7ba" d="M16.667 7.63v9.037H3.333V7.63h13.334zm-9.18 2.084c-.754 0-1.367.613-1.367 1.366 0 .436.205.825.524 1.076-1.006.25-1.696.975-1.696 2.068v.463h5.078v-.463c0-1.076-.67-1.813-1.696-2.068.319-.251.524-.64.524-1.076 0-.753-.613-1.366-1.368-1.366zm7.357 4.192h-3.776v.781h3.776v-.78zM7.487 12.84c.375 0 1.524.082 1.727 1.067H5.76c.203-.985 1.352-1.067 1.727-1.067zm7.357-1.03h-3.776v.782h3.776v-.781zm-7.358-1.314c.324 0 .587.262.587.585 0 .324-.263.587-.587.587-.322 0-.585-.263-.585-.587 0-.323.263-.585.585-.585zm7.358-.781h-3.776v.78h3.776v-.78zm-5.35-6.38l.098.219-1.53 3.322h-.184l-1.61-3.542h3.226zm4.233 0L12.13 6.848H8.933l1.62-3.516h3.174z"/>
    </defs>
    <g fill="none" fill-rule="evenodd">
        <g>
            <g>
                <g>
                    <g>
                        <g transform="translate(-40 -368) translate(20 20) translate(0 268) translate(0 60) translate(20 20)">
                            <mask id="sn01ti583b" fill="#fff">
                                <use xlink:href="#16uoqfy7ba"/>
                            </mask>
                            <use fill="#000" fill-rule="nonzero" xlink:href="#16uoqfy7ba"/>
                            <g fill="currentColor" mask="url(#sn01ti583b)">
                                <path d="M0 0H20V20H0z"/>
                            </g>
                        </g>
                    </g>
                </g>
            </g>
        </g>
    </g>
</svg>
