
<svg viewBox="0 0 100 100" version="1.1" xmlns="http://www.w3.org/2000/svg" xmlns:xlink="http://www.w3.org/1999/xlink">
    <title>Sport/Player/Basketball</title>
    <g id="Sport/Player/Basketball" stroke="none" stroke-width="1" fill="none" fill-rule="evenodd">
        <g id="Group-2" >
            <rect id="Rectangle" x="0" y="0" width="100" height="100"></rect>
            <path d="M19.7643374,84.8800429 C19.4131684,84.9436814 19.111406,84.9425243 18.7585014,84.8892994 C18.5113524,84.3593639 18.4994347,83.7241356 18.726335,83.1861006 C18.9453673,82.6654217 19.3700099,82.2407791 19.5226267,81.6969588 C19.6464326,81.2561173 19.5764302,80.7863492 19.4931216,80.3350941 C19.4153668,79.9139226 19.3267357,79.4950653 19.2273439,79.0785222 C19.1802514,78.8806642 19.1303819,78.6770208 19.1649781,78.4768487 C19.1904335,78.3299015 19.2600888,78.194525 19.3327524,78.0649338 C19.4581782,77.8393062 19.5950589,77.619464 19.7424689,77.4077212 C20.8210843,78.0001382 21.8200937,78.7256175 22.815979,79.4487828 C23.3858332,79.8630118 23.9558031,80.2772408 24.525773,80.6914699 C25.0376583,81.0628875 25.6174632,81.3660384 25.9697893,81.8913456 C26.4685997,82.635338 26.97065,83.3851157 27.3208933,84.2101026 C27.5136603,84.6636718 27.6778477,85.1623666 28.021033,85.5037005 C25.3818849,84.5965621 22.5094726,84.3778769 19.7643374,84.8800429 Z M69.8498352,85.8612334 C69.6289516,85.493287 69.3601655,85.1183981 68.95797,84.9691368 C68.5983544,84.8360744 68.1896792,84.9078124 67.8258982,84.7851636 C67.4261325,84.6521012 67.1346679,84.3026677 66.9328759,83.9324071 C66.5419039,83.2161843 66.4124284,82.384255 66.0709787,81.6425768 C65.6947014,80.8245323 65.057506,80.1291366 64.2755619,79.6836668 C63.9916183,79.5216778 63.6848806,79.3897725 63.3607868,79.3469611 C62.7574935,79.2659666 62.153853,79.4939083 61.6224133,79.7901167 C61.0901637,80.0874823 60.5153342,80.5375803 60.2393743,81.0814006 C59.6872232,81.3984362 59.0114976,81.4400905 58.3841373,81.3301694 C57.7568927,81.2214054 57.1637816,80.9726365 56.5725217,80.7365954 C55.4477394,80.2876544 54.3077996,79.8757395 53.1552478,79.5031648 C52.4100983,79.2624954 51.5413744,79.3423328 50.8491028,78.9767005 C49.9269225,78.4895764 48.9232849,78.177169 47.9193002,77.8948453 C47.0679322,77.655333 46.209159,77.4343337 45.3337241,77.3093708 C44.4693971,77.1855649 43.5947721,77.1554812 42.7221142,77.1253975 C41.0707519,77.0698584 39.5242197,77.0906856 37.8729732,77.1531671 C36.9924472,74.9258182 35.8695162,72.7945056 34.5304457,70.8078261 C33.9355989,69.9261431 33.295858,69.0676013 32.8147506,68.1188086 C32.4532837,67.4060569 32.1819521,66.6423944 31.7317384,65.9828678 C31.0553186,64.9901065 30.0125722,64.2854544 29.3700543,63.271866 C29.0990699,62.8437522 28.9063029,62.3705128 28.6452692,61.9366137 C28.126673,61.0746008 27.359655,60.395404 26.6625237,59.6699246 C25.9653925,58.9432882 25.2008043,58.1055736 25.0694775,57.1070271 C24.9228775,55.9927741 24.3327746,54.9895993 23.7055301,54.0581625 C23.571542,53.8579904 23.4337356,53.6589753 23.2565891,53.4969863 C22.8791547,53.1521811 22.257464,52.9612655 21.9621812,52.5447223 C21.9635697,52.4590996 21.9887937,52.3734768 22.0340349,52.3005817 C21.2208501,51.514935 20.5517197,50.5939118 19.9252851,49.6520614 C19.6995418,49.3130416 19.4772698,48.9682364 19.3299755,48.5887193 C19.1781686,48.1976315 19.1096704,47.7787742 18.9835504,47.379587 C18.7441538,46.6205528 18.3011139,45.9367278 18.0738664,45.1742224 C17.9070177,44.6142032 17.8608509,44.0264145 17.8156097,43.4439483 C17.7870302,43.0754233 17.7586821,42.7019229 17.8255604,42.338489 C17.8859592,42.0101142 18.0220299,41.7014094 18.1277856,41.3849523 C18.470161,40.3601404 18.5252372,39.2306142 18.5453701,38.1503789 C19.2777919,37.870485 19.834687,37.2434718 20.193724,36.5464563 C20.5528768,35.8494407 20.7383542,35.0784887 20.9257986,34.3171404 C20.9737011,34.122175 21.0244962,33.9220029 21.1419383,33.7592039 C21.2398259,33.623596 21.3774009,33.5231628 21.5109261,33.4226139 C22.6391795,32.5720559 23.5823027,31.5273425 24.3927106,30.369931 C25.0041034,31.245713 25.4017864,32.2494664 25.7941469,33.2428061 C26.1025046,34.0237088 26.4136392,34.8149095 26.5155766,35.6482272 C26.595414,36.3010429 26.5445032,36.9619581 26.4934766,37.6175507 C26.4698725,37.9219744 26.4453427,38.2306791 26.3417855,38.5178625 C26.1335139,39.0955848 25.2166561,39.4128518 25.1627369,40.024476 C25.1176114,40.5361299 24.8019642,41.3232808 25.1577615,42.1010594 C25.4029435,42.6366645 25.313271,43.2458589 25.5139059,43.7996299 C25.7038959,44.3237801 25.5552131,44.9057834 25.595479,45.4611743 C25.6262569,45.886974 25.6158433,46.3127737 25.6667541,46.7362592 C25.7375665,47.3240479 25.7836176,47.9072084 25.8677362,48.49384 C25.9083492,48.7773208 26.0798261,49.1186548 26.3649268,49.0885711 C26.6057119,49.0642727 26.7283607,48.7888914 26.7720977,48.5505362 C26.9041188,47.8343133 26.7630726,47.091478 26.8626959,46.3694698 C26.9045816,46.067476 26.9882373,45.7712676 27.0369498,45.4692738 C27.0986213,45.0874425 27.1032495,44.6975118 27.1077621,44.3098953 C27.3075871,44.1374927 27.4807996,44.2450997 27.62335,44.467256 C27.7661317,44.6894124 27.6926581,45.0006627 27.6518138,45.2610022 C27.6054155,45.5572107 27.7528255,45.8221784 27.7053858,46.1172298 C27.6417473,46.5129458 27.6464913,46.9167613 27.6514666,47.3171055 C27.6588718,47.9280355 27.6663928,48.5378084 27.673798,49.1487384 C27.6751865,49.2609737 27.6773849,49.3778372 27.7249402,49.4808159 C27.7726113,49.5826376 27.8787141,49.6671033 27.9906022,49.6520614 C28.0903411,49.6381766 28.1640461,49.554868 28.2212051,49.4715594 C28.4089967,49.1996493 28.5244717,48.8849278 28.6009536,48.5632639 C28.6929403,48.1768044 28.730892,47.7799313 28.768728,47.3853723 C28.8563178,46.4689774 28.9440232,45.5525824 29.031613,44.6350304 C29.0429522,44.5170098 29.0665563,44.3793191 29.1719649,44.3237801 C29.2926467,44.2589845 29.4460735,44.3550208 29.501844,44.4788267 C29.5576145,44.6037896 29.5476637,44.7461085 29.5540276,44.8826421 C29.5743919,45.3165413 29.5774003,45.77821 29.6934538,46.1970672 C29.89756,46.9329602 30.0492511,47.6538113 30.1375351,48.4128455 C30.162412,48.6269024 30.2011737,48.8490588 30.328335,49.0226184 C30.4554964,49.1961781 30.6960501,49.3049421 30.8928667,49.2170052 C31.0589055,49.1441102 31.1471895,48.9531945 31.1572559,48.7726925 C31.1674381,48.5910334 31.1149074,48.4128455 31.0725588,48.2358146 C30.7676724,46.9618868 30.9826549,45.598865 30.6193367,44.339979 C30.587286,44.2289008 30.5503757,44.1155085 30.5619463,44.0009591 C30.5736327,43.8864097 30.6490733,43.7683892 30.7630441,43.7487191 C30.9525712,43.7174783 31.068162,43.9465771 31.1213869,44.1317074 C31.4175954,45.1568664 31.7809136,46.1635124 32.2081018,47.1423888 C32.2954601,47.343718 32.4513167,47.5786021 32.6657207,47.5369478 C32.8621903,47.4987647 32.9323084,47.2523099 32.9290686,47.0521378 C32.9229361,46.6749348 32.7988988,46.3104596 32.6850437,45.9506125 C32.3154774,44.7831346 31.7488629,43.6042017 31.8675777,42.3848873 C31.9551675,41.4856169 32.0426416,40.5778999 31.9358445,39.6807122 C31.8290475,38.7835245 31.5106234,37.8852954 30.8846516,37.2336368 C30.6907276,37.0317291 30.4654472,36.8499542 30.3388643,36.6003755 C30.2011737,36.3289282 30.197471,36.0125868 30.155701,35.7111715 C30.1017818,35.3221665 29.8623852,35.0043209 29.8600711,34.6116132 C29.8557899,33.850612 29.8515088,33.0896108 29.8472277,32.3286096 C29.8434094,31.6749839 29.8397067,31.0204326 29.7794237,30.3695839 C29.694958,29.4568915 29.4998769,28.5584311 29.3053744,27.6626318 C28.9900744,26.211326 28.6747744,24.7600202 28.3594743,23.3088301 C28.4945037,23.1992561 28.5914657,23.0821612 28.7299663,22.9770997 C29.8601868,22.1199464 31.0247721,21.2233373 31.6937867,19.9725507 C31.8366841,19.7055002 31.9559775,19.4236394 32.1362481,19.1803087 C32.347528,18.8950924 32.6329758,18.6755973 32.8927368,18.4336551 C34.0985135,17.3107241 34.7414942,15.7139753 35.1984189,14.1307642 C35.3705901,13.5339504 35.534199,12.9070529 35.9448411,12.4408717 C36.1694273,12.1859704 36.4599662,11.9899637 36.6537745,11.7109955 C36.9955713,11.2193588 36.9760169,10.5606421 36.8390205,9.97782878 C36.7019083,9.39501546 36.4614704,8.83383925 36.4018815,8.23806681 C36.3550204,7.7685301 36.4224773,7.29424942 36.3903109,6.82343993 C36.3263252,5.88749057 35.8390854,4.99400547 35.1042339,4.4137377 C34.2440722,1.84887314 31.8227994,0 28.9682059,0 C25.393687,0 22.495935,2.89775198 22.495935,6.4722709 C22.495935,10.0467898 25.393687,12.9446575 28.9682059,12.9446575 C30.7283322,12.9446575 32.3234611,12.2410467 33.4902448,11.1009912 C33.4973029,11.4201095 33.4483591,11.7321698 33.3070815,12.0230557 C33.1589773,12.3277108 32.9221262,12.5785623 32.6889777,12.8242071 C30.19157,15.4552557 27.5850511,18.1125697 25.0877591,20.7436184 C24.1934641,20.6739631 23.4598853,20.0471814 22.731629,19.5236097 C22.003257,19.0001538 21.0822337,18.5396422 20.2400066,18.848347 C20.1408462,18.8846788 20.0377517,18.9320027 19.9339631,18.9119855 C19.8205708,18.890117 19.7391134,18.7941964 19.6613587,18.708805 C19.312041,18.3252382 18.8973491,18.0186161 18.3963403,17.8840495 C18.3022709,17.2616646 18.7816427,16.7179601 19.0196508,16.1351468 C19.3070656,15.4310731 19.2406501,14.6391783 19.1694907,13.8819953 C19.1236709,13.3932514 19.0777355,12.9043917 19.0318,12.415532 C18.9594835,11.6448114 18.8472482,10.7934434 18.2599224,10.2891948 C18.4988562,10.0966593 18.3860424,9.6347592 18.0853214,9.57401332 C18.1498855,9.11489018 17.7531282,8.64535347 17.2896082,8.63239435 C17.2717894,8.54295327 17.2539706,8.4536279 17.2361518,8.36430253 C16.3956603,7.93769291 15.4644549,7.69089108 14.5229516,7.64495562 C14.3913934,7.63859177 14.2172552,7.59635892 14.2150568,7.46445358 C13.9984543,7.7361323 13.5799442,7.82129223 13.2743635,7.65594774 C12.5506197,7.91189037 11.8268759,8.16794871 11.1031322,8.42389135 C10.1968037,8.60254209 9.34277448,9.03852394 8.66670177,9.66796695 C8.40543664,9.91118187 8.16453584,10.1925799 8.05299484,10.5317155 C7.94156954,10.8708511 7.94561927,11.3401564 8.19276821,11.5978346 C8.19936348,11.835727 8.12889826,12.0681813 8.06595396,12.2977428 C7.78848993,13.3097113 7.311548,14.5120169 7.63263336,15.5109105 C7.73607491,15.8324587 7.55811841,16.1759911 7.34602852,16.4389919 C7.13393862,16.7018769 6.8746405,16.9441662 6.77374449,17.2665243 C6.67284847,17.5888824 6.82326684,18.0234758 7.15812126,18.0683699 C7.26526542,18.0827175 7.38687289,18.0587663 7.47214853,18.1251817 C7.56795346,18.1996967 7.56263096,18.343057 7.55372157,18.4640859 C7.53312582,18.7421285 7.56401944,19.067495 7.79496949,19.2236987 C7.86948443,19.274031 7.97119039,19.3193879 7.97454588,19.4091761 C7.9767443,19.4709633 7.92814759,19.5209485 7.89725398,19.5745206 C7.75655495,19.8181983 7.97963696,20.1002906 8.07509477,20.3650269 C8.20098337,20.7136504 8.09569051,21.0966387 8.05102783,21.4645852 C8.00613373,21.832416 8.05808592,22.2704805 8.37384879,22.4645202 C8.10691404,22.5516472 7.9569585,22.937181 7.9335858,23.2170749 C7.91009739,23.496853 7.96644643,23.7797553 7.93347009,24.0586078 C7.83419397,24.8987522 6.99543802,25.4271835 6.22367609,25.7737243 C5.45202987,26.1203808 4.57925622,26.483699 4.24683163,27.261709 C3.93824257,27.9837172 4.20945846,28.8110182 4.16803555,29.5952764 C4.1275383,30.3618316 3.78736138,31.0763188 3.59991695,31.820774 C3.30729538,32.9836237 3.39083542,34.2087234 3.18580362,35.3900861 C2.86680098,37.2280829 1.86246911,38.8974953 1.58130247,40.7415088 C1.39952766,41.9330537 1.52761469,43.1466985 1.55179733,44.3515496 C1.59946838,46.7246886 1.14786617,49.0226184 0.598376302,51.3309618 C0.209486971,52.9670508 0.00827347961,54.6459512 0,56.3271657 C0,56.4660134 0.00352951574,56.6152747 0.087763801,56.7251958 C0.212726752,56.8883419 0.451313422,56.8941272 0.656576639,56.8883419 C1.98199386,56.8501588 3.31111369,56.943881 4.61813359,57.1660374 C4.69646684,57.1799221 4.77746135,57.194964 4.84341402,57.2389324 C4.91063946,57.2840579 4.95530214,57.3557959 4.99707216,57.4240627 C5.49102294,58.2432643 6.15691348,59.1712299 6.13296224,60.1281221 C6.12197013,60.5631783 5.79914918,60.9207112 5.63982141,61.3268408 C5.53013171,61.6068504 5.49877527,61.9100012 5.46846018,62.2085238 C5.40505306,62.8333386 5.34176164,63.4662528 5.4255331,64.0887534 C5.53799975,64.9253109 5.91312002,65.7202142 5.94540211,66.5648711 C5.95824553,66.8981057 5.91716974,67.2382826 5.99226322,67.5645747 C6.05925724,67.8549979 6.21511381,68.1176515 6.30432348,68.4022893 C6.49477627,69.0097481 6.37039185,69.6773743 6.52671124,70.2952466 C6.65329409,70.7950984 6.95818054,71.2382541 7.06983725,71.7415771 C7.19237037,72.2958109 7.07226709,72.8697148 7.05062999,73.4355193 C6.978892,75.3169059 8.03529175,76.9946493 8.37998123,78.8459522 C8.79108619,81.053631 9.97892846,83.1016349 10.0819072,85.3440257 C10.1025029,85.7906525 10.0800559,86.2465359 10.1995806,86.6769638 C10.373256,87.3040927 10.8248582,87.8085727 11.1863251,88.3500789 C11.4774425,88.7851351 11.7155664,89.2560603 11.8935229,89.7489697 C11.982154,89.9942673 12.0584045,90.2499785 12.2129883,90.4594072 C12.3674564,90.6699929 12.6848392,90.79727 12.9418232,90.7544586 C13.6567732,91.0934785 14.442767,91.2508392 15.2218185,91.390844 C16.8995618,91.6916807 18.5887601,91.9242507 20.2773798,92.1556635 C21.6313765,92.3419509 23.005159,92.5282383 24.3599657,92.3477362 C25.1855311,92.2378151 25.9879552,91.9925175 26.8113222,91.8675545 C27.572092,91.750691 28.3443168,91.7379633 29.1138803,91.7240785 C31.154479,91.6893666 33.2341865,91.7402774 35.2746694,91.7044084 C35.1476238,91.9601197 35.1431112,92.2736841 35.2627517,92.5340236 C35.3333326,92.6867561 35.4457993,92.8267609 35.4637338,92.9945352 C35.4897677,93.2375187 35.3127369,93.4492615 35.16093,93.6413342 C35.0092389,93.8322498 34.8662257,94.0856469 34.9646919,94.3101174 C35.2591648,94.3147456 35.49752,94.0775474 35.6747823,93.8426634 C35.852276,93.6077793 36.0251414,93.3416545 36.3007541,93.2386758 C36.6195254,93.1183411 36.9697687,93.2525605 37.303119,93.3231415 C37.6805534,93.4029789 38.0707155,93.3995077 38.4518525,93.4596751 C39.2089197,93.5788527 39.922597,93.9583698 40.4455901,94.518389 C40.5316757,94.6109541 40.6145215,94.7093046 40.721897,94.7752572 C40.8897871,94.879393 41.1014141,94.8955919 41.2674529,95.0020419 C41.369506,95.0679945 41.4476078,95.1640309 41.5238583,95.2589101 C41.7748256,95.5690034 42.0257929,95.8790966 42.2767601,96.190347 C42.3498866,96.280598 42.4252115,96.3731631 42.5248347,96.4333305 C42.6089533,96.4830842 42.7078823,96.5096967 42.78367,96.5721782 C42.8505483,96.6277173 42.8930126,96.7052406 42.9426507,96.7758215 C43.3787482,97.3994792 44.3513765,97.4515471 44.7833086,98.0775189 C44.9459919,98.31356 45.009399,98.6016691 45.1337834,98.8596944 C45.3463362,99.3005359 45.7542013,99.7946024 46.2412097,99.8466703 C46.6731418,99.8929529 47.1051897,99.9392355 47.5371218,99.985518 C47.7007307,100.002874 47.8742904,100.017916 48.0223946,99.9473349 C48.1954914,99.8628692 48.294999,99.678896 48.3624558,99.499551 C48.6575072,98.7127472 48.5504788,97.8380066 48.4088541,97.0107056 C48.1392581,95.435941 47.7312772,93.8206791 46.7226642,92.5814632 C46.5345255,92.3512074 46.3240555,92.1325222 46.0689228,91.9786327 C45.8759245,91.8617692 45.6607105,91.7842459 45.4740761,91.6581259 C45.2337538,91.4949798 45.0530203,91.2600957 44.876568,91.0298399 C44.5628879,90.6202391 44.2426125,90.1979106 44.1008721,89.70153 C44.0206875,89.4215205 44.0009017,89.1276261 43.9785704,88.837203 C43.9071795,87.9069232 43.7992254,86.9581304 43.3921702,86.1204158 C42.9851149,85.2815442 42.2216839,84.5618502 41.2968423,84.4461437 C41.2060128,84.4345731 41.1119434,84.4299448 41.0245851,84.4565573 C40.8599348,84.5086252 40.7531378,84.6625148 40.6444894,84.7955772 C40.3276852,85.1866649 39.8952903,85.4828734 39.4161499,85.63792 C39.1020069,85.7385846 38.7617143,85.7837101 38.4859859,85.9642122 C38.3216827,86.0729762 38.1876947,86.2257087 38.0127465,86.3159597 C37.5928479,86.5323308 36.9680331,86.4224096 36.7419428,86.8377957 C34.9620307,87.058795 33.1617542,86.7753143 31.3952641,86.465221 C30.8498239,86.3691847 30.3035738,86.2708342 29.7717871,86.1157876 C29.5813343,86.0602485 29.3936584,85.99661 29.2066768,85.9306573 C29.3854433,85.9318144 29.5654825,85.9156155 29.739505,85.8866888 C30.4605875,85.7675112 31.1420984,85.4805593 31.815857,85.1970785 C32.544229,84.8904564 33.1830442,84.3269661 33.9714679,84.2702699 C36.2859437,84.1071239 38.7261924,83.7333921 41.0319903,83.9937316 C42.1162753,84.1152233 43.3041176,84.1048097 44.3890968,84.2228303 C45.7257376,84.3674633 47.0783458,84.3628351 48.4049201,84.5803632 C49.2413619,84.7180538 50.0621834,84.9436814 50.9016335,85.061702 C53.0747161,85.3671669 55.4919393,85.0940998 57.3842023,86.2048815 C57.1950223,86.591341 57.3042492,87.0703657 57.5481583,87.4244274 C57.7920675,87.7784891 58.1508732,88.0342003 58.5021579,88.2818121 C58.68104,88.4079321 58.8673274,88.5375233 59.0825414,88.5780205 C59.2977553,88.6185178 59.5510367,88.5433086 59.6491558,88.3466077 C59.7373241,88.6069472 60.0599136,88.6971982 60.3340222,88.694884 C60.6081307,88.693727 60.8995952,88.6416591 61.1437358,88.766622 C61.4141418,88.9043127 61.5703455,89.2352331 61.8655126,89.3069711 C61.9717311,89.3324265 62.0872061,89.3208559 62.1870608,89.3648243 C62.4594337,89.4874731 62.4482102,89.9294717 62.7151449,90.0625341 C62.8081729,90.1088167 62.9177469,90.1065026 63.0159817,90.1400574 C63.3956145,90.2696486 63.4742949,90.8562803 63.8629528,90.9546307 C64.1073248,91.0171122 64.4153353,90.8620656 64.593986,91.0402535 C64.7633803,91.2091849 64.6498722,91.5401053 64.8242418,91.7044084 C64.908939,91.7842459 65.0348276,91.7958165 65.1420874,91.840942 C65.3162256,91.9138371 65.4364446,92.0723549 65.554118,92.2204591 C66.2769361,93.1287547 67.1976123,93.8553911 68.1094947,94.572771 C68.3472714,94.7590583 68.5982387,94.9534452 68.8962984,95.005513 C69.2655177,95.0714657 69.6333484,94.9094767 69.9720212,94.7474877 C70.272048,94.6051688 70.5790171,94.4535933 70.8010578,94.2071386 C71.1025888,93.87159 71.2071874,93.4064501 71.2726772,92.9598233 C71.6296316,90.5242028 71.1177463,87.9705618 69.8498352,85.8612334 L69.8498352,85.8612334 Z" id="Fill-2"  fill="currentColor"></path>
        </g>
    </g>
</svg>