<svg viewBox="0 0 100 100" version="1.1" xmlns="http://www.w3.org/2000/svg" xmlns:xlink="http://www.w3.org/1999/xlink">
    <title>Sport/Player/Table Tennis</title>
    <g id="Sport/Player/Table-Tennis" stroke="none" stroke-width="1" fill="none" fill-rule="evenodd">
        <g id="Group-2">
            <rect id="Rectangle" x="0" y="0" width="100" height="100"></rect>
        </g>
        <g id="Table-Tennis" transform="translate(-0.000000, 0.000000)" fill="#000000">
            <g id="Group" transform="translate(0.154872, 0.065825)">
                <path d="M45.4423951,15.6310144 C45.4423951,15.6310144 44.5168404,15.9922146 43.9073777,17.0079858 L44.4475074,16.9319701 C44.4475074,16.9319701 43.5232892,17.6562082 43.5232892,19.1865477 C43.5232892,19.1865477 43.8313619,18.604317 44.0953288,18.604317 C44.0953288,18.604317 43.5232892,19.572641 43.7433173,20.5847367 L44.0072841,20.3207698 C44.0072841,20.3207698 43.6552727,21.2889268 43.8313619,21.465016 L44.0293371,21.2668738 C44.0293371,21.2668738 43.7543438,21.7620623 44.0293371,22.0370556 C44.3043304,22.312216 44.3043304,22.6092622 44.3043304,23.0493184 C44.3043304,23.4893745 43.9073777,23.6450815 43.9073777,23.6450815 C43.9073777,23.6450815 43.0945937,22.8775728 42.8914395,22.6744186 C42.6882852,22.4712644 42.4400227,22.5389268 42.4400227,22.1777265 C42.4400227,21.8165263 42.4400227,21.5682638 41.9884389,20.5523256 C41.5370222,19.5363873 40.7242382,18.6333868 40.7242382,18.6333868 L40.1824379,17.4144614 C40.1824379,17.4144614 42.643177,16.6469527 43.7493317,15.9245523 C44.8554865,15.2021518 46.4356121,14.7280139 46.4356121,14.7280139 C46.4356121,14.7280139 45.3633721,15.4390537 45.1715785,15.6310144 L45.4423951,15.6310144 Z M85.8456963,94.6381315 C85.3469995,93.4060078 83.4105186,92.643177 82.4715985,91.7042569 C81.5328455,90.7653368 80.1244654,90.1199546 80.1244654,89.3569567 C80.1244654,88.594293 79.3029939,88.3007551 78.9509824,88.3007551 C78.5988038,88.3007551 77.6212911,87.4077787 77.1060545,86.8925421 C76.590818,86.3773055 74.3151898,82.0221866 73.2003475,79.9096164 C72.0855052,77.7972133 70.8532144,76.0368217 69.3567896,75.0686648 C67.8605319,74.1003408 65.1906242,72.0173416 64.515838,71.3425555 C63.8408848,70.6676022 62.2273456,69.4060746 61.4058741,68.584603 C60.5842355,67.7629644 55.5671946,64.8583267 55.1271385,64.4182705 C54.6869153,63.9782144 53.7187584,62.4819567 52.369186,62.0124967 C52.369186,62.0124967 52.5452753,61.2496659 52.5452753,60.1934643 C52.5452753,59.1370957 51.1368952,59.078455 51.5477145,58.1395349 C51.9583667,57.2007819 52.6625568,57.2594226 52.6625568,56.4965918 C52.6625568,55.733761 52.9853315,54.3547848 53.8948476,53.4452686 C54.8043638,52.5357525 56.3592622,49.8658447 56.7114408,48.6335539 C57.0634523,47.401263 57.7676423,46.4037022 57.7676423,45.8169607 C57.7676423,45.2302192 58.4131917,44.4672213 58.9412924,44.4672213 C59.4693932,44.4672213 60.4081462,45.1714114 61.5231556,45.4061414 C62.6379979,45.6408714 64.6917602,46.1103315 65.454591,46.1103315 C66.2174218,46.1103315 67.5377573,46.9612069 67.9778134,47.401263 C68.4178696,47.8413192 71.4399559,49.2791032 72.378876,48.3401831 C73.317629,47.401263 73.9045376,46.9904437 73.9045376,45.5235899 C73.9045376,44.0565691 74.1979083,36.6043504 73.9045376,35.3132518 C73.6111668,34.0223202 73.8164929,31.5871425 74.021819,31.3818164 C74.2273122,31.1764902 75.3715584,28.858594 75.6649292,28.0371224 C75.9582999,27.2154838 76.5450414,26.6287423 75.9582999,26.0420008 C75.3715584,25.4550922 74.4912791,24.1935646 74.1098637,24.1935646 C73.7284483,24.1935646 73.2736902,24.4429965 73.0242582,24.1935646 C72.7749933,23.9441326 72.0266974,23.8707899 71.6160452,24.2816092 C71.2052259,24.6922614 70.4423951,24.80971 70.4423951,25.4550922 C70.4423951,26.1006415 69.738205,26.3940123 70.0903836,27.0395616 C70.4423951,27.6849439 70.7944066,28.0371224 70.7944066,29.093324 L70.7944066,31.4404571 C70.7944066,31.8512764 71.0291366,35.0785218 70.5598436,36.3108126 C70.0903836,37.5431034 70.1196204,38.8634389 69.6795643,38.4233828 C69.2395082,37.9831596 69.034182,37.7778335 68.6820035,37.425822 C68.329992,37.0736434 67.1271051,36.9855988 66.6868818,36.5455426 C66.2468257,36.1054865 64.515838,34.3744988 64.3103448,34.1690056 C64.1050187,33.9636795 62.9313686,32.9074779 62.4620756,32.4380179 C61.9926156,31.9685579 60.5842355,31.5579056 59.5866747,31.1470863 C58.5891139,30.736267 57.2981823,30.0908848 56.7114408,30.0908848 C56.1246993,30.0908848 55.0096899,29.7387062 54.6576784,29.7387062 C54.3054999,29.7387062 53.7773991,28.9758754 53.7773991,28.6238639 C53.7773991,28.2718524 54.1588145,27.890437 54.1588145,27.890437 L54.1588145,28.6825047 C54.1588145,28.6825047 54.7163192,28.1544039 54.7163192,27.5090217 L55.2444199,27.9783146 C55.2444199,27.9783146 55.3653769,27.2625969 55.1648957,26.6791967 L54.8924084,26.2180901 C55.0195469,26.3452285 55.1055867,26.5067829 55.1648957,26.6791967 L55.6552392,27.5090217 C55.6552392,27.5090217 55.9780139,26.4234162 55.47915,25.9245523 C55.47915,25.9245523 55.94861,25.6898222 56.2419808,24.5163392 C56.5353515,23.3426891 56.5353515,22.7559476 56.5353515,22.7559476 L56.9461708,23.9295977 C56.9461708,23.9295977 57.5915531,22.5798583 57.2395416,21.5236568 L57.7970462,22.0811615 C57.7970462,22.0811615 57.9729685,20.6727813 57.4156308,20.1152767 L58.0023724,20.3207698 C58.0023724,20.3207698 57.8262831,19.0443732 57.3422882,18.5603782 L58.0463111,18.6484229 C58.0463111,18.6484229 57.4742716,17.0639535 56.5061147,16.5799586 L57.0781542,16.5358527 C57.0781542,16.5358527 56.2860866,15.7877239 55.6258353,15.5676958 L56.3739642,15.4796512 C56.3739642,15.4796512 55.71388,14.9076116 55.1418404,14.9076116 L55.471799,14.577486 L54.3496057,14.2034215 L53.6014769,13.4552927 C53.6014769,13.4552927 53.7773991,12.9271919 54.1295777,12.9271919 C54.4815891,12.9271919 55.0537958,12.5310746 55.3618685,12.5310746 C55.6699412,12.5310746 55.8899693,12.7511026 55.8899693,12.7511026 L55.3177626,13.5433373 C55.1418404,13.7192596 56.2860866,14.3795108 56.2860866,14.3795108 C56.5500535,14.3795108 56.6160452,14.313352 57.0561013,13.8732959 C57.4963245,13.4332398 58.7946071,11.6068565 58.7946071,11.6068565 C58.7946071,11.6068565 60.0708367,12.0469126 60.5108928,11.6068565 C60.9509489,11.1668003 60.8189655,10.3306268 61.0389936,10.3306268 C61.2590217,10.3306268 63.5764167,10.1859463 65.0507886,8.71157445 C66.9506816,6.81168137 70.1846097,2.15550655 67.1354584,0.40864742 C64.9316693,-0.853882652 60.2357324,2.05209169 58.9705293,4.03718925 C58.117649,5.37556803 57.4303328,6.67769313 57.4303328,6.67769313 C57.4303328,6.67769313 56.5061147,6.45766506 55.3177626,6.67769313 C54.1295777,6.89788827 51.9291299,8.87830794 51.9291299,8.87830794 C51.0488506,9.75842021 49.0244921,9.84646485 46.7359997,10.286521 C44.4475074,10.7265771 35.1393344,13.389301 33.7971131,13.9833935 C32.4548917,14.577486 32.4328388,16.0957966 32.4328388,18.0322775 C32.4328388,19.9685913 33.7090684,23.8415531 33.7090684,23.8415531 C33.7090684,23.8415531 33.7090684,24.545576 33.3129511,25.6898222 C32.9168337,26.8340684 33.3129511,26.6140404 33.8410519,27.1421411 C34.3691526,27.670409 34.5013031,27.8023924 34.5013031,29.0346832 C34.5013031,30.2669741 35.2054932,34.1397688 35.2054932,35.1079257 C35.2054932,36.0760826 33.2690123,43.9979284 32.1247661,46.0222868 C30.9805199,48.0468123 30.2763299,53.7680433 30.2763299,54.6481556 C30.2763299,55.5284349 30.3202686,55.8365076 29.6601844,56.4965918 C29.3668137,56.7899626 28.8681168,56.9952887 28.4278936,57.4355119 C27.9878375,57.875568 27.5770182,58.9317696 27.136962,59.3718257 C26.6969059,59.8120489 26.7555466,60.5748797 26.2568498,61.0735766 C25.7579858,61.5722735 25.1126036,61.2496659 25.1126036,62.2178228 C25.1126036,63.1859797 24.8631716,63.4354117 24.2764301,64.0221532 C23.6895215,64.6090617 21.914595,65.5919206 21.914595,66.1786621 C21.914595,66.7654036 21.6212243,67.0589415 21.2690457,67.410953 C20.9170342,67.7629644 21.2984496,67.7337276 20.9170342,68.115143 C20.5356188,68.4965584 15.1958033,72.7801724 13.6407378,74.3350708 C12.0856723,75.8901363 10.5894146,77.386394 9.70913526,78.2666733 C8.82902299,79.1467856 7.36200214,80.965985 7.7141807,83.2544774 C8.06619219,85.5429698 8.47701149,85.953622 8.91706763,86.3936782 C9.35712376,86.8339014 9.50380914,86.8044975 8.94630446,87.3620021 C8.38896685,87.9193397 6.24715985,90.0611468 5.60161053,90.7066961 C4.95622828,91.3520783 4.42812751,91.6454491 4.07594894,91.9976276 C3.72393745,92.3496391 -0.266305801,94.6381315 0.0270649559,95.8704223 C0.320435712,97.1027132 1.20071505,99.6845763 4.60404972,98.7458233 C8.00755146,97.8069032 8.91706763,95.489007 9.59185378,94.8142208 C10.2666399,94.1394346 14.6969393,93.1712777 15.6358594,91.7628976 C16.5746124,90.3546846 16.7801056,89.0929898 16.1053194,88.4182037 C15.4303662,87.7434175 15.4303662,86.452486 15.0491179,86.0710706 C14.6677025,85.6896552 15.4597701,84.1345897 15.8705894,83.7237704 C16.2812416,83.3131182 21.3864943,79.7923349 24.4378174,78.7361334 C27.4891406,77.6799318 30.5697006,76.1835071 31.3619353,75.3912724 C31.3619353,75.3912724 32.0953622,75.244587 32.3594961,75.5087209 C32.623463,75.7726878 33.591787,77.386394 33.9143945,77.0637864 C34.2371692,76.7410118 36.4670209,74.3350708 37.1712109,73.6310478 C37.875401,72.9268578 38.7849171,72.4868017 39.1075247,72.8094092 C39.4302994,73.1321839 44.2127773,77.855854 44.9168003,77.855854 C45.6209904,77.855854 46.3545843,77.1810679 46.9119219,76.6235632 C47.4694266,76.0662256 49.3178629,75.6848102 49.3178629,75.6848102 C49.3178629,75.6848102 51.9583667,76.3888332 53.8362069,76.7996525 C55.71388,77.2104718 61.5817963,78.0319433 62.8140871,79.2642342 C64.046378,80.496525 66.188185,82.638332 67.3910719,83.8412189 C68.5939588,85.0441059 73.9925822,88.9757084 74.5499198,89.533046 C75.1074245,90.0905507 75.5182438,90.6772922 75.8996592,91.0587076 C76.2810746,91.440123 76.0169407,94.4034015 77.6600508,94.7555801 C79.3029939,95.1075916 79.6550053,94.6381315 80.1244654,95.1075916 C80.5939254,95.5770516 84.9655841,96.7799385 85.4056402,96.3398824 C85.8456963,95.8998262 86.3445603,95.8704223 85.8456963,94.6381315" id="Shape"></path>
            </g>
            <g id="Group" transform="translate(21.582966, 29.659015) scale(-1, 1) rotate(-90.000000) translate(-21.582966, -29.659015) translate(18.996759, 27.072808)">
                <path d="M2.43835204,0.0994052392 C1.10932906,0.0994052392 0.0319099171,1.17682438 0.0319099171,2.50584737 C0.0319099171,3.83503742 1.10932906,4.91262363 2.43835204,4.91262363 C3.76737503,4.91262363 4.84479417,3.83503742 4.84479417,2.50584737 C4.84479417,1.17682438 3.76737503,0.0994052392 2.43835204,0.0994052392" id="Path"></path>
            </g>
        </g>
    </g>
</svg>