<svg xmlns="http://www.w3.org/2000/svg" xmlns:xlink="http://www.w3.org/1999/xlink" viewBox="0 0 20 20">
    <defs>
        <path id="bhwapqkwia" d="M10.001 7.547c-1.397 0-2.533 1.098-2.533 2.454 0 1.354 1.133 2.455 2.533 2.455 1.398 0 2.533-1.098 2.533-2.455 0-1.354-1.135-2.454-2.533-2.454zm.726 3.422c-.109.13-.253.217-.423.262-.073.019-.106.056-.103.13.002.071 0 .145 0 .217 0 .063-.036.1-.101.1-.08.003-.161.003-.24 0-.072 0-.104-.04-.104-.106 0-.053 0-.106-.003-.158 0-.117-.006-.122-.12-.14-.148-.024-.295-.056-.429-.12-.106-.05-.117-.076-.087-.185.022-.08.046-.161.071-.24.03-.093.055-.104.145-.061.15.076.31.119.477.137.107.014.213.003.314-.04.186-.079.216-.288.057-.412-.054-.042-.114-.074-.177-.1-.164-.07-.333-.122-.489-.212-.25-.145-.409-.344-.39-.64.022-.333.216-.542.53-.653.13-.045.13-.045.13-.175v-.135c.003-.1.02-.116.124-.119h.095c.218 0 .218 0 .218.212 0 .148 0 .15.153.172.118.018.23.05.339.098.06.026.082.066.062.127-.027.09-.051.182-.081.272-.028.085-.058.098-.142.058-.17-.08-.347-.114-.535-.103-.05.003-.099.008-.142.03-.161.068-.189.24-.052.348.07.053.15.093.232.127.145.058.287.114.423.185.44.236.554.765.248 1.124zM16.353 6H3.65c-.175 0-.317.138-.317.307v7.386c0 .17.142.307.317.307h12.7c.175 0 .317-.138.317-.307V6.31c.002-.171-.14-.309-.314-.309zm-.669 5.808c-.093-.024-.188-.035-.29-.035-.646 0-1.17.508-1.17 1.135 0 .047.002.095.008.14H5.675c.014-.069.02-.138.02-.209 0-.627-.525-1.135-1.172-1.135-.07 0-.139.006-.204.019V8.28c.065.01.136.018.204.018.647 0 1.171-.508 1.171-1.134 0-.072-.008-.14-.019-.21h8.584c-.022.088-.035.18-.035.278 0 .627.524 1.135 1.17 1.135.102 0 .197-.013.29-.034v3.475zm-1.095-2.08v.546c0 .084-.07.15-.155.15h-.983c-.087 0-.155-.068-.155-.15v-.545c0-.085.07-.15.155-.15h.983c.085 0 .155.065.155.15zm-7.882 0v.546c0 .084-.071.15-.156.15H5.57c-.088 0-.156-.068-.156-.15v-.545c0-.085.071-.15.156-.15h.982c.088 0 .156.065.156.15z"/>
    </defs>
    <g fill="none" fill-rule="evenodd">
        <g>
            <g>
                <g>
                    <g>
                        <g transform="translate(-40 -708) translate(20 20) translate(0 508) translate(0 160) translate(20 20)">
                            <mask id="4zn71mpmtb" fill="#fff">
                                <use xlink:href="#bhwapqkwia"/>
                            </mask>
                            <use fill="#000" fill-rule="nonzero" xlink:href="#bhwapqkwia"/>
                            <g fill="currentColor" mask="url(#4zn71mpmtb)">
                                <path d="M0 0H20V20H0z"/>
                            </g>
                        </g>
                    </g>
                </g>
            </g>
        </g>
    </g>
</svg>
