<svg viewBox="0 0 100 100" version="1.1" xmlns="http://www.w3.org/2000/svg" xmlns:xlink="http://www.w3.org/1999/xlink">
    <title>Sports/Resources/Courts/Tennis</title>
    <defs>
        <path d="M85.3023256,14.6046512 C76.1860465,5.58139535 63.7209302,2.84217094e-14 49.9534884,2.84217094e-14 C36.1860465,2.84217094e-14 23.7209302,5.58139535 14.6976744,14.6046512 C8.18604651,21.1162791 3.44186047,29.4883721 1.30232558,38.7906977 C1.30232558,38.8837209 1.30232558,38.8837209 1.20930233,38.9767442 C0.930232558,40.0930233 0.744186047,41.3023256 0.558139535,42.5116279 C0.372093023,43.5348837 0.279069767,44.6511628 0.186046512,45.7674419 C0.186046512,46.0465116 0.186046512,46.2325581 0.0930232558,46.5116279 C-4.40536496e-13,47.627907 -4.40536496e-13,48.744186 -4.40536496e-13,49.8604651 C-4.40536496e-13,50.9767442 0.0930232558,52.0930233 0.0930232558,53.2093023 C0.186046512,53.3953488 0.279069767,53.5813953 0.279069767,53.8604651 C0.372093023,54.8837209 0.465116279,56 0.651162791,57.0232558 C0.651162791,57.0232558 0.651162791,57.0232558 0.651162791,57.1162791 C0.837209302,58.3255814 1.02325581,59.4418605 1.30232558,60.5581395 C1.30232558,60.6511628 1.30232558,60.744186 1.39534884,60.8372093 C1.6744186,61.9534884 1.95348837,62.9767442 2.23255814,64 L2.23255814,64.0930233 C4.65116279,72.0930233 9.02325581,79.3488372 14.7906977,85.1162791 C23.8139535,94.1395349 36.2790698,99.7209302 50.0465116,99.7209302 C63.8139535,99.7209302 76.2790698,94.1395349 85.3023256,85.1162791 C94.3255814,76.0930233 99.9069767,63.627907 99.9069767,49.8604651 C99.9069767,36.0930233 94.3255814,23.627907 85.3023256,14.6046512 Z M7.1627907,59.627907 C6.97674419,58.8837209 6.88372093,58.1395349 6.69767442,57.3953488 C6.60465116,57.1162791 6.60465116,56.8372093 6.51162791,56.5581395 C6.51162791,56.2790698 6.41860465,56 6.41860465,55.7209302 C6.3255814,54.9767442 6.23255814,54.3255814 6.23255814,53.5813953 C6.23255814,53.3023256 6.13953488,53.0232558 6.13953488,52.6511628 C6.04651163,51.7209302 6.04651163,50.7906977 6.04651163,49.8604651 C6.04651163,48.8372093 6.04651163,47.9069767 6.13953488,46.9767442 C6.13953488,46.6976744 6.13953488,46.4186047 6.23255814,46.1395349 C6.3255814,45.3953488 6.41860465,44.6511628 6.51162791,43.8139535 C6.51162791,43.627907 6.60465116,43.4418605 6.60465116,43.1627907 C6.69767442,42.7906977 6.69767442,42.4186047 6.79069767,41.9534884 C6.97674419,40.9302326 7.1627907,39.9069767 7.44186047,38.9767442 C7.44186047,38.8837209 7.44186047,38.8837209 7.44186047,38.7906977 C7.44186047,38.6976744 7.53488372,38.5116279 7.53488372,38.4186047 C9.39534884,37.7674419 11.4418605,37.0232558 13.4883721,36.2790698 C20.5581395,33.6744186 27.627907,31.0697674 34.3255814,31.0697674 C39.5348837,31.0697674 44.1860465,33.2093023 47.5348837,36.5581395 C50.8837209,39.9069767 53.0232558,44.6511628 53.0232558,49.7674419 C53.0232558,54.4186047 51.3488372,58.6976744 48.5581395,61.9534884 C45.6744186,65.3023256 41.7674419,67.627907 37.2093023,68.2790698 L37.1162791,68.2790698 C36.744186,68.4651163 36.372093,68.4651163 35.8139535,68.5581395 C35.3488372,68.5581395 34.7906977,68.6511628 34.2325581,68.6511628 C27.7209302,68.6511628 21.0232558,66.0465116 14.2325581,63.5348837 C12,62.6976744 9.76744186,61.8604651 7.44186047,61.0232558 L7.44186047,60.9302326 C7.34883721,60.4651163 7.25581395,60.0930233 7.1627907,59.627907 Z M81.0232558,80.9302326 C73.1162791,88.8372093 62.0465116,93.7674419 49.9534884,93.7674419 C37.8604651,93.7674419 26.7906977,88.8372093 18.8837209,80.9302326 C15.255814,77.3023256 12.1860465,72.9302326 10.0465116,68.1860465 C10.6976744,68.4651163 11.4418605,68.744186 12.0930233,68.9302326 C19.3488372,71.7209302 26.6046512,74.5116279 34.2325581,74.5116279 C34.8837209,74.5116279 35.5348837,74.5116279 36.1860465,74.4186047 L36.2790698,74.4186047 C36.8372093,74.3255814 37.4883721,74.3255814 38.1395349,74.1395349 C44.0930233,73.2093023 49.3023256,70.1395349 53.0232558,65.7674419 C56.744186,61.4883721 58.9767442,55.8139535 58.9767442,49.7674419 C58.9767442,42.9767442 56.1860465,36.744186 51.7209302,32.2790698 C47.255814,27.8139535 41.1162791,25.0232558 34.2325581,25.0232558 C26.5116279,25.0232558 18.8837209,27.8139535 11.3488372,30.6976744 C10.9767442,30.8837209 10.5116279,30.9767442 10.1395349,31.1627907 C12.372093,26.6046512 15.255814,22.4186047 18.8837209,18.7906977 C26.7906977,10.8837209 37.8604651,5.95348837 49.9534884,5.95348837 C62.0465116,5.95348837 73.1162791,10.8837209 81.0232558,18.7906977 C84.372093,22.1395349 87.0697674,25.9534884 89.2093023,30.1395349 C86.5116279,32.1860465 84.2790698,34.6976744 82.6046512,37.6744186 C80.5581395,41.3023256 79.3488372,45.3953488 79.3488372,49.8604651 C79.3488372,54.2325581 80.5581395,58.4186047 82.6046512,62.0465116 C84.2790698,64.9302326 86.5116279,67.5348837 89.2093023,69.5813953 C87.0697674,73.7674419 84.2790698,77.6744186 81.0232558,80.9302326 Z M92.372093,60.9302326 C92.2790698,61.3953488 92.0930233,61.9534884 91.9069767,62.4186047 C91.8139535,62.6976744 91.7209302,62.8837209 91.7209302,63.1627907 C91.627907,63.3488372 91.5348837,63.627907 91.5348837,63.8139535 C90.0465116,62.5116279 88.744186,60.9302326 87.8139535,59.1627907 C86.2325581,56.372093 85.3023256,53.2093023 85.3023256,49.8604651 C85.3023256,46.5116279 86.2325581,43.3488372 87.7209302,40.6511628 C88.744186,38.8837209 90.0465116,37.3023256 91.5348837,35.9069767 C91.627907,36.0930233 91.7209302,36.372093 91.7209302,36.5581395 C91.8139535,36.8372093 91.9069767,37.0232558 91.9069767,37.3023256 C92.0930233,37.7674419 92.1860465,38.3255814 92.372093,38.7906977 C92.4651163,38.9767442 92.4651163,39.1627907 92.5581395,39.3488372 C93.3953488,42.6976744 93.8604651,46.2325581 93.8604651,49.8604651 C93.8604651,53.4883721 93.3953488,56.9302326 92.5581395,60.2790698 C92.4651163,60.4651163 92.4651163,60.6511628 92.372093,60.9302326 Z" id="path-1"></path>
    </defs>
    <g id="Sports/Resources/Courts/Tennis" stroke="none" stroke-width="1" fill="none" fill-rule="evenodd">
        <mask id="mask-2" fill="white">
            <use xlink:href="#path-1"></use>
        </mask>
        <use id="Shape" fill="#000000" fill-rule="nonzero" opacity="0" xlink:href="#path-1"></use>
        <g id="Group" mask="url(#mask-2)" fill="#000000">
            <g id="Colour/Black">
                <rect id="Rectangle" x="0" y="0" width="100" height="100"></rect>
            </g>
        </g>
    </g>
</svg>
