<svg xmlns="http://www.w3.org/2000/svg" xmlns:xlink="http://www.w3.org/1999/xlink" viewBox="0 0 24 24">
    <defs>
        <path id="az1ddt6uea" d="M16.255 10.314c.125 0 .246-.052.333-.143l1.682-1.764c.173-.181.173-.469 0-.65l-1.682-1.764c-.087-.091-.208-.143-.333-.143h-2.871V4.469c0-.26-.208-.469-.464-.469h-1.84c-.256 0-.464.21-.464.469v1.38H6.843c-.515 0-.934.425-.934.946V9.37c0 .521.42.945.934.945h3.773v.938h-2.87c-.126 0-.247.051-.334.143L5.73 13.158c-.173.182-.173.47 0 .651l1.682 1.764c.087.091.208.143.333.143h2.871v3.347h-.463c-.256 0-.463.21-.463.468 0 .26.207.469.463.469h3.694c.256 0 .463-.21.463-.469s-.207-.468-.463-.468h-.463v-3.347h3.773c.515 0 .934-.424.934-.945v-2.574c0-.521-.42-.945-.934-.945h-3.773v-.938h2.87z"/>
    </defs>
    <g fill="none" fill-rule="evenodd">
        <g>
            <g>
                <g>
                    <g>
                        <g>
                            <g>
                                <g>
                                    <g>
                                        <g>
                                            <g transform="translate(-496 -1166) translate(101 120) translate(80 792) translate(0 90) translate(40 40) translate(14 36) translate(218 20) translate(23 26) translate(0 34) translate(20 8)">
                                                <mask id="gq8oxiv3nb" fill="#fff">
                                                    <use xlink:href="#az1ddt6uea"/>
                                                </mask>
                                                <use fill="#000" fill-rule="nonzero" xlink:href="#az1ddt6uea"/>
                                                <g fill="currentColor" mask="url(#gq8oxiv3nb)">
                                                    <path d="M0 0H24V24H0z"/>
                                                </g>
                                            </g>
                                        </g>
                                    </g>
                                </g>
                            </g>
                        </g>
                    </g>
                </g>
            </g>
        </g>
    </g>
</svg>
