
<svg  viewBox="0 0 100 100" version="1.1" xmlns="http://www.w3.org/2000/svg" xmlns:xlink="http://www.w3.org/1999/xlink">
    <title>Sport/Player/Football</title>
    <g id="Sport/Player/Football" stroke="none" stroke-width="1" fill="none" fill-rule="evenodd">
        <g id="Group-2">
            <rect id="Rectangle" x="0" y="0" width="100" height="100"></rect>
        </g>
        <g id="Group-4" transform="translate(15.000000, 0.000000)" fill="currentColor">
            <path d="M32.4722348,69.3498467 C32.4722348,69.3498467 32.2247038,71.4886122 33.1308139,74.111658 C34.0374878,76.7347038 34.7541437,82.8644537 33.8643853,84.0419197 C32.9723715,85.2160344 31.1347779,86.3538419 31.3687765,88.2284037 C31.5999558,90.1040825 33.3755256,91.041922 33.865513,91.8540831 C34.3521172,92.6645685 35.5012476,92.5344217 36.6109082,95.4468069 C37.7211328,98.3591921 37.9252472,100.295755 39.2085742,99.9628473 C40.496976,99.6288223 41.723354,97.7754862 41.1927693,95.6400722 C40.6627485,93.507451 39.3484095,90.1493267 39.2480439,89.2584072 C39.1476782,88.3674877 39.0129176,86.9202322 38.520111,85.4942024 C38.0267405,84.067614 39.6404848,76.5816556 40.2161777,74.6395069 C40.7896152,72.6979167 40.889417,68.8610977 40.7315384,66.8720291 C40.5764791,64.8863119 40.9176096,63.661926 41.1239794,63.0681658 C41.3303492,62.4744056 40.7935621,59.0431086 40.8708098,57.9086525 C40.950313,56.7747549 41.6895229,52.4436013 41.6291907,51.4152734 C41.5682947,50.3886213 41.5293889,49.9345037 41.5293889,49.9345037 C41.5293889,49.9345037 42.8764313,49.0692784 43.3032672,49.6244973 C43.7301032,50.1791575 44.9226501,53.7970169 45.9849472,54.4840583 C47.0449889,55.1750097 52.5335239,57.1009599 54.3367225,57.5383204 C56.1331549,57.9795909 57.3792677,59.7150686 57.6369481,60.9651488 C57.8929369,62.2196976 57.8782767,62.8648462 58.2690261,63.1407799 C58.6586478,63.4189479 60.1133859,62.6900137 61.2743571,62.4721713 C62.4330729,62.2526532 63.2089332,62.2805817 64.5283468,62.1850662 C65.8483243,62.0856407 67.2365278,61.8499241 66.9658789,61.06625 C66.6957938,60.2836931 64.3456588,59.2737981 63.3549709,58.6174781 C62.364283,57.9656266 61.6194345,57.3422623 61.0741897,57.2947838 C60.528381,57.2456296 54.5132082,53.459082 53.7610297,51.964348 C53.0077234,50.4724069 48.133787,48.2789015 47.3410112,45.984295 C46.5471076,43.6874542 45.9223596,42.7328576 44.7952195,42.3586156 C43.6641325,41.9832564 41.2632508,40.9901185 41.2632508,40.9901185 C41.2632508,40.9901185 42.1563923,40.3388256 41.7893247,38.7720361 C41.4245125,37.2058051 41.2113764,36.7533632 41.0613918,35.6406913 C40.9102795,34.5252265 41.4352257,34.1716516 42.2793121,33.885105 C43.121143,33.5996756 43.5536175,32.6394934 43.9178659,32.1658258 C44.2854974,31.689924 46.0672696,30.0371147 46.4473058,29.0931309 C46.827342,28.1485887 45.6799033,25.8556578 45.4819912,25.2825648 C45.2840792,24.7094717 45.045006,23.4052102 44.7873256,23.0851494 C44.5290814,22.7645301 44.5826473,22.7460973 44.8279229,22.6036619 C45.0720708,22.4640193 44.9638113,22.0635245 44.960992,21.7155352 C44.9581727,21.367546 44.8679564,21.1066937 45.0500806,20.9564383 C45.2355879,20.8067414 46.4100916,20.2057199 46.1845508,19.5533098 C45.9595738,18.9025755 45.3517414,14.5083034 42.1276359,14.0296087 C38.9069134,13.5486797 37.6500874,16.9738325 37.6354273,17.44359 C37.6230225,17.9150233 37.5277315,18.1501814 37.1860372,18.2658054 C36.8443429,18.3814295 33.7905207,17.2050805 33.5852786,16.866587 C33.3811642,16.5275348 32.7332982,15.7583836 32.2748866,15.5355141 C31.8147834,15.3115274 31.4713975,15.2545533 31.2734855,14.7680386 C31.077265,14.2804068 29.8367907,13.1587977 29.3005675,13.1381306 C28.7637804,13.1146707 24.1728977,10.0414172 23.8639068,9.56495679 C23.5515328,9.0879378 23.2075831,9.03096364 22.926221,8.98125089 C22.6437311,8.930421 22.7029356,8.76284992 22.5444932,8.72989428 C22.3860508,8.69749721 22.1943411,8.82094123 22.0979224,8.70755147 C21.9992484,8.59583742 21.8994466,8.30817375 21.8994466,8.30817375 C21.8994466,8.30817375 21.3846497,8.68744294 20.9081948,8.41430209 C20.4306122,8.13613411 18.9674163,6.71178 18.6911289,6.2520767 C18.4159691,5.79349053 15.018761,3.36370998 14.6313947,3.26316734 C14.2445922,3.15927328 12.790418,2.8660239 12.4633839,2.59846876 C12.1346582,2.33203075 10.6291734,2.22925383 10.4357722,2.26779517 C10.2429348,2.30354367 9.35881495,2.7196785 9.12368868,2.79899547 C8.88461545,2.87998816 8.33147667,2.89451098 8.18092819,2.80011261 C8.02868816,2.70571424 7.12765272,1.87400315 5.9469467,1.86674174 C4.76905994,1.85780462 3.782319,1.29309011 3.55959747,0.901532367 C3.33518439,0.509974629 2.86493185,0.0888126681 2.75385301,0.447414762 C2.64333802,0.804341145 3.01829958,1.46345403 3.01829958,1.46345403 L3.32052423,1.91422021 L3.33010972,2.11586407 C3.33010972,2.11586407 2.4933534,1.98962719 2.350135,1.65951218 C2.2057889,1.33107288 1.97179033,0.653527181 1.97179033,0.653527181 L1.5635615,0.0625598669 L0.895396924,0 L0.826606984,0.48819039 C0.826606984,0.48819039 0.503519807,0.39490916 0.353535183,0.649058619 C0.206933672,0.903208078 0.333236513,1.26795444 0.333236513,1.26795444 L0.434729867,1.81535328 L0.170847146,1.99074434 L0,2.34040931 C0,2.34040931 0.252041829,3.07046061 0.330981105,3.21959886 C0.411611936,3.36594427 1.12319312,4.40656062 1.12319312,4.40656062 L1.64475619,4.81152405 C1.64475619,4.81152405 0.937121969,5.31312012 0.622492572,5.41980704 C0.304480062,5.52761109 0.187762705,6.12081269 0.382855486,6.25933811 C0.577948266,6.39618782 1.14067253,6.49505475 1.67576805,6.43137774 C2.21368282,6.36546645 3.45246559,6.3833407 3.64473912,6.43472916 C3.8420873,6.48332477 5.13218061,6.57046173 5.47782186,6.45316198 C5.8178246,6.33809651 6.55477912,6.08785704 6.86320614,6.12919124 C7.16994161,6.17052544 8.11382981,6.43193631 8.17698123,6.70228431 C8.2418242,6.97151516 8.25253739,7.3463158 8.25253739,7.3463158 C8.25253739,7.3463158 9.01148214,8.60421598 9.44226504,8.66119014 C9.87304795,8.71760573 11.2285481,8.81144553 11.6886513,9.12312773 C12.1470629,9.43201707 14.3799167,10.1011842 14.706387,10.4553178 C15.033985,10.8116856 17.8492979,13.0012809 18.3618393,13.292296 C18.8749446,13.5855454 19.2110004,13.8793533 19.3965077,14.0787629 C19.5825788,14.2776139 23.7392955,18.1384514 24.4052047,18.9606668 C25.0716777,19.7834408 26.3865805,25.9740747 26.285651,26.4460666 C26.1841577,26.9180584 26.1649867,27.8832678 25.9022317,27.972639 C25.6406044,28.0614517 25.0840825,27.988279 24.9228208,27.6078927 C24.7626868,27.2241549 24.3183715,25.6869696 23.7877868,25.2557534 C23.2560744,24.82342 22.9769677,24.0157275 22.8151421,23.5465285 C22.6533166,23.0773295 22.1170934,23.2298191 21.85603,23.5800427 C21.5960942,23.9302662 21.7043538,24.4173395 21.8391144,24.7228774 C21.9744389,25.0250639 22.1368282,25.4942629 22.1368282,25.4942629 C22.1368282,25.4942629 19.4292111,23.4437515 19.1980318,23.2007735 C18.9691079,22.9589126 18.2084716,22.6338247 18.1329154,22.9220469 C18.0551038,23.2102692 18.0669447,23.6705311 18.2186209,23.8543007 C18.3702971,24.0352774 18.8320919,24.6915975 18.8320919,24.6915975 L19.1681476,24.985964 L19.1625091,25.3088176 L19.1382635,25.665744 L19.2640025,26.0310489 L19.1602537,26.2416299 L18.8461882,26.6097277 L18.9369683,26.8716971 L19.09823,27.1649465 L19.2679494,27.5721442 L19.4754469,28.17149 C19.4754469,28.17149 19.6355809,28.3815125 19.5053311,28.4256395 C19.3739536,28.4703251 18.8072824,28.1089302 18.7621742,27.9782247 C18.717066,27.8480779 18.3804464,27.5542699 18.3804464,27.5542699 L17.9316203,27.5313686 L17.589926,27.6469926 C17.589926,27.6469926 17.7280697,28.4747937 18.3105288,28.8015573 C18.8946794,29.1277623 20.4142605,29.9499777 20.5383079,30.1426844 C20.6612276,30.3331569 21.9524486,30.9135114 21.9524486,30.9135114 L22.4091687,30.9637827 L22.5349077,31.2425092 L22.7649593,31.3078619 L23.3541846,31.5759757 L23.6028433,31.8697836 L23.8819501,32.6769176 L24.2411238,33.4577988 L24.5523701,33.8465637 C24.5523701,33.8465637 24.7734,35.1703752 24.8940644,36.0328076 C25.0158564,36.8930058 22.2839936,43.789114 25.3778493,46.8735388 C28.4728328,49.9574051 29.5875681,49.6971114 29.5875681,49.6971114 C29.5875681,49.6971114 30.2906915,49.0832427 30.5607766,49.6909671 C30.8302979,50.2970158 30.5991186,52.1844247 30.9842294,53.9768766 C31.3687765,55.769887 32.8765166,59.6290488 33.4319108,60.7232879 C33.987305,61.8186442 34.5173259,64.5494941 34.3476064,65.2499411 C34.1761954,65.9481539 32.9509451,68.8700349 32.9509451,68.8700349 L32.4722348,69.3498467" id="Fill-18"></path>
            <path d="M65.4997204,44 C69.0896107,44 72,46.9101974 72,50.5002796 C72,54.0886844 69.0896107,57 65.4997204,57 C61.9103893,57 59,54.0886844 59,50.5002796 C59,46.9101974 61.9103893,44 65.4997204,44" id="Fill-19"></path>
        </g>
    </g>
</svg>