<svg viewBox="0 0 100 100" version="1.1" xmlns="http://www.w3.org/2000/svg" xmlns:xlink="http://www.w3.org/1999/xlink">
    <title>Sports/Resources/Courts/Basket Ball</title>
    <defs>
        <path d="M90.8424702,21.5257813 C81.5350483,8.046875 66.1866108,0 49.785439,0 C39.6526265,0 29.8733296,3.05429687 21.5053608,8.8328125 C-1.11026415,24.4496094 -6.8047954,55.5542969 8.8123921,78.1703125 C18.1194233,91.6484375 33.4678608,99.6960938 49.8694233,99.6960938 C49.8705952,99.6960938 49.8702046,99.6960938 49.8713765,99.6960938 C60.0026265,99.6960938 69.7819233,96.6414063 78.1498921,90.8632813 C89.1053608,83.2980469 96.4592671,71.9195313 98.8565327,58.8234375 C101.253798,45.7273437 98.4077046,32.4816406 90.8424702,21.5257813 Z M84.344814,21.3484375 C73.6428608,20.2441406 62.8088765,22.965625 53.8491108,29.1523438 C51.1065327,31.0460938 48.5889546,33.2292969 46.3381733,35.6515625 C42.7768452,34.1992188 39.1315327,32.9359375 35.4483296,31.8738281 C39.7952046,26.0546875 45.051064,20.9953125 51.116689,16.8070313 C56.1338765,13.3425781 61.5592671,10.596875 67.2495015,8.61914063 C73.8315327,11.4007813 79.7147358,15.7410156 84.344814,21.3484375 Z M32.410439,36.2953125 C35.9670796,37.2570313 39.4932515,38.4214844 42.9455952,39.7679688 C31.6452046,55.2433594 31.2330952,76.3992187 42.272939,92.3871094 C42.6901265,92.9914063 43.1233296,93.5851563 43.569814,94.1695313 C36.2768452,93.1363281 29.3944233,90.3304687 23.5080952,86.0542969 C19.9194233,69.0078125 23.1420796,51.0289062 32.410439,36.2953125 Z M59.6518452,6.17929688 C55.6776265,7.971875 51.8549702,10.1261719 48.2311421,12.628125 C41.1358296,17.5273438 35.066689,23.5351562 30.1678608,30.5019531 C27.8952046,29.9707031 25.6030171,29.5023438 23.3088765,29.11875 C24.7565327,23.5867188 25.5459858,17.9035156 25.6600483,12.1695313 C32.8877827,7.52695312 41.194814,5.078125 49.785439,5.078125 C53.1412983,5.078125 56.4471577,5.45703125 59.6518452,6.17929688 Z M20.3780171,16.134375 C20.0459858,20.28125 19.3327046,24.384375 18.244814,28.3996094 C15.8026265,28.1109375 13.3428608,27.9046875 10.8838765,27.7820312 C13.316689,23.4726562 16.4952046,19.5210937 20.3780171,16.134375 Z M8.4655171,32.7660156 C11.2100483,32.8453125 13.9643452,33.0355469 16.697939,33.3332031 C14.0830952,40.6910156 10.1815327,47.578125 5.22723585,53.5925781 C4.64325147,46.4921875 5.76278272,39.3390625 8.4655171,32.7660156 Z M12.9909077,75.2847656 C9.72293897,70.5523438 7.4952046,65.4058594 6.25536085,60.1179688 C13.2084858,52.6617188 18.5596577,43.7078125 21.8377827,34.0304687 C23.635439,34.3195312 25.4330952,34.6578125 27.2221577,35.0429688 C19.0311421,48.7800781 15.6155171,64.9746094 17.4995015,80.8085938 C15.8662983,79.103125 14.3549702,77.2601563 12.9909077,75.2847656 Z M75.2643452,86.6847656 C67.960439,91.7285156 59.4608296,94.4535156 50.6393452,94.6035156 C49.1131733,93.0195312 47.7022358,91.3125 46.4518452,89.5015625 C36.4120015,74.9621094 37.0307515,55.6117187 47.7752827,41.7914062 C63.5495015,48.8960937 77.2795796,59.9195313 87.660439,73.8179688 C84.482314,78.8347656 80.297939,83.2085938 75.2643452,86.6847656 Z M93.8612202,57.9089844 C93.1526265,61.7796875 91.9588765,65.4816406 90.3295796,68.9507813 C79.9381733,55.6417969 66.5659077,44.9722656 51.3057515,37.8242188 C52.976064,36.1796875 54.7905171,34.6734375 56.7338765,33.33125 C65.9764546,26.9488281 77.4639546,24.7160156 88.4065327,27.1386719 C93.882314,36.4085938 95.8190327,47.2140625 93.8612202,57.9089844 Z" id="path-1"></path>
    </defs>
    <g id="Sports/Resources/Courts/Basket-Ball" stroke="none" stroke-width="1" fill="none" fill-rule="evenodd">
        <mask id="mask-2" fill="white">
            <use xlink:href="#path-1"></use>
        </mask>
        <use id="Shape" fill="#000000" fill-rule="nonzero" opacity="0" xlink:href="#path-1"></use>
        <g id="Group" mask="url(#mask-2)" fill="#000000">
            <g id="Colour/Black">
                <rect id="Rectangle" x="0" y="0" width="100" height="100"></rect>
            </g>
        </g>
    </g>
</svg>
