<svg width="24" height="24" viewBox="0 0 24 24" fill="none" xmlns="http://www.w3.org/2000/svg">
<path d="M14.5316 15.3568C14.2753 14.8705 13.7575 14.5642 13.1915 14.5642H8.79621V13.5983H12.5789C13.2023 13.5983 13.7074 13.1115 13.7074 12.5111C13.7074 11.9106 13.2023 11.4238 12.5789 11.4238H8.79621V8.1479C8.79621 6.9469 7.78562 5.9733 6.53902 5.9733C5.29304 5.9733 4.2825 6.9469 4.2825 8.1479V15.2834C4.2825 16.4842 5.2931 17.4579 6.53902 17.4579C6.6963 17.4579 12.2685 17.4635 12.2685 17.4635L15.2823 23.173C15.5474 23.6759 16.0761 23.966 16.6245 23.966C16.8545 23.966 17.0876 23.9154 17.3054 23.8079C18.0467 23.4454 18.3417 22.572 17.9641 21.8584L14.5316 15.3568Z" fill="black"/>
<path d="M6.53899 4.93785C7.95315 4.93785 9.10105 3.83235 9.10105 2.4689C9.10105 1.105 7.95315 0 6.53899 0C5.12369 0 3.97662 1.105 3.97662 2.46885C3.97662 3.83235 5.12369 4.93785 6.53899 4.93785Z" fill="black"/>
<path d="M10.1777 18.8312H4.17642C3.21056 18.8312 2.42709 19.586 2.42709 20.5168C2.42709 21.4479 3.21056 22.2026 4.17642 22.2026H10.1777C11.1435 22.2026 11.927 21.4479 11.927 20.5168C11.927 19.586 11.1435 18.8312 10.1777 18.8312Z" fill="black"/>
<path d="M16.3398 13.7916C17.9729 13.1705 17.5968 10.6453 17.543 10.1761C17.4858 9.71625 16.8625 7.44645 17.4252 6.7164C15.7705 7.27705 16.1616 9.70555 16.2425 10.4868C16.3468 11.4942 16.9458 12.8762 16.3398 13.7916Z" fill="black"/>
<path d="M19.9482 8.7718C21.5812 8.15071 21.2051 5.62555 21.1514 5.15631C21.0941 4.69651 20.4708 2.42671 21.0336 1.69666C19.379 2.25731 19.77 4.6858 19.8509 5.467C19.9552 6.4744 20.5541 7.85645 19.9482 8.7718Z" fill="black"/>
<path d="M21.0336 11.983C19.3789 12.5437 19.77 14.9722 19.8509 15.7534C19.9552 16.7607 20.5541 18.1428 19.9482 19.0582C21.5812 18.4371 21.2051 15.9119 21.1514 15.4427C21.0941 14.9829 20.4708 12.7131 21.0336 11.983Z" fill="black"/>
</svg>
