<svg  viewBox="0 0 100 101" xmlns="http://www.w3.org/2000/svg">
<path fill-rule="evenodd" clip-rule="evenodd" d="M17.8012 46.977C16.4456 46.2024 14.8962 45.4277 13.3469 45.0404C12.1325 44.6933 10.8405 44.4257 9.57511 44.356C8.71118 46.1379 4.38201 49.1761 2.40217 52.7895C1.40519 54.6089 1.52371 56.5752 1.62809 57.7277C1.96546 61.4629 4.62718 61.7261 5.51804 62.1959C6.40909 62.6658 12.8837 60.3732 13.2259 59.3291C13.5681 58.2849 17.9846 54.9355 20.5452 51.5785C20.5493 51.5733 20.5534 51.5671 20.5574 51.5616C20.0411 49.7205 19.2692 48.078 17.8012 46.977Z" fill="#D8D8D8"/>
<path fill-rule="evenodd" clip-rule="evenodd" d="M27.2779 32.8604C23.8209 30.6352 17.0295 33.3844 16.0033 33.9044C12.0893 35.8875 11.0468 41.2526 9.58041 44.336C9.57789 44.3412 9.57459 44.3464 9.57227 44.3515C10.8377 44.4212 12.1296 44.6888 13.3441 45.0359C14.8934 45.4232 16.4427 46.1979 17.7984 46.9725C19.2663 48.0735 20.0383 49.716 20.5546 51.5571C20.9919 50.9756 21.4596 49.8918 22.5114 47.7481C23.6445 45.4389 28.037 43.4864 28.7493 40.7582C29.3983 38.2714 29.2288 34.1167 27.2779 32.8604Z" fill="black"/>
<path fill-rule="evenodd" clip-rule="evenodd" d="M44.4899 32.1266C37.5759 28.3434 37.2498 27.0147 34.8289 27.7243C33.5816 28.0899 29.8243 28.4399 26.977 30.4005C25.7383 31.2534 24.3897 31.9977 21.053 33.4916C21.053 33.4916 10.7551 42.5975 12.2345 50.9359C13.1759 54.1637 14.6553 56.1389 14.6553 58.0219C14.6553 59.9045 15.0587 64.4773 15.4623 66.3601C15.8657 68.2431 16.1043 90 16.1043 90H47.555C47.555 90 45.8194 77.7507 46.3572 73.0433C46.895 68.3361 54.0682 56.5042 55.723 50.9628C57.5051 44.996 57.9591 39.4969 44.4899 32.1266Z" fill="black"/>
<path fill-rule="evenodd" clip-rule="evenodd" d="M40.2938 20.079C40.2938 20.079 39.9041 18.7372 37.0602 17.5832C34.2166 16.4292 27.5613 19.3397 27.5075 21.2057C27.3601 26.2906 28.1148 28.6633 27.7478 29.9892C27.5437 30.7268 27.602 31.4866 27.3177 31.9893C26.5227 33.3947 30.3245 33.4643 34.1926 33.1802C35.8201 33.0607 37.8412 32.0542 41.5836 30.4532C38.4437 27.5323 40.2938 20.079 40.2938 20.079Z" fill="url(#paint0_linear)"/>
<path d="M39.3399 47.2573C39.2615 47.3758 39.1807 47.4913 39.0946 47.5993C37.327 49.8162 36.4082 50.8709 36.0141 51.5993C33.7241 55.8328 32.3614 61.6737 31.4239 62.5961C30.4866 63.5182 35.6497 68.8689 36.5895 69.3616C37.529 69.8541 39.7399 69.6684 40.0811 69.4801C40.4223 69.2917 48.2146 62.2898 50.4187 59.5852C50.8676 59.0346 51.3849 58.3158 51.9281 57.4923C50.8887 51.8418 44.9475 48.2613 39.3399 47.2573Z" fill="#EEEFEE"/>
<path fill-rule="evenodd" clip-rule="evenodd" d="M52.0516 36.3372C49.7532 35.394 45.7341 35.9564 43.4192 38.0087C40.9957 40.1574 40.9806 44.7927 39.3445 47.2689C44.952 48.2729 50.8933 51.8534 51.9327 57.5039C54.4654 53.6628 57.5681 47.4971 57.0016 44.9779C56.7462 43.8411 56.124 38.0079 52.0516 36.3372Z" fill="black"/>
<path d="M35.4422 58.0353C35.4422 58.0353 32.1812 58.7741 30.4421 59.5571C25.383 61.8346 17.9694 58.6162 14.4311 56.4563C7.43149 52.1835 10.4507 58.7911 11.4028 60.2479C12.3546 61.7048 24.1536 69.4398 27.1777 70.1437C30.2018 70.8475 35.2717 72.4574 37.923 71.1219C43.5602 68.2818 42.0473 57.8063 35.4422 58.0353Z" fill="#EEEFEE"/>
<path d="M11.7872 48.0054C11.6046 47.9963 11.4272 48.0666 11.3003 48.1983C11.1735 48.3298 11.1097 48.5097 11.1254 48.6918L11.1268 48.7065L12.1491 52.9092L10.2489 48.1024L10.1366 48.0875C10.1037 48.0829 10.0727 48.0802 10.0432 48.0786C9.85228 48.0691 9.7049 48.121 9.60497 48.2322C9.41324 48.446 9.45294 48.8033 9.52983 49.2848L9.53158 49.2956L10.4126 52.4721L9.15219 49.6004L9.10126 49.5689C8.93161 49.4629 8.78945 49.4087 8.66686 49.4027C8.50399 49.3946 8.40464 49.4693 8.35003 49.5334C8.19141 49.7194 8.18309 50.0798 8.32233 50.7384L8.32543 50.7535L9.56682 53.9877C8.79139 52.5804 7.91079 51.1546 7.51649 51.1348C7.45723 51.1317 7.40069 51.1478 7.35324 51.1807C7.10225 51.3558 6.94053 51.7722 7.23858 52.4169C7.74869 53.5192 9.62976 58.6134 9.72175 59.4429C9.78818 60.0395 10.1343 61.993 11.798 62.0759C12.1096 62.0914 12.4522 62.0368 12.8163 61.914C15.1174 61.1372 15.5631 58.4379 15.5809 58.3233L15.5882 58.2774L12.3566 48.44C12.2756 48.1931 12.0467 48.0184 11.7872 48.0054Z" fill="#EEEFEE"/>
<path fill-rule="evenodd" clip-rule="evenodd" d="M19.9207 55.0423C17.3827 54.8742 6.8832 50.9227 3.57851 52.4758C2.19923 53.124 0.484716 54.6474 0.509118 56.7123C0.516477 57.3053 -0.0658689 59.1176 0.00617429 59.5918C0.283114 61.4229 3.29905 62.2571 3.29905 62.2571C3.29905 62.2571 4.45562 64.9362 10.3359 65.8449C15.2547 66.605 20.7699 60.7269 25.2722 60.6494L29.6692 59.8628C30.5598 59.4325 32.3615 58.8567 33.1087 58.6442L34.6142 54.6135C30.6762 53.7081 25.9669 55.3314 19.9207 55.0423Z" fill="url(#paint1_linear)"/>
<path d="M32.7878 2.90006C22.4585 2.37639 24.1866 11.9593 24.2325 14.2457C24.2786 16.5321 23.8986 16.2042 24.222 17.0763C24.5454 17.9486 24.7449 21.4481 25.4463 23.138C26.1478 24.8281 28.6461 27.7073 31.9665 27.7199C35.287 27.7321 38.1891 25.2581 38.9006 24.2264C39.6121 23.1946 40.0428 22.3066 40.2117 20.8375C40.3804 19.3683 41.7128 12.4057 41.6137 9.79239C41.5145 7.17908 41.7337 3.35304 32.7878 2.90006Z" fill="#EEEFEE"/>
<path d="M23.3602 13.7844C22.5638 14.0278 22.7292 16.5185 23.1954 17.0387C23.6615 17.5587 24.198 19.572 24.4664 19.8693C24.735 20.1666 25.8348 20.8607 26.0228 19.9482C26.2111 19.0356 25.6156 15.3881 25.6156 15.3881C25.4849 15.1687 24.1567 13.541 23.3602 13.7844Z" fill="#EEEFEE"/>
<path d="M38.7859 2.46566C37.4018 2.19163 36.9079 1.08716 35.4051 0.764706C33.9027 0.442448 30.1839 -0.264237 29.049 0.563098C27.914 1.39043 25.5693 2.58806 25.0657 3.15976C24.5622 3.73126 22.7278 7.56253 23.0371 8.80954C23.3462 10.0565 24.1801 14.7134 24.1441 15.1689C24.1081 15.6246 24.9246 14.3387 24.7075 13.8506C24.4904 13.3624 24.4303 12.1861 24.4784 11.5785C24.5264 10.9712 24.4249 9.02741 24.9445 8.25333C25.4639 7.47925 26.5389 5.77055 27.357 5.73317C28.175 5.6958 30.3117 5.85092 31.2977 5.85092C32.4099 5.85092 35.1345 5.73608 36.2991 5.73608C37.467 5.73608 39.0034 6.96855 38.7876 7.76645C38.5719 8.56454 38.9058 11.517 39.1349 11.8406C39.364 12.1644 39.7445 12.4264 39.8818 13.9147C40.019 15.4026 39.878 15.8984 39.878 15.8984L41.083 16.964C41.083 16.964 42.2864 11.2007 42.3888 10.5465C42.4913 9.89251 42.4173 7.75193 42.4005 6.62984C42.3838 5.50775 40.3335 2.77204 38.7859 2.46566Z" fill="black"/>
<path d="M42.4144 14.7504C41.6465 14.4277 40.1605 15.913 40.0083 16.1181C40.0083 16.1181 39.0473 19.6867 39.1422 20.6136C39.2371 21.5405 40.4012 20.961 40.6985 20.6924C40.996 20.4238 41.7331 18.4751 42.2494 18.0047C42.7657 17.5345 43.1822 15.073 42.4144 14.7504Z" fill="#EEEFEE"/>
<path d="M36.9527 1.099C36.9418 1.24754 36.9195 1.43986 36.8717 1.5671C36.8717 1.5671 37.1597 1.41293 36.9527 1.099Z" fill="#9A9E9F"/>
<path d="M36.9629 0.89337C36.9629 0.89337 36.9615 0.985554 36.9528 1.10621C37.1598 1.42014 36.8718 1.5743 36.8718 1.5743C36.9197 1.44707 36.942 1.25475 36.9528 1.10621C36.867 0.976258 36.6987 0.819586 36.3865 0.634055C35.3204 -2.53953e-06 33.5846 0 33.5846 0L34.1358 0.303085C36.4878 0.726823 35.7604 1.19588 35.7604 1.19588L34.1358 0.303085C33.5443 0.19657 32.7611 0.0927653 31.7186 0H30.5084C30.5084 0 32.87 0.461113 32.7267 0.634055C32.5831 0.806804 37.8849 2.39175 37.8849 2.39175C37.8849 2.39175 37.7408 1.15269 36.9629 0.89337Z" fill="black"/>
<path d="M34.1353 0.307739L35.7599 1.20053C35.7599 1.20053 36.4873 0.731477 34.1353 0.307739Z" fill="black"/>
<path d="M26.8217 1.3734C26.8217 1.3734 27.3765 1.05695 27.782 1.19349C27.782 1.19349 26.2626 1.79965 25.6729 2.38936C25.6729 2.38936 27.3568 1.70496 28.057 1.83142C28.7573 1.95807 28.9584 0.894278 28.9584 0.894278C28.9584 0.894278 27.8547 0.746705 26.8217 1.3734Z" fill="black"/>
<path d="M42.3344 6.53713C42.4796 6.66998 42.7364 7.13692 42.7364 7.13692C42.5578 5.98655 40.9884 4.43994 40.9884 4.43994C40.9884 4.43994 40.8732 6.16588 41.6259 6.79355C42.3787 7.42122 42.4451 10.1408 42.4451 10.1408C42.6961 8.75305 42.4238 7.6476 42.4238 7.6476C42.5844 7.82171 42.7647 8.4976 42.7647 8.4976C42.6144 7.19095 42.1874 6.29912 42.3344 6.53713Z" fill="black"/>
<defs>
<linearGradient id="paint0_linear" x1="34.3975" y1="39.158" x2="34.3975" y2="19.2077" gradientUnits="userSpaceOnUse">
<stop stop-color="white"/>
<stop offset="0.6" stop-color="#E0E1E0"/>
<stop offset="1" stop-color="#AEB1B1"/>
</linearGradient>
<linearGradient id="paint1_linear" x1="4.74514" y1="59.0138" x2="58.3751" y2="59.0138" gradientUnits="userSpaceOnUse">
<stop stop-color="#EEEFEE"/>
<stop offset="0.9" stop-color="#BCBEBE"/>
<stop offset="1" stop-color="#AEB1B1"/>
</linearGradient>
</defs>
</svg>
