<svg xmlns="http://www.w3.org/2000/svg" viewBox="0 0 160 160">
    <g fill="none" fill-rule="evenodd" >
        <g fill-rule="nonzero" stroke="#000">
            <g>
                <path fill="#000" d="M88.535 35.07c-.49-.21-1.82-.316-2.17-.246-.35.07-1.085-.07-1.225-.07-.14 0-.245-.035-.315-.14-.07-.105-2.345-1.75-3.045-1.82-.7-.07-1.154.036-1.644-.174s-1.365-.28-1.575-.245c-.21.035-.42.035-.77.07-.35.035-.595.07-.98.07s-.7-.07-.805.14c-.105.21-.35.454-.35.454s-.28-4.549-.14-5.074c.14-.525 0-2.064.035-2.87.035-.804-.035-1.504-.035-1.504s.245.035.42.035.595-.245.735-.49.35-.665.28-1.015c-.07-.35-.14-.385-.105-.77.035-.385-.28-.98-.42-1.47-.14-.49-.28-.77-.63-.91s-.63-.455-.875-.175l-.244.28s-.42-1.364-.595-1.924c-.175-.56-.735-1.54-1.015-1.96-.28-.42-1.225-1.435-2.31-1.855-1.084-.42-1.96-.84-2.94-.91-.979-.07-1.994-.104-2.834.21-.84.316-1.924.805-2.45 1.4-.525.595-1.4 1.925-1.54 2.345-.139.42-.314 2.065-.314 2.694 0 .63-.07 1.575.21 2.065s.665 1.085.77 1.89c.105.804.14 1.19.28 1.539l.14.35s-.105.21-.14.315c-.035.105 0 .525.14.874.14.35.525.595.735 1.26.21.665.35 1.085.595 1.085h.245s.035.245.105.595c.07.35.42.84.42.84s-.035.245-.35.175c-.315-.07-.665 0-.98-.14-.315-.14-.77-.105-.945-.035-.175.07-.49.175-.84.21s-.875.07-1.575.21c-.7.14-.77-.175-1.33-.14-.56.035-.594.21-.84.21-.244 0-.594 0-.874-.07s-.56-.315-.98-.14c-.42.174-.245.14-.7.035-.455-.105-.595-.21-.945.105s-.28.455-.665.42c-.385-.035-1.644.035-2.17.035-.524 0-1.05.105-1.329.35-.28.244-.21.35-.56.21-.35-.14-.91-.14-1.19.14-.28.28-.385.42-.84.49-.455.07-.56.07-.875 0-.314-.07-2.309-.14-3.114.034-.805.175-.98.035-1.085-.07-.105-.105-1.19-.245-1.645-.105-.455.14-.7.35-.77.455-.07.105-.804-.245-1.33-.42-.524-.175-4.619-1.505-7.313-1.505-2.695 0-5.67.805-8.12 1.295-2.449.49-2.344.63-2.938.49-.595-.14-3.115-.245-3.955-.07-.84.175-3.114.525-4.024.56-.91.035-1.925-.07-2.31-.035s-2.835.105-3.29.244c-.454.14-.595.176-.735.176s-.63.245-.98.49c-.35.244-1.084.7-2.24 1.434-1.154.735-1.504 1.4-1.504 1.575 0 .175.21.315.21.315s-.035.317-.28.456c-.245.14-.49.455-.56.665-.07.21-.14.42.105.525.245.105.455.28 1.085-.035.63-.315 1.19-.455 1.33-.56.14-.105 2.8-1.505 3.22-1.61l.42-.105s-3.185 1.75-3.57 2.135c-.385.385-.56.595-.7.805-.14.21-.07.805.035.875.105.07.7.175.84.035.14-.14.945-.56 1.12-.7.174-.14 2.939-1.47 3.36-1.47.42 0 1.294 0 1.504-.07.21-.07.7-.175.805-.245.105-.07.77 0 1.05-.035s.315 0 .665-.175c.35-.175.595-.35.595-.35s-.35.525-.63.735c-.28.21-1.05.42-1.295.49-.245.07-1.05.315-1.4.735-.35.42-.7 1.05-.735 1.575-.035.525.07 1.294.525 1.33.455.034.77-.246 1.015-.56.245-.315.56-.735.98-.875.42-.14.91-.455 1.085-.63.175-.175.805-.35 1.224-.385.42-.035 1.295-.245 2.03-.735.735-.49 1.4-1.05 1.785-1.47.385-.42.42-.525.805-.49.385.035 2.59.245 3.394.56.805.315 4.584 2.205 9.169 2.24 4.584.035 5.18-.525 6.614-.28 1.434.245 3.64.77 4.654.595l1.015-.175s.315 1.295.665 1.47c.35.174 1.434.14 1.68.244.244.105 3.254 1.365 4.374 2.135 1.12.77 3.534 1.96 4.2 2.135.664.174.769.175.769.175s.875 2.064.945 2.274c.07.21 1.995 5.81 2.38 7.35.385 1.54 1.295 6.193 2.1 7.593.804 1.4 1.82 3.395 2.134 5.04.315 1.644.105 1.47.525 2.204.42.735.595.735 1.4 2.275.804 1.54.104.595 1.33 2.8 1.224 2.204 2.064 5.003 2.274 5.948.21.946.105.56.63 1.505.525.945 1.33 2.31 1.61 3.22.28.91.35 1.05.454 1.19.105.14.175.42.175.805 0 .384.106 1.75.945 2.66.84.909 4.62 4.163 5.32 5.668.7 1.505 1.47 2.275 1.89 2.765.419.49 1.19 1.505 1.819 2.554.63 1.05 2.274 2.24 3.989 4.48 1.715 2.24 2.135 2.694 2.275 2.87.14.175.84 1.05 1.015 1.224.175.175.384.035.384.035s1.82 1.82 2.415 2.17c.595.35 1.435.77 1.645 1.295.21.525.175.735.875 1.54s1.995 1.924 2.135 2.03c.14.105.49.805.735 1.434.244.63 2.694 4.34 4.759 5.984 2.065 1.645 6.369 4.55 7.034 4.97l.665.42s.035.174 0 .28c-.035.104 0 .209.14.279.14.07 4.34 2.59 5.809 3.57l1.47.98s.07.49.14.594c.07.105.174.63.49.875.314.245 1.014 1.26 1.19 1.68.174.42.42.665.42.665l.034.21s-.175.49-.35.874c-.174.385-.49 1.54-.315 2.45.176.91.666 1.26.84 1.05.175-.21.49-.875.49-1.295 0-.42.105-1.61.14-1.995.035-.385.14-.42.14-.42s.28.175.315.805c.035.63.035.84.105 1.225.07.385.665.91.735 1.155.07.244.245.35.14.63-.105.28-.14.455-.105.63.035.174.175.21 0 .7s-.455.77 0 1.224c.455.455 2.94 1.4 4.164 1.225 1.225-.174 2.73-.07 3.465-.945.734-.874 1.4-1.89 1.154-3.044-.245-1.155-.665-3.08-1.82-4.2-1.154-1.12-1.33-1.504-1.224-2.064.105-.56-.105-4.62-.595-5.25-.49-.63-1.19-1.47-2.24-1.47-1.05 0-2.17.176-2.45-.174-.28-.35-.77-.49-1.154-.49-.385 0-.84-.105-.875 0l-.035.105s-4.34-3.535-5.039-4.69c-.7-1.154-.91-1.574-1.015-1.47-.105.106-2.1-2.554-2.52-3.324-.42-.77-2.344-3.57-4.549-5.109-2.204-1.54-3.08-3.29-3.43-4.27-.349-.979-2.204-4.968-3.009-6.088-.805-1.12-2.484-3.955-2.589-5.04-.105-1.084-.105-1.19-.105-1.19s.56-.595.805-.84c.245-.244 1.575-.98 1.4-1.504-.175-.525-.42-1.575-1.295-2.415-.875-.84-.84-1.994-.84-2.45 0-.454-.455-4.584-.7-6.684l-.245-2.1s5.075.806 6.614 1.085c1.54.28 2.135.35 2.38 0 .245-.35.35-1.12.385-1.504.035-.385-.105-1.96.77-3.36s1.26-2.135 1.26-2.135 4.304-1.574 5.598-2.379c1.295-.805 3.22-1.19 3.955-1.05.735.14 2.205.525 2.59.945.384.42 5.668 4.969 6.718 5.32 1.05.35.945.034 3.08 1.364 2.135 1.33 2.275 1.435 2.17 1.47-.105.035.035.28.035.28s.63.665 1.33 1.015c.7.35 2.484 1.33 2.87 1.574.384.245 2.169 1.295 2.344 1.75.175.455.35 1.365.525 1.855.175.49 1.645 2.624 2.415 3.359.77.735 1.714 1.33 2.274 1.365.56.035 1.715.28 2.94.105 1.225-.175 2.275-.875 3.57-.735 1.294.14 1.54.7 2.484.98.945.28.91.84 2.904.315 1.996-.525 3.675-1.82 4.55-3.5s.84-1.714.945-2.064c.105-.35.21-1.155-.385-1.75s-1.4-1.085-1.715-1.295c-.315-.21-1.854-1.05-3.464-.735-1.61.315-1.435.42-1.855.315-.42-.105-1.434-.35-1.96-.35-.525 0-.63.035-1.154-.035-.525-.07-.175.035-.805-.14-.63-.175-1.12-.245-1.435-.245-.315 0-.315-.21-.315-.21s.84-1.12 1.225-1.924c.385-.805.56-.91.455-1.12-.105-.21-.525.035-.84.35-.315.315-.665 1.155-.805 1.505-.14.35-.314.56-.525.91-.21.35-.21.35-.314.384-.105.035-.49.035-.735-.105s-1.33-.805-1.785-.665c-.455.14-1.015-.35-1.4-.525-.385-.175-.385-.314-.595-.524-.21-.21-1.75-2.345-2.415-2.975-.664-.63-2.17-2.765-2.31-2.695-.139.07-.699-.77-2.029-2.344-1.33-1.575-5.144-5.214-5.739-5.74-.595-.524-2.625-2.38-5.18-3.464-2.554-1.084-2.94-1.155-3.359-1.715-.42-.56-1.4-1.785-3.534-1.995-2.135-.21-5.705-.665-6.44-.7-.735-.034-.77-.385-.91-.314-.14.07-1.12-.14-1.364-.175-.245-.035-4.095-.175-7 .315-2.904.49-5.073 1.154-5.668 1.12-.595-.036-.77-.175-1.085-.036-.315.14-.56.525-1.015.42-.454-.104-.63-.14-1.224-.314-.595-.175-1.225-.35-1.54-.875-.315-.525-.385-.77-.28-1.015.105-.245.385-4.794-.175-7.069-.56-2.275-.455-2.485-1.19-4.794-.735-2.31-.735-2.45-.735-2.73 0-.28.175-.384.35-.384s.525 0 .735-.14c.21-.14.385-.28.385-.28s.385-.07.525-.106c.14-.035 2.17-.42 2.834-.7.665-.28 1.19-.524 1.54-.664.35-.14.91-.35 1.19-.7.28-.35 1.54-2.66 2.45-3.815.91-1.155 2.03-3.254 2.554-5.249.525-1.995 1.05-4.654 1.155-4.97.105-.314.245-.454.245-.454s.21-.14.28-.28c.07-.14.315-1.12.525-1.61.21-.49.28-.595.42-.875.14-.28.175-.175.21-.49s-.105-.245.14-.455c.244-.21.384-.174.455-.594.07-.42.105-.49.14-.665.034-.176.314-.49.314-.49s.875 1.89 1.19 2.344c.315.455.77.91 1.19 1.295.42.385 1.645 1.05 1.995 1.19.35.14 1.855.49 2.24.49.385 0 1.504.21 2.204.07.7-.14 1.435-.455 2.205-.945.77-.49 1.54-1.295 1.925-1.785s1.19-1.994 1.4-2.45c.21-.454.49-2.134.49-2.764 0-.63-.28-2.485-.7-3.22-.42-.735-1.435-2.45-2.625-3.184-1.19-.735-2.275-1.26-2.834-1.4-.56-.14-1.54-.28-1.54-.28s-.105-.21-.105-.35c0-.14-.106-.384-.351-.384s-1.435 0-1.75.105c-.315.105-1.085.21-1.575.35-.49.14-1.084.56-1.26.63-.175.07-.944.56-1.224.735-.28.175-.42.245-.56.28-.14.035-.98.385-1.12.805-.14.42-.63 1.014-.805 1.19-.175.175-.77 1.33-1.26 1.854-.49.525-.595.21-.805.84-.21.63-.665.525-.84.595-.175.07-.35.315-.525.49-.175.175-.42.63-.665.77-.245.14-.77.49-.805.945-.035.455-.035.455-.21.84-.174.385-.28.49-.49.805-.21.315-.35.49-.49.804-.14.315-.245.42-.385.665-.14.245-.455.735-.35.945.106.21-.174.735-.524 1.295-.35.56-1.47 2.38-1.925 2.8-.455.42-2.24 2.24-2.73 3.01-.49.77-1.014 1.61-1.19 2.309-.175.7-.594.63-.594.63" transform="translate(-996 -779) translate(996 779)"/>
                <path fill="#FFF" d="M117.887 139.76s-.346.895-.427 1.322c-.081.427-.264 1.159-.183 1.484.081.325 0 .508.224.346.223-.163.365-.793.345-1.627-.02-.833.041-1.525.041-1.525z" transform="translate(-996 -779) translate(996 779)"/>
            </g>
        </g>
    </g>
</svg>
