<svg xmlns="http://www.w3.org/2000/svg" viewBox="0 0 157 157">
    <g fill="none" fill-rule="evenodd" >
        <g>
            <g>
                <path d="M0 0H157V157H0z" transform="translate(-284 -770) translate(284 770)"/>
                <g fill="currentColor" fill-rule="nonzero">
                    <path d="M66.398 57.37c-.236.666-.279 1.408-.45 2.12-.246.02-.494.033-.741.033-.192 0-.384-.007-.573-.023-.127-.978-.399-1.908-1.283-2.53-2.163-1.52-9.55-1.532-11.398-4.496 1.914-.808 3.823-1.654 5-3.293 1.738-.226 3.42-.697 4.943-1.876.708-.551 1.187-1.343 2.116-1.523 1.074-.21 2.161.044 3.183-.403 1.094 2.143 1.99.83 1.99 3.955 0 2.874-1.842 5.345-2.787 8.036zm-2.559-20.573c-.991.592-.655 2.592-1.482 3.027-1.096.576-2.399.678-3.73.759 1.258-4.318 1.215-4.864 1.215-4.864.179-.377.463-.706.693-1.452.946.722 2.078 1.587 3.304 2.53zm17.587 9.761c-.059-.263-.837-.42-1.646-.617.116-.497.849.252.849-.737 0-1.064-1.677-2.967-1.877-2.967-.122 0-.307.102-.418.102 0 0-.231-1.299-1.523-1.299-.286 0-.583.048-.88.105-.044-.803-.52-1.091-1.12-1.091-.336 0-.708.089-1.065.234-.23-1.153-2.456-5.053-4.603-5.053-.993 0-1.8.44-2.475.835-2.343-1.937-4.475-3.72-5.785-4.831v-.1c0-4.798-2.464-7.735-8.02-7.735-.172 0-.338.009-.501.02-4.552-4.232-10.061-9.26-14.237-12.499C30.755 5.208 25.215.51 24.007.154c-1.213-.36-2.386.998-2.581 1.243-.197.246-1.255 1.675-.636 2.778.616 1.102 6.418 5.468 13.62 11.398 3.575 2.942 8.715 6.579 13.384 9.79-1.84 1.611-3.057 4-3.6 6.338-1.254 1.234-2.547 2.833-2.547 4.331 0 .668.097 1.364.151 2.041-4.512 1.394-9.58 4.37-14.203 15.96-.504 4.715-2.9 8.406-3.46 13.55-1.179 1.131-2.1 2.51-2.307 4.055-.865.34-1.673.76-2.311 1.376-.102 1.183-.3 3.354-.3 3.354 0 .493.132.96.266 1.43-3.151 3.118-5.305 7.136-5.305 11.662 0 3.58 1.223 7.19 3.198 10.215-.242 1.04-.351 2.092-.351 3.15 0 3.011 1.092 6.26 1.372 11.637-.4.698-.89 1.284-1.786 1.566-.605.186-1.881 1.87-2.11 2.329-7.038 6.46-6.042 12.209-10.584 20.472-.3-1.212-.35-1.582-.863-1.582-.148 0-.31.027-.467.038-.487.889-.68 1.944-.68 2.452 0 .302.03.604.03.906 0 1.003-1.242 3.866-1.242 7.335 0 .152.003.307.005.46 2.372.3 4.745.908 7.151.908.492 0 .983-.025 1.477-.084 6.107-.72 7.81-.149 10.249-2.124-.157-3.814-3.951-3.58-6.477-4.697-.19-.082-.2-.65-.396-.726-1.282-.495-1.952-1.744-2.33-2.956l.01-.025c.418-.862 1.687-1.197 1.687-1.978 0-.41-.443-.603-.65-.916 3.883-4.389 7.896-7.065 11.667-12.664 1.5-.347.667.627 2.458-2.133 8.968-5.132 6.023-10.213 9.438-18.804 1.387.647 2.772 1.303 4.134 2.07.133.131.263.33.331.33 2.517 1.192 3.703 3.78 6.027 5.363 2.046 1.398 4.248 1.7 6.29 3.111 1.31.908 1.318 2.737 2.77 3.496-2.174 2.862-3.534 6.3-3.534 9.91 0 2.698.934 5.34 1.68 8.283-.14 2.617-.44 5.212-1.235 7.723-.16-.874-.457-1.719-.81-2.531l-.066.33c-.023-.01-.05-.017-.084-.017-.298 0-.684.538-.916.922.01.644.042 1.28.042 1.916 0 3.743-2.223 6.646-2.223 10.224 0 .264.012.528.04.791 2.687 1.655 6.516 2.472 21.534 2.472 2.265 0 4.348-.89 6.364-1.93.133-.393.214-.79.214-1.194 0-3.621-5.148-3.493-7.158-4.513-2.301-1.163-3.907-3.044-5.76-4.897-.267-.263-1.093.011-1.193-.397-.306-1.221-.095-2.638-1.01-3.449 1.48-6.453 4.84-12.552 5.046-18.066.003-.106.018-.204.034-.303 1.04-1.172 2.046-2.675 2.046-6.142 0-3.292-1.29-4.937-2.032-6.115-2.679-3.144-4.604-7.462-11.764-15.315-6.517-7.146-9.675-7.847-10.375-9.422.353.084.557.146.557.146 1.196 0 1.396-1.01 1.396-2.03 0-.546-.06-1.092-.06-1.635 0-.623.078-1.235.405-1.823 2.445-4.403.032 1.784 5.602-12.313 2.468.585 4.61 1.554 5.301 1.861.572-.693 1.188-1.162 1.773-1.777 1.524.193 2.583.336 2.583.336.266 0 .523-.03.781-.03 1.394 0 2.178 1.067 3.356 1.265 3.695.615 5.319 1.273 5.319 1.273.969 0 1.845-3.996 2.324-5.777.867-1.308 1.678-2.525 1.678-6.618 0-1.184-.047-2.364-.047-3.547 0-.53.042-2.206.183-3.27 1.516-1.233 2.177-1.989 3.32-2.276.33.673.62 1.276.867 1.276.403.002 1.484-1.593 1.484-1.593s1.32-1.409 1.228-1.799z" transform="translate(-284 -770) translate(284 770) translate(37.68)"/>
                </g>
            </g>
        </g>
    </g>
</svg>
