<svg viewBox="0 0 100 100" version="1.1" xmlns="http://www.w3.org/2000/svg" xmlns:xlink="http://www.w3.org/1999/xlink">
    <title>Sport/Player/Ice hockey</title>
    <g id="Sport/Player/Ice-hockey" stroke="none" stroke-width="1" fill="none" fill-rule="evenodd">
        <g id="AdobeStock_203878424" transform="translate(3.000000, 0.000000)" fill="#000000">
            <path d="M22.975891,11.9287212 C22.975891,11.9287212 22.6037736,8.21174004 24.0366876,5.71698113 C25.4706499,3.22222222 27.6205451,2.10587002 28.6027254,1.80083857 C29.5859539,1.49580713 31.7085954,0.765199161 33.4077568,1.18972746 C35.1069182,1.61530398 36.8322851,3.36687631 37.2033543,4.42872117 C37.5754717,5.49056604 37.754717,6.59853249 37.754717,6.59853249 C37.754717,6.59853249 38.1865828,6.58490566 40.0974843,5.17924528 C42.009434,3.77148847 42.7264151,2.73689727 44.557652,1.54192872 C46.3888889,0.346960168 47.21174,0.0691823899 48.4737945,0.107966457 C49.7337526,0.147798742 58.4549266,0.109014675 60.3930818,0.348008386 C62.3301887,0.587002096 64.4140461,1.14360587 66.2190776,1.46226415 C68.0230608,1.78092243 68.9402516,2.36582809 69.7631027,2.61740042 C70.5859539,2.87002096 71.6215933,2.69811321 72.245283,2.97589099 C72.8689727,3.2557652 73.1341719,3.89308176 73.1341719,3.89308176 C73.1341719,3.89308176 73.3218029,4.1163522 73.4538784,5.00628931 C73.5870021,5.89622642 74.1037736,6.51991614 74.7410901,7.82075472 C75.3784067,9.12159329 76.0974843,10.7945493 76.3354298,12.2809224 C76.5744235,13.7672956 76.548218,15.1740042 76.548218,15.1740042 C76.548218,15.1740042 78.8710692,15.0943396 79.3752621,15.3731656 C79.8805031,15.6509434 79.9601677,16.1561845 79.9863732,16.8060797 C80.0125786,17.4570231 79.7735849,19.7526205 79.7735849,19.7526205 C79.7735849,19.7526205 79.6278826,20.78826 79.4161426,21.172956 C79.2044025,21.5587002 79.0974843,21.6771488 79.0974843,21.6771488 C79.0974843,21.6771488 80.836478,23.8679245 81.3406709,25.2746331 C81.8448637,26.6813417 81.7253669,27.9685535 81.5796646,28.2746331 C81.4339623,28.5796646 81.115304,28.951782 80.7568134,29.0440252 C80.3983229,29.1373166 80.2662474,29.1373166 80.2662474,29.1373166 C80.2662474,29.1373166 80.0796646,29.5356394 79.5618449,30.0534591 C79.0440252,30.5712788 78.6991614,30.6373166 78.6991614,30.6373166 C78.6991614,30.6373166 78.3805031,31.5125786 78.1551363,31.8186583 C77.9297694,32.1236897 77.3322851,32.5083857 77.3322851,32.5083857 C77.3322851,32.5083857 77.2264151,33.1467505 76.5618449,33.7044025 C75.8983229,34.2610063 75.1551363,34.4727463 75.0230608,34.2610063 C74.8899371,34.0492662 75.1027254,32.9863732 75.0765199,32.8008386 C75.0492662,32.615304 74.8501048,32.442348 74.7578616,32.7348008 C74.6645702,33.0272537 74.5849057,33.9297694 74.3459119,34.0880503 C74.1069182,34.2473795 73.4035639,34.5398323 73.4035639,34.5398323 C73.4035639,34.5398323 76.9067086,39.4507338 78.4454927,42.5303983 C79.9853249,45.6090147 81.4853249,49.8574423 81.6446541,51.1572327 C81.8039832,52.4591195 81.9109015,53.5995807 81.9109015,53.5995807 C81.9109015,53.5995807 83.8207547,54.4496855 84.3522013,55.2463312 C84.8825996,56.0429769 84.7505241,56.1750524 85.1226415,57.3165618 C85.4937107,58.4580713 86.9800839,59.8249476 87.802935,61.7631027 C88.6257862,63.7002096 88.9968553,66.5408805 88.9968553,67.2840671 C88.9968553,68.0272537 89.5807128,68.7169811 89.8186583,69.7264151 C90.0587002,70.7348008 89.6341719,71.7180294 89.6341719,71.7180294 C89.6341719,71.7180294 91.0136268,74.3459119 91.5450734,75.4339623 C92.0754717,76.5220126 93.548218,79.129979 93.9727463,80.7232704 C94.3983229,82.3165618 94.3071279,83.6698113 93.5220126,84.4129979 C92.7368973,85.1561845 91.0125786,85.0492662 90.4287212,84.6645702 C89.8438155,84.2798742 88.860587,83.3888889 88.4622642,82.778826 C88.0639413,82.1677149 86.4706499,79.4874214 86.0062893,78.5314465 C85.5419287,77.5765199 84.3469602,75.6907757 83.6834382,74.9748428 C83.0199161,74.2578616 82.7536688,73.3542977 82.7536688,73.3542977 C82.7536688,73.3542977 81.6918239,71.9737945 81.6121593,71.6289308 L81.5324948,71.2840671 C81.5324948,71.2840671 79.4884696,69.3459119 78.6383648,67.8857442 C77.7893082,66.4255765 77.3909853,65.7358491 77.072327,65.3113208 C76.7536688,64.8867925 75.8238994,64.1425577 74.9748428,63.5062893 C74.1257862,62.8689727 73.7002096,62.2840671 73.2222222,61.3553459 C72.7442348,60.4255765 72.4779874,59.6037736 71.6561845,58.860587 C70.8333333,58.1163522 69.5324948,57.5062893 68.6027254,56.8689727 C67.6740042,56.2316562 67.3155136,55.3417191 67.0492662,54.7976939 C66.7840671,54.2536688 66.7840671,53.3238994 66.7840671,53.3238994 C66.7840671,53.3238994 65.269392,52.9255765 64.1802935,51.8102725 C63.0922432,50.6949686 60.0932914,48.1467505 60.0932914,48.1467505 L55.6603774,53.1373166 C55.6603774,53.1373166 57.1194969,54.1205451 57.6236897,54.6771488 C58.1278826,55.2348008 57.9958071,56.4821803 57.7295597,56.7746331 C57.4643606,57.0660377 57.1991614,57.1184486 57.1991614,57.1184486 C57.1991614,57.1184486 57.0262055,57.6498952 56.6142558,58.0618449 C56.2033543,58.4727463 55.5398323,58.7914046 55.5398323,58.7914046 C55.5398323,58.7914046 55.048218,59.4549266 54.5702306,59.8794549 C54.0922432,60.3039832 53.269392,60.5702306 53.0566038,60.5167715 C52.8448637,60.4633124 53.7599581,61.3134172 53.7997904,61.8836478 C53.8396226,62.4549266 52.2190776,63.2777778 51.5681342,63.1708595 C50.918239,63.0649895 48.8867925,61.5387841 48.8867925,61.5387841 L47.7316562,62.706499 C47.7316562,62.706499 50.1719078,65.812369 50.8092243,67.6184486 C51.4465409,69.4234801 51.2872117,70.2190776 51.6582809,71.7054507 C52.0303983,73.1928721 53.1457023,74.9979036 53.1457023,74.9979036 C53.1457023,74.9979036 53.6215933,73.5901468 54.3113208,73.2987421 C55.0020964,73.0062893 55.5859539,72.9800839 55.7987421,73.4580713 C56.0115304,73.9350105 55.745283,75.8207547 56.1698113,77.1477987 C56.5953878,78.4748428 58.0272537,82.5104822 58.1079665,83.1205451 C58.1865828,83.7316562 58.1603774,84.1027254 58.1603774,84.1027254 C58.1603774,84.1027254 59.0083857,85.1519916 59.1278826,85.8144654 C59.2473795,86.4790356 58.9654088,86.9171908 58.5010482,87.3155136 C58.0366876,87.7127883 55.4874214,88.0712788 55.4874214,88.0712788 L56.9737945,90.9119497 L59.3899371,90.672956 C59.3899371,90.672956 60.0660377,92.1457023 59.0838574,92.7830189 C58.1016771,93.4192872 41.9350105,93.6320755 41.5901468,93.5262055 C41.245283,93.4203354 40.7924528,92.8752621 40.990566,91.7872117 C41.1907757,90.6991614 41.5356394,90.7914046 41.7484277,90.4203354 C41.9601677,90.048218 41.9067086,89.7840671 41.9067086,89.7840671 L40.5524109,89.8228512 C40.5524109,89.8228512 40.2463312,88.4696017 40.4716981,87.7253669 C40.6981132,86.9832285 40.9821803,86.7704403 41.6446541,86.5712788 C42.3092243,86.3721174 41.990566,86.6111111 43.0262055,86.1593291 C44.0607966,85.7075472 46.1582809,84.7389937 47.3522013,83.6498952 C48.5471698,82.5618449 48.8658281,81.7662474 48.8658281,81.7662474 C48.8658281,81.7662474 46.475891,81.7924528 46.1037736,81.4737945 C45.7327044,81.1551363 45.3071279,79.827044 44.4318658,78.8448637 C43.5555556,77.8637317 41.8825996,75.7400419 41.2987421,74.8375262 C40.7148847,73.9350105 39.7054507,72.1289308 39.7054507,72.1289308 C39.7054507,72.1289308 22.9811321,91.5073375 21.8134172,93.312369 C20.6457023,95.1174004 19.2631027,97.2672956 17.591195,98.0628931 C15.918239,98.8595388 5.59224319,100.45283 3.1509434,99.629979 C0.708595388,98.8071279 0.336477987,97.9570231 0.150943396,97.0807128 C-0.034591195,96.2054507 0.362683438,95.0765199 1.03983229,94.6918239 C1.71698113,94.3060797 2.95073375,94.1603774 3.40251572,94.2138365 C3.85324948,94.2662474 5.26100629,94.8773585 6.53459119,94.9171908 C7.80922432,94.9570231 12.0555556,94.8092243 14.0733753,94.5178197 C16.091195,94.2253669 17.8165618,93.4821803 18.9318658,92.8721174 C20.0461216,92.2610063 38.548218,70.3081761 38.548218,70.3081761 C38.548218,70.3081761 37.5251572,68.4496855 37.2201258,67.6540881 C36.9150943,66.8563941 36.6897275,65.8616352 36.6897275,65.8616352 L35.5607966,65.7557652 C35.5607966,65.7557652 35.721174,65.1719078 34.9234801,63.7106918 C34.1278826,62.2515723 33.1111111,60.6446541 32.8721174,58.9989518 C32.6331237,57.3532495 33.2442348,55.5744235 33.2442348,55.5744235 C33.2442348,55.5744235 33.5345912,52.1498952 34.1719078,49.4947589 C34.8092243,46.8406709 37.3039832,42.9392034 37.3039832,42.9392034 C37.3039832,42.9392034 36.9591195,41.6100629 36.2159329,41.451782 C35.4727463,41.2914046 35.0733753,41.3983229 34.5167715,40.7085954 C33.9591195,40.0178197 30.827044,36.3280922 29.6582809,35.1331237 C28.490566,33.9392034 27.0293501,32.9559748 26.4989518,30.6205451 C25.9675052,28.2840671 26.4979036,26.1069182 26.870021,24.1425577 C27.2410901,22.1781971 29.072327,18.3553459 29.2589099,17.9046122 C29.4444444,17.4538784 29.2976939,17.1740042 28.9528302,16.8951782 C28.6079665,16.6163522 27.8102725,16.8228512 27.4255765,16.6100629 C27.0408805,16.3983229 26.4559748,15.6415094 26.4559748,15.6415094 L25.0209644,15.7672956 C23.5157233,15.5985325 22.6184486,13.4287212 22.5503145,12.163522 L22.975891,11.9287212 Z M53.6928721,88.5293501 C53.6928721,88.5293501 54.9675052,90.5859539 54.9140461,90.9046122 C54.860587,91.2232704 46.1530398,91.6352201 46.1530398,91.6352201 C46.1530398,91.6352201 45.9800839,91.091195 46.0995807,90.8784067 C46.2190776,90.6656184 47.0953878,90.5471698 48.1436059,90.3343816 C49.1928721,90.1215933 50.0943396,89.5115304 50.5324948,89.1928721 C50.9706499,88.8742138 52.3773585,88.5419287 52.7494759,88.4821803 C53.1215933,88.4224319 53.6928721,88.5293501 53.6928721,88.5293501 Z M45.1174004,90.851153 L45.197065,91.7798742 L41.5995807,91.8595388 C41.5995807,91.8595388 41.6132075,91.3291339 42.1446541,91.0639413 C42.6750524,90.7987421 45.1174004,90.851153 45.1174004,90.851153 Z M47.4559748,59.7410901 L45.572327,61.8920335 C45.572327,61.8920335 45.067086,60.8836478 45.172956,60.2987421 C45.2798742,59.7148847 45.9696017,59.091195 46.1949686,58.9318658 C46.4213836,58.7725367 46.9255765,58.6802935 46.9255765,58.6802935 C46.9255765,58.6802935 47.0314465,58.9056604 47.1771488,59.197065 C47.3228512,59.4895178 47.4559748,59.7410901 47.4559748,59.7410901 Z M55.3805031,50.3312369 C55.3805031,50.3312369 54.730608,50.3972746 54.3983229,50.6498952 C54.067086,50.9025157 53.6813417,51.5125786 53.6813417,51.5125786 L54.172956,51.7914046 L55.3805031,50.3312369 Z M58.1446541,13.3312369 C58.1446541,13.3312369 63.8773585,18.5880503 64.6740042,20.3930818 C65.4706499,22.1981132 65.2578616,23.1006289 65.8951782,24.2683438 C66.5324948,25.4360587 67.7274633,27.533543 68.3113208,28.5953878 C68.8951782,29.6572327 70.4350105,31.8878407 70.4350105,31.8878407 L71.2316562,30.9853249 C71.2316562,30.9853249 70.6740042,30.1897275 70.4612159,29.8710692 C70.2494759,29.5524109 70.2222222,29.048218 70.2222222,29.048218 L69.4528302,28.3574423 C69.4528302,28.3574423 69.5849057,25.3584906 69.2138365,24.1111111 C68.8417191,22.8626834 68.5492662,21.4559748 68.7631027,20.7924528 C68.9748428,20.1289308 69.4790356,19.8102725 69.4790356,19.8102725 C69.4790356,19.8102725 68.9213836,18.509434 69.0272537,17.6603774 C69.1341719,16.8102725 69.5052411,16.4926625 69.5052411,16.4926625 C69.5052411,16.4926625 68.3773585,15.6687631 68.1247379,15.0052411 C67.8731656,14.3417191 67.793501,13.4790356 67.4412998,13.2002096 C67.0890985,12.9213836 66.5985325,13.4454927 66.2389937,13.8312369 C65.8815514,14.2159329 64.9790356,14.2557652 64.3542977,14.2557652 C63.730608,14.2557652 58.1446541,13.3312369 58.1446541,13.3312369 Z" id="Shape"></path>
        </g>
    </g>
</svg>
