<svg xmlns="http://www.w3.org/2000/svg" xmlns:xlink="http://www.w3.org/1999/xlink" viewBox="0 0 20 20">
    <defs>
        <path id="o8uz6rpfea" d="M8.745 4.667c2.04 0 3.818 1.113 4.74 2.758-.09.065-.17.143-.238.233l-.938 1.232c-.48-1.49-1.896-2.574-3.564-2.574-2.061 0-3.738 1.653-3.738 3.684s1.677 3.684 3.738 3.684c1.668 0 3.085-1.083 3.564-2.574l.938 1.232c.068.09.148.168.237.233-.921 1.645-2.698 2.758-4.74 2.758-2.988 0-5.41-2.387-5.41-5.333s2.422-5.333 5.41-5.333zm0 2.42c1.498 0 2.739 1.103 2.93 2.528h-.904c-.183-.938-1.022-1.65-2.026-1.65-1.138 0-2.064.913-2.064 2.035s.926 2.034 2.064 2.034c1.004 0 1.843-.71 2.026-1.649h.905c-.192 1.425-1.433 2.529-2.931 2.529-1.63 0-2.957-1.307-2.957-2.914 0-1.607 1.327-2.914 2.957-2.914zm7.531.879c.148 0 .283.082.35.212.066.13.051.287-.037.404L15.509 10l1.08 1.418c.088.117.103.273.036.404-.066.13-.201.212-.349.212h-2.092c-.123 0-.239-.057-.312-.154l-1.256-1.649c-.104-.137-.104-.325 0-.462l1.256-1.65c.073-.096.19-.153.312-.153zm-7.531.77c.571 0 1.056.37 1.222.879H8.745c-.216 0-.39.172-.39.385 0 .213.174.385.39.385h1.222c-.166.51-.65.88-1.222.88-.708 0-1.283-.568-1.283-1.265s.575-1.264 1.283-1.264z"/>
    </defs>
    <g fill="none" fill-rule="evenodd">
        <g>
            <g>
                <g>
                    <g>
                        <g transform="translate(-40 -648) translate(20 20) translate(0 508) translate(0 100) translate(20 20)">
                            <mask id="rpof7ej7sb" fill="#fff">
                                <use xlink:href="#o8uz6rpfea"/>
                            </mask>
                            <use fill="#000" fill-rule="nonzero" xlink:href="#o8uz6rpfea"/>
                            <g fill="currentColor" mask="url(#rpof7ej7sb)">
                                <path d="M0 0H20V20H0z"/>
                            </g>
                        </g>
                    </g>
                </g>
            </g>
        </g>
    </g>
</svg>
