<svg viewBox="0 0 100 100" version="1.1" xmlns="http://www.w3.org/2000/svg" xmlns:xlink="http://www.w3.org/1999/xlink">
    <title>Sports/Resources/Courts/Baseball</title>
    <defs>
        <path d="M85.3515625,14.6441406 C75.9082031,5.20058594 63.3525391,-1.84741111e-13 49.9978516,-1.84741111e-13 C36.6429687,-1.84741111e-13 24.0873047,5.20058594 14.6441406,14.6441406 C5.20058594,24.0873047 -1.84741111e-13,36.6427734 -1.84741111e-13,49.9978516 C-1.84741111e-13,63.3529297 5.20058594,75.9082031 14.6441406,85.3515625 C24.0875,94.7949219 36.6431641,99.9957031 49.9980469,99.9957031 C63.3525391,99.9957031 75.9082031,94.7949219 85.3515625,85.3515625 C94.7951172,75.9082031 99.9957031,63.3527344 99.9957031,49.9978516 C99.9957031,36.6429687 94.7951172,24.0873047 85.3515625,14.6441406 Z M18.7871094,18.7871094 C25.8105469,11.7636719 34.7841797,7.39921875 44.4867187,6.19824219 C45.2330078,8.16113281 45.7625,10.1857422 46.0757812,12.2433594 L42.7939453,12.4154297 L43.1005859,18.2667969 L46.3796875,18.0949219 C46.3222656,19.3054687 46.1947266,20.5179687 45.9884766,21.7271484 C45.8242187,22.6902344 45.6087891,23.6376953 45.3539062,24.5708984 L42.2880859,23.3941406 L40.1884766,28.8644531 L43.2560547,30.0419922 C42.2755859,31.9900391 41.0769531,33.8289062 39.6753906,35.5326172 L37.3609375,33.2181641 L33.2177734,37.3613281 L35.5320312,39.6755859 C33.8285156,41.0765625 31.9894531,42.2746094 30.0410156,43.2546875 L28.8640625,40.1886719 L23.39375,42.2884766 L24.5693359,45.3511719 C23.6367187,45.6056641 22.6900391,45.8207031 21.7275391,45.9847656 C20.5179687,46.1910156 19.3054687,46.3185547 18.0947266,46.3759766 L18.2664062,43.1005859 L12.4150391,42.7939453 L12.2431641,46.0730469 C10.1853516,45.7601562 8.1609375,45.2314453 6.19804687,44.4859375 C7.39960937,34.7835937 11.7640625,25.8103516 18.7871094,18.7871094 Z M5.86640625,50.5759766 C7.85117187,51.2138672 9.88007812,51.6759766 11.9353516,51.9541016 L11.7507812,55.4761719 L17.6021484,55.7828125 L17.7871094,52.2541016 C19.4277344,52.2029297 21.0728516,52.0404297 22.7125,51.7609375 C24.059375,51.5314453 25.3833984,51.2265625 26.6804687,50.8496094 L27.9453125,54.1447266 L33.415625,52.0449219 L32.1515625,48.7519531 C34.8513672,47.45 37.3828125,45.8039062 39.6953125,43.8384766 L42.1982422,46.3414062 L46.3414062,42.1982422 L43.8386719,39.6955078 C45.8044922,37.3828125 47.4513672,34.8513672 48.7537109,32.1523437 L52.0453125,33.4158203 L54.1449219,27.9455078 L50.8527344,26.6818359 C51.2300781,25.3841797 51.5351562,24.0597656 51.7648437,22.7125 C52.0445312,21.0726562 52.2078125,19.4277344 52.2587891,17.7871094 L55.7830078,17.6023437 L55.4763672,11.7509766 L51.9566406,11.9353516 C51.678125,9.88027344 51.2177734,7.85097656 50.5794922,5.86640625 C62.1515625,6.01484375 73.0091797,10.5878906 81.2085937,18.7871094 C89.4078125,26.9865234 93.9808594,37.8441406 94.1292969,49.4164062 C92.1449219,48.7779297 90.115625,48.3177734 88.0607422,48.0392578 L88.2451172,44.5197266 L82.39375,44.2132812 L82.2091797,47.7373047 C80.5685547,47.7882812 78.9236328,47.9515625 77.2837891,48.23125 C75.9365234,48.4609375 74.6121094,48.7662109 73.3144531,49.1435547 L72.0507812,45.8513672 L66.5804687,47.9511719 L67.8439453,51.2425781 C65.1447266,52.5449219 62.6134766,54.1916016 60.3007812,56.1576172 L57.7980469,53.6546875 L53.6548828,57.7978516 L56.1578125,60.3007812 C54.1923828,62.6132812 52.5462891,65.1447266 51.2443359,67.8445312 L47.9511719,66.5804687 L45.8515625,72.0507812 L49.1466797,73.315625 C48.7697266,74.6126953 48.4648437,75.9367187 48.2353516,77.2835937 C47.9558594,78.9234375 47.7925781,80.5681641 47.7416016,82.2087891 L44.2134766,82.39375 L44.5201172,88.2451172 L48.0429687,88.0605469 C48.3210937,90.1154297 48.7808594,92.1447266 49.4185547,94.1292969 C37.8455078,93.98125 26.9873047,89.4082031 18.7875,81.2085937 C10.5871094,73.0082031 6.0140625,62.1494141 5.86640625,50.5759766 Z M81.2083984,81.2083984 C74.1853516,88.2314453 65.2119141,92.5958984 55.5097656,93.7970703 C54.7644531,91.8341797 54.2359375,89.8097656 53.9230469,87.7521484 L57.2019531,87.5802734 L56.8953125,81.7289062 L53.6201172,81.9005859 C53.6775391,80.6900391 53.8050781,79.4773437 54.0111328,78.2679687 C54.1751953,77.3054687 54.3902344,76.3585937 54.6447266,75.4259766 L57.7074219,76.6015625 L59.8070312,71.13125 L56.7410156,69.9542969 C57.7210937,68.0056641 58.9191406,66.1666016 60.3201172,64.4630859 L62.634375,66.7773437 L66.7775391,62.6341797 L64.4630859,60.3197266 C66.1667969,58.9181641 68.0056641,57.7195312 69.9537109,56.7390625 L71.13125,59.8066406 L76.6015625,57.7068359 L75.4248047,54.6412109 C76.3580078,54.3863281 77.3054687,54.1708984 78.2683594,54.0066406 C79.4777344,53.8003906 80.6902344,53.6728516 81.9007812,53.6154297 L81.7289062,56.8947266 L87.5802734,57.2011719 L87.7521484,53.9191406 C89.8097656,54.2326172 91.8339844,54.7619141 93.796875,55.5082031 C92.5962891,65.2115234 88.2318359,74.1851562 81.2083984,81.2083984 L81.2083984,81.2083984 Z" id="path-1"></path>
    </defs>
    <g id="Sports/Resources/Courts/Baseball" stroke="none" stroke-width="1" fill="none" fill-rule="evenodd">
        <mask id="mask-2" fill="white">
            <use xlink:href="#path-1"></use>
        </mask>
        <use id="Shape" fill="#000000" fill-rule="nonzero" xlink:href="#path-1"></use>
        <g id="Group" mask="url(#mask-2)" fill="#000000">
            <g id="Colour/Black">
                <rect id="Rectangle" x="0" y="0" width="100" height="100"></rect>
            </g>
        </g>
    </g>
</svg>
