
<svg viewBox="0 0 100 100" version="1.1" xmlns="http://www.w3.org/2000/svg" xmlns:xlink="http://www.w3.org/1999/xlink">
    <title>Sport/Player/Badminton</title>
    <g id="Sport/Player/Badminton" stroke="none" stroke-width="1" fill="none" fill-rule="evenodd">
        <g id="Group-2">
            <rect id="Rectangle" x="0" y="0" width="100" height="100"></rect>
            <path d="M55.1907425,13.5343609 C56.8586269,11.4255645 59.0558717,8.31989466 62.0591276,8.85324525 C63.0480208,9.028147 64.0774805,9.26090598 64.9945509,9.53223646 C66.1097989,9.86275421 67.1179778,10.3136416 68.2584969,10.6581249 C70.5135989,11.3391112 72.6356958,12.6538669 74.9852315,12.6751478 C75.1960446,12.6771428 75.7806022,12.7303449 75.9501837,12.576724 C76.0053809,12.526847 76.0173513,12.1644081 76.0772036,12.0726345 C76.37181,11.619087 77.1984369,11.4029537 77.6958761,11.3012047 C78.3263205,11.1728548 78.910213,11.2200716 79.3990069,11.6616486 C79.8139829,12.0373881 80.1844022,12.1770435 80.672531,12.4709849 C81.1719653,12.7729065 81.5749708,13.1945328 81.8822127,13.6879819 C82.1774841,14.1641402 82.1129766,14.5332295 82.2080753,15.0339938 C82.2925335,15.4769009 82.3071641,15.7242905 82.2280261,16.1625424 C82.2027551,16.2995377 82.2060802,16.594144 82.1648486,16.7038733 C82.0052425,17.1221744 81.8243555,17.3755492 81.7884441,17.8743184 C81.7206115,18.8326204 82.0497992,19.9891001 82.2253659,20.8915399 C82.4454894,22.0254087 82.9808351,23.2550411 83.4942349,24.3217423 C84.8728331,27.189333 86.2062096,30.0782045 87.5615319,32.9564356 C87.5615319,33.0069775 89.4641703,32.888603 89.4694906,32.888603 C90.3526446,32.8965833 90.9817589,32.9544405 91.6900113,33.4438994 C93.030703,34.3716102 93.7921574,35.4629173 94.5542768,36.8475008 C95.9255597,39.3426771 96.760832,42.1191592 96.7501916,45.0007154 C96.8060537,46.2356681 96.2055355,47.8210893 95.232603,48.6437261 C94.0614928,49.6346143 92.7055055,49.5554763 91.3561684,49.0986036 C89.9296883,48.617125 88.9082089,48.098405 87.9698577,46.8388464 C87.019536,45.5633272 86.1184262,44.2665271 85.412169,42.8347268 C84.40266,40.7897729 83.3113529,38.1994979 84.3840393,35.9596915 C84.66335,35.376464 85.1481538,34.7779409 85.6283023,34.3237283 C85.7952237,34.1654522 86.0964804,33.9852303 86.2201751,33.7877177 C86.4363085,33.4432344 86.2454461,33.4425693 86.1982293,33.1845394 C85.9681304,31.9243157 85.0557152,30.5882792 84.5083991,29.417169 C83.8167724,27.9348267 83.1317959,26.4498244 82.4135682,24.9801177 C81.8862029,23.899451 81.3508572,22.4324044 80.6299694,21.5492503 C80.3028401,21.1484931 79.9977652,20.7187448 79.6940098,20.28346 L79.3288097,19.7599618 C78.4719611,18.5392702 77.5604326,17.3487265 76.139051,16.7032082 C74.014294,15.738256 71.4871965,15.635842 69.2008382,15.3665066 C68.2239155,15.2514572 67.1751701,15.0599298 66.1816217,14.883698 C65.2658814,14.7220968 64.0029976,14.1521698 63.0407055,14.2778596 C61.7725015,14.442121 61.0689044,15.3804722 60.7789532,16.5588977 C60.5548395,17.4666577 60.2768588,18.4209695 59.9476711,19.3041236 C59.4681876,20.5869581 58.806487,21.6376987 58.0982347,22.8354099 C57.8069535,23.328859 57.1292923,24.3363729 57.3381104,24.9395511 C57.6466823,24.7992307 58.0483578,23.8874805 58.2312398,23.5709283 C58.5058954,23.0907798 58.7758959,22.7815428 59.1243693,22.3486111 C60.0128436,21.2426735 61.0722295,20.1526964 62.1016892,19.1771037 C63.8533668,17.5165346 66.4582724,17.3735541 68.3303196,18.9124235 C69.6450754,19.9924252 70.2030319,21.568536 70.3426873,23.1792282 C70.4251505,24.1262247 70.3400272,25.3485419 69.8871447,26.1339372 C69.3537941,27.059653 68.6914286,27.9301716 68.1806889,28.8904686 C67.7417719,29.7131054 67.4351951,30.4200277 66.5128045,30.6640921 C65.7347245,30.86892 64.8874818,30.7033286 64.1227022,30.9606935 C63.1983166,31.2705955 62.406271,32.113848 62.0611227,33.0176179 C61.7884621,33.7318555 61.4532892,34.4587286 61.4007522,35.2388037 C61.3748162,35.6205284 61.4606045,36.0215389 61.5344223,36.3932882 C61.5942746,36.6925498 61.7698414,36.8122544 61.8569598,37.010432 C62.018561,37.3781912 61.9972802,37.8563447 62.1342755,38.2553601 C62.4202365,39.0906323 62.8618136,39.9352149 63.0313951,40.7645019 C63.2262476,41.7214739 63.1424544,42.7921652 62.6370349,43.6400729 C62.095704,44.5465029 61.1872789,45.2447799 60.5614898,46.103328 C59.8625478,47.0642901 59.3571283,48.1276661 58.7153785,49.1218795 C58.1235057,50.0382849 57.3500808,50.8203551 56.5500549,51.5545434 C56.420565,51.673298 56.2889442,51.7903154 56.1561193,51.9064157 L55.3521363,52.5985736 C54.8164009,53.0614237 54.2910578,53.5358449 53.8354202,54.0743257 C53.2674882,54.7453366 52.3982997,55.403712 51.4852195,55.5180964 C52.6323887,57.1361038 53.7689176,58.772067 55.1029591,60.2444338 C56.4762371,61.7586973 58.0244169,63.1166797 59.4435816,64.5890465 C60.1731148,65.3458457 60.9664904,66.1066351 61.5896195,66.9552078 C62.148906,67.7159972 62.3949655,68.6476982 62.9369615,69.4138077 C63.3758784,70.0342767 63.9763966,70.4951395 64.6307818,70.8702139 C65.0091814,71.0863473 65.4068668,71.260584 65.8032221,71.4401409 C65.8045521,71.440806 66.3492082,71.6609295 66.2953411,71.6609295 L66.2953411,71.6609295 L66.9112764,71.8822769 C69.064909,72.6559072 71.1776126,73.4520749 72.6682821,75.3398515 C73.6006481,76.5222671 74.5542949,77.6701014 75.5957251,78.7600785 C76.5999138,79.8114841 77.4817379,80.9147616 78.4340546,82.0034087 C78.8736366,82.504173 79.402332,82.8998633 80.0992789,82.8067597 C80.5042795,82.7522276 80.9245757,82.6957004 81.3841085,82.8998633 C82.4880511,83.3913172 83.3093578,84.5145456 83.8373882,85.5380201 C84.1353197,86.1132673 84.0834477,86.7696476 84.3720688,87.2996731 C84.5815519,87.6833929 84.8229562,87.8084177 85.0597053,88.1861523 C85.6489181,89.1238385 86.4117025,90.1665987 86.891186,91.2033738 C87.3966055,92.2933508 87.9239709,93.3706924 87.9439217,94.6216057 C87.9652025,95.9177407 87.1691668,97.1214372 85.7566522,97.117447 C83.2475104,97.1114618 82.0644297,93.9279839 80.751004,92.3518731 C80.3526537,91.8743847 80.1365203,91.4148519 79.7102389,90.9566492 C79.2580214,90.4705155 78.807134,89.9571157 78.3815176,89.4676568 C77.4631171,88.4102659 76.474889,87.4606093 75.6622276,86.3047947 C74.8495663,85.1489801 74.2171269,84.0350621 73.0333812,83.2064401 C71.8842168,82.401094 70.5767763,81.8078911 69.3172177,81.1993926 C67.9053682,80.5177413 66.4842084,79.8467304 65.1621374,78.9994877 C63.9198694,78.203452 62.9914936,77.1567016 61.8749155,76.2196804 C60.9192736,75.4176595 59.6377691,75.3910584 58.5777182,74.8530527 C57.2017801,74.1541107 56.0752266,73.3401193 54.894141,72.3392556 C53.7941886,71.4075547 52.6809356,70.482504 51.4612785,69.7084141 C50.8840363,69.341985 50.2762028,68.9476247 49.5972116,68.8086344 C49.0252895,68.6915899 48.4467172,68.7048904 47.872135,68.5705552 C45.1601603,67.9387808 43.6778181,65.2593924 41.2318537,64.0510407 C40.1053002,63.4937492 38.4766524,63.8089714 37.3155175,64.187371 C35.9003429,64.6475688 34.7172623,65.7402059 33.5148959,66.5847885 C32.7813725,67.0995184 32.4734657,67.1194692 31.6222328,67.0755775 C31.0496457,67.0463164 30.4398172,67.424716 29.9503583,67.6122532 C29.0771796,67.9474261 28.2645182,68.3391263 27.3667335,68.7394717 C26.0792439,69.316049 24.9533554,70.2098435 23.7729348,70.9686377 C22.5293368,71.7679986 21.6501729,72.5001919 20.9392605,73.8275831 C20.615393,74.4334215 20.3453925,75.1011072 19.9975841,75.6716993 C19.7196034,76.129902 19.3658097,76.2210105 19.0426073,76.6027352 C18.7706118,76.9226126 18.5145769,77.4107414 18.2425814,77.7691902 C17.9812263,78.1123435 17.7744033,78.5545855 17.6181223,78.9675665 C17.4704866,79.3572715 17.4392304,79.8054988 17.2643286,80.2071743 C17.0242544,80.7591456 16.7934904,81.3317327 16.4483421,81.8451325 C15.6037595,83.100701 14.4306542,84.1334859 13.3440023,85.172256 C12.4635083,86.0128484 11.4865856,87.0037367 10.5269536,87.711989 C9.58793733,88.4042807 9.05325669,88.8804391 8.90030079,90.0848006 C8.81717258,90.7405159 8.5119258,91.2765266 8.31308313,91.8723896 C8.10293501,92.506159 8.11690055,93.2376873 8.04840291,93.9007179 C7.92869829,95.0472221 7.6181313,95.8811643 7.14928821,96.9378901 C6.62458295,98.1183107 5.84716795,99.344618 4.59425959,99.8347419 C3.45573564,100.280309 2.38171919,99.7529437 1.44536305,99.1072038 C0.548908448,98.49006 -0.305649535,97.3927676 0.106666379,96.262224 C0.575509475,94.9780594 1.55110213,93.9286489 2.52070955,93.0002731 C4.30031824,91.2944823 5.79862107,89.2960801 6.73763732,87.1241063 C6.93315486,86.6718888 6.97771158,86.1232427 7.1905198,85.6723553 C7.25303221,85.6590548 7.31620965,85.6444242 7.38005211,85.6311237 C7.38337724,85.5287097 7.38670237,85.4262958 7.3900275,85.3245468 C7.40598811,85.2912956 7.41729355,85.2527241 7.42726894,85.2234629 C7.44921478,85.1576254 7.51771243,85.0984381 7.53899325,85.0259503 C7.55295879,84.9793985 7.57086128,84.9325807 7.59083865,84.8857097 L7.72070486,84.6055477 C7.76236207,84.5130825 7.79742222,84.422107 7.81098875,84.3343236 C7.84756516,84.1022297 7.69992946,83.852845 7.76643203,83.6134358 C7.85820557,83.282918 8.10360004,82.9783363 8.21864948,82.6318579 C8.82581792,80.8063625 9.46956276,78.9835271 10.7131608,77.3648546 C11.6049602,76.2043848 12.8279424,75.4030289 13.8527469,74.3742342 C14.8363199,73.3886662 15.7008533,72.2920388 16.497554,71.1515198 C17.300905,70.0010254 17.9918667,68.7773782 18.8723607,67.6814159 C19.7987414,66.5282614 20.7111567,65.3917325 21.5278082,64.1561148 C22.1675629,63.1865074 22.7082287,62.1237964 23.2934513,61.1581791 C23.8633783,60.2198279 24.088822,59.1138902 24.788429,58.1828542 C25.5857948,57.1234684 26.4835795,56.0388115 27.429246,55.1077756 C28.4813166,54.0736606 29.786762,53.330827 30.9319362,52.4057763 C33.2249447,50.5536798 34.3388627,47.9281584 35.8092344,45.4589181 C36.1597029,44.8703704 36.7090141,44.2565517 36.8972164,43.590861 C37.0521674,43.0408848 37.1565764,42.5155145 37.2962318,41.9735186 C37.4797789,41.2632712 37.6965773,40.5643292 37.948622,39.8753626 C38.5032534,38.3551139 37.1485961,37.4340534 37.1160098,35.9909477 C37.0867487,34.7207487 38.3862089,33.5097369 39.2268013,32.6857701 C40.3726834,31.5632497 41.6409296,30.5238 42.930758,29.4908544 L43.7927351,28.8023472 C46.6692766,26.5049337 49.5417999,24.1556146 51.3043325,20.9141508 C51.9593828,19.7077942 52.3657134,18.4056739 52.9449508,17.1667311 C53.5494591,15.8732562 54.3055933,14.6529341 55.1907425,13.5343609 Z M39.8258177,0.00202670823 L39.9011373,0.00507873361 C40.5342418,0.155374535 41.370179,1.64968721 41.7545639,2.14779144 C42.2845893,2.8334329 43.2934333,3.6081878 43.5308474,4.46274579 C43.8347642,5.55272286 42.8305754,5.65646686 42.0465101,5.41439752 C41.2837257,5.17831341 40.6492912,5.00939689 39.8705462,4.83649021 C39.2367767,4.69550477 38.4500513,4.64030764 37.9339914,4.41020876 C37.2177588,4.31111994 36.8280537,4.00986331 37.1858375,3.36678349 C37.5230056,2.75961505 37.7996562,2.25286549 38.259189,1.70754444 C38.5670959,1.3411153 39.4748559,-0.096005168 39.9011373,0.00507873361 Z" id="Combined-Shape" fill="#000105"></path>
        </g>
    </g>
</svg>