<svg xmlns="http://www.w3.org/2000/svg" xmlns:xlink="http://www.w3.org/1999/xlink" viewBox="0 0 100 101">
    <defs>
        <path id="ff35ozk3ea" d="M70.608 52.148c.888 2.576 3.323 4.43 6.183 4.43 3.607 0 6.542-2.95 6.542-6.578 0-3.627-2.935-6.578-6.542-6.578-2.86 0-5.295 1.855-6.183 4.43H57.331c-1.846 1.49-4.187 2.382-6.723 2.382-.074 0-.147 0-.221-.002-2.873-.059-5.552-1.238-7.542-3.322-1.99-2.084-3.054-4.823-2.996-7.711l4.273.087c-.035 1.74.606 3.391 1.806 4.647 1.2 1.257 2.814 1.968 4.545 2.003 2.904.058 5.407-1.82 6.283-4.455v-3.58h14.61v-4.296h-4.843V24.67h4.085c.888 2.575 3.323 4.43 6.183 4.43 3.607 0 6.542-2.951 6.542-6.579 0-3.627-2.935-6.578-6.542-6.578-2.86 0-5.295 1.855-6.183 4.43H62.25v13.23h-5.494V23.27c0-5.48-4.434-9.937-9.883-9.937-4.84 0-8.88 3.517-9.721 8.142-5.915.323-10.628 5.262-10.628 11.288 0 .495.032.989.096 1.478-6.1 3.284-9.953 9.67-9.953 16.729 0 5.37 2.267 10.394 6.062 13.93 1.51-6.419 7.255-11.209 14.093-11.209v4.297c-5.628 0-10.207 4.604-10.207 10.263 0 .174.004.346.013.518.719 5.311 5.12 9.46 10.524 9.755.842 4.626 4.88 8.143 9.721 8.143 5.45 0 9.883-4.458 9.883-9.937V66.395h5.493v13.231h8.359c.888 2.575 3.323 4.43 6.182 4.43 3.608 0 6.543-2.951 6.543-6.578 0-3.627-2.935-6.578-6.543-6.578-2.859 0-5.294 1.854-6.182 4.43h-4.085v-8.935h4.844V62.1H56.756v-9.95h13.852z"/>
    </defs>
    <g fill="none" fill-rule="evenodd">
        <g>
            <g>
                <g>
                    <g transform="translate(-140 -4344) translate(-358 3889.948) translate(478 435) translate(20 20)">
                        <mask id="0o3ynz84tb" fill="#fff">
                            <use xlink:href="#ff35ozk3ea"/>
                        </mask>
                        <use fill="currentColor" fill-rule="nonzero" xlink:href="#ff35ozk3ea"/>
                        <g fill="currentColor" mask="url(#0o3ynz84tb)">
                            <path d="M0 0H100V100H0z"/>
                        </g>
                    </g>
                </g>
            </g>
        </g>
    </g>
</svg>
