<svg xmlns="http://www.w3.org/2000/svg" xmlns:xlink="http://www.w3.org/1999/xlink" viewBox="0 0 32 32">
    <defs>
        <path id="p57ajay61a" d="M16 5.333c5.878 0 10.667 4.784 10.667 10.664 0 5.883-4.789 10.667-10.668 10.667-5.883 0-10.666-4.784-10.666-10.667 0-5.88 4.783-10.664 10.666-10.664zm.239 1.935l-.003.844h-.477v-.844c-1.414.04-2.736.431-3.91 1.07l.411.712-.413.239-.42-.723c-1.17.722-2.143 1.697-2.862 2.866l.724.417-.239.416-.715-.413c-.637 1.172-1.03 2.493-1.071 3.91h.85v.48h-.85c.04 1.415.433 2.733 1.07 3.906l.715-.41.24.412-.725.418c.72 1.168 1.7 2.146 2.87 2.866l.415-.723.416.238-.414.712c1.171.64 2.493 1.031 3.91 1.07v-.845h.48v.845c1.414-.039 2.733-.43 3.906-1.07l-.41-.712.414-.238.414.722c1.17-.722 2.149-1.698 2.868-2.866l-.719-.418.234-.415.711.414c.64-1.175 1.03-2.495 1.074-3.911h-.846v-.481h.846c-.044-1.414-.433-2.733-1.073-3.907l-.712.412-.24-.412.725-.42c-.719-1.169-1.699-2.145-2.868-2.865l-.414.725-.416-.239.413-.712c-1.173-.639-2.494-1.03-3.91-1.07zm.366 1.954v5.86c.308.2.501.543.501.917 0 .61-.496 1.106-1.106 1.106-.374 0-.717-.193-.917-.502h-3.67v-1.208h3.67c.082-.125.188-.232.312-.314V9.222h1.21z"/>
    </defs>
    <g fill="none" fill-rule="evenodd">
        <g>
            <g>
                <g>
                    <g transform="translate(-965 -719) translate(730 539) translate(40 180) translate(195)">
                        <mask id="dc3713r9rb" fill="#fff">
                            <use xlink:href="#p57ajay61a"/>
                        </mask>
                        <use fill="#000" fill-rule="nonzero" xlink:href="#p57ajay61a"/>
                        <g fill="currentColor" mask="url(#dc3713r9rb)">
                            <path d="M0 0H32V32H0z"/>
                        </g>
                    </g>
                </g>
            </g>
        </g>
    </g>
</svg>
