<svg xmlns="http://www.w3.org/2000/svg" xmlns:xlink="http://www.w3.org/1999/xlink" width="24" height="23" viewBox="0 0 24 23">
    <defs>
        <path id="iv008w5via" d="M12 8.51c.12 0 .224.04.312.121.088.081.132.177.132.287v6.484h.445c.12 0 .224.04.312.121.088.081.132.177.132.288v.817c0 .11-.044.207-.132.287-.088.082-.192.122-.312.122H9.333c-.12 0-.224-.04-.312-.122-.088-.08-.132-.176-.132-.287v-.817c0-.11.044-.207.132-.288.088-.08.192-.121.312-.121h.445v-5.257h-.445c-.12 0-.224-.04-.312-.122-.088-.08-.132-.176-.132-.287v-.818c0-.11.044-.206.132-.287.088-.08.192-.121.312-.121zm-.98-3.325c.824 0 1.493.615 1.493 1.373 0 .759-.669 1.374-1.493 1.374-.825 0-1.494-.615-1.494-1.374 0-.758.669-1.373 1.494-1.373z"/>
    </defs>
    <g fill="currentColor" fill-rule="evenodd">
        <g>
            <g>
                <g>
                    <g>
                        <g>
                            <g>
                                <g transform="translate(-641 -3656) translate(-92 2718) translate(209 544) translate(3 89) translate(305) translate(213 301.888) translate(3.889 3.889)">
                                    <mask id="ny05uop66b" fill="#fff">
                                        <use xlink:href="#iv008w5via"/>
                                    </mask>
                                    <use fill="#000" fill-rule="nonzero" xlink:href="#iv008w5via"/>
                                    <g fill="#000" mask="url(#ny05uop66b)">
                                        <path d="M0 0H22.222V22.222H0z"/>
                                    </g>
                                </g>
                            </g>
                        </g>
                    </g>
                </g>
            </g>
        </g>
    </g>
</svg>
