<svg xmlns="http://www.w3.org/2000/svg" xmlns:xlink="http://www.w3.org/1999/xlink" viewBox="0 0 40 40">
    <defs>
        <path id="pxnx7nvcna" d="M27.865 19.219c3.015 0 5.468 2.453 5.468 5.468 0 1.06-.304 2.088-.88 2.973l-3.963 5.36c-.147.196-.379.313-.625.313s-.478-.116-.625-.313l-3.809-5.135c-.68-.945-1.035-2.046-1.035-3.198 0-3.015 2.453-5.468 5.469-5.468zM7.063 6.768c.245-.139.545-.134.787.01l6.681 3.977v17.5l-7.485-4.46c-.235-.142-.38-.396-.38-.67V7.448c0-.282.152-.541.397-.68zm15.333.237v13.317c-.963 1.203-1.563 2.708-1.563 4.365 0 .243.032.482.057.721l-4.796 2.847v-17.5l6.302-3.75zm5.469 15.339c-1.293 0-2.344 1.05-2.344 2.343s1.051 2.344 2.344 2.344c1.292 0 2.343-1.051 2.343-2.344 0-1.292-1.051-2.343-2.343-2.343zM23.958 7.005l7.434 4.46c.235.141.379.396.379.67v6.711c-1.118-.75-2.462-1.19-3.906-1.19-1.445 0-2.788.44-3.907 1.19V7.006z"/>
    </defs>
    <g fill="none" fill-rule="evenodd">
        <g>
            <g>
                <g>
                    <g transform="translate(-1148 -369) translate(120 359) translate(992) translate(36 10)">
                        <mask id="hsf17gtexb" fill="#fff">
                            <use xlink:href="#pxnx7nvcna"/>
                        </mask>
                        <use fill="currentColor" fill-rule="nonzero" xlink:href="#pxnx7nvcna"/>
                        <g fill="currentColor" mask="url(#hsf17gtexb)">
                            <path d="M0 0H40V40H0z"/>
                        </g>
                    </g>
                </g>
            </g>
        </g>
    </g>
</svg>
