<svg viewBox="0 0 100 100" version="1.1" xmlns="http://www.w3.org/2000/svg" xmlns:xlink="http://www.w3.org/1999/xlink">
    <title>Sports/Resources/Courts/American Football</title>
    <defs>
        <path d="M60.2002153,1.72521531 C70.2189653,-0.406034694 80.6814653,-0.637284694 91.0627153,1.45021531 C94.6252153,2.17521531 97.5377153,5.05021531 98.3002153,8.60021531 C100.481465,18.8252153 100.406465,29.1377153 98.4502153,39.0377153 C98.4502153,39.5064653 98.3377153,39.9564653 98.1377153,40.3877153 C95.1189653,54.3252153 88.2752153,67.3564653 77.8189653,77.8127153 C63.4502153,92.1752153 44.3002153,99.9689653 24.4939653,99.9689653 C19.2189653,99.9689653 13.9002153,99.4127153 8.60646531,98.2814653 C5.04396531,97.5252153 2.16896531,94.6189653 1.45021531,91.0502153 C-0.637284694,80.6814653 -0.406034694,70.2189653 1.72521531,60.2002153 L1.72521531,60.2002153 L1.7891042,59.8849375 L1.7891042,59.8849375 L1.83771531,59.7314653 C4.90646531,45.7564653 11.7877153,32.6939653 22.2439653,22.2377153 C32.7002153,11.7752153 45.7564653,4.90021531 59.7377153,1.83146531 C59.8877153,1.76896531 60.0439653,1.76271531 60.2002153,1.72521531 Z M6.84396531,67.5064653 C5.94396531,74.8377153 6.07521531,82.3502153 7.58146531,89.8189653 C7.81271531,90.9627153 8.76896531,91.9252153 9.90646531,92.1689653 C17.4502153,93.7877153 25.0502153,94.0002153 32.4752153,93.1377153 L32.4752153,93.1377153 Z M59.9689653,8.13771531 C47.5627153,11.0689653 35.9939653,17.3314653 26.6627153,26.6564653 C17.3314653,35.9877153 11.1189653,47.5814653 8.18771531,60.0127153 L8.18771531,60.0127153 L40.0002153,91.8252153 C52.4314653,88.9502153 64.0439653,82.7502153 73.4002153,73.3939653 C82.7564653,64.0314653 88.9439653,52.4252153 91.8189653,39.9877153 L91.8189653,39.9877153 Z M50.8752153,32.1127153 C52.0939653,30.8939653 54.0752153,30.8939653 55.2939653,32.1127153 L55.2939653,32.1127153 L59.3314653,36.1564653 L63.3689653,32.1189653 C64.5877153,30.9002153 66.5689653,30.9002153 67.7877153,32.1189653 C69.0064653,33.3377153 69.0064653,35.3189653 67.7877153,36.5377153 L67.7877153,36.5377153 L63.7502153,40.5752153 L67.7939653,44.6189653 C69.0127153,45.8377153 69.0127153,47.8189653 67.7939653,49.0377153 C67.1814653,49.6439653 66.3814653,49.9502153 65.5814653,49.9502153 C64.7814653,49.9502153 63.9814653,49.6439653 63.3689653,49.0314653 L63.3689653,49.0314653 L59.3314653,44.9939653 L54.3752153,49.9502153 L58.4189653,53.9939653 C59.6377153,55.2127153 59.6377153,57.1939653 58.4189653,58.4127153 C57.8064653,59.0189653 57.0064653,59.3252153 56.2064653,59.3252153 C55.4064653,59.3252153 54.6064653,59.0189653 53.9939653,58.4064653 L53.9939653,58.4064653 L49.9564653,54.3689653 L45.0002153,59.3252153 L49.0439653,63.3689653 C50.2627153,64.5877153 50.2627153,66.5689653 49.0439653,67.7877153 C48.4314653,68.3939653 47.6314653,68.7002153 46.8314653,68.7002153 C46.0314653,68.7002153 45.2314653,68.3939653 44.6189653,67.7814653 L44.6189653,67.7814653 L40.5814653,63.7439653 L36.5439653,67.7877153 C35.9314653,68.3939653 35.1314653,68.7002153 34.3314653,68.7002153 C33.5314653,68.7002153 32.7314653,68.3939653 32.1189653,67.7877153 C30.9002153,66.5627153 30.9002153,64.5877153 32.1252153,63.3627153 L32.1252153,63.3627153 L36.1627153,59.3252153 L32.1252153,55.2814653 C30.9064653,54.0627153 30.9064653,52.0814653 32.1252153,50.8627153 C33.3439653,49.6439653 35.3252153,49.6439653 36.5439653,50.8627153 L36.5439653,50.8627153 L40.5814653,54.9064653 L45.5377153,49.9502153 L41.5002153,45.9064653 C40.2814653,44.6877153 40.2814653,42.7064653 41.5002153,41.4877153 C42.7189653,40.2689653 44.7002153,40.2689653 45.9189653,41.4877153 L45.9189653,41.4877153 L49.9564653,45.5314653 L54.9127153,40.5752153 L50.8752153,36.5314653 C49.6564653,35.3127153 49.6564653,33.3314653 50.8752153,32.1127153 Z M75.9814653,6.19396531 C73.1189653,6.19396531 70.2752153,6.43146531 67.4502153,6.78146531 L67.4502153,6.78146531 L93.1314653,32.4627153 C94.0002153,25.0439653 93.7877153,17.4502153 92.1814653,9.90646531 C91.9377153,8.76271531 90.9689653,7.80646531 89.8189653,7.57521531 C85.2127153,6.65021531 80.5752153,6.19396531 75.9814653,6.19396531 Z" id="path-1"></path>
    </defs>
    <g id="Sports/Resources/Courts/American-Football" stroke="none" stroke-width="1" fill="none" fill-rule="evenodd">
        <mask id="mask-2" fill="white">
            <use xlink:href="#path-1"></use>
        </mask>
        <use id="Combined-Shape" fill="#000000" fill-rule="nonzero" opacity="0" xlink:href="#path-1"></use>
        <g id="Group" mask="url(#mask-2)" fill="#000000">
            <g id="Colour/Black">
                <rect id="Rectangle" x="0" y="0" width="100" height="100"></rect>
            </g>
        </g>
    </g>
</svg>
