<svg viewBox="0 0 100 100" version="1.1" xmlns="http://www.w3.org/2000/svg" xmlns:xlink="http://www.w3.org/1999/xlink">
    <title>Sport/Player/Netball</title>
    <g id="Sport/Player/Netball" stroke="none" stroke-width="1" fill="none" fill-rule="evenodd">
        <g id="AdobeStock_111860646" transform="translate(16.000000, 0.000000)" fill="#000000">
            <path d="M66.6714466,79.9785175 C66.4208198,78.1584898 66.5282313,75.875996 66.3149002,73.912753 C66.1000772,71.9524936 64.4232648,71.1663013 63.2820179,71.3811243 C62.140771,71.5944554 59.500239,72.6655864 59.3227117,72.7371941 C59.1436926,72.8073099 58.9661653,72.8073099 58.394796,72.7371941 C57.8249184,72.6655864 55.4350132,72.3806477 54.0073357,71.8092783 C52.5811501,71.237909 49.1559176,70.4188965 46.7302085,69.6327042 C44.3044994,68.8480037 39.8454316,69.240354 38.9891234,68.8480037 C38.1343071,68.4556535 38.9891234,63.0343578 38.9891234,63.0343578 C38.9891234,63.0343578 39.3113578,61.9990306 39.524689,61.8931109 C39.7395119,61.7856995 39.952843,60.6086488 39.952843,59.680733 C39.952843,58.7528172 40.9165626,56.2927962 41.4506363,53.9013991 C41.9862019,51.5129857 41.8802822,51.2623589 41.6296554,48.6576307 C41.3805205,46.0543944 40.0244507,44.5566011 39.8096277,43.9136241 C39.5962966,43.2721389 38.9190076,42.2726155 37.7419569,40.810626 C36.5634144,39.3471447 36.2784756,37.9209591 35.6011866,36.1024232 C34.9238976,34.2823955 33.3888087,31.2868089 32.9964584,27.1484836 C32.6056,23.0101583 29.6443254,18.3019554 29.0371522,16.5893392 C28.4314709,14.8767229 27.3961436,13.3789296 27.290224,13.2357143 C27.1828125,13.0939909 27.7899857,12.9865794 27.7899857,13.2357143 C27.7899857,13.4863411 28.644802,13.1655985 29.1803675,12.5226215 C29.7159331,11.8811363 30.3216144,9.95518898 31.2137264,8.77813827 C32.1058383,7.60108757 33.1038699,5.8526675 31.7836039,3.74799939 C30.4648297,1.64333128 28.6089982,2.85618581 28.3240594,2.96314973 C28.0391206,3.07011366 28.0749245,2.92764428 27.2186163,1.75014602 C26.3623082,0.57309531 24.6854958,0.0736319671 21.9390442,0.109435791 C19.1925925,0.145090432 18.1572653,2.71341806 17.4799763,4.06889116 C16.8026873,5.42451344 17.302449,6.06599862 16.9444107,6.88650291 C16.5878643,7.70700721 16.4819447,7.77861486 16.3551395,8.06355362 C16.2283342,8.34998421 16.6236681,8.56331533 16.659472,8.88405792 C16.6952758,9.20480051 16.4342062,9.70456222 16.3625986,10.0864697 C16.2909909,10.4668853 16.719145,10.7518241 16.719145,10.7518241 L16.3625986,11.0367628 C16.3625986,11.0367628 16.5759297,11.2739632 16.3864678,12.1302713 C16.1955141,12.9865794 17.1950375,13.4147335 18.0975922,13.4624719 C19.0016388,13.5102103 19.0971156,13.9861028 19.6207466,15.1273497 C20.1428857,16.2685966 20.3338394,18.1229363 20.3338394,18.1229363 C20.3338394,18.1229363 19.5133351,20.1562951 19.2179535,20.869388 C18.9240638,21.5839726 18.0513456,22.2612616 17.4799763,23.4025085 C16.9100987,24.5452472 17.6947992,24.6511668 17.764915,25.6148864 C17.8365227,26.5771142 17.2308413,27.2916989 17.2651533,28.9685113 C17.302449,30.6438319 18.1229533,32.7846022 18.1229533,32.7846022 C18.1229533,32.7846022 18.0856576,33.2127562 16.5878643,32.4638596 C15.8240494,32.0819521 14.5321281,31.6717 13.4430951,31.3479737 C13.4460788,31.2733824 13.4490624,31.200283 13.4490624,31.1256917 C13.4490624,27.4319305 10.4549677,24.4378357 6.76120649,24.4378357 C3.06595351,24.4378357 0.0718587397,27.4319305 0.0718587397,31.1256917 C0.0718587397,34.8194528 3.06595351,37.8150394 6.76120649,37.8150394 C7.60707183,37.8150394 8.41564152,37.655414 9.16155452,37.3689834 C9.60910232,37.5375598 10.1640616,37.689726 10.7026108,37.7076279 C11.8080538,37.7434318 12.1287964,37.6002165 14.0338582,38.8488748 C15.93892,40.0975332 19.0135734,41.4177992 19.0135734,41.4177992 C19.0135734,41.4177992 19.0135734,42.1666958 18.6928308,42.4874384 C18.3720882,42.808181 19.1567887,43.4496662 19.5133351,44.6625207 C19.8698815,45.8753753 21.5108901,46.0185906 21.725713,46.9465063 C21.9390442,47.8744221 22.9385676,47.9445379 22.7953523,48.5875149 C22.652137,49.2290001 22.2955906,50.5850699 22.3671982,51.2265551 C22.4388059,51.8680403 21.5824977,52.6184287 21.082736,53.1883063 C20.5829743,53.7596756 20.1190164,54.4011608 19.0135734,55.1858613 C17.9081303,55.9705618 16.9100987,57.1476125 16.6952758,57.3982392 C16.4819447,57.6473742 16.3029255,58.0039206 16.8026873,58.4320746 C17.302449,58.8602287 18.3004806,59.680733 18.3004806,59.680733 C18.3004806,59.680733 18.1930691,60.5012373 18.0856576,60.8219799 C17.979738,61.1427225 17.4441724,62.6420076 16.5520605,64.996109 C15.6614404,67.3502104 15.982183,68.5272611 16.3029255,69.5267846 C16.6236681,70.5248161 17.3382528,73.4860907 17.8007188,77.4453969 C18.2646767,81.4047031 21.2617552,87.5047796 21.4034786,88.3252839 C21.5466939,89.1457882 22.0464556,90.8942083 22.1523753,92.1070628 C22.2597867,93.3199173 22.1165714,93.6048561 21.5108901,94.0330102 C20.9052087,94.4611642 20.6903858,94.6744953 19.977293,95.174257 C19.2642001,95.6740187 19.4059236,95.8873499 18.3720882,96.4229154 C17.3382528,96.9569891 15.8031638,96.8868733 14.661917,97.3508312 C13.5206701,97.8132972 14.2695667,99.0977594 14.3411744,99.4543058 C14.412782,99.8108522 17.7291112,99.9540675 21.5466939,99.7034408 C25.3627848,99.4543058 27.1470087,99.169367 29.0013484,98.492078 C30.8571799,97.8132972 31.0705111,97.3851432 31.1063149,96.7794618 C31.1421187,96.1737805 30.9630996,95.5666073 30.3574182,94.2463413 C29.7517369,92.9260753 28.0033168,92.3203939 28.0033168,92.3203939 C28.0033168,92.3203939 27.7541819,92.2129824 27.5393589,91.2149509 C27.324536,90.2154274 26.7188546,88.6818303 26.0773695,81.9044648 C25.4343925,75.1270993 23.8291877,72.7013903 23.6516604,71.4885357 C23.4726413,70.2756812 24.1857341,68.4198497 24.9704346,67.7067568 C25.755135,66.993664 28.3598632,64.5321511 28.3598632,64.5321511 C28.3598632,64.5321511 28.6806058,65.7808095 28.8596249,66.2805712 C29.0371522,66.7788411 29.5011101,67.9215798 30.5006335,71.5601434 C31.4986651,75.1972152 34.5658594,75.9117998 36.9915684,76.2325424 C39.4187693,76.553285 44.4119109,77.1246543 49.1559176,77.196262 C53.8999242,77.2663778 56.2898295,77.9809625 56.825395,78.0525701 C57.3609605,78.1226859 57.717507,78.4807242 58.0039375,78.9431902 C58.2888763,79.4071481 58.3589921,80.1560448 58.9661653,80.6916103 C59.5718467,81.2271758 59.715062,81.7254457 59.8224734,82.1894036 C59.9283931,82.6533615 60.6071739,83.2247308 61.06964,84.7941318 C61.5350897,86.3635327 61.3560706,86.078594 61.6410093,87.9687375 C61.9259481,89.858881 63.3178217,89.7514696 64.7440074,88.8951614 C66.1716849,88.0403451 66.9205815,81.7970534 66.6714466,79.9785175 Z" id="Path"></path>
        </g>
    </g>
</svg>
