<svg xmlns="http://www.w3.org/2000/svg" xmlns:xlink="http://www.w3.org/1999/xlink" viewBox="0 0 100 101">
    <defs>
        <path id="t344psxd1a" d="M26.655 45.384c6.151 0 11.156 5.032 11.156 11.216 0 3.127-1.7 6.903-5.054 11.225-2.396 3.086-4.763 5.318-4.862 5.411l-1.24 1.164-1.24-1.164c-.023-.022-.182-.172-.442-.429l-.293-.293c-.902-.909-2.508-2.604-4.126-4.69C17.2 63.505 15.5 59.728 15.5 56.6c0-6.184 5.004-11.216 11.155-11.216zm32.425-2.093v3.653h-9.553c-2.67 0-4.843 2.184-4.843 4.87 0 2.685 2.172 4.87 4.843 4.87h10.158c4.674 0 8.476 3.822 8.476 8.522 0 4.699-3.802 8.522-8.476 8.522H33.92v-3.652h25.765c2.671 0 4.844-2.185 4.844-4.87 0-2.686-2.173-4.87-4.844-4.87H49.527c-4.673 0-8.476-3.823-8.476-8.522 0-4.7 3.803-8.523 8.476-8.523h9.553zm-32.425 9.68c-1.99 0-3.609 1.629-3.609 3.63 0 2 1.62 3.628 3.61 3.628 1.99 0 3.608-1.628 3.608-3.629 0-2-1.619-3.628-3.609-3.628zM66.345 18.6c6.151 0 11.155 5.032 11.155 11.216 0 3.127-1.7 6.903-5.054 11.224-2.395 3.087-4.762 5.318-4.862 5.412l-1.24 1.163-1.239-1.163c-.1-.094-2.466-2.325-4.861-5.412-3.354-4.321-5.054-8.097-5.054-11.224 0-6.185 5.004-11.216 11.155-11.216zm0 7.588c-1.99 0-3.609 1.627-3.609 3.628 0 2 1.619 3.629 3.609 3.629s3.609-1.628 3.609-3.629c0-2-1.619-3.628-3.609-3.628z"/>
    </defs>
    <g fill="none" fill-rule="evenodd">
        <g>
            <g>
                <g>
                    <g transform="translate(-140 -4344) translate(-358 3889.948) translate(478 435) translate(20 20)">
                      <mask id="analgfdtib" fill="#fff">
                        <use xlink:href="#t344psxd1a"/>
                      </mask>
                      <use fill="currentColor" fill-rule="nonzero" xlink:href="#t344psxd1a"/>
                        <g fill="currentColor" mask="url(#analgfdtib)">
                            <path d="M0 0H100V100H0z"/>
                        </g>
                    </g>
                </g>
            </g>
        </g>
    </g>
</svg>
