<svg xmlns="http://www.w3.org/2000/svg" xmlns:xlink="http://www.w3.org/1999/xlink" viewBox="0 0 20 20">
    <defs>
        <path id="knftwx0hba" d="M17.352 10c-.53-.26-.856-.423-.975-.488l-1.652-.9 1.652-.902c.12-.065.444-.228.975-.488-.53-.26-.856-.423-.975-.487L10.267 3.4c-.061-.033-.15-.079-.267-.137-.128.064-.217.11-.266.137L3.623 6.735c-.12.064-.438.227-.956.487.518.26.837.423.956.488l1.652.901-1.652.901c-.12.065-.438.228-.956.488.518.26.837.423.956.488l1.652.901-1.652.901c-.12.065-.438.228-.956.488.518.26.837.423.956.488l6.11 3.333c.056.03.145.074.267.131.126-.06.214-.103.266-.13l6.111-3.334c.12-.065.444-.228.975-.488-.53-.26-.856-.423-.975-.488l-1.652-.9 1.652-.902c.12-.065.444-.228.975-.488zm-2.4 2.778L10 15.478l-4.951-2.7 1.386-.756 3.299 1.8c.053.028.142.072.266.13.12-.056.21-.1.266-.13l3.299-1.8 1.386.756zM10 9.923l-4.951-2.7L10 4.521l4.951 2.7L10 9.923z"/>
    </defs>
    <g fill="none" fill-rule="evenodd">
        <g>
            <g>
                <g>
                    <g>
                        <g>
                            <g transform="translate(-201 -2205) translate(101 120) translate(80 1775) translate(0 90) translate(0 140) translate(20 80)">
                                <mask id="ueyn9cpksb" fill="#fff">
                                    <use xlink:href="#knftwx0hba"/>
                                </mask>
                                <use fill="#000" fill-rule="nonzero" xlink:href="#knftwx0hba"/>
                                <g fill="currentColor" mask="url(#ueyn9cpksb)">
                                    <path d="M0 0H20V20H0z"/>
                                </g>
                            </g>
                        </g>
                    </g>
                </g>
            </g>
        </g>
    </g>
</svg>
