<svg viewBox="0 0 100 101" xmlns="http://www.w3.org/2000/svg">
<path d="M31.659 2.74658C24.841 2.74658 19.3141 8.86097 19.3141 16.4031C19.3141 23.9455 24.841 30.0601 31.659 30.0601C38.477 30.0601 42.7585 23.9455 42.7585 16.4031C42.7585 8.86097 38.477 2.74658 31.659 2.74658Z" fill="black"/>
<path d="M14.2021 38.2022C12.4652 39.7142 10.8349 41.9266 9.87148 44.4818C9.64194 45.0905 9.42463 45.5971 9.20654 46.0368C11.0231 46.0985 12.7565 46.5058 14.1775 47.6426C14.7315 48.0736 15.2069 48.6026 15.5924 49.1914C15.7309 48.9053 15.8767 48.6047 16.029 48.2944C17.4228 45.454 21.7159 43.2446 22.0942 41.7957C22.611 39.816 21.6006 36.8989 21.1079 36.4152C18.3621 36.1485 15.8686 36.7515 14.2021 38.2022Z" fill="black"/>
<path fill-rule="evenodd" clip-rule="evenodd" d="M14.1697 47.6495C12.7487 46.5127 11.0153 46.1055 9.19872 46.0437C8.19509 48.068 7.17243 48.6483 4.8331 50.9601C0.80578 54.94 -0.0603513 56.091 0.2259 59.2569C0.363393 60.7806 0.856855 60.8396 2.05254 61.2958C3.22512 61.108 5.93188 60.122 6.90017 59.5292C7.9605 57.7437 11.9367 54.8184 14.3262 51.6858C14.5099 51.445 14.9721 50.4651 15.5846 49.1983C15.1991 48.6095 14.7237 48.0805 14.1697 47.6495Z" fill="url(#paint0_linear)"/>
<path d="M43.1864 37.4079C34.178 33.7173 35.7291 31.9934 33.5047 32.6776C32.2407 33.0664 31.5258 32.9322 28.1656 33.9828C24.5337 35.1185 25.6721 35.2618 21.1002 36.4161C21.1002 36.4161 17.116 39.8038 16.6996 43.9802C16.3745 47.2412 15.842 48.1969 14.7738 52.6501C13.9905 55.9138 14.3069 56.2713 14.1966 58.1275C14.1743 58.5023 14.3333 59.0966 14.3918 59.8607C14.6223 62.8815 15.2321 68.197 15.5608 69.656C16.3778 73.2829 15.7321 79.9034 15.1507 85.1215C23.9959 85.2574 32.745 84.6302 41.4225 82.4707C39.5319 80.0218 38.2656 77.6992 38.0063 74.4562C37.6896 70.4967 38.1663 66.0355 40.0829 61.2326C40.756 59.5459 41.605 57.8178 42.6617 56.0536C45.6784 51.0169 50.1692 40.2687 43.1864 37.4079Z" fill="black"/>
<path d="M15.1581 85.1261C15.0629 86.9904 14.9649 88.6819 14.9194 89.9986H46.0169C44.6332 86.7088 42.8759 84.4115 41.2982 82.2986C32.7493 84.495 24.0113 85.264 15.1581 85.1261Z" fill="black"/>
<path fill-rule="evenodd" clip-rule="evenodd" d="M16.0393 47.5377C15.7218 48.8299 15.2983 50.2188 14.7141 52.6535C13.9311 55.9172 14.4745 58.7411 14.3642 60.5973C14.3164 61.4003 14.4539 62.8078 14.7359 64.2836C22.399 61.3333 31.5779 61.8003 38.7011 65.6C39.4212 62.5975 40.6293 59.3505 42.602 56.0571C43.6408 54.3227 45.0124 51.8204 46.0786 49.1534C43.0751 37.576 25.8055 49.3913 16.0393 47.5377Z" fill="url(#paint1_linear)"/>
<path fill-rule="evenodd" clip-rule="evenodd" d="M22.9489 41.2663C19.5999 42.0305 18.6085 39.7925 18.6085 39.7925C17.4841 44.3325 12.3118 46.9414 12.0768 50.8935C11.8424 54.8385 14.5934 58.2885 18.4611 57.4276C22.4195 56.5463 26.0252 57.9566 30.5629 57.9189C34.9984 57.882 38.6597 55.398 38.727 52.0267C38.7768 49.5415 38.5057 43.6544 41.2594 41.8063C43.2045 40.5011 26.2981 40.5019 22.9489 41.2663Z" fill="black"/>
<path fill-rule="evenodd" clip-rule="evenodd" d="M35.9233 32.4723C34.868 28.8207 35.7423 23.6863 35.7423 23.6863C35.7423 23.6863 36.4059 21.9841 34.5188 20.7719C32.6316 19.5597 28.6736 22.5436 28.0599 24.1644C27.4462 25.7856 29.0255 30.5666 27.4027 34.0146C27.2544 34.3294 25.5542 34.8683 24.8381 35.4956C21.2375 38.649 20.8858 44.3783 22.9552 44.676C31.224 45.8655 33.5841 36.9958 38.0482 34.9337C37.653 34.6601 35.9233 32.4723 35.9233 32.4723Z" fill="url(#paint2_linear)"/>
<path d="M37.9967 48.186C37.8115 48.5556 37.5988 48.9036 37.3475 49.2188C34.4831 52.8113 34.2881 52.3909 31.7414 59.6093C31.199 61.1466 30.8125 62.2213 30.4323 63.0167C31.2595 64.206 33.1264 66.2249 33.9611 66.904C34.2751 66.9524 34.6971 66.9514 35.0165 66.9283C36.7529 65.4244 41.8229 59.6172 43.5629 57.4824C44.2531 56.6353 45.1427 55.3949 46.0434 53.6974C44.8178 50.5279 41.5887 48.3208 37.9967 48.186Z" fill="#EEEFEE"/>
<path d="M46.0868 38.4944C44.7327 37.9392 42.1288 38.0021 40.5912 39.365C39.0822 40.703 39.5137 45.1951 38.0126 48.1906C41.6045 48.3254 44.8337 50.5325 46.0593 53.702C46.4343 52.9949 46.8112 52.2108 47.1765 51.3396C48.594 47.9589 49.1806 45.9307 49.1389 44.783C49.0861 43.3378 48.3714 39.4316 46.0868 38.4944Z" fill="black"/>
<path d="M32.3212 58.1976C32.2229 58.1976 29.2379 58.6859 27.6998 58.7142C21.8453 58.8222 17.3313 60.4249 12.5328 57.496C11.5307 56.8844 11.0281 56.6266 10.6129 56.4807C10.7929 57.2381 10.8891 59.7505 11.36 60.4797C12.4891 61.8632 21.5002 66.6545 24.1733 67.2765C26.523 67.8239 31.8658 67.9686 33.9616 66.9126C38.1305 64.8123 37.0676 58.1976 32.3212 58.1976Z" fill="#EEEFEE"/>
<path d="M10.7393 49.0927C10.655 48.9311 10.4801 48.8383 10.2991 48.8591C10.034 48.8894 9.85669 49.1467 9.92272 49.4052L11.8375 53.9046L11.5008 53.9431L8.66294 49.211C8.14229 49.2263 8.22288 49.5974 8.43708 50.2393L10.4457 54.5695L10.2899 54.6525L7.80089 50.8312C7.15206 50.562 7.12662 50.9685 7.47677 51.8657L9.57141 55.4388L9.34206 55.6297C9.34206 55.6297 6.84872 52.3755 6.5448 52.6714C6.36594 52.846 6.3473 53.2068 6.6586 53.665C7.30102 54.6097 10.0478 59.4055 10.2903 60.2666C10.5329 61.1277 11.4068 63.1897 13.4774 62.087C15.5479 60.9844 15.5229 58.2557 15.5229 58.2557L10.7393 49.0927Z" fill="#EEEFEE"/>
<path fill-rule="evenodd" clip-rule="evenodd" d="M18.3397 57.2619C15.8351 57.1116 5.25505 53.3372 2.68715 54.5426C1.92413 54.9013 0.4855 55.9528 0.502201 57.3662C0.511523 58.1358 0.0982652 59.4191 0 60.113C0.172061 60.5672 1.28056 61.1978 2.16048 61.4473C3.09924 61.5862 5.3976 62.7364 7.33979 63.0365C11.5046 63.6791 18.6894 59.964 23.6209 59.783L27.4912 59.6926C28.9987 58.9882 30.6444 58.6285 32.3298 58.1918C32.4798 57.3027 32.746 56.7883 32.9992 56.2008C29.6778 56.0614 23.4972 57.5086 18.3397 57.2619Z" fill="url(#paint3_linear)"/>
<path d="M22.3786 26.178C24.4272 20.8525 20.4272 21.3242 20.4272 21.3242C20.4272 21.3242 19.4236 23.7464 20.7387 26.7975C22.0539 29.8486 24.6474 28.1561 24.6474 28.1561C24.6474 28.1561 21.4231 28.6616 22.3786 26.178Z" fill="black"/>
<path d="M37.3884 16.4863C37.387 16.475 37.3874 16.4369 37.388 16.3806C37.2608 16.4348 37.3884 16.4863 37.3884 16.4863Z" fill="#EEEFEE"/>
<path d="M37.815 16.3057C37.5769 16.3282 37.4517 16.3558 37.3883 16.3828C37.3878 16.4391 37.3874 16.4772 37.3887 16.4885C37.3887 16.4885 37.2611 16.437 37.3883 16.3828C37.3918 16.0369 37.4089 14.9219 37.1782 14.0221C36.7714 12.4357 36.8131 10.4869 35.0954 9.47202C33.3779 8.45693 34.8263 9.56135 32.3403 8.83368C31.2784 8.52277 27.6073 5.91038 26.2475 5.43692C24.8879 4.96308 22.6624 9.95207 22.2036 10.8827C21.6407 12.025 21.9797 16.1214 22.0514 16.9334C22.1031 17.5193 22.5466 18.1895 22.5466 18.1895V20.1765C22.4979 20.8815 22.5674 21.5905 22.7729 22.2667C23.3842 24.2778 23.6203 25.2675 25.8255 27.6035C26.2352 28.0177 26.9643 29.2771 27.4236 29.4535C29.0993 30.0963 30.0103 29.6636 30.9477 29.3851C31.6979 29.1623 32.7097 27.9843 32.7097 27.9843C32.7097 27.9843 36.6817 24.9321 36.7531 23.376C36.8248 21.8196 37.314 21.3124 37.314 21.3124C37.314 21.3124 37.4225 21.1062 37.8222 21.2976C38.5196 21.6311 38.9287 20.2895 39.0575 18.8126C39.156 17.683 38.5306 16.2379 37.815 16.3057Z" fill="#EEEFEE"/>
<path d="M44.5058 23.7962C44.7266 23.8673 45.4625 24.7915 44.285 25.0047C43.1078 25.2182 42.9606 22.0185 43.1814 21.3786C43.3748 20.8178 44.1184 19.7312 43.9254 18.2192C43.8873 17.9211 43.5509 17.6607 43.6144 17.6185C43.8786 17.4437 44.4019 17.1423 44.6493 16.5545C44.6521 16.5477 44.6536 16.5405 44.6546 16.5331C45.0964 13.7011 43.4925 13.115 43.0635 13.0098C43.005 12.9954 42.9687 12.9406 42.9773 12.883C44.0186 5.85409 34.7803 1.68519 34.575 1.54439C34.5723 1.54264 34.57 1.5411 34.5672 1.53954C29.1976 -1.44318 25.5193 0.688945 22.6502 1.47079C19.9015 2.21982 20.6627 5.05592 20.732 5.54395C20.7365 5.5756 20.7818 5.58958 20.7816 5.62162C20.7746 6.86003 22.8323 6.23684 19.3286 9.9416C15.6234 13.8592 18.8252 18.0976 19.1546 18.5116C19.1718 18.5332 18.8582 19.7606 18.805 19.9938C17.5561 25.4632 19.3429 28.8499 19.3491 28.8582C21.268 31.3908 23.4821 31.3424 24.9268 30.9125C25.0734 30.8688 26.7241 30.4435 26.5751 30.4788C23.538 31.1993 20.6371 30.2376 19.5593 27.8488C18.3084 25.0758 19.0443 22.2319 20.2217 19.3879C21.3337 16.7021 20.9361 12.2409 20.8884 11.7529C20.8857 11.7246 20.8942 11.6962 20.9119 11.6735C22.6913 9.38949 23.138 7.6481 23.2221 7.24649C23.233 7.19484 23.2799 7.15716 23.3343 7.15502C30.3226 6.88664 32.4419 8.24274 33.4675 12.0646C34.475 15.8187 36.6784 18.6214 36.7757 18.7439C36.7782 18.747 36.7802 18.7497 36.7823 18.7532L38.1564 20.9193C38.1698 20.9405 38.1759 20.9654 38.1733 20.9902L36.0437 23.8358C35.191 24.975 34.7143 26.3436 34.7209 27.7494C34.7245 28.5633 34.905 29.1196 35.5349 28.5273C36.0849 28.0106 37.5045 28.945 37.4461 29.4443C37.4428 29.4713 37.4505 29.4989 37.4653 29.522C38.4041 30.9752 40.3962 30.7632 41.0102 30.6579C41.0964 30.6429 41.1687 30.7216 41.144 30.8028C40.2486 33.747 36.8526 31.9014 36.8526 31.9014C40.8999 34.5322 41.1943 30.6216 42.3718 30.0528C43.4457 29.5339 42.4527 27.4047 42.4654 27.3744C42.4654 27.3744 43.4333 29.5407 44.7284 27.802C44.8039 27.7004 43.7358 28.1106 43.3629 26.8543C43.3461 26.7976 43.3762 26.7366 43.4334 26.7162C44.219 26.4354 44.7503 25.5846 44.7969 25.5079C44.7994 25.504 44.802 25.5003 44.8051 25.4966C45.8262 24.2922 44.5058 23.7962 44.5058 23.7962Z" fill="black"/>
<path d="M33.6128 16.5861C33.8954 12.2118 33.9809 6.51745 27.2223 5.98767C19.5135 5.38332 24.9041 7.23987 24.9041 7.23987C24.9041 7.23987 33.3468 6.42521 33.1225 15.6961C32.9553 22.5941 36.3994 23.6179 36.3994 23.6179C36.3994 23.6179 33.2755 21.8086 33.6128 16.5861Z" fill="black"/>
<path d="M24.4212 4.26471C22.2545 4.35482 20.7201 10.403 20.7201 10.403C20.7201 10.403 21.0811 20.2425 21.1207 15.9212C21.1605 11.5998 26.1363 7.15324 26.1363 7.15324C26.1363 7.15324 26.5877 4.1744 24.4212 4.26471Z" fill="black"/>
<defs>
<linearGradient id="paint0_linear" x1="7.88029" y1="39.9951" x2="7.88029" y2="73.5269" gradientUnits="userSpaceOnUse">
<stop stop-color="#EEEFEE"/>
<stop offset="0.9" stop-color="#BCBEBE"/>
<stop offset="1" stop-color="#AEB1B1"/>
</linearGradient>
<linearGradient id="paint1_linear" x1="30.1804" y1="64.8623" x2="30.1804" y2="45.9931" gradientUnits="userSpaceOnUse">
<stop stop-color="#AEB1B1"/>
<stop offset="1" stop-color="#AEB1B1"/>
</linearGradient>
<linearGradient id="paint2_linear" x1="29.8675" y1="53.6624" x2="29.8675" y2="23.3565" gradientUnits="userSpaceOnUse">
<stop stop-color="white"/>
<stop offset="0.6" stop-color="#E0E1E0"/>
<stop offset="1" stop-color="#AEB1B1"/>
</linearGradient>
<linearGradient id="paint3_linear" x1="4.52389" y1="58.7083" x2="55.6517" y2="58.7083" gradientUnits="userSpaceOnUse">
<stop stop-color="#EEEFEE"/>
<stop offset="0.9" stop-color="#BCBEBE"/>
<stop offset="1" stop-color="#AEB1B1"/>
</linearGradient>
</defs>
</svg>
