<svg viewBox="0 0 100 100" version="1.1" xmlns="http://www.w3.org/2000/svg" xmlns:xlink="http://www.w3.org/1999/xlink">
    <title>Sports/Resources/Courts/Badminton</title>
    <defs>
        <path d="M97.5518969,45.0570006 L79.9651817,41.1196763 L78.0965151,24.6454115 C77.9340223,23.1954762 76.7965731,22.0517772 75.3466378,21.8955342 L59.1411109,20.0643659 L57.2099471,2.77763728 C57.1099515,1.92142549 56.6662214,1.14021035 55.9725023,0.62773322 C55.285033,0.109006368 54.4163217,-0.109733871 53.56011,0.0527588779 L35.8858986,3.17761944 C34.7546991,3.37761051 33.8297404,4.17132509 33.4610069,5.25877657 L16.0180352,57.4628923 L7.69965641,65.7812711 L5.48725514,67.9936724 C1.94991299,71.5308193 0,76.243109 0,81.2491356 C0,86.2551622 1.94991299,90.9674519 5.49350486,94.5047941 C9.03084701,98.048386 13.7431367,99.998299 18.7491633,99.998299 C23.75519,99.998299 28.4674797,98.048386 32.0048218,94.5047941 L34.2172231,92.2923928 L42.5356019,83.974014 L94.7395224,66.5310424 C95.7957253,66.1748083 96.5894398,65.2810982 96.8144298,64.187397 L99.9392904,48.7255869 C100.270526,47.0633564 99.2143227,45.4319839 97.5518969,45.0570006 Z M57.772422,26.1892879 L72.1655297,27.8204651 L73.8029566,42.2198225 L34.5422086,70.5310592 L29.4611853,65.4500359 L57.772422,26.1892879 Z M38.7982687,9.00255482 L51.3664578,6.78390382 L53.066382,22.0332233 L24.986385,60.9750403 L22.3240038,58.3126591 L38.7982687,9.00255482 Z M9.91205769,90.0862413 C7.54966311,87.7238467 6.24972112,84.586682 6.24972112,81.2491356 C6.24972112,77.9115892 7.54966311,74.7744245 9.91205769,72.4120299 L27.586269,90.0862413 C22.8614798,94.8110304 14.6368469,94.8110304 9.91205769,90.0862413 Z M32.0048218,85.6676884 L14.3306105,67.9934771 L18.7491633,63.5686746 L36.4296244,81.2491356 L32.0048218,85.6676884 Z M91.0396875,61.1812811 L41.6856398,77.6742951 L39.0232586,75.0119139 L77.8027782,47.0444119 L93.202091,50.4880083 L91.0396875,61.1812811 Z" id="path-1"></path>
    </defs>
    <g id="Sports/Resources/Courts/Badminton" stroke="none" stroke-width="1" fill="none" fill-rule="evenodd">
        <mask id="mask-2" fill="white">
            <use xlink:href="#path-1"></use>
        </mask>
        <use id="Shape" fill="#000000" fill-rule="nonzero" opacity="0" xlink:href="#path-1"></use>
        <g id="Group" mask="url(#mask-2)" fill="#000000">
            <g id="Colour/Black">
                <rect id="Rectangle" x="0" y="0" width="100" height="100"></rect>
            </g>
        </g>
    </g>
</svg>
