<svg width="24" height="24" viewBox="0 0 24 24" fill="none" xmlns="http://www.w3.org/2000/svg">
<path fill-rule="evenodd" clip-rule="evenodd" d="M12.9909 3.29565V14.8106C14.9961 15.3215 16.4835 17.1424 16.4835 19.3044C16.4835 21.8613 14.4034 23.9415 11.8465 23.9415C9.28963 23.9415 7.20947 21.8613 7.20947 19.3044C7.20947 17.1424 8.69688 15.3215 10.7021 14.8106V8.5493H8.35389V6.26047H10.7021V4.44007H8.35389V2.15124H10.7021V0H12.9909V2.15124V3.29565ZM11.2111 21.5646C11.2721 21.8596 11.5334 22.0814 11.8465 22.0814C12.1596 22.0814 12.4209 21.8596 12.482 21.5646C12.4908 21.522 12.4955 21.4778 12.4955 21.4325C12.4955 21.074 12.2049 20.7835 11.8465 20.7835C11.4881 20.7835 11.1975 21.0741 11.1975 21.4325C11.1975 21.4777 11.2022 21.5219 11.2111 21.5646Z" fill="#231F20"/>
</svg>
