
<svg  viewBox="0 0 100 100" version="1.1" xmlns="http://www.w3.org/2000/svg" xmlns:xlink="http://www.w3.org/1999/xlink">
    <title>Sport/Player/Volleyball</title>
    <g id="Sport/Player/Volleyball" stroke="none" stroke-width="1" fill="none" fill-rule="evenodd">
        <g id="Group-2">
            <rect id="Rectangle" x="0" y="0" width="100" height="100"></rect>
        </g>
        <g id="Group-3" transform="translate(15.000000, 0.000000)" fill="currentColor">
            <path d="M50.6924351,6 C50.3854224,5.64157331 50.1457758,5.21252471 50,4.74039401 C50.4351187,4.08461906 50.6869133,3.22802154 50.7112093,2.31893476 C50.7332965,1.48292395 50.5621204,0.669681202 50.2252899,0 C50.7443401,0.0564430003 51.2390944,0.239541912 51.6985091,0.54561567 C51.8983987,1.13867618 52,1.76500261 52,2.40782567 C52,3.78781613 51.5251242,5.09254925 50.6924351,6" id="Fill-88"></path>
            <path d="M52.6039698,7 C52.006239,6.84415584 51.4633297,6.61280372 51,6.32458591 C52.3846839,5.38442453 53.1769424,4.0409728 53.175174,2.62107428 C53.175174,2.06542683 53.0566889,1.52171581 52.8214872,1 C53.2176164,1.19822518 53.5836823,1.43091848 53.9108426,1.69445873 C54.344109,2.04262691 54.7031011,2.43666316 54.9772084,2.86597224 C55.0656301,3.64881418 54.8958604,4.44198315 54.4838153,5.16111943 C54.0717701,5.88280394 53.4227548,6.51731229 52.6039698,7" id="Fill-89"></path>
            <path d="M48.6691224,1.45679012 C47.3494555,1.45679012 46.0762332,1.9981365 45,3 C45.4163997,2.25413464 45.920884,1.61728395 46.4910314,1.12532029 C47.3446509,0.389005358 48.3247918,0 49.3225496,0 C49.3609865,0 49.401025,0.00069881202 49.4442665,0.0023293734 C49.6828956,0.498718845 49.8686739,1.05287678 50,1.64314 C49.5595772,1.51945027 49.1127482,1.45679012 48.6691224,1.45679012" id="Fill-90"></path>
            <path d="M45,8.28529828 C45.1683278,7.82386222 45.4031008,7.38788585 45.6895533,7 C45.9671465,8.05266661 46.4883721,8.99816956 47.2059801,9.74681754 C47.7286822,10.293452 48.3385013,10.7174474 49,11 C48.2248062,10.9392628 47.4702842,10.6811715 46.7984496,10.2445295 C46.0675526,9.76911557 45.4473976,9.09285298 45,8.28529828" id="Fill-91"></path>
            <path d="M44,5.64673514 C44.525283,4.84319349 45.2377358,4.17654906 46.0633962,3.71700127 C46.9071698,3.24794904 47.8596226,3.00016674 48.8181132,3 C49.2075472,3 49.6,3.04051891 49.9849057,3.12038952 L50,3.1237244 C49.8716981,3.86156873 49.5924528,4.54205296 49.1864151,5.09697859 C48.9841509,5.05996132 48.7773585,5.04111919 48.5720755,5.04111919 C47.7116981,5.04111919 46.8618868,5.36010138 46.114717,5.96338291 C45.4686792,6.4847929 44.9388679,7.20012673 44.6007547,8 C44.2535849,7.27482825 44.0467925,6.46845194 44,5.64673514" id="Fill-92"></path>
            <path d="M54,8 C53.6657572,8 53.3301501,7.95340345 53,7.86123284 C53.6002729,7.32369267 54.0777626,6.64081215 54.3888131,5.87160386 C54.6289222,5.27943325 54.7667121,4.64373357 54.7994543,4 C54.9331514,4.47195443 55,4.96289804 55,5.46640374 C55,6.34954718 54.7858117,7.21691499 54.3792633,7.97940403 C54.2537517,7.99298861 54.1268759,8 54,8" id="Fill-93"></path>
            <path d="M49.8784892,1.1493188 C49.9707125,1.54807318 50.0108742,1.96629039 49.997487,2.39026859 C49.9930246,2.53662904 49.9826123,2.68174387 49.9647626,2.82483457 L49.9573252,2.82327754 C49.5601702,2.74527053 49.1555778,2.70572207 48.7554479,2.70572207 C47.766279,2.70572207 46.7845475,2.94815103 45.9143764,3.40685091 C45.1706404,3.79875438 44.5146653,4.34495913 44,5 C44.0208246,4.11436357 44.2498953,3.24585442 44.6649,2.47824056 C45.7314174,1.52487349 47.1132788,1 48.5561266,1 C48.9979058,1 49.4426599,1.05013624 49.8784892,1.1493188" id="Fill-94"></path>
            <path d="M49.6769852,11 C48.8061911,10.7979317 48.0040377,10.3167111 47.3539704,9.60725162 C46.6958277,8.88795838 46.2274563,7.96786575 46,6.94388402 C46.1588156,6.75117371 46.3297443,6.57416572 46.5114401,6.41698389 C46.7012113,6.25456795 46.8963661,6.11515036 47.0982503,6 C47.448183,7.14563507 48.0794078,8.11917904 48.9259758,8.81801167 C49.3432032,9.16203527 49.8021534,9.42865753 50.2880215,9.61058241 C50.781965,9.79520365 51.294751,9.88878315 51.8129206,9.88878315 C51.8748318,9.88878315 51.9367429,9.88751427 52,9.88465931 C51.7187079,10.1414478 51.4145357,10.359377 51.090175,10.5346403 C50.6433378,10.7774711 50.166891,10.9340185 49.6769852,11" id="Fill-95"></path>
            <path d="M48.8318772,7.98071647 C47.9789847,7.31195579 47.3471074,6.37903065 47,5.28086358 C47.4136954,5.09558268 47.8472255,5 48.2821724,5 C48.4536009,5 48.6264463,5.01526778 48.7950413,5.04564431 C49.001889,5.66367142 49.3504132,6.23557711 49.8080283,6.703312 C50.2599764,7.1654805 50.8153483,7.52570474 51.4146399,7.74486104 L51.4812279,7.76871695 C51.9076741,7.91678263 52.3454545,7.99184923 52.7818182,7.99184923 C52.8540732,7.99184923 52.927745,7.98962268 53,7.98532862 C52.7874852,8.34348535 52.5395514,8.67253787 52.2590319,8.96707884 C52.077686,8.98886724 51.8949233,9 51.7149941,9 C51.1964581,9 50.6850059,8.9107789 50.1919717,8.73504036 C49.7060213,8.56184645 49.2484061,8.30801956 48.8318772,7.98071647" id="Fill-96"></path>
            <path d="M42.7205443,85.0234811 L43.4459304,83.7817755 C43.5807098,84.1956774 44.1243708,85.2993131 44.1243708,85.2993131 L42.7205443,85.0234811 Z M39.0042658,34.3983023 C39.0042658,34.3983023 38.59387,34.6201672 38.1849885,34.5369871 C37.7745926,34.4538069 37.8018514,34.2042665 37.8018514,34.2042665 L38.7574226,33.7606904 L39.0042658,34.3983023 Z M0,86.2367424 C0,86.5989834 0.658753519,87.1005242 0.932855558,87.2676533 C1.2069576,87.434936 3.97826551,86.153101 3.97826551,86.153101 C3.97826551,86.153101 4.41743452,86.0694597 5.07618804,85.9301599 C5.73494156,85.79086 5.37906322,85.9301599 5.81823223,85.9023306 C6.25740125,85.8745014 6.11959304,85.8745014 6.9706723,85.9301599 C7.82175156,85.985972 7.73846088,86.0138012 8.34269687,86.1252718 C8.94693286,86.2367424 9.1392586,86.1252718 9.1392586,86.1252718 L10.0721142,86.3203838 C10.0721142,86.3203838 11.0594872,86.6547956 11.5819469,86.6826248 C12.1028922,86.710454 12.4587706,86.0138012 12.4587706,86.0138012 C15.3966598,86.0416304 19.6505418,88.0757767 19.6505418,88.0757767 C19.6505418,88.0757767 19.6505418,88.0757767 19.6778005,88.521659 C19.7050593,88.9673877 17.7287987,91.4474163 17.2351122,93.4815625 C16.7414256,95.5157087 16.3567742,98.2186785 16.4945824,98.5530903 C16.6308762,98.887502 16.8777195,99.1102895 17.8666069,98.9431605 C18.85398,98.7758777 20.2532634,96.1288738 20.2532634,96.1288738 C20.2532634,96.1288738 20.5288798,95.9337619 20.6106561,95.9057789 C20.6939468,95.8779497 21.0498251,95.6271793 21.3511859,95.4320673 C21.6540611,95.2371091 22.1477476,95.0978093 22.1477476,95.0978093 L22.9443094,94.5962684 L24.0967494,94.1225568 C24.0967494,94.1225568 25.029605,93.621016 25.8261667,93.2866042 C26.6212141,92.9521925 26.2365626,93.2866042 26.7317635,93.3700919 C27.22545,93.4537333 27.2527088,93.3979211 27.6101015,93.3422627 C27.9659799,93.2866042 27.5813284,92.2555397 27.5813284,92.2555397 L30.1345662,92.1997275 L30.2163425,92.5899514 C30.2163425,92.5899514 30.875096,93.8159743 33.1527173,93.9552741 C35.4318531,94.0947276 37.2430467,92.8407219 37.2430467,92.8407219 L44.2970096,93.4815625 C44.2970096,93.4815625 44.7346643,93.7881451 45.0647982,93.8159743 C45.3934178,93.8438035 45.6417754,93.8159743 46.0521713,94.0110862 C46.4640816,94.2060445 46.4368228,94.3175151 47.2606433,94.8192096 C48.0844638,95.3207504 49.3731977,94.5126271 51.4327489,93.5652039 C53.4907858,92.6177807 53.7648878,90.4721639 53.737629,90.0542644 C53.7103703,89.6362113 53.6270796,89.8869817 53.3802363,89.5527236 C53.1333931,89.2183118 53.3257188,89.1346704 53.29846,88.7446002 C53.2712013,88.35453 53.2439425,88.1314351 53.2439425,87.9364768 C53.2439425,87.7413649 53.024358,87.4627652 53.024358,87.4627652 C53.024358,87.4627652 53.024358,83.1158732 52.3110869,78.3230988 C51.5963015,73.5303244 49.7578492,69.8799314 49.7578492,69.8799314 C49.7578492,69.8799314 49.8123667,69.7128024 49.8396255,69.3783906 C49.8683986,69.0439788 50.05921,68.5982502 50.2787945,68.0965556 C50.498379,67.5950148 50.4438614,67.8457852 50.4711202,67.455715 C50.498379,67.0656448 50.6361872,66.926345 50.6361872,66.926345 C50.6361872,66.926345 50.8285129,66.6755746 50.8830305,66.3411628 C50.937548,66.006751 51.0753562,65.7838098 51.0753562,65.7838098 L51.5145252,64.4463164 L51.4039758,63.7218344 C51.4039758,63.7218344 51.8991767,63.1644814 52.1187612,62.55147 C52.3383457,61.9384586 52.5579302,58.92906 52.5579302,58.92906 C52.5579302,58.92906 52.7775147,58.8175894 53.0788755,58.7061188 C53.3802363,58.5946482 53.29846,57.6193958 53.29846,57.5079252 C53.29846,57.3964546 53.6558527,57.2014963 53.737629,56.922743 C53.8194053,56.6441434 52.9410673,53.6904032 52.9410673,53.6904032 C52.9410673,53.6904032 56.7557802,57.0620428 57.9369934,57.8421832 C59.1166923,58.6224774 60.1055797,59.653542 60.5720075,60.0994244 C61.0384353,60.545153 61.7789651,60.4894946 61.7789651,60.4894946 C61.7789651,60.4894946 62.1636166,60.8795648 63.3705742,61.1581644 C64.5790462,61.4369178 65.8405213,61.102506 65.8405213,61.102506 C65.8405213,61.102506 66.637083,61.2139766 67.5699386,60.9910354 C68.5027941,60.7680942 69.0252538,60.0714414 69.0252538,60.0714414 C69.0252538,60.0714414 69.7657836,59.8763294 70.2322114,59.6257128 C70.6986392,59.3747886 71,58.9012308 71,58.9012308 C71,58.9012308 70.8909649,58.4553484 70.1504351,58.8175894 C69.4083909,59.1798304 67.1580283,58.9847184 67.1580283,58.9847184 C67.1580283,58.9847184 67.5426798,58.5110068 67.8712994,57.9538076 C68.2014333,57.3964546 68.2286921,57.1735134 68.1181426,57.0062306 C68.0091076,56.8391016 67.2958365,57.452113 66.9657026,57.9538076 C66.637083,58.4553484 65.6209368,58.3438778 65.6209368,58.3438778 C65.6209368,58.3438778 65.7860038,57.5915666 65.6209368,57.5357544 C65.4573842,57.480096 64.9076657,58.0652782 64.6880812,58.1487658 C64.4684967,58.2324072 62.8223701,58.0372952 62.1908754,57.7865248 C61.5593806,57.5357544 57.387275,52.4643804 56.5649689,50.8203044 C55.7411484,49.1762284 53.3802363,47.2535528 53.29846,46.9192947 C53.2166837,46.5848829 52.859291,45.5259891 52.859291,45.5259891 C52.859291,45.5259891 53.8466641,43.3525431 53.6558527,41.8477669 C53.463527,40.3431445 50.9648068,38.197374 50.9648068,38.197374 C50.9648068,38.197374 50.9648068,38.197374 50.937548,37.9467573 C50.9102892,37.6958331 50.9935799,37.5565333 50.7739954,36.8042221 C50.5544109,36.0519109 50.4438614,36.3026813 50.1970182,36.0519109 C49.9501749,35.8011405 49.7578492,35.8567989 49.3186801,35.7453283 C48.8795111,35.6338577 48.9067699,35.5223871 48.7144442,35.4109165 C48.5221184,35.2994459 47.8088474,34.9650342 47.2606433,34.7144175 C46.7109248,34.4634933 45.0102807,33.5162239 44.7906962,33.2931289 C44.5711117,33.0703415 44.8997313,30.7574419 45.3116415,29.7543603 C45.7235517,28.7511249 46.848733,28.3610547 47.0138,28.0546259 C47.1773526,27.7480433 47.1500938,26.9679029 46.8214743,26.8006201 C46.4913403,26.6334911 46.3823053,26.2990793 46.3550465,26.0762919 C46.3277877,25.8531969 46.3277877,25.9090091 46.2444971,25.8531969 C46.1627208,25.7975385 45.9431363,25.5467681 45.9158775,25.4631267 C45.8886187,25.3794853 45.8886187,25.3238269 45.7508105,25.1845271 C45.6130023,25.0450735 45.2026064,24.8501153 45.2026064,24.8501153 C45.2026064,24.8501153 45.1465745,24.1534625 45.0102807,23.7355631 C44.8724725,23.3175099 43.0612789,23.4011513 43.0612789,23.4011513 L42.8689532,23.1225517 L42.4570429,22.7881399 C42.4570429,22.7881399 41.7982894,22.1193163 41.3046028,21.8685459 C40.8109163,21.6177755 38.9436908,21.4226635 38.9436908,21.4226635 C38.7241063,20.9471069 38.0774678,20.9726298 37.6095256,21.0312095 C37.1249253,21.0922493 36.6463826,21.3625463 36.2072135,21.557197 C35.8028752,21.7369337 35.4030799,21.8797698 35.048716,22.1625208 C34.7125245,22.430204 34.2703268,22.6552977 33.9659372,22.9488113 C33.6782058,23.2264884 33.5146532,23.682826 33.3298993,24.0287692 C33.1587748,24.351342 32.8634715,24.5812021 32.736264,24.9045437 C32.6257145,25.1820671 32.6711458,25.4768107 32.6544877,25.7666342 C32.2622643,25.8244452 31.8564116,25.7936947 31.4732745,25.9014752 C31.1113386,26.0029519 31.0840799,26.1754623 31.0053323,26.5277094 C30.9659585,26.7091374 30.9871598,27.0357078 31.0674217,27.1908441 L31.479332,28.6398081 L28.7352828,25.9646675 C28.7352828,25.9646675 28.268855,25.3238269 28.0765293,25.1566979 C27.8842036,24.9894151 25.9352018,24.7108155 25.029605,24.6828325 C24.1240082,24.6550033 21.4617353,25.1566979 21.4617353,25.1566979 C21.4617353,25.1566979 20.8574994,25.1287149 19.5399923,25.7697093 C18.2224853,26.4105499 17.8666069,28.5839959 17.4001792,28.9742199 C16.9337514,29.3642901 16.7414256,30.5903129 16.7686844,30.8689125 C16.7959432,31.1476659 17.1245628,30.7296127 17.3168885,30.4230301 C17.5092142,30.1166013 17.8393482,29.8380017 18.0029008,30.0329599 C18.1679678,30.2280719 18.8812388,29.2806487 19.2386315,29.0855367 C19.5960242,28.8905785 19.897385,29.0020491 20.4728479,29.1135197 C21.0498251,29.2249903 21.0770839,28.7791079 21.6268023,28.8905785 C22.1750064,29.0020491 22.3673321,28.0824551 22.3673321,28.0824551 C22.3673321,28.0824551 23.107862,28.1382673 25.2219307,28.4168669 C27.3344851,28.6954665 27.5540696,29.5314191 27.7191366,29.6987019 C27.8842036,29.8658309 34.1961223,37.8073037 34.1961223,37.8073037 L34.6352914,38.5039565 C35.0047991,39.0094949 35.3606774,39.5156483 35.7271564,40.0231855 C35.9209965,40.2902536 36.1814692,40.4809068 36.3162486,40.7930245 C36.4570856,41.1197486 36.5010025,41.4515466 36.7493601,41.714771 C36.9734878,41.9527799 37.2854492,42.0275037 37.5353212,42.2476773 C37.9517746,42.6159147 38.4348605,42.995376 38.6393013,43.5378149 C38.7468219,43.8236409 38.6832182,44.1360661 38.8119401,44.4146657 C38.9754927,44.7664516 39.2692816,45.0210658 39.4252623,45.4005271 C39.8598882,46.4592671 39.7750832,47.688365 40.2839135,48.6980579 C40.4323223,48.9924941 40.6064756,49.2657124 40.7457981,49.5664523 C40.9396383,49.9825067 41.0517021,50.3338313 41.1425646,50.7700273 C41.1910247,51.0021936 41.2864303,51.1161243 41.4545261,51.280947 C41.821005,51.6382679 41.7437719,51.8013994 41.7210562,52.2777248 C41.6907687,52.9353244 42.4055541,53.4348664 42.2647172,54.0837022 C42.2192859,54.2934207 42.1617396,54.4268779 42.1556821,54.6525866 C42.151139,54.8261732 42.1496246,55.0003749 42.0845064,55.1645826 C41.8497782,55.7617575 41.607478,55.9457993 42.0209027,56.5355941 C42.3843529,57.0522026 42.1617396,57.3557101 41.9088388,57.9110643 C41.7664875,58.2262571 41.8300913,58.5280733 41.8255482,58.8732478 C41.8255482,58.8732478 41.7437719,59.2076596 40.7836575,59.6813712 C39.8220288,60.1550828 36.5842931,64.6970868 36.0633478,66.9541742 C35.5408881,69.2112616 36.6115519,71.8304362 36.6660694,73.1402542 C36.720587,74.4497646 35.2395273,76.7626642 34.3884481,78.518057 C33.5373688,80.2736036 32.9891647,84.1467841 32.9891647,84.1467841 C32.9891647,84.1467841 32.961906,84.341896 33.0436823,84.4533666 C33.1254586,84.5648372 32.7423215,84.8712661 32.7423215,84.8712661 L32.3849288,85.5957481 L32.0563092,85.6793894 L31.6716577,85.4844312 C31.6716577,85.4844312 31.4248144,85.3449777 31.0946805,85.3171484 C30.7660609,85.2893192 30.8205784,85.1778486 30.6282527,84.9270782 C30.435927,84.6763078 30.0800486,84.6484786 30.0800486,84.6484786 C30.0800486,84.6484786 30.0800486,84.6484786 28.4596664,83.5616019 C26.8407986,82.4748788 25.2764483,82.9487442 22.3945909,82.7536322 C19.5127336,82.5585202 14.6818744,82.16845 14.6818744,82.16845 L13.0902653,77.5428046 C13.0902653,77.5428046 12.7889045,77.069093 12.7071282,77.0134346 C12.6238376,76.9576224 11.2245542,77.0969222 10.6748358,77.3198634 C10.1266317,77.5428046 8.0140773,79.2983512 7.46435884,79.7164044 C6.91615476,80.1343038 6.39369508,80.329262 6.17411057,80.4129034 C5.95452606,80.4965448 3.31951199,82.3913912 2.05803686,83.422302 C0.795047351,84.4533666 0,85.8745014 0,86.2367424 L0,86.2367424 Z" id="Fill-97"></path>
        </g>
    </g>
</svg>