<svg xmlns="http://www.w3.org/2000/svg" xmlns:xlink="http://www.w3.org/1999/xlink" viewBox="0 0 30 30">
    <defs>
        <path id="fwk6z7qnja" d="M14 5c4.97 0 9 4.03 9 9 0 1.773-.513 3.426-1.398 4.82L25 22.113l-2.956 2.894-3.4-3.296C17.288 22.529 15.699 23 14 23c-4.97 0-9-4.03-9-9s4.03-9 9-9zm0 4c-2.761 0-5 2.239-5 5s2.239 5 5 5 5-2.239 5-5-2.239-5-5-5z"/>
    </defs>
    <g fill="none" fill-rule="evenodd">
        <g>
            <g>
                <g>
                    <g transform="translate(-744 -474) translate(120 359) translate(0 100) translate(624 15)">
                        <mask id="1ajpf31unb" fill="#fff">
                            <use xlink:href="#fwk6z7qnja"/>
                        </mask>
                        <use fill="#D8D8D8" xlink:href="#fwk6z7qnja"/>
                        <g fill="currentColor" mask="url(#1ajpf31unb)">
                            <path d="M0 0H30V30H0z"/>
                        </g>
                    </g>
                </g>
            </g>
        </g>
    </g>
</svg>
