<svg viewBox="0 0 100 100" version="1.1" xmlns="http://www.w3.org/2000/svg" xmlns:xlink="http://www.w3.org/1999/xlink">
    <title>Sport/Player/Rugby</title>
    <g id="Sport/Player/Rugby" stroke="none" stroke-width="1" fill="none" fill-rule="evenodd">
        <g id="Group-2">
            <rect id="Rectangle" x="0" y="0" width="100" height="100"></rect>
        </g>
        <g id="AdobeStock_104303164" transform="translate(20.000000, 0.000000)" fill="#000000">
            <path d="M20.6467782,36.7049344 C21.4105155,36.1449322 21.5956558,35.3809254 21.0205622,34.6053305 C20.3934568,33.760207 20.5465276,32.9490393 20.8941709,32.0993344 C20.9882232,31.8691891 21.1183874,31.6487455 21.4458188,31.6913251 C21.8182553,31.7406419 21.7578893,32.019565 21.7745978,32.2604899 C21.827957,33.0341984 22.0775056,33.7019969 22.6911364,34.2291212 C23.1721778,34.6430593 23.5537769,35.1820411 24.0614978,35.5542081 C25.0578058,36.2856065 25.7929771,37.3975261 27.1363894,37.6470747 C27.4848411,37.711483 27.8424556,37.7502897 28.1949497,37.8475759 C30.1692403,38.3914086 32.1618563,38.8535856 34.2312771,38.8495695 C34.5802679,38.8487347 35.4369795,38.8495695 35.4369795,38.8495695 C35.4369795,38.8495695 35.5013879,38.4657881 35.5873555,38.1782413 C35.6291266,38.038645 35.7633331,37.8675183 35.8932277,37.8233217 C36.5445873,37.5996443 36.7523648,37.0490743 37.1218369,36.5338076 C37.978279,35.3399628 37.9192605,34.1668688 37.5683833,32.9059207 C37.2546959,31.7778317 36.9030102,30.6766917 36.3052793,29.6361872 C35.8883769,28.9104482 35.6479909,28.0637077 35.2917239,27.282184 C34.7147438,26.0171935 34.3185922,24.6859083 34.1436926,23.2934487 C34.0706605,22.7140432 33.893066,21.9344059 33.893066,21.9344059 C33.893066,21.9344059 33.4120247,22.0602582 32.675506,22.3141186 C30.9448352,22.9105021 29.13709,23.1336406 27.3282669,23.3222842 C26.70197,23.3877705 26.1505915,23.4721212 25.7533619,24.0593419 C25.4663541,24.4835206 25.0807125,24.8564961 24.6864473,25.1898564 C23.8170696,25.9252971 22.8541785,26.5262619 21.811518,26.9903253 C20.1212709,27.7424745 18.5725065,28.7514485 16.967688,29.6577465 C16.5949821,29.8682189 16.2276659,30.1018676 15.9568276,30.4497804 C15.8525346,30.5839868 15.2995392,31.2081278 15.2995392,31.2081278 C15.2995392,31.2081278 15.8878379,31.1852211 16.1225645,31.21756 C17.8885386,31.4619883 19.0187835,32.4968335 19.7482955,34.0647317 C20.1422912,34.9112027 20.4365753,35.7883957 20.6467782,36.7049344 Z M58.529388,46.5890533 C58.0556229,46.7286496 58.1944108,47.2288248 58.0804161,47.5236478 C57.8411081,48.1415905 57.7599914,48.8293314 57.7254965,49.5300078 C57.6885763,50.2756892 57.5519444,51.0232571 57.5589511,51.7896893 C57.5732342,53.312313 57.7284609,54.8486808 57.4236667,56.3551351 C57.0903064,58.0036112 56.9450508,59.7197294 56.0007546,61.1849516 C55.5649877,61.8611044 55.0931091,62.5181233 54.471124,63.0495594 C54.2153772,63.2681165 54.0957232,63.5400329 53.9828065,63.8844423 C53.7019969,64.7403455 53.3160859,65.6382893 52.481203,66.0797154 C51.6096693,66.5408144 51.1210823,67.3374296 50.5775191,68.0445738 C50.0183254,68.7716603 49.524618,69.5448298 48.8662517,70.1991538 C48.6212844,70.4425041 48.1421295,71.1523432 48.1421295,71.1523432 C48.1421295,71.1523432 48.3092139,71.4037783 48.4598593,71.6498235 C48.5593015,71.813135 48.5102541,72.1066106 48.4512356,72.3187 C48.3639206,72.6334654 48.3482901,72.9509257 48.3464036,73.2664996 C48.3396664,74.5991322 48.0615517,75.8484922 47.4546582,77.0533862 C47.1824723,77.5937155 46.8642035,78.186865 46.9728084,78.8552025 C47.0188913,79.1400544 46.8078799,79.3941844 46.6868785,79.5106045 C46.5726143,79.6197483 46.2637777,79.9218476 46.2637777,79.9218476 C46.2637777,79.9218476 45.8369041,82.3715202 45.5121675,83.6130649 C45.4717439,83.7658663 45.5062387,83.9472337 45.4399439,84.0825181 C45.2874121,84.3924327 44.7327997,84.696149 44.6312017,85.0203466 C44.1978602,86.404452 44.5592476,87.905786 43.9712184,89.2448864 C43.3376452,90.6877409 42.659067,92.1173902 41.5622389,93.2667691 C40.7761339,94.0903334 39.821597,94.6473711 38.5865201,94.5145121 C37.7492117,94.4245021 37.0881505,94.1067723 36.7491309,93.3101571 C36.122834,91.8371197 36.1037001,90.3584229 36.7291886,88.8678686 C37.1557927,87.8513488 37.7721185,86.9714609 38.4447678,86.1061255 C38.842267,85.5946317 39.0732207,84.9500094 39.3545692,84.3538955 C39.4623656,84.1256367 39.4844638,83.8529118 39.3497184,83.6238446 C39.1661951,83.3115046 39.2308729,83.0732746 39.478535,82.8366615 C39.6822702,82.6420891 39.6793058,82.3871507 39.6159754,82.1332902 C39.3669658,81.1353653 39.4389199,80.1757081 39.7429057,79.1794001 C40.0776134,78.082572 39.8485461,76.9741558 39.4373029,75.9102056 C38.8002264,74.2622686 38.4253645,72.5768723 38.56011,70.7852966 C38.678147,69.2101221 39.315493,67.7987981 39.7709327,66.3236047 C40.1137252,65.2141105 40.6699545,64.1881586 40.9157302,63.0393187 C40.9922656,62.6827822 41.3005632,61.8460129 41.3005632,61.8460129 C41.3005632,61.8460129 40.7176544,61.3854529 40.5322446,61.0157113 C40.4400787,61.5220848 40.1848708,61.7678605 39.924812,62.0082464 C39.2807287,62.6043604 38.7619587,63.284825 38.3477511,64.0676961 C37.9367774,64.844369 36.6715175,65.2391732 35.9503598,64.7158218 C35.527259,64.4086022 34.6953405,63.8238068 34.6953405,63.8238068 C34.6953405,63.8238068 33.7502358,64.5587086 33.2290403,64.9537823 C32.3378338,65.6285876 31.5045679,66.3874741 30.5931495,67.0175439 C29.079958,68.0645161 28.037567,69.5663891 26.6841836,70.758617 C26.3360013,71.0652977 26.1096289,71.4525561 26.0252782,71.9263212 C25.9236802,72.496025 25.6657773,73.0129086 25.3318781,73.4761635 C25.068316,73.8418627 25.1321853,74.2506805 25.0486431,74.6274288 C24.5449646,76.9038187 24.3770717,77.444687 23.0697712,79.0546258 C22.5892689,79.8170157 21.8961382,80.3538416 21.2057024,81.0173283 C20.6748053,81.5274746 20.4875091,81.8365807 20.0873151,82.2052443 C18.4730644,83.6904088 17.0388336,85.3421187 15.7479721,87.101086 C14.8535317,88.3199935 12.9390681,91.5509203 12.9390681,91.5509203 C12.9390681,91.5509203 12.8959496,91.9249737 13.0099442,92.5146199 C13.0390492,92.6633789 12.8900208,92.8059396 12.7488075,92.8927157 C12.4774301,93.0592611 12.4008947,93.3265961 12.4421268,93.6036327 C12.5227046,94.1442315 12.3421457,94.6422508 12.2321934,95.1483548 C12.0535209,95.9721885 11.5250492,96.4252028 10.683968,96.5580618 C9.96550516,96.671248 9.26860161,96.9065136 8.52965748,96.9175627 C8.24750047,96.9218746 8.06397715,97.0838386 8.06020427,97.3942922 C8.04619075,98.4625542 7.48376317,99.0460021 6.46508745,99.2963592 C4.96132805,99.6658312 3.47373811,99.8633681 1.96243296,99.3216913 C0.260867222,98.7118333 -0.146872558,97.6079985 0.68854933,96.016385 C1.54472202,94.3848869 3.03365942,93.4411297 4.44848681,92.4194896 C4.94569758,92.0605277 5.40922198,91.5837982 6.1247204,91.5899965 C6.33627078,91.5916134 7.08006576,91.0283774 7.08006576,91.0283774 C7.08006576,91.0283774 6.06758833,91.0286469 5.74689412,91.024335 C5.35640176,91.0186757 5.01226184,90.8836608 5.02384995,90.4899345 C5.03382111,90.1533403 5.35990514,89.999461 5.72695179,90.0059288 C6.45673323,90.0188644 7.18678416,90.0026949 7.91656561,90.0121271 C8.22728865,90.0159 8.50863718,90.0207508 8.60969628,89.6318754 C8.64095723,89.5114129 8.7934891,89.4262538 8.84038052,89.3052524 C9.57339586,87.4198938 10.6187512,85.6752095 11.234538,83.7311019 C11.7139623,82.2168324 12.4432048,80.7834101 12.8970275,79.2548576 C13.6338157,76.7752715 14.6476406,74.4166869 15.9969817,72.214946 C16.76018,70.9693589 17.47487,69.6655618 18.6350284,68.7177621 C19.7334735,67.8208963 20.3417145,66.6017194 20.9087234,65.3550543 C21.1555771,64.8122996 21.4016223,64.2827499 21.8204112,63.8432102 C22.1063411,63.5429973 22.2645323,63.1568168 22.4251489,62.777643 C23.6677716,59.8439648 25.2626189,57.0843776 26.6588514,54.2261568 C27.1840893,53.1511575 27.9397418,52.2284205 28.7916027,51.397041 C29.4677554,50.7373272 30.1616946,50.1002506 30.3621958,49.1273884 C30.4096262,48.8967041 30.5454496,48.7598027 30.6901663,48.6312556 C31.14345,48.2272887 31.5468779,47.8149675 31.3908427,47.1283046 C31.3660495,47.0172744 31.3986579,46.8898052 31.500256,46.8208155 C32.213329,46.3373487 32.3707117,45.5164794 32.762282,44.8319724 C32.8787021,44.6290457 33.0859407,44.3299108 33.0859407,44.3299108 C33.0859407,44.3299108 32.6512518,44.1366858 32.512464,44.0954537 C30.5723987,43.5198211 28.8134314,42.4863233 26.8674374,41.9209314 C24.7710675,41.3118819 22.7889617,41.4609103 20.9111488,42.5938502 C20.2783841,42.9754494 19.5154553,43.1333711 19.0020751,43.7240952 C18.8754143,43.8701593 18.6687148,43.8801304 18.498127,43.7658663 C18.2793004,43.6195327 18.2704072,43.1228609 18.4248255,42.9538901 C18.8433449,42.494947 18.7234215,42.3566982 18.7234215,42.3566982 C18.7234215,42.3566982 18.3973374,42.6976042 18.0655941,42.9202037 C17.3870159,43.3756434 16.5904007,43.6324683 15.8053736,43.8240763 C13.9949336,44.2663109 12.3461881,43.7707171 10.7968847,42.8124074 C9.67095157,42.1157733 8.81073652,41.2065109 8.45554747,39.9089121 C8.42132212,39.7835988 8.29277495,39.4459266 8.29277495,39.4459266 C8.29277495,39.4459266 7.90605546,39.3179185 7.75433207,39.1284663 C7.44899884,38.7468672 7.399682,38.3625731 7.36249225,37.8367963 C7.30482119,37.0180828 7.47433099,36.5491686 7.68642035,36.3952893 C7.68642035,36.3952893 7.37461934,36.1764627 7.18947907,35.929609 C6.91486781,35.5639098 6.95232705,35.1146684 7.18139435,34.6417118 C7.73007788,33.5103889 8.51941682,32.5334842 9.11795618,31.4380036 C9.54509931,30.6564799 10.3640822,30.296979 11.056135,29.8630986 C12.8269599,28.7525265 14.0307759,27.1485165 15.2176139,25.5040828 C16.7232598,23.4184925 18.1464414,21.2647209 20.2751502,19.7148786 C20.9976554,19.1891018 21.6085914,18.4213221 22.482281,18.2205514 C23.923249,17.8890775 25.1135904,17.0738675 26.4190045,16.4801789 C27.1568707,16.1443932 28.3097529,15.7245264 28.9201498,15.4041017 C29.1977255,15.2585765 29.3163015,15.0168432 29.3163015,15.0168432 C29.3163015,15.0168432 31.4444714,14.516129 32.2567171,13.9995149 C33.0182984,13.5155092 33.9135473,13.6286954 34.7282184,13.7084647 C35.3580187,13.7701781 35.9393106,13.5747972 36.2980031,13.2896758 C36.8469561,12.853909 37.3775837,12.9034953 37.9510604,12.8929852 C38.7816315,12.8778937 38.7536044,12.5585469 38.7536044,12.5585469 C38.7536044,12.5585469 38.7519875,12.2882475 38.6603606,12.0548684 C38.5843641,11.8611044 38.4280594,11.7080335 38.3283478,11.6137117 C37.6707899,10.9933436 37.6497696,9.94152047 37.3977956,9.07834101 C37.2215485,8.47333387 37.0256286,7.84272509 37.8675183,7.3907888 C38.188482,7.21804511 38.1663837,6.53865847 38.083111,6.04710701 C37.8141591,4.45252917 38.4172798,3.01102218 39.1174172,1.68108443 C39.6275635,0.711995041 40.7720915,0.462446439 41.8390061,0.345487374 C43.3923518,0.175438596 44.9378823,0.274072277 46.4076859,0.807933813 C47.1862452,1.0906298 47.9249198,1.53798475 48.4377611,2.27746786 C49.4914706,3.7979357 49.2486593,5.59382327 49.3869081,7.27436872 C49.4162826,7.63090522 49.3809793,7.96561296 49.895168,8.07987711 C50.2420029,8.15668203 50.2570943,8.58139974 50.2139758,8.90236344 C50.0999811,9.74991242 50.2274503,10.6101275 49.8728003,11.4528256 C49.7954564,11.6368879 49.748565,11.7859164 49.733204,11.9133856 C49.7156871,12.0564853 49.5291993,12.437276 49.5291993,12.437276 C49.5291993,12.437276 50.1145336,12.6075943 50.4398092,12.8196836 C51.0380791,13.209637 51.6837793,13.5491956 51.8640688,14.3794971 C51.93225,14.693993 52.3936185,14.8416741 52.705689,15.0082195 C53.817339,15.6005605 54.5190934,16.4941925 55.0645431,17.6381815 C55.5604064,18.6792249 55.9743445,19.8110869 56.8555798,20.6341122 C57.0369472,20.8033525 57.0633573,21.0000808 57.0153879,21.1919584 C56.7725766,22.1613173 56.8666289,23.1039966 57.1479775,24.0507182 C57.2714043,24.4651952 57.4592395,24.860269 57.6346781,25.2372868 C58.1752769,26.3985232 58.2275581,27.5772765 58.0343331,28.8034603 C57.9658824,29.2370712 58.2421107,29.6499313 58.2437276,30.029644 C58.2501954,31.5482254 58.4038052,33.0713881 58.0642466,34.5899695 C57.8871911,35.3828119 57.6147358,36.1883203 57.5716172,36.9711914 C57.5155631,37.9831299 57.4619344,39.0282157 57.6608187,40.0525507 C57.8109252,40.8257202 57.8012235,41.6452421 58.0510416,42.3801439 C58.3620341,43.2972215 58.2251327,44.2081009 58.2776835,45.1222141 C58.2876546,45.2949578 58.232409,45.5143234 58.529388,45.4941116 L58.529388,46.5890533 Z" id="Shape"></path>
        </g>
    </g>
</svg>
