<svg viewBox="0 0 100 100" version="1.1" xmlns="http://www.w3.org/2000/svg" xmlns:xlink="http://www.w3.org/1999/xlink">
    <title>Sports/Resources/Courts/Vollyball</title>
    <defs>
        <path d="M50,0 C22.3484375,0 0,22.3419922 0,50 C0,77.6523438 22.3425781,100 50,100 C77.6513672,100 100,77.6585937 100,50 C100,22.3482422 77.6585937,0 50,0 Z M54.0878906,44.6796875 C50.46875,39.8472656 48.1568359,34.15625 47.3707031,28.2 C61.5935547,24.4421875 77.3751953,26.0736328 91.0650391,33.8091797 C93.0496094,38.8246094 94.140625,44.2871094 94.140625,50 C94.140625,52.76875 93.8816406,55.4779297 93.3917969,58.1068359 C83.378125,46.5029297 68.2863281,41.7732422 54.0878906,44.6796875 L54.0878906,44.6796875 Z M34.2037109,57.1650391 C25.1148437,44.2064453 21.9925781,28.7488281 24.4197266,14.0466797 C30.3955078,9.78261719 37.4748047,6.97207031 45.1378906,6.12851563 C38.6195312,19.8945313 40.3933594,35.8888672 49.1230469,47.8238281 C44.9746094,52.1970703 39.8382812,55.3873047 34.2037109,57.1650391 Z M86.4128906,25.0796875 C73.8410156,20.0083984 60.0669922,19.0716797 47.0992187,22.2248047 C47.3289062,16.4595703 48.9662109,10.86875 51.8794922,5.90214844 C66.2037109,6.50546875 78.7830078,13.9658203 86.4128906,25.0796875 Z M17.89375,19.7414063 C17.0890625,33.1367188 20.3667969,46.6486328 28.0464844,58.5113281 C20.4214844,59.4730469 12.7033203,57.925 6.04824219,54.0648438 C5.92539062,52.7257813 5.859375,51.3707031 5.859375,50 C5.859375,38.2994141 10.4371094,27.6490234 17.89375,19.7414063 Z M7.31679687,61.259375 C23.5201172,68.3042969 42.6472656,64.2052734 54.5386719,50.5736328 C61.2453125,49.0511719 68.3513672,49.515625 74.8832031,52.0087891 C64.1626953,71.2615234 42.8230469,83.6175781 19.7298828,82.0953125 C13.8234375,76.521875 9.45039062,69.3410156 7.31679687,61.259375 Z M50,94.140625 C41.7919922,94.140625 34.1015625,91.8861328 27.5111328,87.9675781 C49.7052734,86.6365234 69.5412109,73.9275391 80.1714844,54.5535156 C84.5984375,57.1667969 88.4611328,60.7658203 91.45,65.1822266 C85.2466797,82.0646484 69.0072266,94.140625 50,94.140625 L50,94.140625 Z" id="path-1"></path>
    </defs>
    <g id="Sports/Resources/Courts/Vollyball" stroke="none" stroke-width="1" fill="none" fill-rule="evenodd">
        <mask id="mask-2" fill="white">
            <use xlink:href="#path-1"></use>
        </mask>
        <use id="Shape" fill="#000000" fill-rule="nonzero" opacity="0" xlink:href="#path-1"></use>
        <g id="Group" mask="url(#mask-2)" fill="#000000">
            <g id="Colour/Black">
                <rect id="Rectangle" x="0" y="0" width="100" height="100"></rect>
            </g>
        </g>
    </g>
</svg>
