<svg width="24" height="24" viewBox="0 0 24 24" fill="none" xmlns="http://www.w3.org/2000/svg">
<path d="M0.47403 11.6464C0.657141 12.2791 0.872697 12.877 1.09759 13.4455C1.32366 14.0141 1.55773 14.5542 1.79329 15.0726L1.83536 15.165L1.86588 15.2289L1.92618 15.3542C1.96781 15.4365 2.00381 15.5169 2.03729 15.5957C2.07507 15.6736 2.10751 15.7498 2.13862 15.8252C2.17018 15.8996 2.20292 15.9727 2.22914 16.045C2.34366 16.3332 2.43818 16.607 2.50307 16.9139C2.56736 17.2191 2.59522 17.559 2.58025 17.9172C2.56633 18.2747 2.51003 18.6446 2.43566 18.993C2.39655 19.1656 2.3604 19.3403 2.31344 19.4966C2.27107 19.6578 2.22736 19.8105 2.18262 19.9485C2.09833 20.231 2.01536 20.4609 1.95936 20.6264C1.92988 20.7099 1.90722 20.7741 1.89196 20.8173C1.87536 20.8612 1.86692 20.8839 1.86692 20.8839C1.86692 20.8839 1.89107 20.8873 1.93818 20.8941C1.98544 20.9003 2.0564 20.9089 2.14618 20.9114C2.3284 20.9206 2.58929 20.9114 2.91922 20.8597C3.08159 20.8307 3.26173 20.7916 3.45522 20.7356C3.64396 20.6744 3.85522 20.6058 4.06855 20.507C4.4967 20.3114 4.96529 20.0242 5.41625 19.5959C5.86633 19.1704 6.29566 18.5947 6.60085 17.8816C6.90722 17.1717 7.07329 16.329 7.05373 15.4843C7.04796 15.2733 7.03359 15.0628 7.01048 14.8527C6.98277 14.6447 6.94899 14.4366 6.90677 14.2323C6.86085 14.0289 6.80825 13.8276 6.7487 13.6308C6.71936 13.5319 6.68633 13.4342 6.65196 13.3388L6.59981 13.1947L6.55581 13.0802C6.32973 12.4938 6.07388 11.9205 5.81062 11.3756C5.28277 10.2849 4.71566 9.31008 4.29714 8.51808C4.08425 8.1206 3.90944 7.7726 3.7727 7.44771C3.63744 7.12341 3.53773 6.81156 3.49329 6.47334C3.44633 6.13675 3.46144 5.78075 3.5044 5.4363C3.53196 5.26815 3.5607 5.1003 3.59536 4.94267C3.63255 4.78727 3.6687 4.63704 3.70588 4.50045C3.78144 4.22771 3.85285 4.00297 3.89996 3.84534C3.94751 3.68549 3.97314 3.60001 3.97314 3.60001C3.97314 3.60001 3.88366 3.61097 3.71729 3.64134C3.55433 3.6763 3.31299 3.72978 3.0204 3.84164C2.87373 3.89704 2.71033 3.96386 2.5407 4.05364C2.36825 4.1409 2.1841 4.24741 1.99699 4.38119C1.61773 4.6446 1.21181 5.02045 0.861438 5.54534C0.509438 6.06608 0.235512 6.74164 0.10603 7.46297C-0.0264142 8.1843 -0.0244883 8.93334 0.0552154 9.63719C0.135364 10.3446 0.291364 11.0133 0.47403 11.6464Z" fill="#231F20"/>
<path d="M8.88056 11.6464C9.06367 12.2791 9.27923 12.877 9.50397 13.4455C9.73004 14.0141 9.96412 14.5542 10.1997 15.0726L10.2417 15.165L10.2723 15.2289L10.3326 15.3542C10.3742 15.4365 10.4102 15.5169 10.4437 15.5957C10.4814 15.6736 10.5139 15.7498 10.545 15.8252C10.5766 15.8996 10.6093 15.9727 10.6355 16.045C10.75 16.3332 10.8446 16.607 10.9094 16.9139C10.9737 17.2191 11.0017 17.559 10.9866 17.9172C10.9727 18.2747 10.9164 18.6446 10.842 18.993C10.8029 19.1656 10.7668 19.3403 10.7198 19.4966C10.6774 19.6578 10.6337 19.8105 10.589 19.9485C10.5047 20.231 10.4219 20.4609 10.3657 20.6264C10.3363 20.7099 10.3136 20.7741 10.2983 20.8173C10.2817 20.8612 10.2733 20.8839 10.2733 20.8839C10.2733 20.8839 10.2976 20.8873 10.3446 20.8941C10.3918 20.9003 10.4628 20.9089 10.5526 20.9114C10.7348 20.9206 10.9957 20.9114 11.3256 20.8597C11.488 20.8307 11.6681 20.7916 11.8616 20.7356C12.0503 20.6744 12.2616 20.6058 12.4749 20.507C12.9031 20.3114 13.3717 20.0242 13.8226 19.5959C14.2727 19.1704 14.702 18.5947 15.0072 17.8816C15.3136 17.1717 15.4797 16.329 15.4601 15.4843C15.4545 15.2733 15.44 15.0628 15.4169 14.8527C15.3892 14.6447 15.3554 14.4366 15.3132 14.2323C15.2672 14.0289 15.2146 13.8276 15.1551 13.6308C15.1257 13.5319 15.0927 13.4342 15.0583 13.3388L15.0062 13.1947L14.9622 13.0802C14.7361 12.4938 14.4803 11.9205 14.217 11.3756C13.689 10.2849 13.122 9.31008 12.7035 8.51808C12.4906 8.1206 12.3158 7.7726 12.1791 7.44771C12.0437 7.12341 11.9441 6.81156 11.8997 6.47334C11.8527 6.13675 11.8678 5.78075 11.9108 5.4363C11.9383 5.26815 11.9671 5.1003 12.0017 4.94267C12.0389 4.78727 12.0751 4.63704 12.1123 4.50045C12.1878 4.22771 12.2592 4.00297 12.3063 3.84534C12.354 3.68549 12.3798 3.60001 12.3798 3.60001C12.3798 3.60001 12.2903 3.61097 12.124 3.64134C11.961 3.6763 11.7197 3.72978 11.4271 3.84164C11.2803 3.89704 11.1169 3.96386 10.9472 4.05364C10.7748 4.1409 10.5906 4.24741 10.4035 4.38119C10.0243 4.6446 9.61834 5.02045 9.26797 5.54534C8.91597 6.06608 8.64204 6.74164 8.51256 7.46297C8.38012 8.1843 8.38204 8.93334 8.46189 9.63719C8.54204 10.3446 8.69804 11.0133 8.88056 11.6464Z" fill="#231F20"/>
<path d="M17.2872 11.6464C17.4703 12.2791 17.6859 12.877 17.9108 13.4455C18.1369 14.0141 18.3709 14.5542 18.6065 15.0726L18.6486 15.165L18.6791 15.2289L18.7394 15.3542C18.781 15.4365 18.817 15.5169 18.8505 15.5957C18.8883 15.6736 18.9207 15.7498 18.9518 15.8252C18.9834 15.8996 19.0161 15.9727 19.0423 16.045C19.1569 16.3332 19.2514 16.607 19.3163 16.9139C19.3806 17.2191 19.4086 17.559 19.3935 17.9172C19.3795 18.2747 19.3232 18.6446 19.2489 18.993C19.2097 19.1656 19.1736 19.3403 19.1266 19.4966C19.0843 19.6578 19.0406 19.8105 18.9958 19.9485C18.9115 20.231 18.8286 20.4609 18.7726 20.6264C18.7431 20.7099 18.7204 20.7741 18.7052 20.8173C18.6886 20.8612 18.6801 20.8839 18.6801 20.8839C18.6801 20.8839 18.7044 20.8873 18.7514 20.8941C18.7986 20.9003 18.8696 20.9089 18.9594 20.9114C19.1416 20.9206 19.4025 20.9114 19.7324 20.8597C19.8948 20.8307 20.0749 20.7916 20.2684 20.7356C20.4572 20.6744 20.6684 20.6058 20.8817 20.507C21.3099 20.3114 21.7785 20.0242 22.2295 19.5959C22.6795 19.1704 23.1089 18.5947 23.414 17.8816C23.7204 17.1717 23.8865 16.329 23.8669 15.4843C23.8612 15.2733 23.8468 15.0628 23.8237 14.8527C23.796 14.6447 23.7622 14.4366 23.72 14.2323C23.674 14.0289 23.6215 13.8276 23.5619 13.6308C23.5326 13.5319 23.4995 13.4342 23.4652 13.3388L23.413 13.1947L23.369 13.0802C23.1429 12.4938 22.8871 11.9205 22.6238 11.3756C22.0958 10.2849 21.5289 9.31008 21.1103 8.51808C20.8976 8.1206 20.7226 7.7726 20.5859 7.44771C20.4506 7.12341 20.3508 6.81156 20.3065 6.47334C20.2595 6.13675 20.2746 5.78075 20.3176 5.4363C20.3452 5.26815 20.3739 5.1003 20.4086 4.94267C20.4457 4.78727 20.4819 4.63704 20.5191 4.50045C20.5946 4.22771 20.666 4.00297 20.7132 3.84534C20.7607 3.68549 20.7863 3.60001 20.7863 3.60001C20.7863 3.60001 20.6969 3.61097 20.5305 3.64134C20.3675 3.6763 20.1262 3.72978 19.8336 3.84164C19.6868 3.89704 19.5234 3.96386 19.3537 4.05364C19.1813 4.1409 18.9972 4.24741 18.8099 4.38119C18.4306 4.6446 18.0247 5.02045 17.6743 5.54534C17.3223 6.06608 17.0484 6.74164 16.9189 7.46297C16.7865 8.1843 16.7884 8.93334 16.8683 9.63719C16.9486 10.3446 17.1046 11.0133 17.2872 11.6464Z" fill="#231F20"/>
</svg>
